<svg xmlns="http://www.w3.org/2000/svg" viewBox="0 0 206.57 539.04"><defs><style>.cls-1{fill:#a1c5d3;}.cls-1,.cls-2,.cls-3,.cls-4,.cls-5{stroke:#000;stroke-linecap:round;stroke-linejoin:round;stroke-width:0.1px;}.cls-2{fill:#8baab9;}.cls-3{fill:#d1d3d4;}.cls-4{fill:#e6e7e8;}.cls-5{fill:#79949b;}</style></defs><title>Asset 1</title><g id="Layer_2" data-name="Layer 2"><g id="Layer_1-2" data-name="Layer 1"><path class="cls-1" d="M110.46,155.05s-.08-4.79-.17-10.82h0l-.35-21.93a28.22,28.22,0,0,0-.64-4c0-.2-.1-.4-.15-.61s-.07-.24-.11-.37-.11-.4-.19-.61a14.33,14.33,0,0,0-.82-2c-2.5-4.86-6.57-7.6-9.87-7.55a4.63,4.63,0,0,0-.92.1,29.77,29.77,0,0,1,4.49-1.18c3.3,0,7.37,2.69,9.87,7.55a21.68,21.68,0,0,1,1.91,7.61l.35,21.93h0c.1,6,.17,10.78.17,10.82,0,2.71-.92,5.29-2.83,6.28a33.17,33.17,0,0,1-4,1.26,3,3,0,0,0,.41-.18C109.54,160.34,110.49,157.75,110.46,155.05Z"/><path class="cls-2" d="M93.1,113.94c0,.08.52,32.76.52,32.76a21.79,21.79,0,0,0,1.91,7.61c2.5,4.86,6.57,7.6,9.87,7.55a5.26,5.26,0,0,0,1.82-.35,3,3,0,0,0,.41-.18c1.91-1,2.87-3.57,2.83-6.28,0,0-.52-32.76-.52-32.76a28.22,28.22,0,0,0-.64-4c0-.2-.1-.4-.15-.61s-.07-.24-.11-.37-.11-.4-.19-.61a14.33,14.33,0,0,0-.82-2c-2.5-4.86-6.57-7.6-9.87-7.55a4.63,4.63,0,0,0-.92.1,4.58,4.58,0,0,0-1.31.43C94,108.65,93.07,111.24,93.1,113.94Zm6,31.46c2-1,4.83.88,6.41,4.11s1.27,6.63-.69,7.59S100,156.22,98.4,153,97.13,146.36,99.09,145.4Zm-.76-32.66c2-1,4.83.88,6.41,4.11s1.27,6.63-.69,7.59-4.83-.88-6.41-4.11S96.36,113.7,98.33,112.74Z"/><path class="cls-2" d="M99.09,145.4a2.63,2.63,0,0,1,1.39-.24,7.71,7.71,0,0,0,.6,6.11c1.24,2.53,3.26,4.2,5,4.35a2.78,2.78,0,0,1-1.3,1.47c-2,1-4.83-.88-6.41-4.11S97.13,146.36,99.09,145.4Z"/><path class="cls-2" d="M98.33,112.74a2.63,2.63,0,0,1,1.39-.24,7.71,7.71,0,0,0,.6,6.11c1.24,2.53,3.26,4.2,5,4.35a2.78,2.78,0,0,1-1.3,1.47c-2,1-4.83-.88-6.41-4.11S96.36,113.7,98.33,112.74Z"/><path class="cls-3" d="M90.13,138.06l11.29-4.7c1.06-.24,2.4.79,3.1,2.46s.5,3.35-.42,3.93l-11.3,4.68c-1,.2-2.36-.83-3-2.47S89.25,138.67,90.13,138.06Z"/><path class="cls-2" d="M145.17,65.83s-.61-4.66-1.38-10.53h0L141,34a26.86,26.86,0,0,1,.05-4c0-.2,0-.4.06-.61s0-.25,0-.37.05-.41.09-.62a13.91,13.91,0,0,1,.51-2.07c1.74-5.07,5.29-8.31,8.5-8.73a5.59,5.59,0,0,1,.91,0,29.08,29.08,0,0,0-4.52-.51c-3.21.42-6.77,3.66-8.5,8.73a21.51,21.51,0,0,0-.77,7.65l2.79,21.33h0c.77,5.86,1.37,10.49,1.38,10.53.36,2.63,1.65,5,3.64,5.69a33.55,33.55,0,0,0,4,.66l-.42-.11C146.82,70.84,145.52,68.46,145.17,65.83Z"/><path class="cls-1" d="M152.51,17.79a4.27,4.27,0,0,0-1.33-.23,5.59,5.59,0,0,0-.91,0c-3.21.42-6.77,3.66-8.5,8.73a13.91,13.91,0,0,0-.51,2.07c0,.21-.06.41-.09.62s0,.25,0,.37-.05.41-.06.61a26.87,26.87,0,0,0-.05,4s4.16,31.81,4.16,31.86c.36,2.63,1.65,5,3.64,5.69a3.25,3.25,0,0,0,.42.11,5,5,0,0,0,1.82.08c3.21-.42,6.77-3.66,8.5-8.73a21.51,21.51,0,0,0,.77-7.65l-4.16-31.86C155.8,20.85,154.5,18.47,152.51,17.79Zm4.07,44.33c-1.07,3.36-3.6,5.56-5.64,4.9s-2.83-3.9-1.75-7.26,3.6-5.56,5.64-4.9S157.65,58.76,156.58,62.12Zm-3.91-31.8c-1.07,3.36-3.6,5.56-5.64,4.9s-2.83-3.9-1.75-7.26,3.6-5.56,5.64-4.9S153.74,27,152.67,30.32Z"/><path class="cls-2" d="M154.82,54.86a2.58,2.58,0,0,0-1.38,0,7.55,7.55,0,0,1,.29,6c-.84,2.63-2.57,4.54-4.25,4.94A2.68,2.68,0,0,0,151,67c2,.65,4.56-1.54,5.64-4.9S156.87,55.51,154.82,54.86Z"/><path class="cls-2" d="M150.91,23.06a2.58,2.58,0,0,0-1.38,0,7.55,7.55,0,0,1,.29,6c-.84,2.63-2.57,4.54-4.25,4.94A2.68,2.68,0,0,0,147,35.23c2,.65,4.56-1.54,5.64-4.9S153,23.71,150.91,23.06Z"/><path class="cls-1" d="M186.57,164.13s-.66-4.67-1.49-10.55h0l-3-21.37a29,29,0,0,0-1.11-3.84c-.06-.19-.14-.38-.22-.57l-.15-.35c-.09-.19-.16-.38-.26-.57a13.37,13.37,0,0,0-1-1.86c-3-4.44-7.34-6.62-10.56-6.16a5.24,5.24,0,0,0-.89.21,28.67,28.67,0,0,1,4.24-1.7c3.22-.45,7.52,1.72,10.56,6.16a21.34,21.34,0,0,1,2.79,7.19l3,21.37h0c.83,5.88,1.49,10.51,1.49,10.55.36,2.64-.25,5.28-2,6.48a33.11,33.11,0,0,1-3.73,1.72c.13-.07.26-.14.38-.22C186.32,169.41,186.93,166.76,186.57,164.13Z"/><path class="cls-2" d="M164.59,126.11,169.11,158a21.48,21.48,0,0,0,2.79,7.19c3,4.44,7.34,6.62,10.56,6.16a5,5,0,0,0,1.73-.57c.13-.07.26-.14.38-.22,1.75-1.2,2.36-3.84,2-6.48,0,0-4.52-31.92-4.52-31.92a29,29,0,0,0-1.11-3.84c-.06-.19-.14-.38-.22-.57l-.15-.35c-.09-.19-.16-.38-.26-.57a13.37,13.37,0,0,0-1.05-1.86c-3-4.44-7.34-6.62-10.56-6.16a5.24,5.24,0,0,0-.89.21,4.72,4.72,0,0,0-1.22.58C164.84,120.83,164.23,123.47,164.59,126.11Zm9.7,30c1.8-1.18,4.83.27,6.77,3.23s2.05,6.32.25,7.49-4.83-.27-6.77-3.23S172.49,157.28,174.29,156.1Zm-4.75-31.8c1.8-1.18,4.83.27,6.77,3.23s2.05,6.32.25,7.49-4.83-.27-6.77-3.23S167.75,125.48,169.54,124.3Z"/><path class="cls-2" d="M174.29,156.1a2.53,2.53,0,0,1,1.33-.4,7.56,7.56,0,0,0,1.34,5.9c1.52,2.32,3.7,3.7,5.44,3.63a2.78,2.78,0,0,1-1.08,1.6c-1.8,1.18-4.83-.27-6.77-3.23S172.49,157.28,174.29,156.1Z"/><path class="cls-2" d="M169.54,124.3a2.53,2.53,0,0,1,1.33-.4,7.56,7.56,0,0,0,1.34,5.9c1.52,2.32,3.7,3.7,5.44,3.63a2.78,2.78,0,0,1-1.08,1.6c-1.8,1.18-4.83-.27-6.77-3.23S167.75,125.48,169.54,124.3Z"/><path class="cls-4" d="M172,123l.05.33c.12.81-1.2,2.78-4.75,3.29-3.88.56-5.37-1-5.48-1.81l-.07-.46A10.2,10.2,0,1,0,172,123Z"/><path class="cls-4" d="M164.69,71.21l-.06.05-.23.19a10,10,0,0,1-4.6,1.88,10.14,10.14,0,0,1-5.07-.56l-.26-.11,6.34,45,.16,1.08.82,5.69.07.46c.12.81,1.61,2.37,5.48,1.81,3.55-.51,4.87-2.47,4.75-3.29L172,123l-.84-5.81-.16-1.08L164.7,71.2h0Z"/><path class="cls-4" d="M168.45,61.78a10.2,10.2,0,1,0-14.06,10.84l.07,0h0l.26.11a10,10,0,0,0,5.07.56,10.24,10.24,0,0,0,4.6-1.88l.23-.19.06-.05h0A10.19,10.19,0,0,0,168.45,61.78Z"/><path class="cls-4" d="M198.36,220.52l.11.32c.28.77-.62,3-4,4.17-3.69,1.32-5.46.09-5.73-.69l-.16-.43a10.19,10.19,0,1,0,9.78-3.37Z"/><path class="cls-4" d="M180.84,171.21l-.05.06-.19.23a10.2,10.2,0,0,1-9.21,3.22l-.27-.06,15.17,42.79.37,1,1.93,5.41.16.43c.28.77,2.05,2,5.73.69,3.38-1.21,4.28-3.39,4-4.17l-.11-.32-2-5.53-.37-1-15.16-42.78h0Z"/><path class="cls-4" d="M182.64,161.22A10.2,10.2,0,1,0,171,174.65l.08,0h0l.27.06a10.2,10.2,0,0,0,9.21-3.22,2.11,2.11,0,0,0,.19-.23l.05-.06h0A10.21,10.21,0,0,0,182.64,161.22Z"/><path class="cls-4" d="M144.31,30.31l.31-.14c.74-.34,3,.37,4.48,3.62,1.62,3.55.55,5.41-.19,5.75l-.42.19a10.16,10.16,0,1,0-4.18-9.42Z"/><path class="cls-4" d="M149.09,33.79c-1.49-3.25-3.73-4-4.48-3.62l-.31.14L139,32.74l-1,.45L121.4,40.75h0l.07,0,.24.17a10.15,10.15,0,0,1,4,8.87l0,.28,16.6-7.56,1-.45,5.21-2.38.42-.19C149.65,39.2,150.72,37.34,149.09,33.79Z"/><path class="cls-4" d="M124.83,44.84A10.09,10.09,0,0,0,121.74,41l-.24-.17-.07,0a0,0,0,0,1,0,0,10.17,10.17,0,1,0,4.25,9.47s0,0,0-.08h0a2.66,2.66,0,0,0,0-.28A10,10,0,0,0,124.83,44.84Z"/><path class="cls-3" d="M163.58,47.74l-12.16-1.38c-1.08.06-2.08,1.42-2.29,3.22s.45,3.35,1.49,3.66l12.16,1.36c1.06-.1,2-1.45,2.24-3.22S164.59,48.09,163.58,47.74Z"/><path class="cls-2" d="M159.51,70.4s-.61-4.66-1.38-10.53h0l-2.79-21.33a26.86,26.86,0,0,1,0-4c0-.2,0-.4.06-.61s0-.25.05-.37.05-.41.09-.62a13.91,13.91,0,0,1,.51-2.07c1.74-5.07,5.29-8.31,8.5-8.73a5.59,5.59,0,0,1,.91,0,29.08,29.08,0,0,0-4.52-.51c-3.21.42-6.77,3.66-8.5,8.73a21.51,21.51,0,0,0-.77,7.65l2.79,21.33h0c.77,5.86,1.37,10.49,1.38,10.53.36,2.63,1.65,5,3.64,5.69a33.55,33.55,0,0,0,4,.66l-.42-.11C161.16,75.41,159.86,73,159.51,70.4Z"/><path class="cls-1" d="M166.85,22.36a4.27,4.27,0,0,0-1.33-.23,5.59,5.59,0,0,0-.91,0c-3.21.42-6.77,3.66-8.5,8.73A13.91,13.91,0,0,0,155.6,33c0,.21-.06.41-.09.62s0,.25,0,.37-.05.41-.06.61a26.87,26.87,0,0,0-.05,4s4.16,31.81,4.16,31.86c.36,2.63,1.65,5,3.64,5.69a3.25,3.25,0,0,0,.42.11,5,5,0,0,0,1.82.08c3.21-.42,6.77-3.66,8.5-8.73a21.51,21.51,0,0,0,.77-7.65L170.5,28.05C170.14,25.42,168.84,23,166.85,22.36Zm4.07,44.33c-1.07,3.36-3.6,5.56-5.64,4.9s-2.83-3.9-1.75-7.26,3.6-5.56,5.64-4.9S172,63.33,170.92,66.69Zm-8.27-18c.73-2.29,2.45-3.78,3.84-3.34s1.92,2.66,1.19,4.94-2.45,3.78-3.84,3.34S161.92,51,162.65,48.67ZM167,34.89c-1.07,3.36-3.6,5.56-5.64,4.9s-2.83-3.9-1.75-7.26,3.6-5.56,5.64-4.9S168.08,31.53,167,34.89Z"/><path class="cls-2" d="M169.16,59.43a2.58,2.58,0,0,0-1.38,0,7.55,7.55,0,0,1,.29,6c-.84,2.63-2.57,4.54-4.25,4.94a2.68,2.68,0,0,0,1.47,1.24c2,.65,4.56-1.54,5.64-4.9S171.2,60.08,169.16,59.43Z"/><path class="cls-2" d="M166.48,45.34a2,2,0,0,0-1.55.22,5.74,5.74,0,0,1-.1,3.44,5.41,5.41,0,0,1-2.28,3.11,2.16,2.16,0,0,0,1.3,1.5c1.39.44,3.11-1,3.84-3.34S167.87,45.78,166.48,45.34Z"/><path class="cls-2" d="M165.25,27.63a2.58,2.58,0,0,0-1.38,0,7.55,7.55,0,0,1,.29,6c-.84,2.63-2.57,4.54-4.25,4.94a2.68,2.68,0,0,0,1.47,1.24c2,.65,4.56-1.54,5.64-4.9S167.29,28.28,165.25,27.63Z"/><ellipse class="cls-3" cx="165.39" cy="50.52" rx="5.54" ry="3.79" transform="translate(85.89 204.1) rotate(-79.62)"/><ellipse class="cls-3" cx="165.41" cy="50.56" rx="1.53" ry="1.04" transform="translate(85.87 204.15) rotate(-79.62)"/><path class="cls-3" d="M165.3,148.7l11.29-4.7c1.06-.24,2.4.79,3.1,2.46s.5,3.35-.42,3.93L168,155.07c-1.05.2-2.36-.83-3-2.47S164.43,149.31,165.3,148.7Z"/><path class="cls-1" d="M174.2,172.22s-.66-4.67-1.49-10.55h0l-3-21.37a29,29,0,0,0-1.11-3.84c-.06-.19-.14-.38-.22-.57l-.15-.35c-.09-.19-.16-.38-.26-.57a13.37,13.37,0,0,0-1-1.86c-3-4.44-7.34-6.62-10.56-6.16a5.24,5.24,0,0,0-.89.21,28.67,28.67,0,0,1,4.24-1.7c3.22-.45,7.52,1.72,10.56,6.16a21.34,21.34,0,0,1,2.79,7.19l3,21.37h0c.83,5.88,1.49,10.51,1.49,10.55.36,2.64-.25,5.28-2,6.48a33.11,33.11,0,0,1-3.73,1.72c.13-.07.26-.14.38-.22C174,177.5,174.56,174.86,174.2,172.22Z"/><path class="cls-2" d="M152.22,134.21l4.52,31.92a21.48,21.48,0,0,0,2.79,7.19c3,4.44,7.34,6.62,10.56,6.16a5,5,0,0,0,1.73-.57c.13-.07.26-.14.38-.22,1.75-1.2,2.36-3.84,2-6.48,0,0-4.52-31.92-4.52-31.92a29,29,0,0,0-1.11-3.84c-.06-.19-.14-.38-.22-.57l-.15-.35c-.09-.19-.16-.38-.26-.57a13.37,13.37,0,0,0-1.05-1.86c-3-4.44-7.34-6.62-10.56-6.16a5.24,5.24,0,0,0-.89.21,4.72,4.72,0,0,0-1.22.58C152.47,128.93,151.86,131.57,152.22,134.21Zm9.7,30c1.8-1.18,4.83.27,6.77,3.23s2.05,6.32.25,7.49-4.83-.27-6.77-3.23S160.12,165.37,161.92,164.2Zm3.59-7c-1.22.8-3.29-.18-4.6-2.2s-1.4-4.3-.17-5.1,3.29.18,4.6,2.2S166.74,156.35,165.51,157.15Zm-8.33-24.75c1.8-1.18,4.83.27,6.77,3.23s2.05,6.32.25,7.49-4.83-.27-6.77-3.23S155.38,133.58,157.18,132.4Z"/><path class="cls-1" d="M161.92,164.2a2.53,2.53,0,0,1,1.33-.4,7.56,7.56,0,0,0,1.34,5.9c1.52,2.32,3.7,3.7,5.44,3.63a2.78,2.78,0,0,1-1.08,1.6c-1.8,1.18-4.83-.27-6.77-3.23S160.12,165.37,161.92,164.2Z"/><path class="cls-2" d="M160.74,149.85a1.94,1.94,0,0,1,1.56-.2,5.73,5.73,0,0,0,1,3.3,5.4,5.4,0,0,0,3,2.4,2.19,2.19,0,0,1-.85,1.8c-1.22.8-3.29-.18-4.6-2.2S159.51,150.65,160.74,149.85Z"/><path class="cls-1" d="M157.18,132.4a2.53,2.53,0,0,1,1.33-.4,7.56,7.56,0,0,0,1.34,5.9c1.52,2.32,3.7,3.7,5.44,3.63a2.78,2.78,0,0,1-1.08,1.6c-1.8,1.18-4.83-.27-6.77-3.23S155.38,133.58,157.18,132.4Z"/><ellipse class="cls-3" cx="163.41" cy="153.23" rx="3.79" ry="5.54" transform="translate(-51.22 89.08) rotate(-26.52)"/><path class="cls-3" d="M162.72,151.89c.51-.25,1.24.15,1.61.91s.27,1.58-.24,1.83-1.24-.15-1.62-.9S162.21,152.15,162.72,151.89Z"/><path class="cls-2" d="M11.87,95.54S12.35,90.86,13,85h0l2.19-21.4a29.37,29.37,0,0,1,1-3.87c.06-.19.13-.39.2-.58s.09-.23.13-.35.14-.38.23-.58a13,13,0,0,1,1-1.89c2.86-4.54,7.06-6.87,10.28-6.54a5.19,5.19,0,0,1,.89.17,27.47,27.47,0,0,0-4.28-1.53c-3.22-.33-7.42,2-10.28,6.54a21.31,21.31,0,0,0-2.51,7.27L9.55,83.62h0C9,89.5,8.47,94.14,8.47,94.18c-.26,2.64.45,5.25,2.24,6.37a32.79,32.79,0,0,0,3.78,1.57,2.82,2.82,0,0,1-.38-.21C12.33,100.79,11.61,98.18,11.87,95.54Z"/><path class="cls-1" d="M30.07,50.48A4.55,4.55,0,0,0,28.83,50a5.19,5.19,0,0,0-.89-.17c-3.22-.33-7.42,2-10.28,6.54a14.65,14.65,0,0,0-1,1.89c-.09.2-.16.39-.23.58s-.09.23-.13.35-.14.39-.2.58a25.9,25.9,0,0,0-1,3.87s-3.27,31.92-3.27,32c-.26,2.64.45,5.25,2.24,6.37.12.08.25.14.38.21a5.06,5.06,0,0,0,1.75.5c3.22.33,7.42-2,10.28-6.54a21.31,21.31,0,0,0,2.51-7.27s3.27-31.88,3.27-32C32.56,54.21,31.85,51.6,30.07,50.48ZM23.83,94.55c-1.82,3-4.78,4.58-6.61,3.48s-1.85-4.45,0-7.47S22,86,23.79,87.08,25.65,91.53,23.83,94.55Zm3.51-31.84c-1.82,3-4.78,4.58-6.61,3.48s-1.85-4.45,0-7.47,4.78-4.58,6.61-3.48S29.15,59.69,27.34,62.71Z"/><path class="cls-2" d="M23.79,87.08a2.56,2.56,0,0,0-1.34-.35,7.52,7.52,0,0,1-1.1,5.92c-1.42,2.36-3.54,3.83-5.28,3.82A2.73,2.73,0,0,0,17.21,98c1.84,1.1,4.8-.45,6.61-3.48S25.63,88.18,23.79,87.08Z"/><path class="cls-2" d="M27.3,55.24A2.56,2.56,0,0,0,26,54.89a7.52,7.52,0,0,1-1.1,5.92c-1.42,2.36-3.54,3.83-5.28,3.82a2.73,2.73,0,0,0,1.14,1.55c1.84,1.1,4.8-.45,6.61-3.48S29.14,56.34,27.3,55.24Z"/><path class="cls-1" d="M29.56,200.72s.43-4.7,1-10.61h0l2-21.5a28.74,28.74,0,0,0-.2-4c0-.2,0-.4-.08-.61l-.06-.37c0-.21-.07-.41-.12-.62a13.48,13.48,0,0,0-.59-2.05c-1.94-5-5.63-8.13-8.86-8.43a5.53,5.53,0,0,0-.91,0,27.55,27.55,0,0,1,4.51-.68c3.24.3,6.92,3.41,8.86,8.43a21.25,21.25,0,0,1,1.06,7.64l-2,21.5h0c-.54,5.91-1,10.57-1,10.61-.25,2.65-1.46,5.08-3.44,5.84a33.65,33.65,0,0,1-4,.82l.42-.13C28.1,205.8,29.3,203.37,29.56,200.72Z"/><path class="cls-2" d="M16.91,158.67c0,.08-2.95,32.11-2.95,32.11A21.47,21.47,0,0,0,15,198.42c1.94,5,5.63,8.13,8.86,8.43a5,5,0,0,0,1.82-.15l.42-.13c2-.76,3.18-3.19,3.44-5.84,0,0,2.95-32.11,2.95-32.11a28.74,28.74,0,0,0-.2-4c0-.2-.05-.4-.08-.61l-.06-.37c0-.21-.07-.41-.12-.62a13.48,13.48,0,0,0-.59-2.05c-1.94-5-5.63-8.13-8.86-8.43a5.53,5.53,0,0,0-.91,0,4.22,4.22,0,0,0-1.32.29C18.37,153.59,17.16,156,16.91,158.67Zm2.54,31.42c2-.73,4.64,1.37,5.84,4.7s.54,6.62-1.48,7.35-4.64-1.37-5.84-4.7S17.43,190.82,19.45,190.09Zm2.7-32c2-.73,4.64,1.37,5.84,4.7s.54,6.62-1.48,7.35-4.64-1.37-5.84-4.7S20.13,158.78,22.15,158.05Z"/><path class="cls-2" d="M19.45,190.09a2.49,2.49,0,0,1,1.38-.08,7.59,7.59,0,0,0-.06,6.05c.94,2.6,2.75,4.45,4.46,4.79a2.79,2.79,0,0,1-1.42,1.3c-2,.73-4.64-1.37-5.84-4.7S17.43,190.82,19.45,190.09Z"/><path class="cls-2" d="M22.15,158.05a2.49,2.49,0,0,1,1.38-.08,7.59,7.59,0,0,0-.06,6.05c.94,2.6,2.75,4.45,4.46,4.79a2.79,2.79,0,0,1-1.42,1.3c-2,.73-4.64-1.37-5.84-4.7S20.13,158.78,22.15,158.05Z"/><path class="cls-4" d="M24.87,157.38l0,.34c-.07.82-1.81,2.43-5.38,2.11-3.9-.35-5-2.21-4.92-3l0-.46a10.2,10.2,0,1,0,10.29,1Z"/><path class="cls-4" d="M29.64,105.27l-.07,0-.27.13a10.2,10.2,0,0,1-9.72-.93,1.84,1.84,0,0,1-.22-.17l-4.16,45.2-.1,1.09-.51,5.72,0,.46c-.07.82,1,2.68,4.92,3,3.57.32,5.31-1.29,5.38-2.11l0-.34.52-5.85.1-1.09,4.16-45.19h0Z"/><path class="cls-4" d="M35.46,97a10.2,10.2,0,1,0-16.18,7.31l.06,0h0a1.84,1.84,0,0,1,.22.17,10.2,10.2,0,0,0,9.72.93l.27-.13.07,0a0,0,0,0,0,0,0h0A10.14,10.14,0,0,0,35.46,97Z"/><path class="cls-4" d="M28.06,258.32l0,.34c.09.82-1.29,2.74-4.85,3.13-3.89.43-5.33-1.17-5.42-2l0-.46a10.22,10.22,0,1,0,10.28-1Z"/><path class="cls-4" d="M22.35,206.3l-.06,0-.24.18a10.18,10.18,0,0,1-9.7,1l-.25-.12L17,252.56l.12,1.08.64,5.71,0,.46c.09.82,1.53,2.42,5.42,2,3.56-.4,4.94-2.32,4.85-3.13l0-.34-.65-5.83-.12-1.08L22.37,206.3h0S22.36,206.3,22.35,206.3Z"/><path class="cls-4" d="M26.4,197A10.2,10.2,0,1,0,12,207.37l.07,0h0l.25.12a10.18,10.18,0,0,0,9.7-1l.24-.18.06-.05h0A10.1,10.1,0,0,0,26.4,197Z"/><path class="cls-3" d="M33.39,79.79,21.88,75.66c-1.07-.19-2.36.91-3,2.61s-.33,3.37.61,3.91L31,86.3c1.06.14,2.31-1,2.92-2.62S34.29,80.35,33.39,79.79Z"/><path class="cls-3" d="M12.41,180.82l12.07-2c1.08,0,2.15,1.32,2.45,3.1s-.29,3.37-1.31,3.73l-12.08,2c-1.07,0-2.1-1.35-2.39-3.1S11.42,181.21,12.41,180.82Z"/><path class="cls-1" d="M15.66,205.76s.43-4.7,1-10.61h0l2-21.5a28.74,28.74,0,0,0-.2-4c0-.2,0-.4-.08-.61l-.06-.37c0-.21-.07-.41-.12-.62a13.48,13.48,0,0,0-.59-2.05c-1.94-5-5.63-8.13-8.86-8.43a5.53,5.53,0,0,0-.91,0,27.55,27.55,0,0,1,4.51-.68c3.24.3,6.92,3.41,8.86,8.43A21.25,21.25,0,0,1,22.21,173l-2,21.5h0c-.54,5.91-1,10.57-1,10.61-.25,2.65-1.46,5.08-3.44,5.84a33.65,33.65,0,0,1-4,.82l.42-.13C14.2,210.84,15.4,208.41,15.66,205.76Z"/><path class="cls-2" d="M3,163.71c0,.07-2.95,32.1-2.95,32.1a21.47,21.47,0,0,0,1.06,7.64c1.94,5,5.63,8.13,8.86,8.43a5,5,0,0,0,1.82-.15l.42-.13c2-.76,3.18-3.19,3.44-5.84,0,0,2.95-32.11,2.95-32.11a28.74,28.74,0,0,0-.2-4c0-.2-.05-.4-.08-.61l-.06-.37c0-.21-.07-.41-.12-.62a13.48,13.48,0,0,0-.59-2.05c-1.94-5-5.63-8.13-8.86-8.43a5.53,5.53,0,0,0-.91,0,4.22,4.22,0,0,0-1.32.29C4.47,158.62,3.27,161.06,3,163.71Zm2.54,31.41c2-.73,4.64,1.37,5.84,4.7s.54,6.62-1.48,7.35-4.64-1.37-5.84-4.7S3.53,195.85,5.55,195.12Zm5.12-6c-1.38.5-3.16-.93-4-3.2s-.37-4.5,1-5,3.16.93,4,3.2S12,188.59,10.67,189.09Zm-2.42-26c2-.73,4.64,1.37,5.84,4.7s.54,6.62-1.48,7.35-4.64-1.37-5.84-4.7S6.23,163.82,8.25,163.09Z"/><path class="cls-1" d="M5.55,195.12A2.49,2.49,0,0,1,6.93,195a7.59,7.59,0,0,0-.06,6.05c.94,2.6,2.75,4.45,4.46,4.79a2.79,2.79,0,0,1-1.42,1.3c-2,.73-4.64-1.37-5.84-4.7S3.53,195.85,5.55,195.12Z"/><path class="cls-2" d="M7.7,180.89a2,2,0,0,1,1.57.16,5.74,5.74,0,0,0,.24,3.45,5.38,5.38,0,0,0,2.41,3,2.16,2.16,0,0,1-1.24,1.55c-1.38.5-3.16-.93-4-3.2S6.33,181.39,7.7,180.89Z"/><path class="cls-1" d="M8.25,163.09A2.49,2.49,0,0,1,9.63,163a7.59,7.59,0,0,0-.06,6.05c.94,2.6,2.75,4.45,4.46,4.79a2.79,2.79,0,0,1-1.42,1.3c-2,.73-4.64-1.37-5.84-4.7S6.23,163.82,8.25,163.09Z"/><ellipse class="cls-3" cx="9.51" cy="184.79" rx="3.79" ry="5.54" transform="translate(-42.01 7.07) rotate(-13.22)"/><ellipse class="cls-3" cx="9.49" cy="184.83" rx="1.04" ry="1.53" transform="translate(-42.02 7.07) rotate(-13.22)"/><path class="cls-2" d="M58.11,67.09,69.45,45.87a9.86,9.86,0,0,1,4.15-3.43l30.13-15.83a1.8,1.8,0,0,1,1.69,0c-.79-.74-3.14-2.66-5.67-1.75L70.66,40a10.67,10.67,0,0,0-4.4,4.28L54.92,65.49s-2.58,5.29-.38,7.45a17.12,17.12,0,0,0,4.32,2.7C55,73.25,58.11,67.09,58.11,67.09Z"/><path class="cls-1" d="M116.09,42c-.82-3.09-9.39-14.11-9.39-14.11a3.38,3.38,0,0,0-1.26-1.3,1.8,1.8,0,0,0-1.69,0L73.62,42.44a9.86,9.86,0,0,0-4.15,3.43L58.13,67.09s-3.1,6.16.76,8.56L80,82.24s3.64,1.93,10-4.88l23.29-26.18S117.13,45.92,116.09,42ZM70.73,68.28c-1.56,3.31-4.45,5.23-6.46,4.28s-2.38-4.4-.82-7.71,4.45-5.23,6.46-4.28S72.29,65,70.73,68.28Zm6.62,6.11c-1.06,2.25-3,3.56-4.4,2.91s-1.62-3-.56-5.25,3-3.56,4.4-2.91S78.41,72.14,77.35,74.39ZM90,72.88c-1.56,3.31-4.45,5.23-6.46,4.28s-2.38-4.4-.82-7.71,4.45-5.23,6.46-4.28S91.53,69.57,90,72.88Zm11.29-10.23c-1.06,2.25-3,3.56-4.4,2.91s-1.62-3-.56-5.25,3-3.56,4.4-2.91S102.32,60.4,101.26,62.65Zm9.79-15c-1.56,3.31-4.45,5.23-6.46,4.28s-2.38-4.4-.82-7.71,4.45-5.23,6.46-4.28S112.61,44.32,111.05,47.63Z"/><polygon class="cls-5" points="90.74 39.08 94.71 36.99 94.71 41.66 90.74 39.08"/><path class="cls-2" d="M100.7,57.41a2.05,2.05,0,0,0-1.63,0A5.94,5.94,0,0,1,98.5,61a5.55,5.55,0,0,1-2.77,2.89,2.24,2.24,0,0,0,1.13,1.72c1.37.64,3.34-.66,4.4-2.91S102.07,58.05,100.7,57.41Z"/><path class="cls-2" d="M76.79,69.15a2.05,2.05,0,0,0-1.63,0,5.94,5.94,0,0,1-.57,3.53,5.55,5.55,0,0,1-2.77,2.89A2.24,2.24,0,0,0,73,77.31c1.37.64,3.34-.66,4.4-2.91S78.16,69.79,76.79,69.15Z"/><path class="cls-2" d="M89.14,65.19A2.64,2.64,0,0,0,87.72,65a7.81,7.81,0,0,1-.52,6.23c-1.22,2.59-3.25,4.32-5,4.5a2.91,2.91,0,0,0,1.34,1.48c2,.95,4.9-1,6.46-4.28S91.15,66.14,89.14,65.19Z"/><path class="cls-2" d="M69.9,60.59a2.64,2.64,0,0,0-1.42-.22A7.81,7.81,0,0,1,68,66.6c-1.22,2.59-3.25,4.32-5,4.5a2.91,2.91,0,0,0,1.34,1.48c2,1,4.9-1,6.46-4.28S71.91,61.54,69.9,60.59Z"/><path class="cls-2" d="M110.22,39.94a2.64,2.64,0,0,0-1.42-.22,7.81,7.81,0,0,1-.52,6.23c-1.22,2.59-3.25,4.32-5,4.5a2.91,2.91,0,0,0,1.34,1.48c2,1,4.9-1,6.46-4.28S112.23,40.89,110.22,39.94Z"/><path class="cls-3" d="M115.72,35.59,104.39,31c-1.06-.23-2.39.81-3.08,2.48s-.47,3.35.45,3.93L113.1,42c1.05.19,2.35-.85,3-2.5S116.6,36.19,115.72,35.59Z"/><path class="cls-4" d="M100.8,110.68V111c0,.85-1.63,2.67-5.34,2.68-4,0-5.35-1.8-5.35-2.65v-.48a10.55,10.55,0,1,0,10.69.1Z"/><path class="cls-4" d="M95.47,113.71c3.71,0,5.34-1.83,5.34-2.68v-.35l0-6.07v-1.13l0-18.91h0l-.07,0-.27.16a10.58,10.58,0,0,1-5,1.27,10.39,10.39,0,0,1-5.11-1.31l-.25-.15,0,18.93v1.13l0,5.94v.48C90.11,111.92,91.42,113.73,95.47,113.71Z"/><path class="cls-4" d="M95.42,86.05a10.58,10.58,0,0,0,5-1.27l.27-.16.07,0h0a10.55,10.55,0,1,0-10.76,0l.07,0h0l.25.15A10.29,10.29,0,0,0,95.42,86.05Z"/><polygon class="cls-3" points="94.84 46.97 79.66 40.53 79.63 40.53 79.64 45 94.91 51.48 94.84 51.45 94.84 46.97"/><polygon class="cls-4" points="94.91 47 94.84 46.97 94.84 51.45 94.91 51.48 110.01 43.63 109.97 39.17 94.91 47"/><path class="cls-4" d="M94.91,47,110,39.17l0,0-9.88-4H100v3.62c0,.85-1.3,2.66-5.35,2.65-3.71,0-5.34-1.83-5.34-2.68V35.43l-9.71,5.09h0L94.82,47Z"/><path class="cls-4" d="M89.34,36.55v2.14c0,.85,1.63,2.67,5.34,2.68,4,0,5.35-1.8,5.35-2.65V31.18l0-11.57h0l-.07,0h0c-.09.05-.17.11-.26.15a10.51,10.51,0,0,1-10.09,0l-.25-.15,0,11.43v5.42Z"/><path class="cls-4" d="M94.63,21.13a10.39,10.39,0,0,0,5.11-1.31l.26-.15h0l.07,0h0a10.54,10.54,0,1,0-10.78.05h0l.07,0h0l.25.15A10.52,10.52,0,0,0,94.63,21.13Z"/><path class="cls-4" d="M65.15,62.52l.35,0c.84.09,2.47,1.92,2.07,5.6-.44,4-2.38,5.12-3.23,5l-.47,0a10.55,10.55,0,1,0,1.28-10.62Z"/><path class="cls-4" d="M67.57,68.16c.4-3.69-1.23-5.51-2.07-5.6l-.35,0-6-.66L58,61.74,39.2,59.67h0a.3.3,0,0,0,0,.08l.13.28a10.52,10.52,0,0,1-1.16,10L38,70.3l18.81,2.07,1.12.12,5.91.64.47.05C65.19,73.28,67.13,72.19,67.57,68.16Z"/><path class="cls-4" d="M40.08,65.13A10.47,10.47,0,0,0,39.37,60a2.39,2.39,0,0,0-.13-.28l0-.08h0A10.54,10.54,0,1,0,38,70.37l.05-.06h0l.18-.23A10.6,10.6,0,0,0,40.08,65.13Z"/><path class="cls-2" d="M24.78,103.29s.48-4.68,1.08-10.56h0l2.19-21.4a29.37,29.37,0,0,1,1-3.87c.06-.19.13-.39.2-.58s.09-.23.13-.35.14-.38.23-.58a13,13,0,0,1,1-1.89c2.86-4.54,7.06-6.87,10.28-6.54a5.19,5.19,0,0,1,.89.17,27.47,27.47,0,0,0-4.28-1.53c-3.22-.33-7.42,2-10.28,6.54A21.31,21.31,0,0,0,24.65,70l-2.19,21.4h0c-.6,5.88-1.08,10.52-1.08,10.56-.26,2.64.45,5.25,2.24,6.37a32.79,32.79,0,0,0,3.78,1.57,2.82,2.82,0,0,1-.38-.21C25.23,108.54,24.52,105.93,24.78,103.29Z"/><path class="cls-1" d="M43,58.22a4.55,4.55,0,0,0-1.24-.53,5.19,5.19,0,0,0-.89-.17c-3.22-.33-7.42,2-10.28,6.54a14.65,14.65,0,0,0-1,1.89c-.09.2-.16.39-.23.58s-.09.23-.13.35-.14.39-.2.58a25.9,25.9,0,0,0-1,3.87s-3.27,31.92-3.27,32c-.26,2.64.45,5.25,2.24,6.37.12.08.25.14.38.21a5.06,5.06,0,0,0,1.75.5c3.22.33,7.42-2,10.28-6.54A21.31,21.31,0,0,0,42,96.56s3.27-31.88,3.27-32C45.47,62,44.76,59.34,43,58.22ZM36.74,102.3c-1.82,3-4.78,4.58-6.61,3.48s-1.85-4.45,0-7.47,4.78-4.58,6.61-3.48S38.55,99.27,36.74,102.3ZM32.83,82.86c1.24-2.06,3.25-3.12,4.5-2.37s1.26,3,0,5.08-3.25,3.12-4.5,2.37S31.59,84.92,32.83,82.86Zm7.41-12.41c-1.82,3-4.78,4.58-6.61,3.48s-1.85-4.45,0-7.47S38.37,61.88,40.2,63,42.06,67.43,40.24,70.45Z"/><path class="cls-2" d="M36.7,94.83a2.56,2.56,0,0,0-1.34-.35,7.52,7.52,0,0,1-1.1,5.92c-1.42,2.36-3.54,3.83-5.28,3.82a2.73,2.73,0,0,0,1.14,1.55c1.84,1.1,4.8-.45,6.61-3.48S38.54,95.93,36.7,94.83Z"/><path class="cls-2" d="M37.33,80.5a1.94,1.94,0,0,0-1.56-.14,5.76,5.76,0,0,1-.89,3.33,5.44,5.44,0,0,1-2.94,2.51A2.17,2.17,0,0,0,32.86,88c1.25.75,3.26-.31,4.5-2.37S38.58,81.25,37.33,80.5Z"/><path class="cls-2" d="M40.21,63a2.56,2.56,0,0,0-1.34-.35,7.52,7.52,0,0,1-1.1,5.92c-1.42,2.36-3.54,3.83-5.28,3.82a2.73,2.73,0,0,0,1.14,1.55c1.84,1.1,4.8-.45,6.61-3.48S42,64.09,40.21,63Z"/><ellipse class="cls-3" cx="35.22" cy="83.74" rx="5.54" ry="3.79" transform="translate(-55.61 82.37) rotate(-66.32)"/><ellipse class="cls-3" cx="35.23" cy="83.78" rx="1.53" ry="1.04" transform="translate(-55.64 82.4) rotate(-66.32)"/><path class="cls-3" d="M85.46,51.82l-11.33-4.6c-1.06-.23-2.39.81-3.08,2.48s-.47,3.35.45,3.93l11.34,4.59c1,.19,2.35-.85,3-2.5S86.34,52.42,85.46,51.82Z"/><path class="cls-2" d="M72.79,73.3,84.23,52.14a9.88,9.88,0,0,1,4.17-3.41l30.21-15.68a1.79,1.79,0,0,1,1.69,0c-.78-.74-3.13-2.67-5.66-1.77l-29.16,15a10.71,10.71,0,0,0-4.42,4.26L69.62,71.7S67,77,69.21,79.15a17.06,17.06,0,0,0,4.31,2.72C69.66,79.45,72.79,73.3,72.79,73.3Z"/><path class="cls-1" d="M130.88,48.49c-.8-3.1-9.32-14.15-9.32-14.15A3.29,3.29,0,0,0,120.3,33a1.77,1.77,0,0,0-1.69,0L88.4,48.73a9.88,9.88,0,0,0-4.17,3.41L72.79,73.3s-3.13,6.15.72,8.56l21.06,6.69s3.63,2,10-4.83L128,57.66S131.91,52.42,130.88,48.49ZM120.33,42c-1.07,2.25-3,3.54-4.41,2.89s-1.6-3-.53-5.25,3-3.54,4.41-2.89S121.4,39.76,120.33,42ZM86,55.14c1.07-2.25,3-3.54,4.41-2.89s1.6,3,.53,5.25-3,3.54-4.41,2.89S85,57.39,86,55.14Zm-.62,19.42c-1.57,3.3-4.48,5.21-6.48,4.25s-2.36-4.41-.78-7.71,4.48-5.21,6.48-4.25S87,71.25,85.41,74.56ZM92,80.7c-1.07,2.25-3,3.54-4.41,2.89s-1.6-3-.53-5.25,3-3.54,4.41-2.89S93.06,78.45,92,80.7Zm12.63-1.45c-1.57,3.3-4.48,5.21-6.48,4.25s-2.36-4.41-.78-7.71,4.48-5.21,6.48-4.25S106.2,75.94,104.62,79.25Zm21.2-25.15c-1.57,3.3-4.48,5.21-6.48,4.25s-2.36-4.41-.78-7.71S123,45.43,125,46.39,127.39,50.79,125.82,54.1Z"/><polygon class="cls-4" points="98.05 49.35 109.53 43.38 109.51 48.05 98.02 54 98.05 49.35"/><path class="cls-2" d="M90.44,52.25a2.05,2.05,0,0,0-1.63,0,6,6,0,0,1-.59,3.53,5.58,5.58,0,0,1-2.78,2.88,2.26,2.26,0,0,0,1.12,1.72c1.37.65,3.34-.64,4.41-2.89S91.81,52.9,90.44,52.25Z"/><path class="cls-2" d="M119.8,36.76a2.05,2.05,0,0,0-1.63,0,6,6,0,0,1-.59,3.53,5.58,5.58,0,0,1-2.78,2.88,2.26,2.26,0,0,0,1.12,1.72c1.37.65,3.34-.64,4.41-2.89S121.16,37.41,119.8,36.76Z"/><path class="cls-2" d="M91.46,75.45a2.05,2.05,0,0,0-1.63,0A6,6,0,0,1,89.24,79a5.58,5.58,0,0,1-2.78,2.88,2.26,2.26,0,0,0,1.12,1.72C89,84.24,90.92,83,92,80.7S92.83,76.1,91.46,75.45Z"/><path class="cls-2" d="M103.83,71.55a2.74,2.74,0,0,0-1.42-.23,7.84,7.84,0,0,1-.55,6.23c-1.23,2.58-3.27,4.3-5.07,4.48a2.88,2.88,0,0,0,1.33,1.49c2,1,4.91-1,6.48-4.25S105.83,72.51,103.83,71.55Z"/><path class="cls-2" d="M84.61,66.86a2.74,2.74,0,0,0-1.42-.23,7.84,7.84,0,0,1-.55,6.23c-1.23,2.58-3.27,4.3-5.07,4.48a2.88,2.88,0,0,0,1.33,1.49c2,1,4.91-1,6.48-4.25S86.62,67.82,84.61,66.86Z"/><path class="cls-2" d="M125,46.4a2.74,2.74,0,0,0-1.42-.23,7.84,7.84,0,0,1-.55,6.23c-1.23,2.58-3.27,4.3-5.07,4.48a2.88,2.88,0,0,0,1.33,1.49c2,1,4.91-.95,6.48-4.25S127,47.36,125,46.4Z"/><ellipse class="cls-3" cx="89.48" cy="79.76" rx="5.54" ry="3.79" transform="translate(-20.79 126.76) rotate(-64.8)"/><ellipse class="cls-3" cx="89.48" cy="79.8" rx="1.53" ry="1.04" transform="translate(-20.82 126.79) rotate(-64.8)"/><ellipse class="cls-3" cx="113.81" cy="65.94" rx="5.54" ry="3.79" transform="translate(5.68 140.84) rotate(-64.8)"/><ellipse class="cls-3" cx="113.82" cy="66" rx="1.53" ry="1.04" transform="translate(5.64 140.88) rotate(-64.8)"/><ellipse class="cls-3" cx="118.2" cy="40.96" rx="5.54" ry="3.79" transform="translate(30.81 130.46) rotate(-64.8)"/><ellipse class="cls-3" cx="118.2" cy="40.99" rx="1.53" ry="1.04" transform="translate(30.78 130.49) rotate(-64.8)"/><ellipse class="cls-3" cx="88.38" cy="56.74" rx="5.54" ry="3.79" transform="translate(-0.6 112.55) rotate(-64.8)"/><ellipse class="cls-3" cx="88.39" cy="56.78" rx="1.53" ry="1.04" transform="translate(-0.63 112.58) rotate(-64.8)"/><path class="cls-1" d="M47.2,271.51s.08-4.79.17-10.82h0l.35-21.93a28.22,28.22,0,0,1,.64-4c0-.2.1-.4.15-.61s.07-.24.11-.37.11-.4.19-.61a14.33,14.33,0,0,1,.82-2c2.5-4.86,6.57-7.6,9.87-7.55a4.63,4.63,0,0,1,.92.1,29.77,29.77,0,0,0-4.49-1.18c-3.3-.05-7.37,2.69-9.87,7.55a21.68,21.68,0,0,0-1.91,7.61l-.35,21.93h0c-.1,6-.17,10.78-.17,10.82,0,2.71.92,5.29,2.83,6.28a33.17,33.17,0,0,0,4,1.26,3,3,0,0,1-.41-.18C48.12,276.8,47.17,274.21,47.2,271.51Z"/><path class="cls-2" d="M61.72,224.12a4.58,4.58,0,0,0-1.31-.43,5.63,5.63,0,0,0-.92-.1c-3.3-.05-7.37,2.69-9.87,7.55a14.33,14.33,0,0,0-.82,2c-.08.21-.12.41-.19.61s-.07.24-.11.37-.11.41-.15.61a28.22,28.22,0,0,0-.64,4s-.52,32.72-.52,32.76c0,2.71.92,5.29,2.83,6.28.13.07.27.12.41.18a5.26,5.26,0,0,0,1.82.35c3.3.05,7.37-2.69,9.87-7.55A21.68,21.68,0,0,0,64,263.16s.52-32.68.52-32.76C64.59,227.7,63.64,225.11,61.72,224.12Zm-2.46,45.33c-1.58,3.23-4.45,5.07-6.41,4.11s-2.27-4.36-.69-7.59,4.45-5.07,6.41-4.11S60.84,266.22,59.26,269.45ZM60,236.79c-1.58,3.23-4.45,5.07-6.41,4.11s-2.27-4.36-.69-7.59,4.45-5.07,6.41-4.11S61.61,233.56,60,236.79Z"/><path class="cls-2" d="M58.57,261.87a2.63,2.63,0,0,0-1.39-.24,7.71,7.71,0,0,1-.6,6.11c-1.24,2.53-3.26,4.2-5,4.35a2.78,2.78,0,0,0,1.3,1.47c2,1,4.83-.88,6.41-4.11S60.53,262.83,58.57,261.87Z"/><path class="cls-2" d="M59.33,229.21a2.63,2.63,0,0,0-1.39-.24,7.71,7.71,0,0,1-.6,6.11c-1.24,2.53-3.26,4.2-5,4.35a2.78,2.78,0,0,0,1.3,1.47c2,1,4.83-.88,6.41-4.11S61.3,230.16,59.33,229.21Z"/><path class="cls-1" d="M116.5,250.15s.08-4.79.17-10.82h0L117,217.4a28.22,28.22,0,0,1,.64-4c0-.2.1-.4.15-.61s.07-.24.11-.37.11-.4.19-.61a14.33,14.33,0,0,1,.82-2c2.5-4.86,6.57-7.6,9.87-7.55a4.63,4.63,0,0,1,.92.1,29.77,29.77,0,0,0-4.49-1.18c-3.3,0-7.37,2.69-9.87,7.55a21.68,21.68,0,0,0-1.91,7.61l-.35,21.93h0c-.1,6-.17,10.78-.17,10.82,0,2.71.92,5.29,2.83,6.28a33.17,33.17,0,0,0,4,1.26,3,3,0,0,1-.41-.18C117.42,255.44,116.47,252.85,116.5,250.15Z"/><path class="cls-2" d="M131,202.76a4.58,4.58,0,0,0-1.31-.43,5.63,5.63,0,0,0-.92-.1c-3.3,0-7.37,2.69-9.87,7.55a14.33,14.33,0,0,0-.82,2c-.08.21-.12.41-.19.61s-.07.24-.11.37-.11.41-.15.61a28.22,28.22,0,0,0-.64,4s-.52,32.72-.52,32.76c0,2.71.92,5.29,2.83,6.28.13.07.27.12.41.18a5.26,5.26,0,0,0,1.82.35c3.3.05,7.37-2.69,9.87-7.55a21.68,21.68,0,0,0,1.91-7.61s.52-32.68.52-32.76C133.89,206.33,132.94,203.75,131,202.76Zm-2.46,45.33c-1.58,3.23-4.45,5.07-6.41,4.11s-2.27-4.36-.69-7.59,4.45-5.07,6.41-4.11S130.15,244.86,128.57,248.09Zm.76-32.66c-1.58,3.23-4.45,5.07-6.41,4.11s-2.27-4.36-.69-7.59,4.45-5.07,6.41-4.11S130.91,212.2,129.33,215.43Z"/><path class="cls-2" d="M127.87,240.5a2.63,2.63,0,0,0-1.39-.24,7.71,7.71,0,0,1-.6,6.11c-1.24,2.53-3.26,4.2-5,4.35a2.78,2.78,0,0,0,1.3,1.47c2,1,4.83-.88,6.41-4.11S129.84,241.46,127.87,240.5Z"/><path class="cls-2" d="M128.64,207.84a2.63,2.63,0,0,0-1.39-.24,7.71,7.71,0,0,1-.6,6.11c-1.24,2.53-3.26,4.2-5,4.35a2.78,2.78,0,0,0,1.3,1.47c2,1,4.83-.88,6.41-4.11S130.6,208.8,128.64,207.84Z"/><path class="cls-4" d="M120.78,213.23l.33-.1c.81-.25,3,.79,4.1,4.34,1.18,3.87-.18,5.64-1,5.89l-.46.14a10.55,10.55,0,1,0-3-10.27Z"/><path class="cls-4" d="M69,228.86l.06.06.23.21a10.64,10.64,0,0,1,2.65,4.4,10.52,10.52,0,0,1,.22,5.27l-.07.28L117,225.55l1.08-.33,5.68-1.73.46-.14c.81-.25,2.17-2,1-5.89-1.08-3.55-3.29-4.59-4.1-4.34l-.33.1L115,215l-1.08.33L69,228.84h0S69,228.86,69,228.86Z"/><path class="cls-4" d="M58.75,226.51A10.55,10.55,0,1,0,72,239.18s0-.05,0-.08h0c0-.09,0-.19.07-.28a10.51,10.51,0,0,0-2.87-9.67l-.23-.21-.06-.06h0A10.5,10.5,0,0,0,58.75,226.51Z"/><path class="cls-4" d="M101.78,162.68h0l-.07,0-.27.16a10.58,10.58,0,0,1-5,1.27,10.39,10.39,0,0,1-5.11-1.31l-.24-.14,0,53.65v1.13l0,5.94v.48c0,.85,1.3,2.66,5.35,2.65,3.71,0,5.34-1.83,5.34-2.68v-.35l0-6.07v-1.13l0-53.65Z"/><path class="cls-4" d="M107,153.58a10.55,10.55,0,1,0-16,9.08l.07,0h0l.24.14a10.51,10.51,0,0,0,10.09,0l.27-.16.07,0h0A10.53,10.53,0,0,0,107,153.58Z"/><path class="cls-1" d="M76.24,403.5s-.08-4.79-.17-10.82h0l-.35-21.93a28.22,28.22,0,0,0-.64-4c0-.2-.1-.4-.15-.61s-.07-.24-.11-.37-.11-.4-.19-.61a14.33,14.33,0,0,0-.82-2c-2.5-4.86-6.57-7.6-9.87-7.55a4.63,4.63,0,0,0-.92.1,29.77,29.77,0,0,1,4.49-1.18c3.3-.05,7.37,2.69,9.87,7.55a21.68,21.68,0,0,1,1.91,7.61l.35,21.93h0c.1,6,.17,10.78.17,10.82,0,2.71-.92,5.29-2.83,6.28A33.17,33.17,0,0,1,73,410a3,3,0,0,0,.41-.18C75.32,408.79,76.27,406.2,76.24,403.5Z"/><path class="cls-2" d="M58.88,362.39c0,.08.52,32.76.52,32.76a21.79,21.79,0,0,0,1.91,7.61c2.5,4.86,6.57,7.6,9.87,7.55A5.26,5.26,0,0,0,73,410a3,3,0,0,0,.41-.18c1.91-1,2.87-3.57,2.83-6.28,0,0-.52-32.76-.52-32.76a28.22,28.22,0,0,0-.64-4c0-.2-.1-.4-.15-.61s-.07-.24-.11-.37-.11-.4-.19-.61a14.33,14.33,0,0,0-.82-2c-2.5-4.86-6.57-7.6-9.87-7.55a4.63,4.63,0,0,0-.92.1,4.58,4.58,0,0,0-1.31.43C59.8,357.1,58.85,359.69,58.88,362.39Zm6,31.47c2-1,4.83.88,6.41,4.11s1.27,6.63-.69,7.59-4.83-.88-6.41-4.11S62.91,394.81,64.87,393.86Zm-.77-32.67c2-1,4.83.88,6.41,4.11s1.27,6.63-.69,7.59S65,372,63.41,368.78,62.14,362.15,64.1,361.19Z"/><path class="cls-2" d="M64.87,393.86a2.63,2.63,0,0,1,1.39-.24,7.71,7.71,0,0,0,.6,6.11c1.24,2.53,3.26,4.2,5,4.35a2.78,2.78,0,0,1-1.3,1.47c-2,1-4.83-.88-6.41-4.11S62.91,394.81,64.87,393.86Z"/><path class="cls-2" d="M64.1,361.19a2.63,2.63,0,0,1,1.39-.24,7.71,7.71,0,0,0,.6,6.11c1.24,2.53,3.26,4.2,5,4.35a2.78,2.78,0,0,1-1.3,1.47c-2,1-4.83-.88-6.41-4.11S62.14,362.15,64.1,361.19Z"/><path class="cls-2" d="M87.45,507a2.79,2.79,0,0,1,1.92-.12c-.82,1.51-.73,4,.4,6.38a7.7,7.7,0,0,0,4.43,4.33,2.65,2.65,0,0,1-1.21,1.2c-2,.93-4.82-1-6.35-4.21S85.47,508,87.45,507Z"/><path class="cls-2" d="M65.07,495.35a2.79,2.79,0,0,1,1.92-.12c-.82,1.51-.73,4,.4,6.38a7.7,7.7,0,0,0,4.43,4.33,2.65,2.65,0,0,1-1.21,1.2c-2,.93-4.82-.95-6.35-4.21S63.09,496.28,65.07,495.35Z"/><path class="cls-1" d="M90.71,503.38c-1.89-.56-6.78-1.41-11-3.49s-8.81-7.87-13.14-8.65a7.19,7.19,0,0,0-4.4.31,8.8,8.8,0,0,1,8.05-2.17c4.33.78,8.74,6.51,13.14,8.65s9.19,2.85,11,3.49c4.15,1.43,7.51,4.33,7.72,9.64l.08,13.49-3.62,1.73L98.44,513A10.42,10.42,0,0,0,90.71,503.38Z"/><path class="cls-2" d="M98.52,526.42v0L98.42,513a10.38,10.38,0,0,0-7.72-9.64c-1.89-.56-6.78-1.41-11-3.49s-8.81-7.87-13.14-8.65a7.19,7.19,0,0,0-4.4.31c-2.69,1.28-2.28,4.63-2.28,4.63l0,10ZM87.45,507c2-.93,4.82,1,6.35,4.21s1.17,6.65-.81,7.58-4.82-1-6.35-4.21S85.47,508,87.45,507Zm-16.84.1c-2,.93-4.82-.95-6.35-4.21s-1.17-6.65.81-7.58,4.82,1,6.35,4.21S72.59,506.2,70.61,507.13Z"/><path class="cls-4" d="M66.86,360v.34c0,.83-1.6,2.62-5.24,2.64-4,0-5.26-1.77-5.26-2.6V360a10.37,10.37,0,1,0,10.5.09Z"/><path class="cls-4" d="M66.79,278.23l-.07,0c-.09.05-.17.11-.26.15a10.34,10.34,0,0,1-9.91,0l-.24-.15,0,74.76v1.11l0,5.84v.47c0,.83,1.28,2.61,5.26,2.6,3.64,0,5.25-1.8,5.24-2.64V360l0-6V353l0-74.75h0Z"/><path class="cls-4" d="M71.9,269.27a10.37,10.37,0,1,0-15.68,8.92l.07,0h0l.24.15a10.34,10.34,0,0,0,9.91,0l.26-.15.07,0h0A10.35,10.35,0,0,0,71.9,269.27Z"/><path class="cls-4" d="M68,492.51v.34c0,.83-1.6,2.62-5.24,2.64-4,0-5.26-1.77-5.26-2.6v-.47a10.37,10.37,0,1,0,10.5.09Z"/><path class="cls-4" d="M67.89,410.69l-.07,0c-.09,0-.17.11-.26.15a10.34,10.34,0,0,1-9.91,0l-.24-.15,0,74.76v1.11l0,5.84v.47c0,.83,1.28,2.61,5.26,2.6,3.64,0,5.25-1.8,5.24-2.64v-.34l0-6v-1.11l0-74.75h0Z"/><path class="cls-4" d="M73,401.74a10.37,10.37,0,1,0-15.68,8.92l.07,0h0l.24.15a10.34,10.34,0,0,0,9.91,0l.26-.15.07,0h0A10.35,10.35,0,0,0,73,401.74Z"/><path class="cls-3" d="M55.9,386.51l11.29-4.7c1.06-.24,2.4.79,3.1,2.46s.5,3.35-.42,3.93l-11.3,4.68c-1,.2-2.36-.83-3-2.47S55,387.12,55.9,386.51Z"/><path class="cls-1" d="M62.75,410.1s-.08-4.79-.17-10.83h0l-.35-21.93a28.22,28.22,0,0,0-.64-4c0-.2-.1-.4-.15-.61s-.07-.24-.11-.37-.11-.4-.19-.61a14.33,14.33,0,0,0-.82-2c-2.5-4.86-6.57-7.6-9.87-7.55a4.63,4.63,0,0,0-.92.1A29.77,29.77,0,0,1,54,361.1c3.3-.05,7.37,2.69,9.87,7.55a21.68,21.68,0,0,1,1.91,7.61l.35,21.93h0c.1,6,.17,10.78.17,10.82,0,2.71-.92,5.29-2.83,6.28a33.17,33.17,0,0,1-4,1.26,3,3,0,0,0,.41-.18C61.82,415.39,62.78,412.8,62.75,410.1Z"/><path class="cls-2" d="M45.39,369c0,.08.52,32.76.52,32.76a21.79,21.79,0,0,0,1.91,7.61c2.5,4.86,6.57,7.6,9.87,7.55a5.26,5.26,0,0,0,1.82-.35,3,3,0,0,0,.41-.18c1.91-1,2.87-3.57,2.83-6.28,0,0-.52-32.76-.52-32.76a28.22,28.22,0,0,0-.64-4c0-.2-.1-.4-.15-.61s-.07-.24-.11-.37-.11-.4-.19-.61a14.33,14.33,0,0,0-.82-2c-2.5-4.86-6.57-7.6-9.87-7.55a4.63,4.63,0,0,0-.92.1,4.58,4.58,0,0,0-1.31.43C46.31,363.7,45.35,366.29,45.39,369Zm6,31.47c2-1,4.83.88,6.41,4.11s1.27,6.63-.69,7.59-4.83-.88-6.41-4.11S49.41,401.42,51.38,400.46Zm4.51-6.66c-1.34.65-3.29-.6-4.36-2.8s-.86-4.51.47-5.16,3.29.6,4.36,2.8S57.22,393.15,55.89,393.8Zm-5.28-26c2-1,4.83.88,6.41,4.11s1.27,6.63-.69,7.59-4.83-.88-6.41-4.11S48.65,368.75,50.61,367.8Z"/><path class="cls-1" d="M51.38,400.46a2.63,2.63,0,0,1,1.39-.24,7.71,7.71,0,0,0,.6,6.11c1.24,2.53,3.26,4.2,5,4.35a2.78,2.78,0,0,1-1.3,1.47c-2,1-4.83-.88-6.41-4.11S49.41,401.42,51.38,400.46Z"/><path class="cls-2" d="M52,385.84a2,2,0,0,1,1.6,0,5.91,5.91,0,0,0,.61,3.46A5.47,5.47,0,0,0,57,392.1a2.18,2.18,0,0,1-1.09,1.7c-1.34.65-3.29-.6-4.36-2.8S50.66,386.5,52,385.84Z"/><path class="cls-1" d="M50.61,367.8a2.63,2.63,0,0,1,1.39-.24,7.71,7.71,0,0,0,.6,6.11c1.24,2.53,3.26,4.2,5,4.35a2.78,2.78,0,0,1-1.3,1.47c-2,1-4.83-.88-6.41-4.11S48.65,368.75,50.61,367.8Z"/><ellipse class="cls-3" cx="54.01" cy="391.04" rx="3.79" ry="5.54" transform="translate(-168.91 65.26) rotate(-26.52)"/><ellipse class="cls-3" cx="54.01" cy="391.08" rx="1.04" ry="1.53" transform="translate(-168.93 65.26) rotate(-26.52)"/><path class="cls-3" d="M66.85,508.87,77.6,503c1-.35,2.47.54,3.33,2.13s.84,3.28,0,3.95l-10.76,5.82c-1,.3-2.43-.58-3.28-2.14S66,509.57,66.85,508.87Z"/><circle class="cls-4" cx="84.73" cy="515.71" r="10.37"/><polygon class="cls-3" points="92.68 527.09 88.15 523.12 88.16 520.1 88.27 520.14 94.76 525.81 92.68 527.09"/><path class="cls-3" d="M107.68,535.21l8.56-5.37a1.67,1.67,0,0,0,1-1.55c.52,1.64.08,4-1,4.6l-8.56,5.37c-2.89,1.35-4.08.66-6.93-.79l-10.81-5.62v-3l.12,0,10.66,5.51C103.57,535.82,104.79,536.57,107.68,535.21Z"/><path class="cls-4" d="M88.27,520.14l6.49,5.66L91.3,528l-1.36.84h0l.11.06,10.66,5.51c2.85,1.45,4.06,2.2,7,.85l8.56-5.37a1.67,1.67,0,0,0,1-1.55,1.83,1.83,0,0,0-.78-1.3,3.75,3.75,0,0,0-.77-.47l-11.93-6.31-3.78,2.3-6.56-5.59-5.27,3.15Zm21.92,8.2c0,1.94-2.58,3.53-5.77,3.54s-5.8-1.55-5.81-3.49,2.58-3.53,5.77-3.54S110.18,526.4,110.19,528.34Z"/><path class="cls-3" d="M110.19,528.34a2.47,2.47,0,0,1-.62,1.59c-.91-1.23-2.93-2.08-5.29-2.07a6.82,6.82,0,0,0-5.15,1.95,2.42,2.42,0,0,1-.51-1.43c0-1.94,2.58-3.53,5.77-3.54S110.18,526.4,110.19,528.34Z"/><path class="cls-1" d="M74.94,512a2.79,2.79,0,0,1,1.92-.12c-.82,1.51-.73,4,.4,6.38a7.7,7.7,0,0,0,4.43,4.33,2.65,2.65,0,0,1-1.21,1.2c-2,.93-4.82-1-6.35-4.21S73,513,74.94,512Z"/><path class="cls-1" d="M52.55,500.35a2.79,2.79,0,0,1,1.92-.12c-.82,1.51-.73,4,.4,6.38a7.7,7.7,0,0,0,4.43,4.33,2.65,2.65,0,0,1-1.21,1.2c-2,.93-4.82-.95-6.35-4.21S50.58,501.28,52.55,500.35Z"/><path class="cls-1" d="M78.19,508.38c-1.89-.56-6.78-1.41-11-3.49S58.33,497,54,496.24a7.19,7.19,0,0,0-4.4.31,8.8,8.8,0,0,1,8-2.17c4.33.78,8.74,6.51,13.14,8.65s9.19,2.85,11,3.49c4.15,1.43,7.51,4.33,7.72,9.64l.08,13.49L86,531.38,85.92,518A10.41,10.41,0,0,0,78.19,508.38Z"/><path class="cls-2" d="M86,531.42v0L85.91,518a10.38,10.38,0,0,0-7.72-9.64c-1.89-.56-6.78-1.41-11-3.49S58.33,497,54,496.24a7.19,7.19,0,0,0-4.4.31c-2.69,1.28-2.28,4.63-2.28,4.63l0,10ZM74.94,512c2-.93,4.82,1,6.35,4.21s1.17,6.65-.81,7.58-4.82-1-6.35-4.21S73,513,74.94,512Zm-16.84.11c-2,.93-4.82-.95-6.35-4.21s-1.17-6.65.81-7.58,4.82.95,6.35,4.21S60.08,511.21,58.1,512.14Zm10.78-.79c1,2.21.8,4.52-.55,5.16s-3.28-.65-4.32-2.86-.8-4.52.55-5.16S67.84,509.14,68.88,511.35Z"/><path class="cls-2" d="M64.56,508.49a2,2,0,0,1,1.6,0,5.81,5.81,0,0,0,.56,3.47,5.51,5.51,0,0,0,2.72,2.84,2.19,2.19,0,0,1-1.11,1.69c-1.35.63-3.28-.65-4.32-2.86S63.22,509.12,64.56,508.49Z"/><ellipse class="cls-3" cx="66.39" cy="513.18" rx="3.79" ry="5.54" transform="translate(-199 68.96) rotate(-23.48)"/><ellipse class="cls-3" cx="66.38" cy="513.22" rx="1.04" ry="1.53" transform="translate(-199.01 68.96) rotate(-23.48)"/><path class="cls-3" d="M67.53,254.52l-11.29-4.7c-1.06-.24-2.4.79-3.1,2.46s-.5,3.35.42,3.93l11.3,4.68c1,.2,2.36-.83,3-2.47S68.41,255.13,67.53,254.52Z"/><path class="cls-1" d="M60.69,278.11s.08-4.79.17-10.82h0l.35-21.93a28.22,28.22,0,0,1,.64-4c0-.2.1-.4.15-.61s.07-.24.11-.37.11-.4.19-.61a14.33,14.33,0,0,1,.82-2c2.5-4.86,6.57-7.6,9.87-7.55a4.63,4.63,0,0,1,.92.1,29.77,29.77,0,0,0-4.49-1.18c-3.3-.05-7.37,2.69-9.87,7.55a21.68,21.68,0,0,0-1.91,7.61l-.35,21.93h0c-.1,6-.17,10.78-.17,10.82,0,2.71.92,5.29,2.83,6.28a33.17,33.17,0,0,0,4,1.26,3,3,0,0,1-.41-.18C61.61,283.4,60.66,280.82,60.69,278.11Z"/><path class="cls-2" d="M75.22,230.72a4.58,4.58,0,0,0-1.31-.43,5.63,5.63,0,0,0-.92-.1c-3.3-.05-7.37,2.69-9.87,7.55a14.33,14.33,0,0,0-.82,2c-.08.21-.12.41-.19.61s-.07.24-.11.37-.11.41-.15.61a28.22,28.22,0,0,0-.64,4s-.52,32.72-.52,32.76c0,2.71.92,5.29,2.83,6.28.13.07.27.12.41.18a5.26,5.26,0,0,0,1.82.35c3.3.05,7.37-2.69,9.87-7.55a21.68,21.68,0,0,0,1.91-7.61s.52-32.68.52-32.76C78.08,234.3,77.13,231.71,75.22,230.72Zm-2.47,45.33c-1.58,3.23-4.45,5.07-6.41,4.11s-2.27-4.36-.69-7.59,4.45-5.07,6.41-4.11S74.33,272.82,72.75,276.05Zm-5.67-19.4c1.07-2.2,3-3.45,4.36-2.8s1.55,3,.47,5.16-3,3.45-4.36,2.8S66,258.85,67.08,256.65Zm6.44-13.26c-1.58,3.23-4.45,5.07-6.41,4.11s-2.27-4.36-.69-7.59,4.45-5.07,6.41-4.11S75.1,240.16,73.52,243.39Z"/><path class="cls-1" d="M72.06,268.47a2.63,2.63,0,0,0-1.39-.24,7.71,7.71,0,0,1-.6,6.11c-1.24,2.53-3.26,4.2-5,4.35a2.78,2.78,0,0,0,1.3,1.47c2,1,4.83-.88,6.41-4.11S74,269.43,72.06,268.47Z"/><path class="cls-2" d="M71.44,253.85a2,2,0,0,0-1.6,0,5.91,5.91,0,0,1-.61,3.46,5.47,5.47,0,0,1-2.76,2.8,2.18,2.18,0,0,0,1.09,1.7c1.34.65,3.29-.6,4.36-2.8S72.78,254.51,71.44,253.85Z"/><path class="cls-1" d="M72.83,235.81a2.63,2.63,0,0,0-1.39-.24,7.71,7.71,0,0,1-.6,6.11c-1.24,2.53-3.26,4.2-5,4.35a2.78,2.78,0,0,0,1.3,1.47c2,1,4.83-.88,6.41-4.11S74.79,236.77,72.83,235.81Z"/><ellipse class="cls-3" cx="69.43" cy="259.06" rx="5.54" ry="3.79" transform="translate(-193.38 205.52) rotate(-63.48)"/><ellipse class="cls-3" cx="69.44" cy="259.1" rx="1.53" ry="1.04" transform="translate(-193.41 205.55) rotate(-63.48)"/><path class="cls-3" d="M136.84,233.16l-11.29-4.7c-1.06-.24-2.4.79-3.1,2.46s-.5,3.35.42,3.93l11.3,4.68c1.05.2,2.36-.83,3-2.47S137.71,233.77,136.84,233.16Z"/><path class="cls-1" d="M145.32,382.57s-.08-4.79-.17-10.82h0l-.35-21.93a28.22,28.22,0,0,0-.64-4c0-.2-.1-.4-.15-.61s-.07-.24-.11-.37-.11-.4-.19-.61a14.33,14.33,0,0,0-.82-2c-2.5-4.86-6.57-7.6-9.87-7.55a4.63,4.63,0,0,0-.92.1,29.77,29.77,0,0,1,4.49-1.18c3.3-.05,7.37,2.69,9.87,7.55a21.68,21.68,0,0,1,1.91,7.61l.35,21.93h0c.1,6,.17,10.78.17,10.82,0,2.71-.92,5.29-2.83,6.28a33.17,33.17,0,0,1-4,1.26,3,3,0,0,0,.41-.18C144.4,387.87,145.35,385.28,145.32,382.57Z"/><path class="cls-2" d="M128,341.47c0,.08.52,32.76.52,32.76a21.79,21.79,0,0,0,1.91,7.61c2.5,4.86,6.57,7.6,9.87,7.55a5.26,5.26,0,0,0,1.82-.35,3,3,0,0,0,.41-.18c1.91-1,2.87-3.57,2.83-6.28,0,0-.52-32.76-.52-32.76a28.22,28.22,0,0,0-.64-4c0-.2-.1-.4-.15-.61s-.07-.24-.11-.37-.11-.4-.19-.61a14.33,14.33,0,0,0-.82-2c-2.5-4.86-6.57-7.6-9.87-7.55a4.63,4.63,0,0,0-.92.1,4.58,4.58,0,0,0-1.31.43C128.88,336.17,127.93,338.76,128,341.47Zm6,31.46c2-1,4.83.88,6.41,4.11s1.27,6.63-.69,7.59-4.83-.88-6.41-4.11S132,373.89,134,372.93Zm-.76-32.66c2-1,4.83.88,6.41,4.11s1.27,6.63-.69,7.59-4.83-.88-6.41-4.11S131.23,341.23,133.19,340.27Z"/><path class="cls-2" d="M134,372.93a2.63,2.63,0,0,1,1.39-.24,7.71,7.71,0,0,0,.6,6.11c1.24,2.53,3.26,4.2,5,4.35a2.78,2.78,0,0,1-1.3,1.47c-2,1-4.83-.88-6.41-4.11S132,373.89,134,372.93Z"/><path class="cls-2" d="M133.19,340.27a2.63,2.63,0,0,1,1.39-.24,7.71,7.71,0,0,0,.6,6.11c1.24,2.53,3.26,4.2,5,4.35a2.78,2.78,0,0,1-1.3,1.47c-2,1-4.83-.88-6.41-4.11S131.23,341.23,133.19,340.27Z"/><path class="cls-2" d="M156.53,486.1a2.79,2.79,0,0,1,1.92-.12c-.82,1.51-.73,4,.4,6.38a7.7,7.7,0,0,0,4.43,4.33,2.65,2.65,0,0,1-1.21,1.2c-2,.93-4.82-.95-6.35-4.21S154.56,487,156.53,486.1Z"/><path class="cls-2" d="M134.15,474.42a2.79,2.79,0,0,1,1.92-.12c-.82,1.51-.73,4,.4,6.38A7.7,7.7,0,0,0,140.9,485a2.65,2.65,0,0,1-1.21,1.2c-2,.93-4.82-.95-6.35-4.21S132.17,475.36,134.15,474.42Z"/><path class="cls-1" d="M159.79,482.45c-1.89-.56-6.78-1.41-11-3.49s-8.81-7.87-13.14-8.65a7.19,7.19,0,0,0-4.4.31,8.8,8.8,0,0,1,8.05-2.17c4.33.78,8.74,6.51,13.14,8.65s9.19,2.85,11.05,3.49c4.15,1.43,7.51,4.33,7.72,9.64l.08,13.49-3.62,1.73-.1-13.36A10.41,10.41,0,0,0,159.79,482.45Z"/><path class="cls-2" d="M167.61,505.5v0l-.1-13.36a10.38,10.38,0,0,0-7.72-9.64c-1.89-.56-6.78-1.41-11-3.49s-8.81-7.87-13.14-8.65a7.19,7.19,0,0,0-4.4.31c-2.69,1.28-2.28,4.63-2.28,4.63l0,10Zm-11.08-19.4c2-.93,4.82.95,6.35,4.21s1.17,6.65-.81,7.58-4.82-.95-6.35-4.21S154.56,487,156.53,486.1Zm-16.83.11c-2,.93-4.82-.95-6.35-4.21s-1.17-6.65.81-7.58,4.82.95,6.35,4.21S141.67,485.28,139.7,486.21Z"/><path class="cls-4" d="M136,339.11v.34c0,.83-1.6,2.62-5.24,2.64-4,0-5.26-1.77-5.26-2.6V339a10.37,10.37,0,1,0,10.5.09Z"/><path class="cls-4" d="M135.88,257.3l-.07,0c-.09.05-.17.11-.26.15a10.34,10.34,0,0,1-9.91,0l-.24-.15,0,74.76v1.11l0,5.84v.47c0,.83,1.28,2.61,5.26,2.6,3.64,0,5.25-1.8,5.24-2.64v-.34l0-6V332l0-74.75h0Z"/><path class="cls-4" d="M141,248.35a10.37,10.37,0,1,0-15.68,8.92l.07,0h0l.24.15a10.34,10.34,0,0,0,9.91,0l.26-.15.07,0h0A10.32,10.32,0,0,0,141,248.35Z"/><path class="cls-4" d="M137.05,471.58v.34c0,.83-1.6,2.62-5.24,2.64-4,0-5.26-1.77-5.26-2.6v-.47a10.37,10.37,0,1,0,10.5.09Z"/><path class="cls-4" d="M137,389.77l-.07,0c-.09.05-.17.11-.26.15a10.34,10.34,0,0,1-9.91,0l-.24-.15,0,74.76v1.11l0,5.84V472c0,.83,1.28,2.61,5.26,2.6,3.64,0,5.25-1.8,5.24-2.64v-.34l0-6v-1.11l0-74.75h0Z"/><path class="cls-4" d="M142.08,380.81a10.37,10.37,0,1,0-15.68,8.92l.07,0h0l.24.15a10.34,10.34,0,0,0,9.91,0l.26-.15.07,0h0A10.3,10.3,0,0,0,142.08,380.81Z"/><path class="cls-3" d="M125,365.59l11.29-4.7c1.06-.24,2.4.79,3.1,2.46s.5,3.35-.42,3.93L127.66,372c-1,.2-2.36-.83-3-2.47S124.12,366.2,125,365.59Z"/><path class="cls-1" d="M131.83,389.17s-.08-4.79-.17-10.83h0l-.35-21.93a28.22,28.22,0,0,0-.64-4c0-.2-.1-.4-.15-.61s-.07-.24-.11-.37-.11-.4-.19-.61a14.33,14.33,0,0,0-.82-2c-2.5-4.86-6.57-7.6-9.87-7.55a4.63,4.63,0,0,0-.92.1,29.77,29.77,0,0,1,4.49-1.18c3.3-.05,7.37,2.69,9.87,7.55a21.68,21.68,0,0,1,1.91,7.61l.35,21.93h0c.1,6,.17,10.78.17,10.82,0,2.71-.92,5.29-2.83,6.28a33.17,33.17,0,0,1-4,1.26,3,3,0,0,0,.41-.18C130.91,394.47,131.86,391.88,131.83,389.17Z"/><path class="cls-2" d="M114.47,348.07c0,.08.52,32.76.52,32.76a21.79,21.79,0,0,0,1.91,7.61c2.5,4.86,6.57,7.6,9.87,7.55a5.26,5.26,0,0,0,1.82-.35,3,3,0,0,0,.41-.18c1.91-1,2.87-3.57,2.83-6.28,0,0-.52-32.76-.52-32.76a28.22,28.22,0,0,0-.64-4c0-.2-.1-.4-.15-.61s-.07-.24-.11-.37-.11-.4-.19-.61a14.33,14.33,0,0,0-.82-2c-2.5-4.86-6.57-7.6-9.87-7.55a4.63,4.63,0,0,0-.92.1,4.58,4.58,0,0,0-1.31.43C115.39,342.78,114.44,345.36,114.47,348.07Zm6,31.46c2-1,4.83.88,6.41,4.11s1.27,6.63-.69,7.59-4.83-.88-6.41-4.11S118.5,380.49,120.46,379.53Zm4.51-6.65c-1.34.65-3.29-.6-4.36-2.8s-.86-4.51.47-5.16,3.29.6,4.36,2.8S126.31,372.23,125,372.88Zm-5.27-26c2-1,4.83.88,6.41,4.11s1.27,6.63-.69,7.59-4.83-.88-6.41-4.11S117.73,347.83,119.7,346.87Z"/><path class="cls-1" d="M120.46,379.53a2.63,2.63,0,0,1,1.39-.24,7.71,7.71,0,0,0,.6,6.11c1.24,2.53,3.26,4.2,5,4.35a2.78,2.78,0,0,1-1.3,1.47c-2,1-4.83-.88-6.41-4.11S118.5,380.49,120.46,379.53Z"/><path class="cls-2" d="M121.08,364.92a2,2,0,0,1,1.6,0,5.91,5.91,0,0,0,.61,3.46,5.47,5.47,0,0,0,2.76,2.8,2.18,2.18,0,0,1-1.09,1.7c-1.34.65-3.29-.6-4.36-2.8S119.75,365.57,121.08,364.92Z"/><path class="cls-1" d="M119.7,346.87a2.63,2.63,0,0,1,1.39-.24,7.71,7.71,0,0,0,.6,6.11c1.24,2.53,3.26,4.2,5,4.35a2.78,2.78,0,0,1-1.3,1.47c-2,1-4.83-.88-6.41-4.11S117.73,347.83,119.7,346.87Z"/><ellipse class="cls-3" cx="123.1" cy="370.12" rx="3.79" ry="5.54" transform="translate(-152.3 93.9) rotate(-26.52)"/><ellipse class="cls-3" cx="123.09" cy="370.16" rx="1.04" ry="1.53" transform="translate(-152.32 93.9) rotate(-26.52)"/><path class="cls-3" d="M135.94,488l10.75-5.83c1-.35,2.47.54,3.33,2.13s.84,3.28,0,3.95L139.25,494c-1,.3-2.43-.58-3.28-2.14S135.13,488.65,135.94,488Z"/><circle class="cls-4" cx="153.81" cy="494.79" r="10.37"/><polygon class="cls-3" points="161.77 506.17 157.23 502.19 157.24 499.18 157.36 499.22 163.85 504.88 161.77 506.17"/><path class="cls-3" d="M176.77,514.29l8.56-5.37a1.67,1.67,0,0,0,1-1.55c.52,1.64.08,4-1,4.6l-8.56,5.37c-2.89,1.35-4.08.66-6.93-.79L159,510.93v-3l.12,0,10.66,5.51C172.66,514.89,173.87,515.64,176.77,514.29Z"/><path class="cls-4" d="M157.36,499.22l6.49,5.66L160.39,507l-1.36.84h0l.11.06,10.66,5.51c2.85,1.45,4.06,2.2,7,.85l8.56-5.37a1.67,1.67,0,0,0,1-1.55,1.83,1.83,0,0,0-.78-1.3,3.75,3.75,0,0,0-.77-.47l-11.93-6.31-3.78,2.3L162.5,496l-5.27,3.15Zm21.92,8.2c0,1.94-2.58,3.53-5.77,3.54s-5.8-1.55-5.81-3.49,2.58-3.53,5.77-3.54S179.27,505.47,179.28,507.42Z"/><path class="cls-3" d="M179.28,507.42a2.47,2.47,0,0,1-.62,1.59c-.91-1.23-2.93-2.08-5.29-2.07a6.82,6.82,0,0,0-5.15,1.95,2.42,2.42,0,0,1-.51-1.43c0-1.94,2.58-3.53,5.77-3.54S179.27,505.47,179.28,507.42Z"/><path class="cls-1" d="M144,491.11a2.79,2.79,0,0,1,1.92-.12c-.82,1.51-.73,4,.4,6.38a7.7,7.7,0,0,0,4.43,4.33,2.65,2.65,0,0,1-1.21,1.2c-2,.93-4.82-.95-6.35-4.21S142,492,144,491.11Z"/><path class="cls-1" d="M121.64,479.43a2.79,2.79,0,0,1,1.92-.12c-.82,1.51-.73,4,.4,6.38a7.7,7.7,0,0,0,4.43,4.33,2.65,2.65,0,0,1-1.21,1.2c-2,.93-4.82-1-6.35-4.21S119.66,480.36,121.64,479.43Z"/><path class="cls-1" d="M147.28,487.46c-1.89-.56-6.78-1.41-11.05-3.49s-8.81-7.87-13.14-8.65a7.19,7.19,0,0,0-4.4.31,8.83,8.83,0,0,1,8-2.17c4.33.78,8.74,6.51,13.14,8.65s9.19,2.85,11.05,3.49c4.15,1.43,7.51,4.33,7.72,9.64l.08,13.49-3.62,1.73L155,497.1A10.41,10.41,0,0,0,147.28,487.46Z"/><path class="cls-2" d="M155.1,510.5v0L155,497.1a10.38,10.38,0,0,0-7.72-9.64c-1.89-.56-6.78-1.41-11.05-3.49s-8.81-7.87-13.14-8.65a7.19,7.19,0,0,0-4.4.31c-2.69,1.28-2.28,4.63-2.28,4.63l0,10ZM144,491.11c2-.93,4.82.95,6.35,4.21s1.17,6.65-.81,7.58-4.82-.95-6.35-4.21S142,492,144,491.11Zm-16.84.1c-2,.93-4.82-.95-6.35-4.21s-1.17-6.65.81-7.58,4.82.95,6.35,4.21S129.16,490.28,127.18,491.21Zm10.79-.78c1,2.21.8,4.52-.55,5.16s-3.28-.65-4.32-2.86-.8-4.52.55-5.16S136.93,488.22,138,490.43Z"/><path class="cls-2" d="M133.65,487.57a2,2,0,0,1,1.6,0,5.81,5.81,0,0,0,.56,3.47,5.51,5.51,0,0,0,2.72,2.84,2.19,2.19,0,0,1-1.11,1.69c-1.35.63-3.28-.65-4.32-2.86S132.3,488.2,133.65,487.57Z"/><ellipse class="cls-3" cx="135.48" cy="492.25" rx="3.79" ry="5.54" transform="translate(-184.93 94.76) rotate(-23.48)"/><ellipse class="cls-3" cx="135.47" cy="492.3" rx="1.04" ry="1.53" transform="translate(-184.96 94.76) rotate(-23.48)"/><path class="cls-1" d="M130,256.75s.08-4.79.17-10.82h0l.35-21.93a28.22,28.22,0,0,1,.64-4c0-.2.1-.4.15-.61s.07-.24.11-.37.11-.4.19-.61a14.33,14.33,0,0,1,.82-2c2.5-4.86,6.57-7.6,9.87-7.55a4.63,4.63,0,0,1,.92.1,29.77,29.77,0,0,0-4.49-1.18c-3.3,0-7.37,2.69-9.87,7.55a21.68,21.68,0,0,0-1.91,7.61l-.35,21.93h0c-.1,6-.17,10.78-.17,10.82,0,2.71.92,5.29,2.83,6.28a33.17,33.17,0,0,0,4,1.26,3,3,0,0,1-.41-.18C130.92,262,130,259.45,130,256.75Z"/><path class="cls-2" d="M144.52,209.36a4.58,4.58,0,0,0-1.31-.43,5.63,5.63,0,0,0-.92-.1c-3.3-.05-7.37,2.69-9.87,7.55a14.33,14.33,0,0,0-.82,2c-.08.21-.12.41-.19.61s-.07.24-.11.37-.11.41-.15.61a28.22,28.22,0,0,0-.64,4s-.52,32.72-.52,32.76c0,2.71.92,5.29,2.83,6.28.13.07.27.12.41.18a5.26,5.26,0,0,0,1.82.35c3.3.05,7.37-2.69,9.87-7.55a21.68,21.68,0,0,0,1.91-7.61s.52-32.68.52-32.76C147.39,212.94,146.43,210.35,144.52,209.36Zm-2.46,45.33c-1.58,3.23-4.45,5.07-6.41,4.11s-2.27-4.36-.69-7.59,4.45-5.07,6.41-4.11S143.64,251.46,142.06,254.69Zm-5.68-19.4c1.07-2.2,3-3.45,4.36-2.8s1.55,3,.47,5.16-3,3.45-4.36,2.8S135.31,237.49,136.38,235.29ZM142.82,222c-1.58,3.23-4.45,5.07-6.41,4.11s-2.27-4.36-.69-7.59,4.45-5.07,6.41-4.11S144.4,218.8,142.82,222Z"/><path class="cls-1" d="M141.36,247.1a2.63,2.63,0,0,0-1.39-.24,7.71,7.71,0,0,1-.6,6.11c-1.24,2.53-3.26,4.2-5,4.35a2.78,2.78,0,0,0,1.3,1.47c2,1,4.83-.88,6.41-4.11S143.33,248.06,141.36,247.1Z"/><path class="cls-2" d="M140.75,232.49a2,2,0,0,0-1.6,0,5.91,5.91,0,0,1-.61,3.46,5.47,5.47,0,0,1-2.76,2.8,2.18,2.18,0,0,0,1.09,1.7c1.34.65,3.29-.6,4.36-2.8S142.08,233.14,140.75,232.49Z"/><path class="cls-1" d="M142.13,214.44a2.63,2.63,0,0,0-1.39-.24,7.71,7.71,0,0,1-.6,6.11c-1.24,2.53-3.26,4.2-5,4.35a2.78,2.78,0,0,0,1.3,1.47c2,1,4.83-.88,6.41-4.11S144.09,215.4,142.13,214.44Z"/><ellipse class="cls-3" cx="138.74" cy="237.7" rx="5.54" ry="3.79" transform="translate(-135.89 255.71) rotate(-63.48)"/><ellipse class="cls-3" cx="138.75" cy="237.74" rx="1.53" ry="1.04" transform="translate(-135.92 255.74) rotate(-63.48)"/><path class="cls-1" d="M97,161.65s-.08-4.79-.17-10.82h0l-.35-21.93a28.22,28.22,0,0,0-.64-4c0-.2-.1-.4-.15-.61s-.07-.24-.11-.37-.11-.4-.19-.61a14.33,14.33,0,0,0-.82-2c-2.5-4.86-6.57-7.6-9.87-7.55a4.63,4.63,0,0,0-.92.1,29.77,29.77,0,0,1,4.49-1.18c3.3,0,7.37,2.69,9.87,7.55a21.68,21.68,0,0,1,1.91,7.61l.35,21.93h0c.1,6,.17,10.78.17,10.82,0,2.71-.92,5.29-2.83,6.28a33.17,33.17,0,0,1-4,1.26,3,3,0,0,0,.41-.18C96.05,166.94,97,164.35,97,161.65Z"/><path class="cls-2" d="M79.61,120.54c0,.08.52,32.76.52,32.76A21.79,21.79,0,0,0,82,160.91c2.5,4.86,6.57,7.6,9.87,7.55a5.26,5.26,0,0,0,1.82-.35,3,3,0,0,0,.41-.18c1.91-1,2.87-3.57,2.83-6.28,0,0-.52-32.76-.52-32.76a28.22,28.22,0,0,0-.64-4c0-.2-.1-.4-.15-.61s-.07-.24-.11-.37-.11-.4-.19-.61a14.33,14.33,0,0,0-.82-2c-2.5-4.86-6.57-7.6-9.87-7.55a4.63,4.63,0,0,0-.92.1,4.58,4.58,0,0,0-1.31.43C80.53,115.25,79.58,117.84,79.61,120.54Zm6,31.47c2-1,4.83.88,6.41,4.11s1.27,6.63-.69,7.59-4.83-.88-6.41-4.11S83.64,153,85.6,152Zm4.51-6.66c-1.34.65-3.29-.6-4.36-2.8s-.86-4.51.47-5.16,3.29.6,4.36,2.8S91.45,144.7,90.11,145.35Zm-5.28-26c2-1,4.83.88,6.41,4.11s1.27,6.63-.69,7.59-4.83-.88-6.41-4.11S82.87,120.3,84.83,119.34Z"/><path class="cls-1" d="M85.6,152a2.63,2.63,0,0,1,1.39-.24,7.71,7.71,0,0,0,.6,6.11c1.24,2.53,3.26,4.2,5,4.35a2.78,2.78,0,0,1-1.3,1.47c-2,1-4.83-.88-6.41-4.11S83.64,153,85.6,152Z"/><path class="cls-2" d="M86.22,137.39a2,2,0,0,1,1.6,0,5.91,5.91,0,0,0,.61,3.46,5.47,5.47,0,0,0,2.76,2.8,2.18,2.18,0,0,1-1.09,1.7c-1.34.65-3.29-.6-4.36-2.8S84.88,138.05,86.22,137.39Z"/><path class="cls-1" d="M84.83,119.35a2.63,2.63,0,0,1,1.39-.24,7.71,7.71,0,0,0,.6,6.11c1.24,2.53,3.26,4.2,5,4.35a2.78,2.78,0,0,1-1.3,1.47c-2,1-4.83-.88-6.41-4.11S82.87,120.3,84.83,119.35Z"/><ellipse class="cls-3" cx="88.22" cy="142.59" rx="3.79" ry="5.54" transform="translate(-54.38 54.39) rotate(-26.52)"/><ellipse class="cls-3" cx="88.22" cy="142.63" rx="1.04" ry="1.53" transform="translate(-54.4 54.4) rotate(-26.52)"/></g></g></svg>