<svg xmlns="http://www.w3.org/2000/svg" viewBox="0 0 275.87 370.73"><defs><style>.cls-1{fill:#8baab9;}.cls-1,.cls-2,.cls-3,.cls-4,.cls-5{stroke:#000;stroke-linecap:round;stroke-linejoin:round;stroke-width:0.1px;}.cls-2{fill:#a1c5d3;}.cls-3{fill:#e6e7e8;}.cls-4{fill:#d1d3d4;}.cls-5{fill:none;}</style></defs><title>dogmap</title><g id="Layer_2" data-name="Layer 2"><g id="Layer_1-2" data-name="Layer 1"><path class="cls-1" d="M104,116.67l0-31.38a27.55,27.55,0,0,1,.55-3.83c0-.19.09-.38.14-.58s.06-.23.1-.35.1-.39.17-.58a13.58,13.58,0,0,1,.76-1.93c2.32-4.67,6.15-7.34,9.3-7.33a5.14,5.14,0,0,1,.88.08,27.83,27.83,0,0,0-4.29-1.06c-3.15,0-7,2.67-9.3,7.33a20.88,20.88,0,0,0-1.71,7.27l-.09,30.85Z"/><path class="cls-2" d="M117.14,71.16a4.44,4.44,0,0,0-1.25-.39,5.14,5.14,0,0,0-.88-.08c-3.15,0-7,2.67-9.3,7.33A13.13,13.13,0,0,0,105,80c-.07.2-.11.39-.17.58s-.07.23-.1.35-.1.39-.14.58a26.31,26.31,0,0,0-.55,3.83l0,31.36,15.93-8.33s0-31.15,0-31.22C119.93,74.52,119,72.07,117.14,71.16Zm-1.43,12.09c-1.46,3.1-4.17,4.9-6,4s-2.23-4.12-.77-7.22,4.17-4.9,6-4S117.17,80.15,115.71,83.25Z"/><path class="cls-2" d="M114.94,76a2.49,2.49,0,0,0-1.33-.2,7.33,7.33,0,0,1-.49,5.83c-1.14,2.43-3.05,4-4.72,4.22a2.63,2.63,0,0,0,1.26,1.38c1.88.89,4.59-.91,6-4S116.82,76.92,114.94,76Z"/><path class="cls-2" d="M139.8,215.07a2.65,2.65,0,0,1,1.83-.11c-.78,1.44-.69,3.79.38,6.08a7.34,7.34,0,0,0,4.23,4.13,2.58,2.58,0,0,1-1.15,1.14c-1.88.89-4.59-.91-6.05-4S137.91,216,139.8,215.07Z"/><path class="cls-2" d="M118.47,203.94a2.65,2.65,0,0,1,1.83-.11c-.78,1.44-.69,3.79.38,6.08a7.34,7.34,0,0,0,4.23,4.13,2.58,2.58,0,0,1-1.15,1.14c-1.88.89-4.59-.91-6.05-4S116.59,204.83,118.47,203.94Z"/><path class="cls-2" d="M142.9,211.6c-1.8-.54-6.46-1.34-10.53-3.33s-8.4-7.5-12.52-8.25a6.78,6.78,0,0,0-4.19.29,8.41,8.41,0,0,1,7.67-2.07c4.12.75,8.32,6.2,12.52,8.25s8.76,2.72,10.53,3.33c4,1.36,7.15,4.12,7.35,9.19l.07,12.85-3.45,1.65-.1-12.73A9.87,9.87,0,0,0,142.9,211.6Z"/><path class="cls-1" d="M150.36,233.55v0l-.1-12.73a9.89,9.89,0,0,0-7.35-9.19c-1.8-.54-6.46-1.34-10.53-3.33s-8.4-7.5-12.52-8.25a6.78,6.78,0,0,0-4.19.29c-2.56,1.22-2.18,4.41-2.18,4.41l0,9.49ZM139.8,215.07c1.88-.89,4.59.91,6,4s1.12,6.33-.77,7.22-4.59-.91-6.05-4S137.91,216,139.8,215.07Zm-16,.1c-1.88.89-4.59-.91-6.05-4s-1.12-6.33.77-7.22,4.59.91,6,4S125.64,214.29,123.76,215.17Zm10.27-.74c1,2.11.76,4.31-.52,4.91s-3.13-.62-4.12-2.73-.76-4.31.52-4.91S133,212.32,134,214.43Z"/><path class="cls-2" d="M129.91,211.7a1.87,1.87,0,0,1,1.52,0A5.52,5.52,0,0,0,132,215a5.24,5.24,0,0,0,2.59,2.71,2.1,2.1,0,0,1-1.06,1.61c-1.28.6-3.13-.62-4.12-2.73S128.63,212.3,129.91,211.7Z"/><path class="cls-2" d="M128.9,176.62s0-4.57,0-10.32h0l0-20.9a27.42,27.42,0,0,0-.54-3.83c0-.19-.09-.39-.13-.58l-.09-.35c-.06-.19-.1-.39-.17-.58a13.55,13.55,0,0,0-.75-1.93c-2.3-4.68-6.13-7.35-9.28-7.36a5.14,5.14,0,0,0-.88.08,27.55,27.55,0,0,1,4.29-1c3.15,0,7,2.69,9.28,7.36a20.83,20.83,0,0,1,1.69,7.28l0,20.9h0c0,5.75,0,10.28,0,10.32,0,2.58-1,5-2.81,5.93a34.87,34.87,0,0,1-3.81,1.14l.39-.16C127.93,181.65,128.88,179.2,128.9,176.62Z"/><path class="cls-1" d="M113.06,137.17c0,.07-.06,31.22-.06,31.22a20.66,20.66,0,0,0,1.69,7.28c2.3,4.68,6.13,7.35,9.28,7.36a5,5,0,0,0,1.74-.3l.39-.16c1.84-.91,2.79-3.35,2.81-5.93,0,0,.06-31.22.06-31.22a27.42,27.42,0,0,0-.54-3.83c0-.19-.09-.39-.13-.58l-.09-.35c-.06-.19-.1-.39-.17-.58a13.55,13.55,0,0,0-.75-1.93c-2.3-4.68-6.13-7.35-9.28-7.36a5.14,5.14,0,0,0-.88.08,4.44,4.44,0,0,0-1.25.39C114,132.14,113.07,134.59,113.06,137.17Zm5.17,30.07c1.89-.88,4.59.92,6,4s1.1,6.34-.79,7.22-4.59-.92-6-4S116.34,168.12,118.23,167.24Zm-.17-31.13c1.89-.88,4.59.92,6,4s1.1,6.34-.79,7.22-4.59-.92-6-4S116.17,137,118.06,136.11Z"/><path class="cls-2" d="M118.23,167.24a2.49,2.49,0,0,1,1.33-.2,7.35,7.35,0,0,0,.47,5.84c1.13,2.43,3,4.05,4.71,4.23a2.63,2.63,0,0,1-1.26,1.38c-1.89.88-4.59-.92-6-4S116.34,168.12,118.23,167.24Z"/><path class="cls-2" d="M118.06,136.11a2.49,2.49,0,0,1,1.33-.2,7.35,7.35,0,0,0,.47,5.84c1.13,2.43,3,4.05,4.71,4.23a2.63,2.63,0,0,1-1.26,1.38c-1.89.88-4.59-.92-6-4S116.17,137,118.06,136.11Z"/><path class="cls-1" d="M112,183.26l-.25-.15v.38A.94.94,0,0,1,112,183.26Z"/><path class="cls-1" d="M121.66,183.64v-.5l-.25.15A.51.51,0,0,1,121.66,183.64Z"/><path class="cls-3" d="M121.8,203.35v.33c0,.8-1.53,2.5-5,2.51-3.79,0-5-1.68-5-2.48v-.45a9.88,9.88,0,1,0,10,.09Z"/><path class="cls-1" d="M111.66,183.07v.61a.39.39,0,0,1,.08-.19v-.38Z"/><path class="cls-3" d="M116.81,206.19c3.47,0,5-1.72,5-2.51v-.33l0-5.68v-1.06l0-13.51-.07,0v.5a.51.51,0,0,0-.24-.35,9.87,9.87,0,0,1-9.45,0,.94.94,0,0,0-.25.23l0,13.15v1.06l0,5.56v.45C111.79,204.5,113,206.2,116.81,206.19Z"/><path class="cls-3" d="M112,183.26a9.87,9.87,0,0,0,9.45,0l.25-.15.07,0a9.87,9.87,0,1,0-10.07,0l.06,0Z"/><path class="cls-1" d="M120.89,114.57l.25-.15v.38A.81.81,0,0,0,120.89,114.57Z"/><path class="cls-1" d="M111.2,115v-.5l.25.15C111.3,114.72,111.2,114.83,111.2,115Z"/><path class="cls-3" d="M111.06,134.66V135c0,.8,1.53,2.5,5,2.51,3.79,0,5-1.68,5-2.48v-.45a9.88,9.88,0,1,1-10,.09Z"/><path class="cls-1" d="M121.2,114.38V115a.39.39,0,0,0-.08-.19v-.38Z"/><path class="cls-3" d="M116.06,137.5c-3.47,0-5-1.72-5-2.51v-.33l0-5.68v-1.06l0-13.51.07,0v.5a.51.51,0,0,1,.24-.35,9.87,9.87,0,0,0,9.45,0,.94.94,0,0,1,.25.23l0,13.15V129l0,5.56V135C121.07,135.82,119.85,137.51,116.06,137.5Z"/><polygon class="cls-3" points="118.38 116.14 104.17 110.11 104.14 110.11 104.16 114.3 118.45 120.37 118.38 120.34 118.38 116.14"/><polygon class="cls-1" points="118.45 116.17 118.38 116.14 118.38 120.34 118.45 120.37 132.6 113.02 132.56 108.84 118.45 116.17"/><path class="cls-3" d="M104.17,110.11l14.21,6,.07,0,14.11-7.33.17-.73-13.45-5.76Zm9.77-.82c-.06-1.58,2-2.94,4.58-3s4.75,1.09,4.81,2.67-2,2.94-4.58,3S114,110.87,113.94,109.29Z"/><path class="cls-1" d="M122.54,110.58a5.79,5.79,0,0,0-4-1.18,6,6,0,0,0-3.79,1.37,2.13,2.13,0,0,1-.79-1.48c-.06-1.58,2-2.94,4.58-3s4.75,1.09,4.81,2.67A2.2,2.2,0,0,1,122.54,110.58Z"/><path class="cls-4" d="M111.17,158.89,122.39,156c1-.09,2.14,1.06,2.57,2.72s0,3.2-.92,3.63l-11.22,2.87c-1,0-2.09-1.1-2.52-2.72S110.27,159.34,111.17,158.89Z"/><path class="cls-4" d="M123,98.92l-10.75-4.31c-1-.22-2.26.78-2.9,2.36s-.43,3.17.44,3.72L120.53,105c1,.17,2.22-.82,2.85-2.38S123.81,99.49,123,98.92Z"/><path class="cls-2" d="M116.59,181.89s0-4.57,0-10.32h0l0-20.9a27.42,27.42,0,0,0-.54-3.83c0-.19-.09-.39-.13-.58l-.09-.35c-.06-.19-.1-.39-.17-.58a13.55,13.55,0,0,0-.75-1.93c-2.3-4.68-6.13-7.35-9.28-7.36a5.14,5.14,0,0,0-.88.08,27.55,27.55,0,0,1,4.29-1.05c3.15,0,7,2.69,9.28,7.36a20.83,20.83,0,0,1,1.69,7.28l0,20.9h0c0,5.75,0,10.28,0,10.32,0,2.58-1,5-2.81,5.93a34.87,34.87,0,0,1-3.81,1.14l.39-.16C115.63,186.92,116.58,184.47,116.59,181.89Z"/><path class="cls-1" d="M100.75,142.43c0,.07-.06,31.22-.06,31.22a20.66,20.66,0,0,0,1.69,7.28c2.3,4.68,6.13,7.35,9.28,7.36a5,5,0,0,0,1.74-.3l.39-.16c1.84-.91,2.79-3.35,2.81-5.93,0,0,.06-31.22.06-31.22a27.42,27.42,0,0,0-.54-3.83c0-.19-.09-.39-.13-.58l-.09-.35c-.06-.19-.1-.39-.17-.58a13.55,13.55,0,0,0-.75-1.93c-2.3-4.68-6.13-7.35-9.28-7.36a5.14,5.14,0,0,0-.88.08,4.44,4.44,0,0,0-1.25.39C101.72,137.4,100.77,139.85,100.75,142.43Zm5.18,30.08c1.89-.88,4.59.92,6,4s1.1,6.34-.79,7.22-4.59-.92-6-4S104,173.39,105.93,172.51Zm4.41-6.26c-1.28.6-3.12-.63-4.11-2.74s-.75-4.31.54-4.91,3.12.63,4.11,2.74S111.62,165.65,110.34,166.25Zm-4.59-24.87c1.89-.88,4.59.92,6,4s1.1,6.34-.79,7.22-4.59-.92-6-4S103.87,142.26,105.75,141.38Z"/><path class="cls-2" d="M105.93,172.51a2.49,2.49,0,0,1,1.33-.2,7.35,7.35,0,0,0,.47,5.84c1.13,2.43,3,4,4.71,4.23a2.63,2.63,0,0,1-1.26,1.38c-1.89.88-4.59-.92-6-4S104,173.39,105.93,172.51Z"/><path class="cls-2" d="M106.76,158.59a1.91,1.91,0,0,1,1.52,0,5.58,5.58,0,0,0,.53,3.31,5.23,5.23,0,0,0,2.59,2.72,2.06,2.06,0,0,1-1.06,1.6c-1.28.6-3.12-.63-4.11-2.74S105.48,159.19,106.76,158.59Z"/><path class="cls-2" d="M105.75,141.38a2.49,2.49,0,0,1,1.33-.2,7.35,7.35,0,0,0,.47,5.84c1.13,2.43,3,4,4.71,4.23a2.63,2.63,0,0,1-1.26,1.38c-1.89.88-4.59-.92-6-4S103.87,142.26,105.75,141.38Z"/><ellipse class="cls-4" cx="108.38" cy="163.28" rx="3.58" ry="5.24" transform="translate(-34.59 29.25) rotate(-13.27)"/><ellipse class="cls-4" cx="108.37" cy="163.31" rx="0.99" ry="1.45" transform="translate(-34.6 29.24) rotate(-13.27)"/><path class="cls-4" d="M120.12,216.67l10.33-5.24c1-.3,2.32.57,3.1,2.1s.71,3.12-.11,3.74l-10.33,5.23c-1,.26-2.28-.62-3-2.11S119.34,217.31,120.12,216.67Z"/><circle class="cls-3" cx="137.21" cy="223.35" r="9.88"/><polygon class="cls-3" points="144.79 234.19 140.46 230.41 140.47 227.53 140.58 227.57 146.77 232.97 144.79 234.19"/><path class="cls-3" d="M159.08,241.93l8.16-5.12a1.59,1.59,0,0,0,.94-1.47c.5,1.56.07,3.8-.94,4.38l-8.16,5.12c-2.76,1.29-3.89.63-6.6-.76l-10.31-5.36v-2.87l.12,0,10.16,5.25C155.16,242.51,156.32,243.22,159.08,241.93Z"/><path class="cls-3" d="M140.58,227.57l6.19,5.4-3.3,2-1.3.8h0l.1.05,10.16,5.25c2.71,1.38,3.87,2.1,6.63.81l8.16-5.12a1.59,1.59,0,0,0,.94-1.47,1.77,1.77,0,0,0-.74-1.24,3.64,3.64,0,0,0-.73-.45l-11.37-6-3.6,2.19-6.25-5.33-5,3Zm20.89,7.81c0,1.85-2.46,3.36-5.5,3.38s-5.52-1.48-5.53-3.33,2.46-3.36,5.5-3.38S161.46,233.53,161.47,235.38Z"/><path class="cls-3" d="M161.47,235.38a2.36,2.36,0,0,1-.59,1.52,6.32,6.32,0,0,0-5-2,6.54,6.54,0,0,0-4.91,1.86,2.27,2.27,0,0,1-.49-1.36c0-1.85,2.46-3.36,5.5-3.38S161.46,233.53,161.47,235.38Z"/><path class="cls-2" d="M127.88,219.84a2.65,2.65,0,0,1,1.83-.11c-.78,1.44-.69,3.79.38,6.08a7.34,7.34,0,0,0,4.23,4.13,2.58,2.58,0,0,1-1.15,1.14c-1.88.89-4.59-.91-6-4S126,220.73,127.88,219.84Z"/><path class="cls-2" d="M106.55,208.71a2.65,2.65,0,0,1,1.83-.11c-.78,1.44-.69,3.79.38,6.08a7.34,7.34,0,0,0,4.23,4.13,2.58,2.58,0,0,1-1.15,1.14c-1.88.89-4.59-.91-6-4S104.67,209.6,106.55,208.71Z"/><path class="cls-2" d="M131,216.37c-1.8-.54-6.46-1.34-10.53-3.33s-8.4-7.5-12.52-8.25a6.78,6.78,0,0,0-4.19.29,8.41,8.41,0,0,1,7.67-2.07c4.12.75,8.32,6.2,12.52,8.25s8.76,2.72,10.53,3.33c4,1.36,7.15,4.12,7.35,9.19l.07,12.85-3.45,1.65-.1-12.73A9.87,9.87,0,0,0,131,216.37Z"/><path class="cls-1" d="M138.43,238.32v0l-.1-12.73a9.89,9.89,0,0,0-7.35-9.19c-1.8-.54-6.46-1.34-10.53-3.33s-8.4-7.5-12.52-8.25a6.78,6.78,0,0,0-4.19.29c-2.56,1.22-2.18,4.41-2.18,4.41l0,9.49Zm-10.55-18.48c1.88-.89,4.59.91,6.05,4s1.12,6.33-.77,7.22-4.59-.91-6-4S126,220.73,127.88,219.84Zm-16,.1c-1.88.89-4.59-.91-6-4s-1.12-6.33.77-7.22,4.59.91,6,4S113.72,219.06,111.83,219.94Zm10.28-.74c1,2.11.76,4.31-.52,4.91s-3.13-.62-4.12-2.73-.76-4.31.52-4.91S121.12,217.09,122.11,219.2Z"/><path class="cls-2" d="M118,216.47a1.87,1.87,0,0,1,1.52,0,5.52,5.52,0,0,0,.54,3.31,5.24,5.24,0,0,0,2.59,2.71,2.1,2.1,0,0,1-1.06,1.61c-1.28.6-3.13-.62-4.12-2.73S116.71,217.07,118,216.47Z"/><path class="cls-3" d="M107.32,81.17l.31-.11c.75-.28,2.87.57,4.08,3.83,1.31,3.56.14,5.28-.6,5.56l-.42.15a9.87,9.87,0,1,0-3.37-9.43Z"/><path class="cls-3" d="M114.16,84c-1.2-3.26-4.15-3.74-4.89-3.47l-.31.11-5.33,2-1,.37L86,89.12h0l.06.05.22.18a9.87,9.87,0,0,1,3.22,8.89c0,.09,0,.18,0,.27l16.63-6.12,1-.37,5.22-1.93.42-.15C113.48,89.66,115.47,87.57,114.16,84Z"/><path class="cls-3" d="M97.16,90.83a9.79,9.79,0,0,0-2.72-4l-.22-.18-.06-.05h0a9.88,9.88,0,1,0,3.44,9.48s0,0,0-.07h0a2.56,2.56,0,0,0,.05-.27A9.82,9.82,0,0,0,97.16,90.83Z"/><path class="cls-1" d="M117.11,121.84l0-31.38a27.55,27.55,0,0,1,.55-3.83c0-.19.09-.38.14-.58s.06-.23.1-.35.1-.39.17-.58a13.58,13.58,0,0,1,.76-1.93c2.32-4.67,6.15-7.34,9.3-7.33a5.14,5.14,0,0,1,.88.08,27.83,27.83,0,0,0-4.29-1.06c-3.15,0-7,2.67-9.3,7.33a20.88,20.88,0,0,0-1.71,7.27l-.09,30.85Z"/><path class="cls-2" d="M130.29,76.33a4.44,4.44,0,0,0-1.25-.39,5.14,5.14,0,0,0-.88-.08c-3.15,0-7,2.67-9.3,7.33a13.13,13.13,0,0,0-.76,1.93c-.07.2-.11.39-.17.58s-.07.23-.1.35-.1.39-.14.58a26.31,26.31,0,0,0-.55,3.83l0,31.36L133,113.49s0-31.15,0-31.22C133.07,79.69,132.13,77.24,130.29,76.33Zm-7.38,24.82c1-2.11,2.84-3.33,4.12-2.73s1.52,2.8.52,4.91-2.84,3.33-4.12,2.73S121.91,103.26,122.91,101.15Zm5.94-12.73c-1.46,3.1-4.17,4.9-6,4s-2.23-4.12-.77-7.22,4.17-4.9,6.05-4S130.31,85.32,128.85,88.42Z"/><path class="cls-2" d="M127,98.42a1.87,1.87,0,0,0-1.52,0,5.52,5.52,0,0,1-.54,3.31,5.24,5.24,0,0,1-2.59,2.71,2.1,2.1,0,0,0,1.06,1.61c1.28.6,3.13-.62,4.12-2.73S128.31,99,127,98.42Z"/><path class="cls-2" d="M128.09,81.2a2.49,2.49,0,0,0-1.33-.2,7.33,7.33,0,0,1-.49,5.83c-1.14,2.43-3,4-4.73,4.22a2.63,2.63,0,0,0,1.26,1.38c1.88.89,4.59-.91,6-4S130,82.09,128.09,81.2Z"/><polygon class="cls-3" points="119.84 114.34 130.57 108.7 130.57 113.08 119.84 118.7 119.84 114.34"/><ellipse class="cls-4" cx="125.37" cy="102.64" rx="5.24" ry="3.58" transform="translate(-21.55 170.96) rotate(-64.25)"/><ellipse class="cls-4" cx="125.38" cy="102.68" rx="1.45" ry="0.99" transform="translate(-21.58 170.99) rotate(-64.25)"/><path class="cls-2" d="M81.1,100.3a2.29,2.29,0,0,0,.12.37,2.19,2.19,0,0,0,.16.3l0,0a3.83,3.83,0,0,0,.56.67h0a9.5,9.5,0,0,1,5.52-1.64c3.11-.1,6,.78,7.4,2.12h0a3.08,3.08,0,0,0,.88-1.06l0-.06a1.8,1.8,0,0,0,.15-.55.28.28,0,0,1,0-.09,1.64,1.64,0,0,0,0-.58c-.48-2.07-4.18-3.64-8.28-3.51S80.63,98.23,81.1,100.3Z"/><path class="cls-2" d="M44.36,101.24a2.29,2.29,0,0,0,.12.37,2.19,2.19,0,0,0,.16.3l0,0a3.83,3.83,0,0,0,.56.67h0A9.5,9.5,0,0,1,50.75,101c3.11-.1,6,.78,7.4,2.12h0a3.08,3.08,0,0,0,.88-1.06l0-.06a1.8,1.8,0,0,0,.15-.55.28.28,0,0,1,0-.09,1.64,1.64,0,0,0,0-.58C58.7,98.7,55,97.13,50.9,97.26S43.89,99.17,44.36,101.24Z"/><path class="cls-2" d="M38.86,119.92a2.29,2.29,0,0,0,.12.37,2.19,2.19,0,0,0,.16.3l0,0a3.83,3.83,0,0,0,.56.67h0a9.5,9.5,0,0,1,5.52-1.64c3.11-.1,6,.78,7.4,2.12h0a3.08,3.08,0,0,0,.88-1.06l0-.06a1.8,1.8,0,0,0,.15-.55.28.28,0,0,1,0-.09,1.64,1.64,0,0,0,0-.58c-.48-2.07-4.18-3.64-8.28-3.51S38.39,117.85,38.86,119.92Z"/><path class="cls-1" d="M53,123.7c-11.52,2.8-17.69-3.58-17.69-3.58s-1.82,10.64,7.42,11l25.42,2.11L99.46,118l.07,0v-4.51Z"/><path class="cls-2" d="M99.19,97.44c0-3-5.36-4.31-12.06-4l-35.91.47c-5.5-.1-10,.93-10.38,4.31-.08.66-5.29,20.7-5.29,20.7s-2.39,7,7.06,7.89L68,128.9l31.38-15.2.07,0Zm-53.1,26c-4.13-.14-7.43-1.93-7.36-4s3.48-3.64,7.61-3.5,7.43,1.93,7.36,4S50.23,123.58,46.09,123.45Zm13.13-22a2.14,2.14,0,0,1-.15.55l0,.06a3.08,3.08,0,0,1-.88,1.06,9.5,9.5,0,0,1-5.52,1.64c-3.11.1-6-.78-7.4-2.12h0a3.17,3.17,0,0,1-.56-.67l0,0a2.19,2.19,0,0,1-.16-.3,2.65,2.65,0,0,1-.12-.37,2.33,2.33,0,0,1,1-2.33,9.52,9.52,0,0,1,5.52-1.66,12.6,12.6,0,0,1,6.15,1.26,3.84,3.84,0,0,1,2.13,2.25,1.91,1.91,0,0,1,0,.58A.54.54,0,0,0,59.22,101.43ZM96,100.5a2.14,2.14,0,0,1-.15.55l0,.06a3.08,3.08,0,0,1-.88,1.06,9.5,9.5,0,0,1-5.52,1.64c-3.11.1-6-.78-7.4-2.12h0a3.17,3.17,0,0,1-.56-.67l0,0a2.19,2.19,0,0,1-.16-.3,2.65,2.65,0,0,1-.12-.37,2.56,2.56,0,0,1,1.48-2.66,10.37,10.37,0,0,1,5.07-1.33,13.27,13.27,0,0,1,5.56,1,4.25,4.25,0,0,1,2.71,2.55,1.91,1.91,0,0,1,0,.58A.38.38,0,0,0,96,100.5Z"/><polygon class="cls-2" points="76.08 121.47 71.57 119.29 84.65 113.22 89.78 115.24 76.08 121.47"/><line class="cls-5" x1="67.99" y1="128.9" x2="68.04" y2="133.25"/><path class="cls-4" d="M90.25,98.4,90.33,110c.18,1,1.57,1.8,3.29,1.79s3.1-.8,3.27-1.82l-.1-11.58c-.22-1-1.59-1.75-3.28-1.74S90.46,97.42,90.25,98.4Z"/><polygon class="cls-3" points="75.67 108.74 75.55 124.17 75.54 124.2 71.7 122.52 71.82 106.99 71.82 107.07 75.67 108.74"/><polygon class="cls-1" points="75.67 108.66 75.67 108.74 71.82 107.07 71.82 106.99 84.2 96.94 88.01 98.64 75.67 108.66"/><path class="cls-3" d="M91.69,116.65,91.76,102,88,98.64l-12.34,10v.07l-.12,15.44Z"/><path class="cls-1" d="M3.51,158.6l0-31.38a27.55,27.55,0,0,1,.55-3.83c0-.19.09-.38.14-.58s.06-.23.1-.35.1-.39.17-.58A13.58,13.58,0,0,1,5.27,120c2.32-4.67,6.15-7.34,9.3-7.33a5.14,5.14,0,0,1,.88.08,27.83,27.83,0,0,0-4.29-1.06c-3.15,0-7,2.67-9.3,7.33a20.88,20.88,0,0,0-1.71,7.27l-.1,30.85Z"/><path class="cls-2" d="M16.69,113.08a4.44,4.44,0,0,0-1.25-.39,5.14,5.14,0,0,0-.88-.08c-3.15,0-7,2.67-9.3,7.33a13.13,13.13,0,0,0-.76,1.93c-.07.2-.11.39-.17.58s-.07.23-.1.35-.1.39-.14.58a26.31,26.31,0,0,0-.55,3.83l0,31.36,15.93-8.33s0-31.15,0-31.22C19.47,116.45,18.53,114,16.69,113.08Zm-1.44,12.1c-1.46,3.1-4.17,4.9-6.05,4S7,125.07,8.43,122s4.17-4.9,6.05-4S16.71,122.08,15.25,125.18Z"/><path class="cls-2" d="M14.49,118a2.49,2.49,0,0,0-1.33-.2,7.33,7.33,0,0,1-.49,5.83c-1.14,2.43-3.05,4-4.72,4.22a2.63,2.63,0,0,0,1.26,1.38c1.88.89,4.59-.91,6-4S16.37,118.85,14.49,118Z"/><path class="cls-3" d="M36.72,112.63l.31-.11c.75-.28,2.87.57,4.08,3.83,1.32,3.56.14,5.28-.6,5.56l-.42.15a9.87,9.87,0,1,0-3.37-9.43Z"/><path class="cls-3" d="M43.56,115.48c-1.2-3.26-4.15-3.74-4.89-3.47l-.31.11-5.33,2-1,.37-16.62,6.12h0l.06,0,.22.18a9.87,9.87,0,0,1,3.22,8.89c0,.09,0,.18-.05.27l16.63-6.12,1-.37,5.22-1.93.42-.15C42.88,121.12,44.87,119,43.56,115.48Z"/><path class="cls-3" d="M26.56,122.29a9.79,9.79,0,0,0-2.72-4l-.22-.18-.06,0h0A9.88,9.88,0,1,0,27,127.56s0,0,0-.07h0a2.56,2.56,0,0,0,.05-.27A9.7,9.7,0,0,0,26.56,122.29Z"/><path class="cls-2" d="M39.34,257a2.65,2.65,0,0,1,1.83-.11c-.78,1.44-.69,3.79.38,6.08a7.34,7.34,0,0,0,4.23,4.13,2.58,2.58,0,0,1-1.15,1.14c-1.88.89-4.59-.91-6.05-4S37.46,257.88,39.34,257Z"/><path class="cls-2" d="M18,245.87a2.65,2.65,0,0,1,1.83-.11c-.78,1.44-.69,3.79.38,6.08A7.34,7.34,0,0,0,24.46,256a2.58,2.58,0,0,1-1.15,1.14c-1.88.89-4.59-.91-6-4S16.13,246.76,18,245.87Z"/><path class="cls-2" d="M42.45,253.52c-1.8-.54-6.46-1.34-10.53-3.33s-8.4-7.5-12.52-8.25a6.78,6.78,0,0,0-4.19.29,8.41,8.41,0,0,1,7.67-2.07c4.12.75,8.32,6.2,12.52,8.25s8.76,2.72,10.53,3.33c4,1.36,7.15,4.12,7.35,9.19l.07,12.85-3.45,1.65-.1-12.73A9.89,9.89,0,0,0,42.45,253.52Z"/><path class="cls-1" d="M49.9,275.48v0l-.1-12.73a9.89,9.89,0,0,0-7.35-9.19c-1.8-.54-6.46-1.34-10.53-3.33s-8.4-7.5-12.52-8.25a6.78,6.78,0,0,0-4.19.29c-2.56,1.22-2.18,4.41-2.18,4.41l0,9.49ZM39.34,257c1.88-.89,4.59.91,6,4s1.12,6.33-.77,7.22-4.59-.91-6-4S37.46,257.88,39.34,257Zm-16,.1c-1.88.89-4.59-.91-6.05-4s-1.12-6.33.77-7.22,4.59.91,6.05,4S25.19,256.21,23.3,257.1Zm10.28-.75c1,2.11.76,4.31-.52,4.91s-3.13-.62-4.12-2.73-.76-4.31.52-4.91S32.58,254.24,33.58,256.35Z"/><path class="cls-2" d="M29.46,253.62a1.87,1.87,0,0,1,1.52,0,5.52,5.52,0,0,0,.54,3.31,5.24,5.24,0,0,0,2.59,2.71,2.1,2.1,0,0,1-1.06,1.61c-1.28.6-3.13-.62-4.12-2.73S28.18,254.23,29.46,253.62Z"/><path class="cls-2" d="M28.44,218.55s0-4.57,0-10.32h0l0-20.9A27.42,27.42,0,0,0,28,183.5c0-.19-.09-.39-.13-.58l-.09-.35c-.06-.19-.1-.39-.17-.58a13.55,13.55,0,0,0-.75-1.93c-2.3-4.68-6.13-7.35-9.28-7.36a5.14,5.14,0,0,0-.88.08A27.55,27.55,0,0,1,21,171.73c3.15,0,7,2.69,9.28,7.36a20.83,20.83,0,0,1,1.69,7.28l0,20.9h0c0,5.75,0,10.28,0,10.32,0,2.58-1,5-2.81,5.93a34.87,34.87,0,0,1-3.81,1.14l.39-.16C27.47,223.58,28.43,221.13,28.44,218.55Z"/><path class="cls-1" d="M12.6,179.09c0,.07-.06,31.22-.06,31.22a20.66,20.66,0,0,0,1.69,7.28c2.3,4.68,6.13,7.35,9.28,7.36a5,5,0,0,0,1.74-.3l.39-.16c1.84-.91,2.79-3.35,2.81-5.93,0,0,.06-31.22.06-31.22a27.42,27.42,0,0,0-.54-3.83c0-.19-.09-.39-.13-.58l-.09-.35c-.06-.19-.1-.39-.17-.58a13.55,13.55,0,0,0-.75-1.93c-2.3-4.68-6.13-7.35-9.28-7.36a5.14,5.14,0,0,0-.88.08,4.44,4.44,0,0,0-1.25.39C13.57,174.06,12.62,176.51,12.6,179.09Zm5.17,30.08c1.89-.88,4.59.92,6,4s1.1,6.34-.79,7.22-4.59-.92-6-4S15.89,210.05,17.77,209.17ZM17.6,178c1.89-.88,4.59.92,6,4s1.1,6.34-.79,7.22-4.59-.92-6-4S15.72,178.92,17.6,178Z"/><path class="cls-2" d="M17.77,209.17a2.49,2.49,0,0,1,1.33-.2,7.35,7.35,0,0,0,.47,5.84c1.13,2.43,3,4.05,4.71,4.23A2.63,2.63,0,0,1,23,220.42c-1.89.88-4.59-.92-6-4S15.89,210.05,17.77,209.17Z"/><path class="cls-2" d="M17.6,178a2.49,2.49,0,0,1,1.33-.2,7.35,7.35,0,0,0,.47,5.84c1.13,2.43,3,4,4.71,4.23a2.63,2.63,0,0,1-1.26,1.38c-1.89.88-4.59-.92-6-4S15.72,178.92,17.6,178Z"/><path class="cls-1" d="M11.52,225.18l-.25-.15v.38A.71.71,0,0,1,11.52,225.18Z"/><path class="cls-1" d="M21.21,225.57v-.5l-.25.15C21.11,225.33,21.21,225.44,21.21,225.57Z"/><path class="cls-3" d="M21.35,245.27v.33c0,.8-1.53,2.5-5,2.51-3.79,0-5-1.68-5-2.48v-.45a9.88,9.88,0,1,0,10,.09Z"/><path class="cls-1" d="M11.21,225v.61a.39.39,0,0,1,.08-.19V225Z"/><path class="cls-3" d="M16.35,248.11c3.47,0,5-1.72,5-2.51v-.33l0-5.68v-1.06l0-13.51-.07,0v.5a.51.51,0,0,0-.24-.35,9.87,9.87,0,0,1-9.45,0,.94.94,0,0,0-.25.23l0,13.15v1.06l0,5.56v.45C11.34,246.43,12.56,248.12,16.35,248.11Z"/><path class="cls-3" d="M11.52,225.18a9.87,9.87,0,0,0,9.45,0l.25-.15.07,0a9.87,9.87,0,1,0-10.07,0l.06,0Z"/><path class="cls-1" d="M20.44,156.5l.25-.15v.38A.94.94,0,0,0,20.44,156.5Z"/><path class="cls-1" d="M10.75,156.88v-.5l.25.15A.51.51,0,0,0,10.75,156.88Z"/><path class="cls-3" d="M10.61,176.59v.33c0,.8,1.53,2.5,5,2.51,3.79,0,5-1.68,5-2.48v-.45a9.88,9.88,0,1,1-10,.09Z"/><path class="cls-1" d="M20.75,156.31v.61a.39.39,0,0,0-.08-.19v-.38Z"/><path class="cls-3" d="M15.6,179.43c-3.47,0-5-1.72-5-2.51v-.33l0-5.68v-1.06l0-13.51.07,0v.5a.51.51,0,0,1,.24-.35,9.87,9.87,0,0,0,9.45,0,.94.94,0,0,1,.25.23l0,13.15v1.06l0,5.56V177C20.62,177.74,19.4,179.44,15.6,179.43Z"/><polygon class="cls-3" points="17.93 158.07 3.72 152.03 3.69 152.03 3.7 156.22 18 162.29 17.93 162.26 17.93 158.07"/><polygon class="cls-1" points="18 158.09 17.93 158.07 17.93 162.26 18 162.29 32.14 154.94 32.1 150.76 18 158.09"/><path class="cls-3" d="M3.72,152l14.21,6,.07,0,14.11-7.33.17-.73-13.45-5.76Zm9.76-.81c-.06-1.58,2-2.94,4.58-3s4.75,1.09,4.81,2.67-2,2.94-4.58,3S13.54,152.79,13.48,151.22Z"/><path class="cls-1" d="M22.08,152.51a5.79,5.79,0,0,0-4-1.18,6,6,0,0,0-3.79,1.37,2.13,2.13,0,0,1-.79-1.48c-.06-1.58,2-2.94,4.58-3s4.75,1.09,4.81,2.67A2.17,2.17,0,0,1,22.08,152.51Z"/><path class="cls-2" d="M32.8,77.42s0-4.57,0-10.32h0l0-20.9a27.42,27.42,0,0,0-.54-3.83c0-.19-.09-.39-.13-.58l-.09-.35c-.06-.19-.1-.39-.17-.58a13.55,13.55,0,0,0-.75-1.93c-2.3-4.68-6.13-7.35-9.28-7.36a5.14,5.14,0,0,0-.88.08,27.55,27.55,0,0,1,4.29-1c3.15,0,7,2.69,9.28,7.36a20.83,20.83,0,0,1,1.69,7.28l0,20.9h0c0,5.75,0,10.28,0,10.32,0,2.58-1,5-2.81,5.93a34.87,34.87,0,0,1-3.81,1.14l.39-.16C31.83,82.44,32.78,80,32.8,77.42Z"/><path class="cls-1" d="M17,38c0,.07-.06,31.22-.06,31.22a20.66,20.66,0,0,0,1.69,7.28c2.3,4.68,6.13,7.35,9.28,7.36a5,5,0,0,0,1.74-.3l.39-.16c1.84-.91,2.79-3.35,2.81-5.93,0,0,.06-31.22.06-31.22a27.42,27.42,0,0,0-.54-3.83c0-.19-.09-.39-.13-.58l-.09-.35c-.06-.19-.1-.39-.17-.58a13.55,13.55,0,0,0-.75-1.93c-2.3-4.68-6.13-7.35-9.28-7.36a5.14,5.14,0,0,0-.88.08,4.44,4.44,0,0,0-1.25.39C17.93,32.93,17,35.38,17,38ZM22.13,68c1.89-.88,4.59.92,6,4s1.1,6.34-.79,7.22-4.59-.92-6-4S20.25,68.92,22.13,68ZM22,36.9c1.89-.88,4.59.92,6,4s1.1,6.34-.79,7.22-4.59-.92-6-4S20.07,37.79,22,36.9Z"/><path class="cls-2" d="M22.13,68a2.49,2.49,0,0,1,1.33-.2,7.35,7.35,0,0,0,.47,5.84c1.13,2.43,3,4,4.71,4.23a2.63,2.63,0,0,1-1.26,1.38c-1.89.88-4.59-.92-6-4S20.25,68.92,22.13,68Z"/><path class="cls-2" d="M22,36.9a2.49,2.49,0,0,1,1.33-.2,7.35,7.35,0,0,0,.47,5.84c1.13,2.43,3,4.05,4.71,4.23a2.63,2.63,0,0,1-1.26,1.38c-1.89.88-4.59-.92-6-4S20.07,37.79,22,36.9Z"/><path class="cls-1" d="M47.13,86.34a2.06,2.06,0,0,1,.26-.12L47.07,86A1.22,1.22,0,0,1,47.13,86.34Z"/><path class="cls-1" d="M41.49,94.23l.41.28a2.81,2.81,0,0,0,0-.29A.48.48,0,0,1,41.49,94.23Z"/><path class="cls-3" d="M24.93,83.55l-.27-.18c-.67-.43-1.26-2.65.64-5.56,2.07-3.18,4.15-3.27,4.82-2.84l.37.24a9.87,9.87,0,1,0-5.56,8.34Z"/><path class="cls-1" d="M47.45,86.18l-.5-.34a.36.36,0,0,1,.11.17l.32.21Z"/><path class="cls-3" d="M25.29,77.82c-1.89,2.91-1.3,5.12-.64,5.56l.27.18,4.76,3.1.88.58L41.88,94.6v-.08l-.41-.28a.5.5,0,0,0,.43,0,9.87,9.87,0,0,1,5.21-7.89.75.75,0,0,0-.06-.33L36,78.84l-.88-.58-4.66-3L30.11,75C29.45,74.55,27.36,74.64,25.29,77.82Z"/><path class="cls-3" d="M47.13,86.34a9.87,9.87,0,0,0-5.21,7.89,2.81,2.81,0,0,0,0,.29v.08a9.87,9.87,0,1,0,5.54-8.41l-.07,0A1.42,1.42,0,0,0,47.13,86.34Z"/><path class="cls-1" d="M26.81,15.94c-.06-.08-.11-.16-.17-.23l-.15.35A.71.71,0,0,1,26.81,15.94Z"/><path class="cls-1" d="M35.53,20.19l.21-.45a2.85,2.85,0,0,1-.29,0A.49.49,0,0,1,35.53,20.19Z"/><path class="cls-3" d="M27.74,38.29l-.13.3c-.32.73-2.4,1.68-5.59.29-3.48-1.51-3.91-3.55-3.6-4.28l.18-.41a9.88,9.88,0,1,0,9.14,4.1Z"/><path class="cls-1" d="M26.6,15.64l-.25.55a.41.41,0,0,1,.15-.14l.15-.35Z"/><path class="cls-3" d="M22,38.88c3.18,1.38,5.27.44,5.59-.29l.13-.3L30,33.08l.42-1,5.39-12.39h-.08l-.21.45a.49.49,0,0,0-.08-.42,9.88,9.88,0,0,1-8.64-3.83.71.71,0,0,0-.32.12L21.25,28.11l-.42,1-2.22,5.1-.18.41C18.11,35.32,18.55,37.36,22,38.88Z"/><path class="cls-3" d="M26.81,15.94a9.88,9.88,0,0,0,8.64,3.83l.29,0h.08a9.88,9.88,0,1,0-9.21-4.08l0,.06Z"/><path class="cls-4" d="M16.11,59.26l11.22-2.88c1-.09,2.14,1.06,2.57,2.72s0,3.2-.92,3.63L17.76,65.6c-1,0-2.09-1.1-2.52-2.72S15.21,59.72,16.11,59.26Z"/><path class="cls-2" d="M20.5,82.68s0-4.57,0-10.32h0l0-20.9A27.42,27.42,0,0,0,20,47.63c0-.19-.09-.39-.13-.58l-.09-.35c-.06-.19-.1-.39-.17-.58a13.55,13.55,0,0,0-.75-1.93c-2.3-4.68-6.13-7.35-9.28-7.36a5.14,5.14,0,0,0-.88.08,27.55,27.55,0,0,1,4.29-1c3.15,0,7,2.69,9.28,7.36A20.83,20.83,0,0,1,24,50.5l0,20.9h0c0,5.75,0,10.28,0,10.32,0,2.58-1,5-2.81,5.93a34.87,34.87,0,0,1-3.81,1.14l.39-.16C19.53,87.71,20.48,85.26,20.5,82.68Z"/><path class="cls-1" d="M4.66,43.22c0,.07-.06,31.22-.06,31.22a20.66,20.66,0,0,0,1.69,7.28c2.3,4.68,6.13,7.35,9.28,7.36a5,5,0,0,0,1.74-.3l.39-.16c1.84-.91,2.79-3.35,2.81-5.93,0,0,.06-31.22.06-31.22A27.42,27.42,0,0,0,20,47.64c0-.19-.09-.39-.13-.58l-.09-.35c-.06-.19-.1-.39-.17-.58a13.55,13.55,0,0,0-.75-1.93c-2.3-4.68-6.13-7.35-9.28-7.36a5.14,5.14,0,0,0-.88.08,4.44,4.44,0,0,0-1.25.39C5.63,38.19,4.68,40.64,4.66,43.22ZM9.83,73.3c1.89-.88,4.59.92,6,4s1.1,6.34-.79,7.22-4.59-.92-6-4S7.94,74.18,9.83,73.3ZM14.24,67c-1.28.6-3.12-.63-4.11-2.74s-.75-4.31.54-4.91,3.12.63,4.11,2.74S15.53,66.44,14.24,67ZM9.66,42.17c1.89-.88,4.59.92,6,4s1.1,6.34-.79,7.22-4.59-.92-6-4S7.77,43.05,9.66,42.17Z"/><path class="cls-2" d="M9.83,73.3a2.49,2.49,0,0,1,1.33-.2,7.35,7.35,0,0,0,.47,5.84c1.13,2.43,3,4,4.71,4.23a2.63,2.63,0,0,1-1.26,1.38c-1.89.88-4.59-.92-6-4S7.94,74.18,9.83,73.3Z"/><path class="cls-2" d="M10.67,59.39a1.91,1.91,0,0,1,1.52,0,5.58,5.58,0,0,0,.53,3.31,5.23,5.23,0,0,0,2.59,2.72A2.06,2.06,0,0,1,14.25,67c-1.28.6-3.12-.63-4.11-2.74S9.39,60,10.67,59.39Z"/><path class="cls-2" d="M9.66,42.17A2.49,2.49,0,0,1,11,42a7.35,7.35,0,0,0,.47,5.84c1.13,2.43,3,4,4.71,4.23a2.63,2.63,0,0,1-1.26,1.38c-1.89.88-4.59-.92-6-4S7.77,43.05,9.66,42.17Z"/><path class="cls-1" d="M71,106.41l-11.15-5.69c-1.06-.33-2.51.62-3.36,2.26s-.77,3.38.11,4l11.16,5.68c1,.28,2.47-.66,3.3-2.28S71.87,107.1,71,106.41Z"/><path class="cls-1" d="M58.48,108c-1.06-.54-1.19-2.4-.29-4.14s2.48-2.71,3.54-2.17"/><path class="cls-1" d="M57.59,107.51c-1.06-.54-1.19-2.4-.29-4.14s2.48-2.71,3.54-2.17"/><path class="cls-1" d="M60.23,108.85c-1.06-.54-1.19-2.4-.29-4.14s2.48-2.71,3.54-2.17"/><path class="cls-1" d="M59.34,108.4c-1.06-.54-1.19-2.4-.29-4.14s2.48-2.71,3.54-2.17"/><path class="cls-1" d="M62,109.74c-1.06-.54-1.19-2.4-.29-4.14s2.48-2.71,3.54-2.17"/><path class="cls-1" d="M61.09,109.29c-1.06-.54-1.19-2.4-.29-4.14s2.48-2.71,3.54-2.17"/><path class="cls-1" d="M63.72,110.63c-1.06-.54-1.19-2.4-.29-4.14s2.48-2.71,3.54-2.17"/><path class="cls-1" d="M62.84,110.18c-1.06-.54-1.19-2.4-.29-4.14s2.48-2.71,3.54-2.17"/><ellipse class="cls-4" cx="12.29" cy="63.23" rx="3.58" ry="5.24" transform="translate(-14.19 4.51) rotate(-13.27)"/><ellipse class="cls-4" cx="12.27" cy="63.28" rx="0.99" ry="1.45" transform="translate(-14.2 4.51) rotate(-13.27)"/><path class="cls-4" d="M10.71,200.81l11.22-2.88c1-.09,2.14,1.06,2.57,2.72s0,3.2-.92,3.63l-11.22,2.87c-1,0-2.09-1.1-2.52-2.72S9.81,201.27,10.71,200.81Z"/><path class="cls-4" d="M22.52,140.85l-10.75-4.31c-1-.22-2.26.78-2.9,2.36s-.43,3.17.44,3.72l10.76,4.29c1,.17,2.22-.82,2.85-2.38S23.36,141.41,22.52,140.85Z"/><path class="cls-1" d="M16.66,163.77l0-31.38a27.55,27.55,0,0,1,.55-3.83c0-.19.09-.38.14-.58s.06-.23.1-.35.1-.39.17-.58a13.58,13.58,0,0,1,.76-1.93c2.32-4.67,6.15-7.34,9.3-7.33a5.14,5.14,0,0,1,.88.08,27.83,27.83,0,0,0-4.29-1.06c-3.15,0-7,2.67-9.3,7.33a20.88,20.88,0,0,0-1.71,7.27l-.09,30.85Z"/><path class="cls-2" d="M29.84,118.25a4.44,4.44,0,0,0-1.25-.39,5.14,5.14,0,0,0-.88-.08c-3.15,0-7,2.67-9.3,7.33a13.13,13.13,0,0,0-.76,1.93c-.07.2-.11.39-.17.58s-.07.23-.1.35-.1.39-.14.58a26.31,26.31,0,0,0-.55,3.83l0,31.36,15.93-8.33s0-31.15,0-31.22C32.62,121.61,31.68,119.16,29.84,118.25Zm-7.39,24.82c1-2.11,2.84-3.33,4.12-2.73s1.52,2.8.52,4.91S24.25,148.58,23,148,21.46,145.18,22.45,143.07Zm5.95-12.72c-1.46,3.1-4.17,4.9-6,4s-2.23-4.12-.77-7.22,4.17-4.9,6.05-4S29.86,127.24,28.4,130.35Z"/><path class="cls-2" d="M26.57,140.34a1.87,1.87,0,0,0-1.52,0,5.52,5.52,0,0,1-.54,3.31,5.24,5.24,0,0,1-2.59,2.71A2.1,2.1,0,0,0,23,148c1.28.6,3.13-.62,4.12-2.73S27.85,140.94,26.57,140.34Z"/><path class="cls-2" d="M27.63,123.13a2.49,2.49,0,0,0-1.33-.2,7.33,7.33,0,0,1-.49,5.83c-1.14,2.43-3,4.05-4.72,4.22a2.63,2.63,0,0,0,1.26,1.38c1.88.89,4.59-.91,6-4S29.52,124,27.63,123.13Z"/><polygon class="cls-3" points="19.39 156.27 30.12 150.63 30.12 155 19.39 160.63 19.39 156.27"/><ellipse class="cls-4" cx="24.92" cy="144.57" rx="5.24" ry="3.58" transform="translate(-116.12 104.2) rotate(-64.25)"/><ellipse class="cls-4" cx="24.92" cy="144.61" rx="1.45" ry="0.99" transform="translate(-116.16 104.23) rotate(-64.25)"/><path class="cls-4" d="M62.23,113.35l.08,11.58c.18,1,1.57,1.8,3.29,1.79s3.1-.8,3.27-1.82l-.1-11.58c-.22-1-1.59-1.75-3.28-1.74S62.44,112.36,62.23,113.35Z"/><path class="cls-2" d="M16.14,223.81s0-4.57,0-10.32h0l0-20.9a27.42,27.42,0,0,0-.54-3.83c0-.19-.09-.39-.13-.58l-.09-.35c-.06-.19-.1-.39-.17-.58a13.55,13.55,0,0,0-.75-1.93c-2.3-4.68-6.13-7.35-9.28-7.36a5.14,5.14,0,0,0-.88.08,27.55,27.55,0,0,1,4.29-1c3.15,0,7,2.69,9.28,7.36a20.83,20.83,0,0,1,1.69,7.28l0,20.9h0c0,5.75,0,10.28,0,10.32,0,2.58-1,5-2.81,5.93a34.87,34.87,0,0,1-3.81,1.14l.39-.16C15.17,228.84,16.12,226.39,16.14,223.81Z"/><path class="cls-1" d="M.3,184.35c0,.07-.06,31.22-.06,31.22a20.66,20.66,0,0,0,1.69,7.28c2.3,4.68,6.13,7.35,9.28,7.36a5,5,0,0,0,1.74-.3l.39-.16c1.84-.91,2.79-3.35,2.81-5.93,0,0,.06-31.22.06-31.22a27.42,27.42,0,0,0-.54-3.83c0-.19-.09-.39-.13-.58l-.09-.35c-.06-.19-.1-.39-.17-.58a13.55,13.55,0,0,0-.75-1.93C12.23,180.65,8.4,178,5.25,178a5.14,5.14,0,0,0-.88.08,4.44,4.44,0,0,0-1.25.39C1.27,179.32.32,181.77.3,184.35Zm5.17,30.08c1.89-.88,4.59.92,6,4s1.1,6.34-.79,7.22-4.59-.92-6-4S3.59,215.31,5.47,214.43Zm4.41-6.26c-1.28.6-3.12-.63-4.11-2.74s-.75-4.31.54-4.91,3.12.63,4.11,2.74S11.17,207.57,9.88,208.17ZM5.3,183.3c1.89-.88,4.59.92,6,4s1.1,6.34-.79,7.22-4.59-.92-6-4S3.41,184.18,5.3,183.3Z"/><path class="cls-2" d="M5.47,214.43a2.49,2.49,0,0,1,1.33-.2,7.35,7.35,0,0,0,.47,5.84c1.13,2.43,3,4.05,4.71,4.23a2.63,2.63,0,0,1-1.26,1.38c-1.89.88-4.59-.92-6-4S3.59,215.31,5.47,214.43Z"/><path class="cls-2" d="M6.31,200.52a1.91,1.91,0,0,1,1.52,0,5.58,5.58,0,0,0,.53,3.31A5.23,5.23,0,0,0,11,206.57a2.06,2.06,0,0,1-1.06,1.6c-1.28.6-3.12-.63-4.11-2.74S5,201.12,6.31,200.52Z"/><path class="cls-2" d="M5.3,183.3a2.49,2.49,0,0,1,1.33-.2,7.35,7.35,0,0,0,.47,5.84c1.13,2.43,3,4.05,4.71,4.23a2.63,2.63,0,0,1-1.26,1.38c-1.89.88-4.59-.92-6-4S3.41,184.18,5.3,183.3Z"/><ellipse class="cls-4" cx="7.92" cy="205.2" rx="3.58" ry="5.24" transform="translate(-46.9 7.3) rotate(-13.27)"/><ellipse class="cls-4" cx="7.9" cy="205.24" rx="0.99" ry="1.45" transform="translate(-46.91 7.3) rotate(-13.27)"/><path class="cls-4" d="M19.67,258.6,30,253.36c1-.3,2.32.57,3.1,2.1s.71,3.12-.11,3.74l-10.33,5.23c-1,.26-2.28-.62-3.05-2.11S18.89,259.24,19.67,258.6Z"/><circle class="cls-3" cx="36.75" cy="265.28" r="9.88"/><polygon class="cls-3" points="44.33 276.12 40.01 272.33 40.02 269.46 40.13 269.49 46.32 274.89 44.33 276.12"/><path class="cls-3" d="M58.63,283.86l8.16-5.12a1.59,1.59,0,0,0,.94-1.47c.5,1.56.07,3.8-.94,4.38l-8.16,5.12c-2.76,1.29-3.89.63-6.6-.76l-10.31-5.36v-2.87l.12,0L52,283.06C54.71,284.43,55.87,285.15,58.63,283.86Z"/><path class="cls-3" d="M40.13,269.49l6.19,5.4-3.3,2-1.3.8h0l.1.05L52,283c2.71,1.38,3.87,2.1,6.63.81l8.16-5.12a1.59,1.59,0,0,0,.94-1.47A1.77,1.77,0,0,0,67,276a3.64,3.64,0,0,0-.73-.45l-11.37-6-3.6,2.19L45,266.42l-5,3ZM61,277.31c0,1.85-2.46,3.36-5.5,3.38S50,279.21,50,277.36s2.46-3.36,5.5-3.38S61,275.46,61,277.31Z"/><path class="cls-3" d="M61,277.31a2.36,2.36,0,0,1-.59,1.52,6.32,6.32,0,0,0-5-2,6.54,6.54,0,0,0-4.91,1.86,2.27,2.27,0,0,1-.49-1.36c0-1.85,2.46-3.36,5.5-3.38S61,275.46,61,277.31Z"/><path class="cls-2" d="M27.42,261.77a2.65,2.65,0,0,1,1.83-.11c-.78,1.44-.69,3.79.38,6.08a7.34,7.34,0,0,0,4.23,4.13A2.58,2.58,0,0,1,32.71,273c-1.88.89-4.59-.91-6.05-4S25.54,262.65,27.42,261.77Z"/><path class="cls-2" d="M6.1,250.64a2.65,2.65,0,0,1,1.83-.11c-.78,1.44-.69,3.79.38,6.08a7.34,7.34,0,0,0,4.23,4.13,2.58,2.58,0,0,1-1.15,1.14c-1.88.89-4.59-.91-6.05-4S4.21,251.52,6.1,250.64Z"/><path class="cls-2" d="M30.53,258.29C28.73,257.75,24.07,257,20,255s-8.4-7.5-12.52-8.25a6.78,6.78,0,0,0-4.19.29A8.41,8.41,0,0,1,11,244.93c4.12.75,8.32,6.2,12.52,8.25s8.76,2.72,10.53,3.33c4,1.36,7.15,4.12,7.35,9.19l.07,12.85L38,280.2l-.1-12.73A9.89,9.89,0,0,0,30.53,258.29Z"/><path class="cls-1" d="M38,280.25v0l-.1-12.73a9.89,9.89,0,0,0-7.35-9.19C28.73,257.75,24.07,257,20,255s-8.4-7.5-12.52-8.25a6.78,6.78,0,0,0-4.19.29c-2.56,1.22-2.18,4.41-2.18,4.41l-.05,9.49ZM27.42,261.77c1.88-.89,4.59.91,6,4s1.12,6.33-.77,7.22-4.59-.91-6.05-4S25.54,262.65,27.42,261.77Zm-16,.1c-1.88.89-4.59-.91-6.05-4s-1.12-6.33.77-7.22,4.59.91,6.05,4S13.26,261,11.38,261.87Zm10.28-.75c1,2.11.76,4.31-.52,4.91S18,265.41,17,263.3s-.76-4.31.52-4.91S20.66,259,21.66,261.12Z"/><path class="cls-2" d="M17.54,258.39a1.87,1.87,0,0,1,1.52,0,5.52,5.52,0,0,0,.54,3.31,5.24,5.24,0,0,0,2.59,2.71A2.1,2.1,0,0,1,21.13,266c-1.28.6-3.13-.62-4.12-2.73S16.26,259,17.54,258.39Z"/><ellipse class="cls-4" cx="18.99" cy="262.39" rx="3.58" ry="5.24" transform="translate(-101.99 28.78) rotate(-23.24)"/><ellipse class="cls-4" cx="18.98" cy="262.43" rx="0.99" ry="1.45" transform="translate(-102.01 28.78) rotate(-23.24)"/><path class="cls-3" d="M81.23,113.36c1.84-3,4.09-3.35,4.77-2.93l.28.17,4.82,3,.9.56,11.46,7.15-.07,0-.43-.26a.53.53,0,0,1,.17.39,9.88,9.88,0,0,0-4.94,8,.91.91,0,0,1-.33.09l-11.16-7-.9-.56-4.72-3-.38-.24C80,118.5,79.22,116.57,81.23,113.36Z"/><path class="cls-1" d="M81.15,86.2a2.29,2.29,0,0,0,.12.37,2.19,2.19,0,0,0,.16.3l0,0a3.83,3.83,0,0,0,.56.67h0A9.5,9.5,0,0,1,87.54,86c3.11-.1,6,.78,7.4,2.12h0A3.08,3.08,0,0,0,95.82,87l0-.06A1.8,1.8,0,0,0,96,86.4a.28.28,0,0,1,0-.09,1.64,1.64,0,0,0,0-.58c-.48-2.07-4.18-3.64-8.28-3.51S80.68,84.13,81.15,86.2Z"/><path class="cls-1" d="M44.42,87.14a2.29,2.29,0,0,0,.12.37,2.19,2.19,0,0,0,.16.3l0,0a3.83,3.83,0,0,0,.56.67h0a9.5,9.5,0,0,1,5.52-1.64c3.11-.1,6,.78,7.4,2.12h0A3.08,3.08,0,0,0,59.09,88l0-.06a1.8,1.8,0,0,0,.15-.55.28.28,0,0,1,0-.09,1.64,1.64,0,0,0,0-.58C58.76,84.6,55.06,83,51,83.16S43.94,85.07,44.42,87.14Z"/><path class="cls-1" d="M38.92,105.81a2.29,2.29,0,0,0,.12.37,2.19,2.19,0,0,0,.16.3l0,0a3.83,3.83,0,0,0,.56.67h0a9.5,9.5,0,0,1,5.52-1.64c3.11-.1,6,.78,7.4,2.12h0a3.08,3.08,0,0,0,.88-1.06l0-.06a1.8,1.8,0,0,0,.15-.55.28.28,0,0,1,0-.09,1.64,1.64,0,0,0,0-.58c-.48-2.07-4.18-3.64-8.28-3.51S38.44,103.75,38.92,105.81Z"/><path class="cls-1" d="M53.05,109.6C41.53,112.4,35.36,106,35.36,106s-1.82,10.64,7.42,11l25.42,2.11,31.32-15.22.07,0V99.39Z"/><path class="cls-2" d="M99.24,83.34c0-3-5.36-4.31-12.06-4l-35.91.47c-5.5-.1-10,.93-10.38,4.31-.08.66-5.29,20.7-5.29,20.7s-2.39,7,7.06,7.89L68,114.8,99.41,99.6l.07,0Zm-53.1,26c-4.14-.14-7.43-1.93-7.36-4s3.48-3.64,7.61-3.5,7.43,1.93,7.36,4S50.28,109.48,46.14,109.35Zm13.14-22a2.14,2.14,0,0,1-.15.55l0,.06A3.08,3.08,0,0,1,58.22,89a9.5,9.5,0,0,1-5.52,1.64c-3.11.1-6-.78-7.4-2.12h0a3.17,3.17,0,0,1-.56-.67l0,0a2.19,2.19,0,0,1-.16-.3,2.65,2.65,0,0,1-.12-.37,2.33,2.33,0,0,1,1-2.33A9.52,9.52,0,0,1,51,83.14a12.6,12.6,0,0,1,6.15,1.26,3.84,3.84,0,0,1,2.13,2.25,1.91,1.91,0,0,1,0,.58A.14.14,0,0,0,59.28,87.33ZM96,86.4a2.14,2.14,0,0,1-.15.55l0,.06A3.08,3.08,0,0,1,95,88.07a9.5,9.5,0,0,1-5.52,1.64c-3.11.1-6-.78-7.4-2.12h0a3.17,3.17,0,0,1-.56-.67l0,0a2.19,2.19,0,0,1-.16-.3,2.65,2.65,0,0,1-.12-.37,2.56,2.56,0,0,1,1.48-2.66,10.37,10.37,0,0,1,5.07-1.33,13.27,13.27,0,0,1,5.56,1A4.25,4.25,0,0,1,96,85.72a1.91,1.91,0,0,1,0,.58A.31.31,0,0,1,96,86.4Z"/><polygon class="cls-3" points="76.14 107.37 71.62 105.19 84.7 99.12 89.83 101.14 76.14 107.37"/><line class="cls-5" x1="68.04" y1="114.8" x2="68.09" y2="119.15"/><ellipse class="cls-4" cx="65.71" cy="109.4" rx="5.24" ry="3.05" transform="translate(-0.65 0.39) rotate(-0.34)"/><ellipse class="cls-4" cx="65.75" cy="109.38" rx="1.45" ry="0.84" transform="translate(-0.65 0.39) rotate(-0.34)"/><ellipse class="cls-4" cx="92.8" cy="95.55" rx="5.24" ry="3.05" transform="translate(-0.56 0.55) rotate(-0.34)"/><ellipse class="cls-4" cx="92.83" cy="95.53" rx="1.45" ry="0.84" transform="translate(-0.56 0.55) rotate(-0.34)"/><ellipse class="cls-4" cx="69.92" cy="84.74" rx="5.24" ry="3.05" transform="translate(-0.5 0.42) rotate(-0.34)"/><ellipse class="cls-4" cx="69.96" cy="84.72" rx="1.45" ry="0.84" transform="translate(-0.5 0.42) rotate(-0.34)"/><ellipse class="cls-4" cx="47.66" cy="95.8" rx="5.24" ry="3.05" transform="translate(-0.57 0.28) rotate(-0.34)"/><ellipse class="cls-4" cx="47.7" cy="95.78" rx="1.45" ry="0.84" transform="translate(-0.57 0.28) rotate(-0.34)"/><path class="cls-2" d="M111.21,117.48l8.8,5.71h0l17.83,11.57a27.08,27.08,0,0,1,3,2.59c.14.13.28.29.42.44l.25.28c.14.16.27.3.4.47a13.15,13.15,0,0,1,1.23,1.71c2.7,4.56,2.86,9.31,1.12,12a5.59,5.59,0,0,1-.55.71,28.45,28.45,0,0,0,3.28-3.08c1.74-2.68,1.58-7.43-1.12-12a21.09,21.09,0,0,0-5.26-5.48l-17.83-11.57h0l-8.8-5.71c-2.21-1.42-4.82-2-6.61-.9a32.13,32.13,0,0,0-3.08,2.61,2.82,2.82,0,0,1,.36-.24C106.39,115.51,109,116.06,111.21,117.48Z"/><path class="cls-1" d="M142.64,153.78a4.91,4.91,0,0,0,1-.85,4.8,4.8,0,0,0,.55-.71c1.74-2.68,1.58-7.43-1.12-12a13.15,13.15,0,0,0-1.23-1.71c-.13-.17-.27-.31-.4-.47s-.16-.19-.25-.28l-.42-.44a28,28,0,0,0-3-2.59l-26.63-17.28c-2.21-1.42-4.82-2-6.61-.9-.12.07-.24.16-.36.24a5,5,0,0,0-1.23,1.31c-1.74,2.68-1.58,7.43,1.12,12a21.09,21.09,0,0,0,5.26,5.48L136,152.86C138.23,154.3,140.85,154.85,142.64,153.78Zm-35.95-25.34c-1.84-3-1.87-6.26-.08-7.38s4.75.38,6.59,3.34,1.87,6.26.08,7.38S108.53,131.4,106.69,128.44Zm26.42,17.43c-1.84-3-1.87-6.26-.08-7.38s4.75.38,6.59,3.34,1.87,6.26.08,7.38S135,148.83,133.11,145.87Z"/><path class="cls-2" d="M113.28,131.77a2.57,2.57,0,0,0,.91-1,7.44,7.44,0,0,1-4.71-3.64c-1.44-2.32-1.77-4.84-1-6.36a2.72,2.72,0,0,0-1.88.31c-1.8,1.12-1.76,4.42.08,7.38S111.48,132.89,113.28,131.77Z"/><path class="cls-2" d="M139.7,149.21a2.57,2.57,0,0,0,.91-1,7.44,7.44,0,0,1-4.71-3.64c-1.44-2.32-1.77-4.84-1-6.36a2.72,2.72,0,0,0-1.88.31c-1.8,1.12-1.76,4.42.08,7.38S137.9,150.32,139.7,149.21Z"/><path class="cls-3" d="M114.87,126.24a10.21,10.21,0,0,0-2.33-4.4l-.21-.21-.06-.06h0a10.23,10.23,0,1,0,2.43,10.15.19.19,0,0,0,0-.07h0a2.76,2.76,0,0,0,.08-.27A10,10,0,0,0,114.87,126.24Z"/><path class="cls-4" d="M111.71,136.15l10.36-5.6c1-.34,2.37.52,3.2,2s.8,3.16,0,3.81L114.88,142c-1,.29-2.34-.57-3.15-2.07S110.93,136.82,111.71,136.15Z"/><ellipse class="cls-4" cx="122.21" cy="225.16" rx="3.71" ry="5.43" transform="translate(-78.93 66.49) rotate(-23.24)"/><ellipse class="cls-4" cx="122.2" cy="225.2" rx="1.02" ry="1.5" transform="translate(-78.95 66.49) rotate(-23.24)"/><path class="cls-1" d="M207.35,185l.05-33.35a27.15,27.15,0,0,1,.59-4.07c0-.2.09-.41.14-.62s.07-.25.1-.37.11-.41.18-.62a14.79,14.79,0,0,1,.8-2c2.46-5,6.54-7.8,9.88-7.8a5.64,5.64,0,0,1,.93.08,29.34,29.34,0,0,0-4.56-1.13c-3.34,0-7.42,2.83-9.88,7.8a22,22,0,0,0-1.82,7.73l-.1,32.79Z"/><path class="cls-2" d="M221.36,136.61a4.69,4.69,0,0,0-1.33-.42,5.64,5.64,0,0,0-.93-.08c-3.34,0-7.42,2.83-9.88,7.8a13.63,13.63,0,0,0-.8,2.05c-.07.21-.12.41-.18.62l-.1.37c0,.21-.11.41-.14.62a30.24,30.24,0,0,0-.59,4.07l0,33.32,16.93-8.85s0-33.1,0-33.18C224.31,140.18,223.31,137.58,221.36,136.61Zm-1.53,12.85c-1.55,3.3-4.43,5.2-6.43,4.26s-2.37-4.38-.82-7.67,4.43-5.2,6.43-4.26S221.38,146.17,219.83,149.46Z"/><path class="cls-2" d="M219,141.79a2.6,2.6,0,0,0-1.41-.22,7.78,7.78,0,0,1-.52,6.2c-1.21,2.58-3.24,4.3-5,4.48a2.83,2.83,0,0,0,1.33,1.47c2,.94,4.88-1,6.43-4.26S221,142.73,219,141.79Z"/><path class="cls-1" d="M181.55,187.16c.31-.12.63-.22,1-.32A8.66,8.66,0,0,0,181.55,187.16Z"/><path class="cls-1" d="M183,186.72l.8-.16C183.55,186.6,183.29,186.66,183,186.72Z"/><path class="cls-1" d="M184.66,186.46l.61-.05Z"/><path class="cls-1" d="M186.66,186.38h0Z"/><path class="cls-1" d="M193.06,164.79h0Z"/><path class="cls-1" d="M191.52,164.66h0Z"/><path class="cls-1" d="M186.41,165.43c.3-.12.63-.22,1-.32C187,165.21,186.72,165.32,186.41,165.43Z"/><path class="cls-1" d="M188.19,186.51h0Z"/><path class="cls-1" d="M189.52,164.74l.6-.05Z"/><path class="cls-1" d="M187.9,165c.26-.06.52-.11.79-.15A6.5,6.5,0,0,0,187.9,165Z"/><path class="cls-1" d="M145.8,188.66h0Z"/><path class="cls-1" d="M142.18,189q.38-.09.78-.15C142.69,188.88,142.44,188.94,142.18,189Z"/><path class="cls-1" d="M143.8,188.74l.6-.05Z"/><path class="cls-1" d="M147.34,188.79h0Z"/><path class="cls-1" d="M140.69,189.43c.3-.12.63-.22,1-.32C141.32,189.21,141,189.32,140.69,189.43Z"/><path class="cls-1" d="M203.9,168.13a9.13,9.13,0,0,1,.27.89l-5,20.06c-2,7.9-5.63,8.25-11.38,8.73l-45,2.1c-4.4-.15-8.31-2.17-8.85-5.82l0,2.22c.11,6.76,3.38,8.23,8.82,8.42l45-2.1c5.75-.47,9.41-.83,11.38-8.73l5-20.06C204.55,171.09,204.42,169.31,203.9,168.13Z"/><path class="cls-2" d="M142.8,199.9l45-2.1c5.75-.47,9.41-.83,11.38-8.73l5-20.06c-.07-.31-.18-.6-.27-.89a9.79,9.79,0,0,0-9.48-6.88l-23.33,1.65L138,178.59l-3.8,12.61a6.89,6.89,0,0,0-.22,2.87C134.49,197.73,138.4,199.75,142.8,199.9Zm43.44-34.4.17-.07c.31-.12.63-.22,1-.32.17-.05.34-.08.52-.12s.52-.11.79-.15l.84-.1.6-.05c.14,0,.27,0,.41,0s.51,0,.77,0h.33c.49,0,1,.06,1.42.12h.09c3.21.44,5.78,1.83,6.18,3.58a2.18,2.18,0,0,1,0,.62.38.38,0,0,1,0,.1,2.38,2.38,0,0,1-.16.58l0,.06a3.25,3.25,0,0,1-.93,1.13l0,0c-1.41,1.16-4,1.89-7,1.79-4.39-.15-7.9-2.05-7.82-4.26C183.47,167.2,184.56,166.18,186.24,165.5Zm-4.86,21.72.17-.06a8.66,8.66,0,0,1,1-.32l.51-.12.8-.16.83-.1.61-.05c.14,0,.26,0,.4,0s.51,0,.76,0h.34c.48,0,.95.06,1.42.12h.1c3.21.44,5.78,1.84,6.18,3.58a2.18,2.18,0,0,1,0,.62.38.38,0,0,1,0,.1,2.38,2.38,0,0,1-.16.58l0,.06a3.25,3.25,0,0,1-.93,1.13l0,0c-1.41,1.16-4,1.89-7,1.79-4.39-.15-7.9-2.05-7.82-4.26C178.6,188.92,179.7,187.9,181.38,187.22ZM165,168l5,1.94-13.88,6.85-4.8-2.32ZM140.52,189.5l.18-.07c.31-.12.62-.22,1-.32.17-.05.35-.08.52-.12s.51-.11.78-.15l.84-.1.6-.05c.14,0,.27,0,.41,0s.51,0,.77,0h.33c.49,0,1,.06,1.42.12h.09c3.21.44,5.78,1.83,6.18,3.58a2.18,2.18,0,0,1,0,.62.38.38,0,0,1,0,.1,2.38,2.38,0,0,1-.16.58l0,.06a3.25,3.25,0,0,1-.93,1.13l0,0c-1.41,1.16-4,1.89-7,1.79-4.39-.15-7.9-2.05-7.82-4.26C137.75,191.2,138.84,190.17,140.52,189.5Z"/><polygon class="cls-1" points="170.05 169.98 165.04 168.04 151.38 174.52 156.17 176.83 170.05 169.98"/><path class="cls-1" d="M183.57,168.89a2.07,2.07,0,0,0,.13.4,3.24,3.24,0,0,0,.17.32l0,0a3.9,3.9,0,0,0,.6.71h0a10.15,10.15,0,0,1,5.87-1.75c3.28-.11,6.32.82,7.84,2.22l0,0a3.23,3.23,0,0,0,.93-1.13l0-.06a2.1,2.1,0,0,0,.16-.58.38.38,0,0,1,0-.1,1.87,1.87,0,0,0,0-.62c-.4-1.74-3-3.14-6.18-3.58h-.09c-.46-.06-.94-.1-1.42-.12h-.33c-.26,0-.51,0-.77,0s-.27,0-.41,0l-.6.05-.84.1c-.27,0-.53.1-.79.15l-.52.12a8.48,8.48,0,0,0-1,.32l-.17.07C184.34,166.28,183.26,167.53,183.57,168.89Z"/><path class="cls-1" d="M137.85,192.89a2.07,2.07,0,0,0,.13.4,3.24,3.24,0,0,0,.17.32l0,0a3.9,3.9,0,0,0,.6.71h0a10.15,10.15,0,0,1,5.87-1.75c3.28-.11,6.32.82,7.84,2.22l0,0a3.14,3.14,0,0,0,.93-1.13l0-.06a2.1,2.1,0,0,0,.16-.58.38.38,0,0,1,0-.1,1.87,1.87,0,0,0,0-.62c-.4-1.74-3-3.14-6.18-3.58h-.09c-.46-.06-.94-.1-1.42-.12h-.33c-.26,0-.51,0-.77,0s-.27,0-.41,0l-.6.05-.84.1c-.27,0-.53.1-.78.15l-.52.12a9.18,9.18,0,0,0-1,.32l-.18.07C138.62,190.28,137.54,191.53,137.85,192.89Z"/><path class="cls-1" d="M178.71,190.61a2.07,2.07,0,0,0,.13.4,3.24,3.24,0,0,0,.17.32l0,0a3.9,3.9,0,0,0,.6.71h0a10.15,10.15,0,0,1,5.87-1.75c3.28-.11,6.32.82,7.84,2.22l0,0a3.23,3.23,0,0,0,.93-1.13l0-.06a2,2,0,0,0,.16-.58.38.38,0,0,1,0-.1,1.87,1.87,0,0,0,0-.62c-.4-1.74-3-3.14-6.18-3.58h-.1c-.46-.06-.93-.1-1.42-.12h-.34c-.25,0-.5,0-.76,0s-.27,0-.4,0l-.61.05-.83.1c-.27,0-.54.1-.8.16l-.51.12a9.37,9.37,0,0,0-1,.32l-.17.06C179.48,188,178.4,189.25,178.71,190.61Z"/><path class="cls-3" d="M127.58,137.39a10.37,10.37,0,0,0-4.18,3.18,10.56,10.56,0,0,0-2.1,4.66c0,.1,0,.2,0,.3s0,.05,0,.08a10.49,10.49,0,1,0,6.69-8.36l-.07,0Z"/><path class="cls-3" d="M134.79,148.92c-1.92,3.15-1.22,5.48-.5,5.92l.3.18,5.16,3.14,1,.58L153,166.2v-.08l-.45-.29a.55.55,0,0,0,.45,0,10.47,10.47,0,0,1,5.28-8.54.86.86,0,0,0-.08-.35l-11.94-7.26-1-.58L140.22,146l-.41-.25C139.1,145.32,136.88,145.48,134.79,148.92Z"/><path class="cls-1" d="M100.27,233.74l0-33.35a27.15,27.15,0,0,1,.59-4.07c0-.2.09-.41.14-.62l.1-.37c.06-.21.11-.41.18-.62a14.79,14.79,0,0,1,.8-2.05c2.46-5,6.54-7.8,9.88-7.79a5.64,5.64,0,0,1,.93.08,29.34,29.34,0,0,0-4.56-1.13c-3.34,0-7.42,2.83-9.88,7.8a22,22,0,0,0-1.82,7.73l-.1,32.79Z"/><path class="cls-2" d="M114.28,185.37A4.69,4.69,0,0,0,113,185a5.64,5.64,0,0,0-.93-.08c-3.34,0-7.42,2.83-9.88,7.8a13.63,13.63,0,0,0-.8,2.05c-.07.21-.12.41-.18.62l-.1.37c0,.21-.11.41-.14.62a30.24,30.24,0,0,0-.59,4.07l0,33.33,16.93-8.85s0-33.1,0-33.18C117.23,188.94,116.23,186.34,114.28,185.37Zm-1.53,12.85c-1.55,3.3-4.43,5.2-6.43,4.26s-2.37-4.38-.82-7.67,4.43-5.2,6.43-4.26S114.3,194.93,112.75,198.22Z"/><path class="cls-2" d="M111.93,190.55a2.6,2.6,0,0,0-1.41-.22,7.78,7.78,0,0,1-.52,6.2c-1.21,2.58-3.24,4.3-5,4.48a2.83,2.83,0,0,0,1.33,1.47c2,.94,4.88-1,6.43-4.26S113.93,191.49,111.93,190.55Z"/><path class="cls-3" d="M135.56,184.88l.33-.12c.79-.29,3.05.61,4.33,4.07,1.4,3.78.15,5.62-.64,5.91l-.45.16a10.51,10.51,0,1,0-3.57-10Z"/><path class="cls-3" d="M142.83,187.91c-1.28-3.46-4.41-4-5.2-3.68l-.33.12-5.66,2.09-1,.39-17.67,6.5h0l.06,0,.24.19a10.49,10.49,0,0,1,3.42,9.45c0,.1,0,.19-.06.29l17.68-6.51,1-.39,5.55-2,.45-.16C142.11,193.91,144.23,191.69,142.83,187.91Z"/><path class="cls-3" d="M124.77,195.15a10.41,10.41,0,0,0-2.89-4.22l-.24-.19-.06-.05h0a10.5,10.5,0,1,0,3.66,10.09s0-.05,0-.08h0l.06-.29A10.62,10.62,0,0,0,124.77,195.15Z"/><path class="cls-3" d="M210.75,148.66l.33-.12c.79-.29,3,.61,4.33,4.07,1.4,3.78.15,5.62-.64,5.91l-.45.16a10.51,10.51,0,1,0-3.57-10Z"/><path class="cls-3" d="M218,151.68c-1.28-3.46-4.41-4-5.2-3.68l-.33.12-5.66,2.09-1.05.39-17.67,6.5h0l.06,0,.24.19a10.49,10.49,0,0,1,3.42,9.45c0,.1,0,.19-.06.29l17.68-6.51,1-.39,5.55-2.05.45-.16C217.3,157.69,219.41,155.46,218,151.68Z"/><path class="cls-3" d="M200,158.93a10.41,10.41,0,0,0-2.89-4.22l-.24-.19-.06-.05h0a10.5,10.5,0,1,0,3.66,10.09s0-.05,0-.08h0l.06-.29A10.62,10.62,0,0,0,200,158.93Z"/><path class="cls-2" d="M138.35,338.32a2.8,2.8,0,0,1,1.94-.12c-.83,1.53-.74,4,.41,6.46a7.79,7.79,0,0,0,4.49,4.38,2.74,2.74,0,0,1-1.23,1.22c-2,.94-4.88-1-6.43-4.26S136.35,339.26,138.35,338.32Z"/><path class="cls-2" d="M115.69,326.49a2.8,2.8,0,0,1,1.94-.12c-.83,1.53-.74,4,.41,6.46a7.79,7.79,0,0,0,4.49,4.38,2.74,2.74,0,0,1-1.23,1.22c-2,.94-4.88-1-6.43-4.26S113.68,327.43,115.69,326.49Z"/><path class="cls-2" d="M141.65,334.62c-1.91-.57-6.86-1.43-11.19-3.54s-8.92-8-13.3-8.76a7.24,7.24,0,0,0-4.46.31,8.93,8.93,0,0,1,8.15-2.2c4.38.79,8.85,6.59,13.3,8.76s9.31,2.89,11.19,3.54c4.21,1.45,7.6,4.38,7.81,9.77l.08,13.66-3.67,1.76-.11-13.53A10.48,10.48,0,0,0,141.65,334.62Z"/><path class="cls-1" d="M149.57,358v0l-.11-13.53a10.52,10.52,0,0,0-7.81-9.77c-1.91-.57-6.86-1.43-11.19-3.54s-8.92-8-13.3-8.76a7.24,7.24,0,0,0-4.46.31c-2.72,1.3-2.31,4.69-2.31,4.69l0,10.08Zm-11.22-19.64c2-.94,4.88,1,6.43,4.26s1.19,6.73-.82,7.67-4.88-1-6.43-4.26S136.35,339.26,138.35,338.32Zm-17,.11c-2,.94-4.88-1-6.43-4.26s-1.19-6.73.82-7.67,4.88,1,6.43,4.26S123.3,337.48,121.3,338.43Zm10.92-.8c1.06,2.24.81,4.58-.56,5.22s-3.32-.66-4.38-2.9-.81-4.58.56-5.22S131.17,335.39,132.22,337.63Z"/><path class="cls-2" d="M127.85,334.73a2,2,0,0,1,1.62,0,5.88,5.88,0,0,0,.57,3.51,5.59,5.59,0,0,0,2.76,2.88,2.22,2.22,0,0,1-1.13,1.71c-1.36.64-3.32-.66-4.38-2.9S126.48,335.37,127.85,334.73Z"/><path class="cls-2" d="M126.76,297.45s0-4.86,0-11h0l0-22.22a28.26,28.26,0,0,0-.57-4.07c0-.2-.09-.41-.14-.62s-.07-.25-.1-.37-.1-.41-.18-.62a13.63,13.63,0,0,0-.8-2c-2.45-5-6.51-7.82-9.86-7.82a5.64,5.64,0,0,0-.93.08,30.55,30.55,0,0,1,4.56-1.12c3.34,0,7.41,2.86,9.86,7.82a21.92,21.92,0,0,1,1.79,7.74l0,22.22h0c0,6.11,0,10.92,0,11,0,2.74-1,5.34-3,6.31a34.71,34.71,0,0,1-4,1.21l.42-.17C125.74,302.8,126.75,300.2,126.76,297.45Z"/><path class="cls-1" d="M109.93,255.52c0,.08-.07,33.18-.07,33.18a22,22,0,0,0,1.79,7.74c2.45,5,6.51,7.82,9.86,7.82a5.41,5.41,0,0,0,1.85-.32l.42-.17c2-1,3-3.57,3-6.31,0,0,.07-33.18.07-33.18a28.26,28.26,0,0,0-.57-4.07c0-.2-.09-.41-.14-.62s-.07-.25-.1-.37-.1-.41-.18-.62a13.63,13.63,0,0,0-.8-2.05c-2.45-5-6.51-7.82-9.86-7.82a5.64,5.64,0,0,0-.93.08,5,5,0,0,0-1.33.41C111,250.17,110,252.78,109.93,255.52Zm5.5,32c2-.94,4.88,1,6.42,4.28s1.17,6.73-.84,7.67-4.88-1-6.42-4.28S113.42,288.42,115.43,287.48Zm-.19-33.08c2-.94,4.88,1,6.42,4.28s1.17,6.73-.84,7.67-4.88-1-6.42-4.28S113.24,255.34,115.24,254.4Z"/><path class="cls-2" d="M115.43,287.48a2.71,2.71,0,0,1,1.41-.21,7.77,7.77,0,0,0,.5,6.2c1.21,2.58,3.23,4.31,5,4.49a2.85,2.85,0,0,1-1.34,1.47c-2,.94-4.88-1-6.42-4.28S113.42,288.42,115.43,287.48Z"/><path class="cls-2" d="M115.24,254.4a2.71,2.71,0,0,1,1.41-.21,7.77,7.77,0,0,0,.5,6.2c1.21,2.58,3.23,4.31,5,4.49a2.85,2.85,0,0,1-1.34,1.47c-2,.94-4.88-1-6.42-4.28S113.24,255.34,115.24,254.4Z"/><path class="cls-3" d="M108.78,304.5l-.26-.16v.41A.78.78,0,0,1,108.78,304.5Z"/><path class="cls-3" d="M119.08,304.91v-.53l-.26.16A.6.6,0,0,1,119.08,304.91Z"/><path class="cls-3" d="M119.23,325.85v.35c0,.85-1.62,2.66-5.31,2.67-4,0-5.33-1.79-5.33-2.63v-.47a10.49,10.49,0,1,0,10.64.08Z"/><path class="cls-3" d="M108.45,304.3V305a.42.42,0,0,1,.08-.2v-.41Z"/><path class="cls-3" d="M113.92,328.87c3.69,0,5.31-1.82,5.31-2.67v-.35l0-6v-1.12l0-14.35-.07,0v.53a.54.54,0,0,0-.25-.37,10.48,10.48,0,0,1-10,0,.78.78,0,0,0-.26.25l0,14v1.12l0,5.91v.47C108.59,327.08,109.89,328.88,113.92,328.87Z"/><path class="cls-3" d="M108.78,304.5a10.48,10.48,0,0,0,10,0,2.26,2.26,0,0,0,.26-.16l.07,0a10.5,10.5,0,1,0-10.71,0l.07,0Z"/><path class="cls-2" d="M245.44,289.56a2.8,2.8,0,0,1,1.94-.12c-.83,1.53-.74,4,.41,6.46a7.79,7.79,0,0,0,4.49,4.38,2.74,2.74,0,0,1-1.23,1.22c-2,.94-4.88-1-6.43-4.26S243.43,290.5,245.44,289.56Z"/><path class="cls-2" d="M222.77,277.73a2.8,2.8,0,0,1,1.94-.12c-.83,1.53-.74,4,.41,6.46a7.79,7.79,0,0,0,4.49,4.38,2.74,2.74,0,0,1-1.23,1.22c-2,.94-4.88-1-6.43-4.26S220.77,278.67,222.77,277.73Z"/><path class="cls-2" d="M248.74,285.87c-1.91-.57-6.86-1.43-11.19-3.54s-8.92-8-13.3-8.76a7.24,7.24,0,0,0-4.46.31,8.93,8.93,0,0,1,8.15-2.2c4.38.79,8.85,6.59,13.3,8.76s9.31,2.89,11.19,3.54c4.21,1.45,7.6,4.38,7.81,9.77l.08,13.66-3.67,1.76-.11-13.53A10.49,10.49,0,0,0,248.74,285.87Z"/><path class="cls-1" d="M256.66,309.2v0l-.11-13.53a10.52,10.52,0,0,0-7.81-9.77c-1.91-.57-6.86-1.43-11.19-3.54s-8.92-8-13.3-8.76a7.24,7.24,0,0,0-4.46.31c-2.72,1.3-2.31,4.69-2.31,4.69l0,10.08Zm-11.22-19.64c2-.94,4.88,1,6.43,4.26s1.19,6.73-.82,7.67-4.88-1-6.43-4.26S243.43,290.5,245.44,289.56Zm-17.06.11c-2,.94-4.88-1-6.43-4.26s-1.19-6.73.82-7.67,4.88,1,6.43,4.26S230.39,288.73,228.38,289.67Zm10.93-.79c1.06,2.24.81,4.58-.56,5.22s-3.32-.66-4.38-2.9-.81-4.58.56-5.22S238.25,286.63,239.31,288.88Z"/><path class="cls-2" d="M234.93,286a2,2,0,0,1,1.62,0,5.88,5.88,0,0,0,.57,3.51,5.59,5.59,0,0,0,2.76,2.88,2.22,2.22,0,0,1-1.13,1.71c-1.36.64-3.32-.66-4.38-2.9S233.57,286.62,234.93,286Z"/><path class="cls-2" d="M233.85,248.7s0-4.86,0-11h0l0-22.22a28.26,28.26,0,0,0-.57-4.07c0-.2-.09-.41-.14-.62s-.07-.25-.1-.37-.1-.41-.18-.62a13.63,13.63,0,0,0-.8-2.05c-2.45-5-6.51-7.82-9.86-7.82a5.64,5.64,0,0,0-.93.08,30.55,30.55,0,0,1,4.56-1.12c3.34,0,7.41,2.86,9.86,7.82a21.92,21.92,0,0,1,1.79,7.74l0,22.22h0c0,6.11,0,10.92,0,11,0,2.74-1,5.34-3,6.31a34.71,34.71,0,0,1-4.05,1.21l.42-.17C232.82,254,233.83,251.44,233.85,248.7Z"/><path class="cls-1" d="M217,206.76c0,.08-.07,33.18-.07,33.18a22,22,0,0,0,1.79,7.74c2.45,5,6.51,7.82,9.86,7.82a5.41,5.41,0,0,0,1.85-.32l.42-.17c1.95-1,3-3.57,3-6.31,0,0,.07-33.18.07-33.18a28.26,28.26,0,0,0-.57-4.07c0-.2-.09-.41-.14-.62s-.07-.25-.1-.37-.1-.41-.18-.62a13.63,13.63,0,0,0-.8-2.05c-2.45-5-6.51-7.82-9.86-7.82a5.64,5.64,0,0,0-.93.08,5,5,0,0,0-1.33.41C218,201.42,217,204,217,206.76Zm5.5,32c2-.94,4.88,1,6.42,4.28s1.17,6.73-.84,7.67-4.88-1-6.42-4.28S220.51,239.66,222.51,238.73Zm-.18-33.09c2-.94,4.88,1,6.42,4.28s1.17,6.73-.84,7.67-4.88-1-6.42-4.28S220.32,206.58,222.33,205.64Z"/><path class="cls-2" d="M222.51,238.73a2.71,2.71,0,0,1,1.41-.21,7.77,7.77,0,0,0,.5,6.2c1.21,2.58,3.23,4.31,5,4.49a2.85,2.85,0,0,1-1.34,1.47c-2,.94-4.88-1-6.42-4.28S220.51,239.66,222.51,238.73Z"/><path class="cls-2" d="M222.33,205.64a2.71,2.71,0,0,1,1.41-.21,7.77,7.77,0,0,0,.5,6.2c1.21,2.58,3.23,4.31,5,4.49a2.85,2.85,0,0,1-1.34,1.47c-2,.94-4.88-1-6.42-4.28S220.32,206.58,222.33,205.64Z"/><path class="cls-3" d="M215.86,255.74l-.26-.16V256A.89.89,0,0,1,215.86,255.74Z"/><path class="cls-3" d="M226.16,256.16v-.53l-.26.16A.54.54,0,0,1,226.16,256.16Z"/><path class="cls-3" d="M226.31,277.1v.35c0,.85-1.62,2.66-5.31,2.67-4,0-5.33-1.79-5.33-2.63V277a10.49,10.49,0,1,0,10.64.08Z"/><path class="cls-3" d="M215.53,255.55v.65a.42.42,0,0,1,.08-.2v-.41Z"/><path class="cls-3" d="M221,280.11c3.69,0,5.31-1.82,5.31-2.67v-.35l0-6v-1.12l0-14.35-.07,0v.53a.54.54,0,0,0-.25-.37,10.48,10.48,0,0,1-10,0,.78.78,0,0,0-.26.25l0,14v1.12l0,5.91v.47C215.67,278.33,217,280.13,221,280.11Z"/><path class="cls-3" d="M215.86,255.74a10.48,10.48,0,0,0,10,0,2.26,2.26,0,0,0,.26-.16l.07,0a10.5,10.5,0,1,0-10.71,0l.07,0A2.71,2.71,0,0,0,215.86,255.74Z"/><path class="cls-3" d="M225.34,182.75l.26-.16V183A.78.78,0,0,0,225.34,182.75Z"/><path class="cls-3" d="M215,183.16v-.53l.26.16A.58.58,0,0,0,215,183.16Z"/><path class="cls-3" d="M214.89,204.1v.35c0,.85,1.62,2.66,5.31,2.67,4,0,5.33-1.79,5.33-2.63V204a10.49,10.49,0,1,1-10.64.08Z"/><path class="cls-3" d="M225.67,182.55v.65a.42.42,0,0,0-.08-.2v-.41Z"/><path class="cls-3" d="M220.2,207.12c-3.69,0-5.31-1.82-5.31-2.67v-.35l0-6v-1.12l.05-14.35.07,0v.53a.54.54,0,0,1,.25-.37,10.48,10.48,0,0,0,10,0,.78.78,0,0,1,.26.25l-.05,14v1.12l0,5.91v.47C225.53,205.33,224.23,207.13,220.2,207.12Z"/><polygon class="cls-3" points="222.68 184.42 207.57 178 207.54 178.01 207.55 182.46 222.75 188.91 222.68 188.88 222.68 184.42"/><polygon class="cls-3" points="222.75 184.45 222.68 184.42 222.68 188.88 222.75 188.91 237.78 181.09 237.74 176.65 222.75 184.45"/><path class="cls-3" d="M207.57,178l15.1,6.41.07,0,15-7.79.18-.78-14.29-6.12Zm10.38-.86c-.07-1.67,2.11-3.12,4.87-3.23s5,1.16,5.11,2.83-2.11,3.12-4.87,3.23S218,178.81,218,177.14Z"/><path class="cls-3" d="M227.09,178.51a6.18,6.18,0,0,0-4.27-1.26,6.36,6.36,0,0,0-4,1.46,2.29,2.29,0,0,1-.84-1.58c-.07-1.67,2.11-3.12,4.87-3.23s5,1.16,5.11,2.83A2.35,2.35,0,0,1,227.09,178.51Z"/><path class="cls-4" d="M215,229.85l11.92-3.06c1.09-.09,2.27,1.13,2.73,2.89s0,3.4-1,3.86l-11.92,3.05c-1.07,0-2.23-1.16-2.68-2.89S214.05,230.33,215,229.85Z"/><path class="cls-4" d="M227.56,166.12l-11.43-4.58c-1.07-.23-2.4.83-3.08,2.51s-.46,3.37.47,3.95L225,172.56c1.06.18,2.36-.87,3-2.53S228.45,166.72,227.56,166.12Z"/><path class="cls-1" d="M221.32,190.47l.05-33.35a27.15,27.15,0,0,1,.59-4.07c0-.2.09-.41.14-.62s.07-.25.1-.37.11-.41.18-.62a14.79,14.79,0,0,1,.8-2.05c2.46-5,6.54-7.8,9.88-7.8a5.64,5.64,0,0,1,.93.08,29.34,29.34,0,0,0-4.56-1.13c-3.34,0-7.42,2.83-9.88,7.8a22,22,0,0,0-1.82,7.73l-.1,32.79Z"/><path class="cls-2" d="M235.33,142.1a4.69,4.69,0,0,0-1.33-.42,5.64,5.64,0,0,0-.93-.08c-3.34,0-7.42,2.83-9.88,7.8a13.63,13.63,0,0,0-.8,2c-.07.21-.12.41-.18.62l-.1.37c-.05.21-.11.41-.14.62a30.24,30.24,0,0,0-.59,4.07l0,33.32,16.93-8.85s0-33.1,0-33.18C238.29,145.67,237.28,143.07,235.33,142.1Zm-7.85,26.38c1.06-2.24,3-3.54,4.38-2.9s1.61,3,.56,5.22-3,3.54-4.38,2.9S226.43,170.72,227.48,168.48ZM233.8,155c-1.55,3.3-4.43,5.2-6.43,4.26s-2.37-4.38-.82-7.67,4.43-5.2,6.43-4.26S235.36,151.66,233.8,155Z"/><path class="cls-2" d="M231.86,165.58a2,2,0,0,0-1.62,0,5.88,5.88,0,0,1-.57,3.51,5.59,5.59,0,0,1-2.76,2.88A2.22,2.22,0,0,0,228,173.7c1.36.64,3.32-.66,4.38-2.9S233.22,166.22,231.86,165.58Z"/><path class="cls-1" d="M233,147.28a2.6,2.6,0,0,0-1.41-.22,7.78,7.78,0,0,1-.52,6.2c-1.21,2.58-3.24,4.3-5,4.48a2.83,2.83,0,0,0,1.33,1.47c2,.94,4.88-1,6.43-4.26S235,148.22,233,147.28Z"/><polygon class="cls-3" points="224.23 182.51 235.63 176.51 235.63 181.16 224.23 187.14 224.23 182.51"/><ellipse class="cls-4" cx="230.11" cy="170.07" rx="5.57" ry="3.81" transform="translate(-23.05 303.43) rotate(-64.25)"/><ellipse class="cls-4" cx="230.11" cy="170.11" rx="1.54" ry="1.05" transform="translate(-23.08 303.46) rotate(-64.25)"/><path class="cls-2" d="M220.77,254.29s0-4.86,0-11h0l0-22.22a28.26,28.26,0,0,0-.57-4.07c0-.2-.09-.41-.14-.62s-.07-.25-.1-.37-.1-.41-.18-.62a13.63,13.63,0,0,0-.8-2.05c-2.45-5-6.51-7.82-9.86-7.82a5.64,5.64,0,0,0-.93.08,30.55,30.55,0,0,1,4.56-1.12c3.34,0,7.41,2.86,9.86,7.82a21.92,21.92,0,0,1,1.79,7.74l0,22.22h0c0,6.11,0,10.92,0,11,0,2.74-1,5.34-3,6.31a34.71,34.71,0,0,1-4,1.21l.42-.17C219.74,259.63,220.76,257,220.77,254.29Z"/><path class="cls-1" d="M203.94,212.35c0,.08-.07,33.18-.07,33.18a22,22,0,0,0,1.79,7.74c2.45,5,6.51,7.82,9.86,7.82a5.41,5.41,0,0,0,1.85-.32l.42-.17c2-1,3-3.57,3-6.31,0,0,.07-33.18.07-33.18a28.26,28.26,0,0,0-.57-4.07c0-.2-.09-.41-.14-.62s-.07-.25-.1-.37-.1-.41-.18-.62a13.63,13.63,0,0,0-.8-2.05c-2.45-5-6.51-7.82-9.86-7.82a5.64,5.64,0,0,0-.93.08,5,5,0,0,0-1.33.41C205,207,204,209.61,203.94,212.35Zm5.5,32c2-.94,4.88,1,6.42,4.28s1.17,6.73-.84,7.67-4.88-1-6.42-4.28S207.43,245.26,209.44,244.32Zm4.68-6.65c-1.36.64-3.32-.67-4.37-2.91s-.79-4.58.57-5.22,3.32.67,4.37,2.91S215.49,237,214.12,237.67Zm-4.87-26.43c2-.94,4.88,1,6.42,4.28s1.17,6.73-.84,7.67-4.88-1-6.42-4.28S207.25,212.17,209.25,211.24Z"/><path class="cls-2" d="M209.44,244.32a2.71,2.71,0,0,1,1.41-.21,7.77,7.77,0,0,0,.5,6.2c1.21,2.58,3.23,4.31,5,4.49a2.85,2.85,0,0,1-1.34,1.47c-2,.94-4.88-1-6.42-4.28S207.43,245.26,209.44,244.32Z"/><path class="cls-2" d="M210.33,229.54a2,2,0,0,1,1.62,0,5.94,5.94,0,0,0,.56,3.51,5.56,5.56,0,0,0,2.75,2.89,2.22,2.22,0,0,1-1.13,1.71c-1.36.64-3.32-.67-4.37-2.91S209,230.17,210.33,229.54Z"/><path class="cls-2" d="M209.25,211.24a2.71,2.71,0,0,1,1.41-.21,7.77,7.77,0,0,0,.5,6.2c1.21,2.58,3.23,4.31,5,4.49a2.85,2.85,0,0,1-1.34,1.47c-2,.94-4.88-1-6.42-4.28S207.25,212.17,209.25,211.24Z"/><ellipse class="cls-4" cx="212.05" cy="234.52" rx="3.81" ry="5.57" transform="translate(-48.18 54.95) rotate(-13.27)"/><ellipse class="cls-4" cx="212.03" cy="234.56" rx="1.05" ry="1.54" transform="translate(-48.19 54.95) rotate(-13.27)"/><path class="cls-4" d="M224.53,291.26l11-5.57c1-.32,2.46.61,3.29,2.23s.75,3.32-.12,4l-11,5.55c-1,.28-2.43-.66-3.24-2.25S223.7,291.94,224.53,291.26Z"/><circle class="cls-3" cx="242.68" cy="298.36" r="10.5"/><polygon class="cls-3" points="250.74 309.88 246.14 305.86 246.15 302.8 246.27 302.84 252.84 308.58 250.74 309.88"/><path class="cls-3" d="M265.93,318.11l8.67-5.44a1.69,1.69,0,0,0,1-1.57c.53,1.66.08,4-1,4.65l-8.67,5.44c-2.93,1.37-4.13.67-7-.8l-11-5.7v-3.05l.12,0,10.8,5.58C261.76,318.72,263,319.48,265.93,318.11Z"/><path class="cls-3" d="M246.27,302.84l6.58,5.74-3.51,2.17-1.38.85h0l.11.06,10.8,5.58c2.88,1.47,4.12,2.23,7.05.86l8.67-5.44a1.69,1.69,0,0,0,1-1.57,1.85,1.85,0,0,0-.79-1.32,3.85,3.85,0,0,0-.78-.48L262,302.91l-3.83,2.33-6.64-5.66-5.34,3.19Zm22.2,8.31c0,2-2.61,3.57-5.85,3.59s-5.87-1.57-5.88-3.54,2.61-3.57,5.85-3.59S268.46,309.18,268.47,311.15Z"/><path class="cls-3" d="M268.47,311.15a2.51,2.51,0,0,1-.63,1.61c-.92-1.24-3-2.1-5.36-2.09a6.91,6.91,0,0,0-5.22,2,2.4,2.4,0,0,1-.52-1.44c0-2,2.61-3.57,5.85-3.59S268.46,309.18,268.47,311.15Z"/><path class="cls-2" d="M232.76,294.63a2.8,2.8,0,0,1,1.94-.12c-.83,1.53-.74,4,.41,6.46a7.79,7.79,0,0,0,4.49,4.38,2.74,2.74,0,0,1-1.23,1.22c-2,.94-4.88-1-6.43-4.26S230.76,295.57,232.76,294.63Z"/><path class="cls-2" d="M210.1,282.8a2.8,2.8,0,0,1,1.94-.12c-.83,1.53-.74,4,.41,6.46a7.79,7.79,0,0,0,4.49,4.38,2.74,2.74,0,0,1-1.23,1.22c-2,.94-4.88-1-6.43-4.26S208.1,283.74,210.1,282.8Z"/><path class="cls-2" d="M236.07,290.93c-1.91-.57-6.86-1.43-11.19-3.54s-8.92-8-13.3-8.76a7.24,7.24,0,0,0-4.46.31,8.93,8.93,0,0,1,8.15-2.2c4.38.79,8.85,6.59,13.3,8.76s9.31,2.89,11.19,3.54c4.21,1.45,7.6,4.38,7.81,9.77l.08,13.66L244,314.23l-.11-13.53A10.51,10.51,0,0,0,236.07,290.93Z"/><path class="cls-1" d="M244,314.27v0l-.11-13.53a10.52,10.52,0,0,0-7.81-9.77c-1.91-.57-6.86-1.43-11.19-3.54s-8.92-8-13.3-8.76a7.24,7.24,0,0,0-4.46.31c-2.72,1.3-2.31,4.69-2.31,4.69l-.05,10.08Zm-11.22-19.64c2-.94,4.88,1,6.43,4.26s1.19,6.73-.82,7.67-4.88-1-6.43-4.26S230.76,295.57,232.76,294.63Zm-17,.11c-2,.94-4.88-1-6.43-4.26s-1.19-6.73.82-7.67,4.88,1,6.43,4.26S217.72,293.79,215.71,294.74Zm10.93-.8c1.06,2.24.81,4.58-.56,5.22s-3.32-.66-4.38-2.9-.81-4.58.56-5.22S225.58,291.7,226.64,293.94Z"/><path class="cls-2" d="M222.26,291a2,2,0,0,1,1.62,0,5.88,5.88,0,0,0,.57,3.51,5.59,5.59,0,0,0,2.76,2.88,2.22,2.22,0,0,1-1.13,1.71c-1.36.64-3.32-.66-4.38-2.9S220.9,291.68,222.26,291Z"/><ellipse class="cls-4" cx="223.81" cy="295.29" rx="3.81" ry="5.57" transform="translate(-98.36 112.27) rotate(-23.24)"/><ellipse class="cls-4" cx="223.81" cy="295.33" rx="1.05" ry="1.54" transform="translate(-98.37 112.27) rotate(-23.24)"/><path class="cls-3" d="M118.26,231.5l.26-.16v.41A.89.89,0,0,0,118.26,231.5Z"/><path class="cls-3" d="M108,231.92v-.53l.26.16A.52.52,0,0,0,108,231.92Z"/><path class="cls-3" d="M107.81,252.86v.35c0,.85,1.62,2.66,5.31,2.67,4,0,5.33-1.79,5.33-2.63v-.47a10.49,10.49,0,1,1-10.64.08Z"/><path class="cls-3" d="M118.59,231.3V232a.42.42,0,0,0-.08-.2v-.41Z"/><path class="cls-3" d="M113.12,255.87c-3.69,0-5.31-1.82-5.31-2.67v-.35l0-6v-1.12l0-14.35.07,0v.53a.54.54,0,0,1,.25-.37,10.48,10.48,0,0,0,10,0,.78.78,0,0,1,.26.25l-.05,14v1.12l0,5.91v.47C118.45,254.09,117.15,255.89,113.12,255.87Z"/><polygon class="cls-3" points="115.59 233.17 100.49 226.76 100.46 226.76 100.47 231.21 115.66 237.66 115.59 237.63 115.59 233.17"/><polygon class="cls-3" points="115.66 233.2 115.59 233.17 115.59 237.63 115.66 237.66 130.7 229.85 130.66 225.41 115.66 233.2"/><path class="cls-3" d="M100.49,226.76l15.1,6.41.07,0,15-7.79.18-.78-14.29-6.12Zm10.38-.87c-.07-1.67,2.11-3.12,4.87-3.23s5,1.16,5.11,2.83-2.11,3.12-4.87,3.23S110.93,227.57,110.87,225.89Z"/><path class="cls-3" d="M120,227.27a6.18,6.18,0,0,0-4.27-1.26,6.36,6.36,0,0,0-4,1.46,2.29,2.29,0,0,1-.84-1.58c-.07-1.67,2.11-3.12,4.87-3.23s5,1.16,5.11,2.83A2.36,2.36,0,0,1,120,227.27Z"/><path class="cls-4" d="M107.92,278.6l11.92-3.06c1.09-.09,2.27,1.13,2.73,2.89s0,3.4-1,3.86l-11.92,3c-1.07,0-2.23-1.16-2.68-2.89S107,279.09,107.92,278.6Z"/><path class="cls-4" d="M120.48,214.87l-11.43-4.57c-1.07-.23-2.4.83-3.08,2.51s-.46,3.37.47,3.95l11.43,4.56c1.06.18,2.36-.87,3-2.53S121.36,215.48,120.48,214.87Z"/><path class="cls-1" d="M114.24,239.23l.05-33.35a27.15,27.15,0,0,1,.59-4.07c0-.2.09-.41.14-.62s.07-.25.1-.37.11-.41.18-.62a14.79,14.79,0,0,1,.8-2c2.46-5,6.54-7.8,9.88-7.8a5.64,5.64,0,0,1,.93.08,29.34,29.34,0,0,0-4.56-1.13c-3.34,0-7.42,2.83-9.88,7.79a22,22,0,0,0-1.82,7.73l-.1,32.79Z"/><path class="cls-2" d="M128.25,190.86a4.69,4.69,0,0,0-1.33-.42,5.64,5.64,0,0,0-.93-.08c-3.34,0-7.42,2.83-9.88,7.79a13.63,13.63,0,0,0-.8,2c-.07.21-.12.41-.18.62l-.1.37c0,.21-.11.41-.14.62a30.24,30.24,0,0,0-.59,4.07l0,33.32,16.93-8.85s0-33.1,0-33.18C131.2,194.43,130.2,191.83,128.25,190.86Zm-7.85,26.38c1.06-2.24,3-3.54,4.38-2.9s1.61,3,.56,5.22-3,3.54-4.38,2.9S119.34,219.48,120.4,217.24Zm6.32-13.53c-1.55,3.3-4.43,5.2-6.43,4.26s-2.37-4.38-.82-7.67,4.43-5.2,6.43-4.26S128.27,200.42,126.72,203.71Z"/><path class="cls-2" d="M124.78,214.34a2,2,0,0,0-1.62,0,5.88,5.88,0,0,1-.57,3.51,5.59,5.59,0,0,1-2.76,2.88,2.22,2.22,0,0,0,1.13,1.71c1.36.64,3.32-.66,4.38-2.9S126.14,215,124.78,214.34Z"/><path class="cls-1" d="M125.9,196a2.6,2.6,0,0,0-1.41-.22A7.78,7.78,0,0,1,124,202c-1.21,2.58-3.24,4.3-5,4.48a2.83,2.83,0,0,0,1.33,1.47c2,.94,4.88-1,6.43-4.26S127.91,197,125.9,196Z"/><polygon class="cls-3" points="117.15 231.26 128.55 225.27 128.55 229.91 117.15 235.9 117.15 231.26"/><ellipse class="cls-4" cx="123.03" cy="218.83" rx="5.57" ry="3.81" transform="translate(-127.52 234.56) rotate(-64.25)"/><ellipse class="cls-4" cx="123.03" cy="218.87" rx="1.54" ry="1.05" transform="translate(-127.55 234.58) rotate(-64.25)"/><path class="cls-2" d="M113.69,303.05s0-4.86,0-11h0l0-22.22a28.26,28.26,0,0,0-.57-4.07c0-.2-.09-.41-.14-.62s-.07-.25-.1-.37-.1-.41-.18-.62a13.63,13.63,0,0,0-.8-2.05c-2.45-5-6.51-7.82-9.86-7.82a5.64,5.64,0,0,0-.93.08,30.55,30.55,0,0,1,4.56-1.12c3.34,0,7.41,2.86,9.86,7.82a21.92,21.92,0,0,1,1.79,7.74l0,22.22h0c0,6.11,0,10.92,0,11,0,2.74-1,5.34-3,6.31a34.71,34.71,0,0,1-4,1.21l.42-.17C112.66,308.39,113.67,305.79,113.69,303.05Z"/><path class="cls-1" d="M96.86,261.11c0,.08-.07,33.18-.07,33.18A22,22,0,0,0,98.58,302c2.45,5,6.51,7.82,9.86,7.82a5.41,5.41,0,0,0,1.85-.32l.42-.17c2-1,3-3.57,3-6.31,0,0,.07-33.18.07-33.18a28.26,28.26,0,0,0-.57-4.07c0-.2-.09-.41-.14-.62s-.07-.25-.1-.37-.1-.41-.18-.62a13.63,13.63,0,0,0-.8-2.05c-2.45-5-6.51-7.82-9.86-7.82a5.64,5.64,0,0,0-.93.08,5,5,0,0,0-1.33.41C97.89,255.77,96.87,258.37,96.86,261.11Zm5.49,32c2-.94,4.88,1,6.42,4.28s1.17,6.73-.84,7.67-4.88-1-6.42-4.28S100.35,294,102.35,293.08Zm4.69-6.65c-1.36.64-3.32-.67-4.37-2.91s-.79-4.58.57-5.22,3.32.67,4.37,2.91S108.41,285.79,107,286.43ZM102.17,260c2-.94,4.88,1,6.42,4.28s1.17,6.73-.84,7.67-4.88-1-6.42-4.28S100.16,260.93,102.17,260Z"/><path class="cls-2" d="M102.35,293.08a2.71,2.71,0,0,1,1.41-.21,7.77,7.77,0,0,0,.5,6.2c1.21,2.58,3.23,4.31,5,4.49a2.85,2.85,0,0,1-1.34,1.47c-2,.94-4.88-1-6.42-4.28S100.35,294,102.35,293.08Z"/><path class="cls-2" d="M103.24,278.29a2,2,0,0,1,1.62,0,5.94,5.94,0,0,0,.56,3.51,5.56,5.56,0,0,0,2.75,2.89,2.22,2.22,0,0,1-1.13,1.71c-1.36.64-3.32-.67-4.37-2.91S101.88,278.93,103.24,278.29Z"/><path class="cls-2" d="M102.17,260a2.71,2.71,0,0,1,1.41-.21,7.77,7.77,0,0,0,.5,6.2c1.21,2.58,3.23,4.31,5,4.49a2.85,2.85,0,0,1-1.34,1.47c-2,.94-4.88-1-6.42-4.28S100.16,260.93,102.17,260Z"/><ellipse class="cls-4" cx="104.96" cy="283.27" rx="3.81" ry="5.57" transform="translate(-62.24 31.66) rotate(-13.27)"/><ellipse class="cls-4" cx="104.94" cy="283.31" rx="1.05" ry="1.54" transform="translate(-62.24 31.66) rotate(-13.27)"/><path class="cls-4" d="M117.44,340l11-5.57c1-.32,2.46.61,3.29,2.23s.75,3.32-.12,4l-11,5.55c-1,.28-2.43-.66-3.24-2.25S116.61,340.69,117.44,340Z"/><circle class="cls-3" cx="135.6" cy="347.11" r="10.5"/><polygon class="cls-3" points="143.65 358.64 139.06 354.61 139.07 351.56 139.19 351.6 145.76 357.34 143.65 358.64"/><path class="cls-3" d="M158.85,366.86l8.67-5.44a1.69,1.69,0,0,0,1-1.57c.53,1.66.08,4-1,4.65l-8.67,5.44c-2.93,1.37-4.13.67-7-.8l-11-5.7v-3.05l.12,0L151.8,366C154.68,367.48,155.91,368.23,158.85,366.86Z"/><path class="cls-3" d="M139.19,351.6l6.58,5.74-3.51,2.17-1.38.85h0l.11.06L151.8,366c2.88,1.47,4.12,2.23,7,.86l8.67-5.44a1.69,1.69,0,0,0,1-1.57,1.85,1.85,0,0,0-.79-1.32,3.85,3.85,0,0,0-.78-.48l-12.08-6.39L151,354l-6.64-5.66-5.34,3.19Zm22.2,8.3c0,2-2.61,3.57-5.85,3.59s-5.87-1.57-5.88-3.54,2.61-3.57,5.85-3.59S161.38,357.94,161.39,359.9Z"/><path class="cls-3" d="M161.39,359.9a2.51,2.51,0,0,1-.63,1.61c-.92-1.24-3-2.1-5.36-2.09a6.91,6.91,0,0,0-5.22,2,2.4,2.4,0,0,1-.52-1.44c0-2,2.61-3.57,5.85-3.59S161.38,357.94,161.39,359.9Z"/><path class="cls-2" d="M125.68,343.38a2.8,2.8,0,0,1,1.94-.12c-.83,1.53-.74,4,.41,6.46a7.79,7.79,0,0,0,4.49,4.38,2.74,2.74,0,0,1-1.23,1.22c-2,.94-4.88-1-6.43-4.26S123.68,344.33,125.68,343.38Z"/><path class="cls-2" d="M103,331.56a2.8,2.8,0,0,1,1.94-.12c-.83,1.53-.74,4,.41,6.46a7.79,7.79,0,0,0,4.49,4.38,2.74,2.74,0,0,1-1.23,1.22c-2,.94-4.88-1-6.43-4.26S101,332.5,103,331.56Z"/><path class="cls-2" d="M129,339.69c-1.91-.57-6.86-1.43-11.19-3.54s-8.92-8-13.3-8.76a7.24,7.24,0,0,0-4.46.31,8.93,8.93,0,0,1,8.15-2.2c4.38.79,8.85,6.59,13.3,8.76s9.31,2.89,11.19,3.54c4.21,1.45,7.6,4.38,7.81,9.77l.08,13.66L136.89,363l-.11-13.53A10.48,10.48,0,0,0,129,339.69Z"/><path class="cls-1" d="M136.9,363v0l-.11-13.53a10.52,10.52,0,0,0-7.81-9.77c-1.91-.57-6.86-1.43-11.19-3.54s-8.92-8-13.3-8.76a7.24,7.24,0,0,0-4.46.31c-2.72,1.3-2.31,4.69-2.31,4.69l0,10.08Zm-11.22-19.65c2-.94,4.88,1,6.43,4.26s1.19,6.73-.82,7.67-4.88-1-6.43-4.26S123.68,344.33,125.68,343.38Zm-17.05.11c-2,.94-4.88-1-6.43-4.26s-1.19-6.73.82-7.67,4.88,1,6.43,4.26S110.63,342.55,108.63,343.49Zm10.92-.79c1.06,2.24.81,4.58-.56,5.22s-3.32-.66-4.38-2.9-.81-4.58.56-5.22S118.5,340.46,119.55,342.7Z"/><path class="cls-2" d="M115.18,339.8a2,2,0,0,1,1.62,0,5.88,5.88,0,0,0,.57,3.51,5.59,5.59,0,0,0,2.76,2.88,2.22,2.22,0,0,1-1.13,1.71c-1.36.64-3.32-.66-4.38-2.9S113.81,340.44,115.18,339.8Z"/><ellipse class="cls-4" cx="116.73" cy="344.05" rx="3.81" ry="5.57" transform="translate(-126.29 73.97) rotate(-23.24)"/><ellipse class="cls-4" cx="116.72" cy="344.09" rx="1.05" ry="1.54" transform="translate(-126.3 73.97) rotate(-23.24)"/><path class="cls-4" d="M163.67,181.18l.09,12.31c.19,1.07,1.67,1.91,3.49,1.9s3.3-.85,3.48-1.93l-.1-12.31c-.23-1.05-1.69-1.85-3.48-1.85S163.89,180.13,163.67,181.18Z"/><path class="cls-2" d="M99.18,124.35l8.8,5.71h0l17.83,11.57a27.08,27.08,0,0,1,3,2.59c.14.13.28.29.42.44l.25.28c.14.16.27.3.4.47a13.15,13.15,0,0,1,1.23,1.71c2.7,4.56,2.86,9.31,1.12,12a5.59,5.59,0,0,1-.55.71,28.45,28.45,0,0,0,3.28-3.08c1.74-2.68,1.58-7.43-1.12-12a21.09,21.09,0,0,0-5.26-5.48L110.71,127.7h0l-8.8-5.71c-2.21-1.42-4.82-2-6.61-.9a32.13,32.13,0,0,0-3.08,2.61,2.82,2.82,0,0,1,.36-.24C94.36,122.38,97,122.93,99.18,124.35Z"/><path class="cls-1" d="M130.61,160.66a4.91,4.91,0,0,0,1-.85,4.8,4.8,0,0,0,.55-.71c1.74-2.68,1.58-7.43-1.12-12a13.15,13.15,0,0,0-1.23-1.71c-.13-.17-.27-.31-.4-.47s-.16-.19-.25-.28l-.42-.44a28,28,0,0,0-3-2.59L99.18,124.34c-2.21-1.42-4.82-2-6.61-.9l-.36.24A5,5,0,0,0,91,125c-1.74,2.68-1.58,7.43,1.12,12a21.09,21.09,0,0,0,5.26,5.48L124,159.74C126.2,161.17,128.82,161.72,130.61,160.66Zm-36-25.35c-1.84-3-1.87-6.26-.08-7.38s4.75.38,6.59,3.34,1.87,6.26.08,7.38S96.5,138.27,94.66,135.31Zm18.85,5.33c1.25,2,1.28,4.26,0,5s-3.23-.26-4.48-2.27-1.28-4.26,0-5S112.26,138.62,113.51,140.64Zm7.57,12.11c-1.84-3-1.87-6.26-.08-7.38s4.75.38,6.59,3.34,1.87,6.26.08,7.38S122.92,155.71,121.08,152.75Z"/><path class="cls-2" d="M101.25,138.65a2.57,2.57,0,0,0,.91-1A7.44,7.44,0,0,1,97.45,134c-1.44-2.32-1.77-4.84-1-6.36a2.72,2.72,0,0,0-1.88.31c-1.8,1.12-1.76,4.42.08,7.38S99.45,139.77,101.25,138.65Z"/><path class="cls-2" d="M113.56,145.66a1.94,1.94,0,0,0,.83-1.31,5.62,5.62,0,0,1-2.52-2.28,5.38,5.38,0,0,1-.88-3.71,2.17,2.17,0,0,0-2,0c-1.22.76-1.2,3,0,5S112.34,146.42,113.56,145.66Z"/><path class="cls-2" d="M127.67,156.08a2.57,2.57,0,0,0,.91-1,7.44,7.44,0,0,1-4.71-3.64c-1.44-2.32-1.77-4.84-1-6.36a2.72,2.72,0,0,0-1.88.31c-1.8,1.12-1.76,4.42.08,7.38S125.87,157.2,127.67,156.08Z"/><ellipse class="cls-4" cx="111.07" cy="142.11" rx="3.64" ry="5.33" transform="translate(-59.88 84.6) rotate(-33.39)"/><ellipse class="cls-4" cx="111.07" cy="142.15" rx="1.01" ry="1.47" transform="translate(-59.9 84.6) rotate(-33.39)"/><path class="cls-2" d="M240.41,214.9s0-4.86,0-11h0l0-22.22a28.26,28.26,0,0,0-.57-4.07c0-.2-.09-.41-.14-.62s-.07-.25-.1-.37-.1-.41-.18-.62a13.63,13.63,0,0,0-.8-2c-2.45-5-6.51-7.82-9.86-7.82a5.64,5.64,0,0,0-.93.08,30.55,30.55,0,0,1,4.56-1.12c3.34,0,7.41,2.86,9.86,7.82a21.92,21.92,0,0,1,1.79,7.74l0,22.22h0c0,6.11,0,10.92,0,11,0,2.74-1,5.34-3,6.31a34.71,34.71,0,0,1-4.05,1.21l.42-.17C239.38,220.24,240.39,217.64,240.41,214.9Z"/><path class="cls-1" d="M223.57,173c0,.08-.07,33.18-.07,33.18a22,22,0,0,0,1.79,7.74c2.45,5,6.51,7.82,9.86,7.82a5.41,5.41,0,0,0,1.85-.32l.42-.17c2-1,3-3.57,3-6.31,0,0,.07-33.18.07-33.18a28.26,28.26,0,0,0-.57-4.07c0-.2-.09-.41-.14-.62s-.07-.25-.1-.37-.1-.41-.18-.62a13.63,13.63,0,0,0-.8-2c-2.45-5-6.51-7.82-9.86-7.82a5.64,5.64,0,0,0-.93.08,5,5,0,0,0-1.33.41C224.6,167.62,223.59,170.22,223.57,173Zm5.5,32c2-.94,4.88,1,6.42,4.28s1.17,6.73-.84,7.67-4.88-1-6.42-4.28S227.06,205.86,229.07,204.93Zm-.18-33.09c2-.94,4.88,1,6.42,4.28s1.17,6.73-.84,7.67-4.88-1-6.42-4.28S226.88,172.78,228.89,171.84Z"/><path class="cls-2" d="M229.07,204.93a2.71,2.71,0,0,1,1.41-.21,7.77,7.77,0,0,0,.5,6.2c1.21,2.58,3.23,4.31,5,4.49a2.85,2.85,0,0,1-1.34,1.47c-2,.94-4.88-1-6.42-4.28S227.06,205.86,229.07,204.93Z"/><path class="cls-2" d="M228.89,171.84a2.71,2.71,0,0,1,1.41-.21,7.77,7.77,0,0,0,.5,6.2c1.21,2.58,3.23,4.31,5,4.49a2.85,2.85,0,0,1-1.34,1.47c-2,.94-4.88-1-6.42-4.28S226.88,172.78,228.89,171.84Z"/><path class="cls-3" d="M191,195.55l-.32-.2c-.78-.48-1.52-3,.58-6.4,2.29-3.71,4.68-3.87,5.46-3.39l.44.27a11.36,11.36,0,1,0-6.16,9.72Z"/><path class="cls-3" d="M191.22,189c-2.09,3.4-1.35,5.92-.58,6.4l.32.2,5.56,3.43,1,.64,17.31,10.7v-.11c0-.11,0-.22,0-.33a11.33,11.33,0,0,1,5.77-9.2l.28-.14-17.33-10.71-1-.64-5.44-3.35-.44-.27C195.9,185.08,193.5,185.24,191.22,189Z"/><path class="cls-3" d="M216.54,204.6a11.29,11.29,0,0,0-1.67,5.27c0,.11,0,.22,0,.33v.11a11.35,11.35,0,1,0,6.14-9.83l-.08,0h0l-.28.14A11.3,11.3,0,0,0,216.54,204.6Z"/><path class="cls-4" d="M222.26,195.08,234.18,192c1.09-.09,2.27,1.13,2.73,2.89s0,3.4-1,3.86l-11.92,3c-1.07,0-2.23-1.16-2.68-2.89S221.3,195.57,222.26,195.08Z"/><path class="cls-3" d="M226.78,173.66c-2.73,0-4.19-1.15-4.86-2.27a1.73,1.73,0,0,1-.47-1v-.47a10.5,10.5,0,1,0,10.64.09v.35a1.65,1.65,0,0,1-.49.93A5.46,5.46,0,0,1,226.78,173.66Z"/><path class="cls-3" d="M221.39,144.26l0,15.1v1.58l0,8.34V170a3.09,3.09,0,0,0,.47,1.44c.67,1.12,2.12,2.29,4.86,2.27a5.44,5.44,0,0,0,4.82-2.4,2.78,2.78,0,0,0,.49-1.37v-.49l0-8.52V159.3l0-10.37-.34-.15Z"/><path class="cls-3" d="M260.59,141.52c-.17,1.6-1.59,3.38-3.72,4.63-9.74,5.71-21.1.47-25.05-1.25l-17.39-7.63a2.5,2.5,0,0,1-1.4-2.84s0,0,0,.07c-1,2.54-.29,5.89,1.33,6.66l7.08,3.1,10.31,4.52.34.15c4.22,1.85,15.22,6.67,24.71,1.11C259.51,148.42,260.94,145.57,260.59,141.52Z"/><path class="cls-3" d="M214.43,137.27l17.39,7.63c4,1.72,15.31,7,25.05,1.25,2.13-1.25,3.55-3,3.72-4.63.14-1.27-.51-2.44-2.36-3.1l-23.35-8.87c-3.56-1.5-7.67-2.52-14.34-1.21-4.44.87-7.14,3.76-7.51,6.1A2.5,2.5,0,0,0,214.43,137.27Z"/><path class="cls-2" d="M227.33,220.49s0-4.86,0-11h0l0-22.22a28.26,28.26,0,0,0-.57-4.07c0-.2-.09-.41-.14-.62s-.07-.25-.1-.37-.1-.41-.18-.62a13.63,13.63,0,0,0-.8-2c-2.45-5-6.51-7.82-9.86-7.82a5.64,5.64,0,0,0-.93.08,30.55,30.55,0,0,1,4.56-1.12c3.34,0,7.41,2.86,9.86,7.82a21.92,21.92,0,0,1,1.79,7.74l0,22.22h0c0,6.11,0,10.92,0,11,0,2.74-1,5.34-3,6.31a34.71,34.71,0,0,1-4,1.21l.42-.17C226.3,225.84,227.32,223.23,227.33,220.49Z"/><path class="cls-1" d="M210.5,178.55c0,.08-.07,33.18-.07,33.18a22,22,0,0,0,1.79,7.74c2.45,5,6.51,7.82,9.86,7.82a5.41,5.41,0,0,0,1.85-.32l.42-.17c2-1,3-3.57,3-6.31,0,0,.07-33.18.07-33.18a28.26,28.26,0,0,0-.57-4.07c0-.2-.09-.41-.14-.62s-.07-.25-.1-.37-.1-.41-.18-.62a13.63,13.63,0,0,0-.8-2c-2.45-5-6.51-7.82-9.86-7.82a5.64,5.64,0,0,0-.93.08,5,5,0,0,0-1.33.41C211.53,173.21,210.52,175.81,210.5,178.55Zm5.49,32c2-.94,4.88,1,6.42,4.28s1.17,6.73-.84,7.67-4.88-1-6.42-4.28S214,211.46,216,210.52Zm4.69-6.65c-1.36.64-3.32-.67-4.37-2.91s-.79-4.58.57-5.22,3.32.67,4.37,2.91S222.05,203.23,220.68,203.87Zm-4.87-26.43c2-.94,4.88,1,6.42,4.28s1.17,6.73-.84,7.67-4.88-1-6.42-4.28S213.81,178.37,215.81,177.44Z"/><path class="cls-2" d="M216,210.52a2.71,2.71,0,0,1,1.41-.21,7.77,7.77,0,0,0,.5,6.2c1.21,2.58,3.23,4.31,5,4.49a2.85,2.85,0,0,1-1.34,1.47c-2,.94-4.88-1-6.42-4.28S214,211.46,216,210.52Z"/><path class="cls-2" d="M216.89,195.74a2,2,0,0,1,1.62,0,5.94,5.94,0,0,0,.56,3.51,5.56,5.56,0,0,0,2.75,2.89,2.22,2.22,0,0,1-1.13,1.71c-1.36.64-3.32-.67-4.37-2.91S215.52,196.37,216.89,195.74Z"/><path class="cls-2" d="M215.81,177.44a2.71,2.71,0,0,1,1.41-.21,7.77,7.77,0,0,0,.5,6.2c1.21,2.58,3.23,4.31,5,4.49a2.85,2.85,0,0,1-1.34,1.47c-2,.94-4.88-1-6.42-4.28S213.81,178.37,215.81,177.44Z"/><ellipse class="cls-4" cx="219.3" cy="199.76" rx="3.81" ry="5.57" transform="translate(-40 55.69) rotate(-13.27)"/><ellipse class="cls-4" cx="219.29" cy="199.79" rx="1.05" ry="1.54" transform="translate(-40.01 55.69) rotate(-13.27)"/><path class="cls-1" d="M181.77,172.12c.31-.12.63-.22,1-.32A8.66,8.66,0,0,0,181.77,172.12Z"/><path class="cls-1" d="M183.26,171.68l.8-.16Z"/><path class="cls-1" d="M184.88,171.42l.61,0Z"/><path class="cls-1" d="M186.88,171.35a1.61,1.61,0,0,1-.22,0h.22Z"/><path class="cls-1" d="M193.28,149.76h0Z"/><path class="cls-1" d="M191.74,149.63h0Z"/><path class="cls-1" d="M186.64,150.4c.3-.12.63-.22,1-.32A8.48,8.48,0,0,0,186.64,150.4Z"/><path class="cls-1" d="M188.42,171.48h0Z"/><path class="cls-1" d="M189.75,149.7l.6,0Z"/><path class="cls-1" d="M188.12,150c.26-.06.52-.11.79-.15C188.64,149.85,188.38,149.9,188.12,150Z"/><path class="cls-1" d="M146,173.63h0Z"/><path class="cls-1" d="M142.41,174q.38-.09.78-.15A6.71,6.71,0,0,0,142.41,174Z"/><path class="cls-1" d="M144,173.7l.6,0Z"/><path class="cls-1" d="M147.56,173.76h0Z"/><path class="cls-1" d="M140.92,174.4c.3-.12.63-.22,1-.32A8.48,8.48,0,0,0,140.92,174.4Z"/><path class="cls-1" d="M204.13,153.09a9.13,9.13,0,0,1,.27.89l-5,20.06c-2,7.9-5.63,8.25-11.38,8.73l-45,2.1c-4.4-.15-8.31-2.17-8.85-5.82l0,2.22c.11,6.76,3.38,8.23,8.82,8.42l45-2.1c5.75-.47,9.41-.83,11.38-8.73l5-20.06C204.78,156.06,204.65,154.27,204.13,153.09Z"/><path class="cls-2" d="M143,184.87l45-2.1c5.75-.47,9.41-.83,11.38-8.73l5-20.06c-.07-.31-.18-.6-.27-.89a9.79,9.79,0,0,0-9.48-6.88l-23.33,1.65-33.12,15.7-3.8,12.61a6.89,6.89,0,0,0-.22,2.87C134.71,182.7,138.63,184.71,143,184.87Zm43.44-34.41.17-.07c.31-.12.63-.22,1-.32.17,0,.34-.08.52-.12s.52-.11.79-.15l.84-.1.6,0c.14,0,.27,0,.41,0s.51,0,.77,0h.33c.49,0,1,.06,1.42.12h.09c3.21.44,5.78,1.83,6.18,3.58a2.18,2.18,0,0,1,0,.62.38.38,0,0,1,0,.1,2.38,2.38,0,0,1-.16.58l0,.06a3.25,3.25,0,0,1-.93,1.13l0,0c-1.41,1.16-4,1.89-7,1.79-4.39-.15-7.9-2.05-7.82-4.26C183.69,152.16,184.79,151.14,186.46,150.46Zm-4.86,21.72.17-.06a8.66,8.66,0,0,1,1-.32l.51-.12.8-.16.83-.1.61,0c.14,0,.26,0,.4,0s.51,0,.76,0H187c.48,0,.95.06,1.42.12h.1c3.21.44,5.78,1.84,6.18,3.58a2.18,2.18,0,0,1,0,.62.38.38,0,0,1,0,.1,2.38,2.38,0,0,1-.16.58l0,.06a3.25,3.25,0,0,1-.93,1.13l0,0c-1.41,1.16-4,1.89-7,1.79-4.39-.15-7.9-2.05-7.82-4.26C178.83,173.88,179.93,172.86,181.6,172.18ZM165.27,153l5,1.94L156.4,161.8l-4.8-2.32Zm-24.53,21.45.18-.07c.31-.12.62-.22,1-.32.17,0,.35-.08.52-.12s.51-.11.78-.15l.84-.1.6,0c.14,0,.27,0,.41,0s.51,0,.77,0h.33c.49,0,1,.06,1.42.12h.09c3.21.44,5.78,1.83,6.18,3.58a2.18,2.18,0,0,1,0,.62.38.38,0,0,1,0,.1,2.38,2.38,0,0,1-.16.58l0,.06a3.25,3.25,0,0,1-.93,1.13l0,0c-1.41,1.16-4,1.89-7,1.79-4.39-.15-7.9-2.05-7.82-4.26C138,176.16,139.07,175.14,140.74,174.46Z"/><polygon class="cls-3" points="170.28 154.94 165.27 153.01 151.6 159.48 156.4 161.8 170.28 154.94"/><path class="cls-1" d="M183.8,153.85a2.07,2.07,0,0,0,.13.4,3.24,3.24,0,0,0,.17.32l0,.05a3.9,3.9,0,0,0,.6.71h0a10.15,10.15,0,0,1,5.87-1.75c3.28-.11,6.32.82,7.84,2.22l0,0a3.23,3.23,0,0,0,.93-1.13l0-.06a2.1,2.1,0,0,0,.16-.58.38.38,0,0,1,0-.1,1.87,1.87,0,0,0,0-.62c-.4-1.74-3-3.14-6.18-3.58h-.09c-.46-.06-.94-.1-1.42-.12h-.33c-.26,0-.51,0-.77,0s-.27,0-.41,0l-.6.05-.84.1c-.27,0-.53.1-.79.15l-.52.12a8.48,8.48,0,0,0-1,.32l-.17.07C184.57,151.25,183.48,152.49,183.8,153.85Z"/><path class="cls-1" d="M138.08,177.85a2.07,2.07,0,0,0,.13.4,3.24,3.24,0,0,0,.17.32l0,.05a3.9,3.9,0,0,0,.6.71h0a10.15,10.15,0,0,1,5.87-1.75c3.28-.11,6.32.82,7.84,2.22l0,0a3.14,3.14,0,0,0,.93-1.13l0-.06a2.1,2.1,0,0,0,.16-.58.38.38,0,0,1,0-.1,1.87,1.87,0,0,0,0-.62c-.4-1.74-3-3.14-6.18-3.58h-.09c-.46-.06-.94-.1-1.42-.12h-.33c-.26,0-.51,0-.77,0s-.27,0-.41,0l-.6.05-.84.1c-.27,0-.53.1-.78.15l-.52.12a9.18,9.18,0,0,0-1,.32l-.18.07C138.85,175.25,137.76,176.49,138.08,177.85Z"/><path class="cls-1" d="M178.94,175.57a2.07,2.07,0,0,0,.13.4,3.24,3.24,0,0,0,.17.32l0,.05a3.9,3.9,0,0,0,.6.71h0a10.15,10.15,0,0,1,5.87-1.75c3.28-.11,6.32.82,7.84,2.22l0,0a3.23,3.23,0,0,0,.93-1.13l0-.06a2,2,0,0,0,.16-.58.38.38,0,0,1,0-.1,1.87,1.87,0,0,0,0-.62c-.4-1.74-3-3.14-6.18-3.58h-.1c-.46-.06-.93-.1-1.42-.12h-.34c-.25,0-.5,0-.76,0s-.27,0-.4,0l-.61.05-.83.1c-.27,0-.54.1-.8.16l-.51.12a9.37,9.37,0,0,0-1,.32l-.17.06C179.7,173,178.62,174.21,178.94,175.57Z"/><ellipse class="cls-4" cx="167" cy="177.62" rx="6.4" ry="3.72" transform="translate(-1.05 0.99) rotate(-0.34)"/><ellipse class="cls-4" cx="167.04" cy="177.6" rx="1.77" ry="1.03" transform="translate(-1.05 0.99) rotate(-0.34)"/><ellipse class="cls-4" cx="193.98" cy="163.88" rx="5.57" ry="3.24" transform="translate(-0.97 1.15) rotate(-0.34)"/><ellipse class="cls-4" cx="194.01" cy="163.86" rx="1.54" ry="0.89" transform="translate(-0.97 1.15) rotate(-0.34)"/><ellipse class="cls-4" cx="176.28" cy="151.74" rx="5.57" ry="3.24" transform="translate(-0.89 1.05) rotate(-0.34)"/><ellipse class="cls-4" cx="176.31" cy="151.72" rx="1.54" ry="0.89" transform="translate(-0.89 1.05) rotate(-0.34)"/><ellipse class="cls-4" cx="145.56" cy="167.04" rx="6.28" ry="3.65" transform="translate(-0.99 0.86) rotate(-0.34)"/><ellipse class="cls-4" cx="145.6" cy="167.02" rx="1.73" ry="1.01" transform="translate(-0.99 0.86) rotate(-0.34)"/></g></g></svg>