<?xml version="1.0" encoding="utf-8"?>
<!-- Generator: Adobe Illustrator 25.2.1, SVG Export Plug-In . SVG Version: 6.00 Build 0)  -->
<svg version="1.1" id="Layer_1" xmlns="http://www.w3.org/2000/svg" xmlns:xlink="http://www.w3.org/1999/xlink" x="0px" y="0px"
	 viewBox="0 0 595.28 841.89" style="enable-background:new 0 0 595.28 841.89;" xml:space="preserve">
<style type="text/css">
	.st0{fill:#A1C5D3;stroke:#000000;stroke-width:0.1;stroke-linecap:round;stroke-linejoin:round;stroke-miterlimit:10;}
	.st1{fill:#8BAAB9;stroke:#000000;stroke-width:0.1;stroke-linecap:round;stroke-linejoin:round;stroke-miterlimit:10;}
	.st2{fill:#D1D3D4;stroke:#000000;stroke-width:0.1;stroke-linecap:round;stroke-linejoin:round;stroke-miterlimit:10;}
	.st3{fill:#E6E7E8;stroke:#000000;stroke-width:0.1;stroke-linecap:round;stroke-linejoin:round;stroke-miterlimit:10;}
	.st4{fill:#79949B;stroke:#000000;stroke-width:0.1;stroke-linecap:round;stroke-linejoin:round;stroke-miterlimit:10;}
</style>
<g>
	<g>
		<path class="st0" d="M202.4,320.84c0-0.04-0.08-4.79-0.17-10.82c0,0,0,0,0,0l-0.35-21.93c-0.1-1.16-0.3-2.58-0.64-4.01
			c-0.04-0.2-0.1-0.4-0.15-0.61c-0.03-0.12-0.07-0.24-0.11-0.37c-0.06-0.2-0.11-0.4-0.19-0.61c-0.23-0.7-0.5-1.38-0.82-2.01
			c-2.5-4.86-6.57-7.6-9.87-7.55c-0.32,0-0.62,0.04-0.92,0.1c1.49-0.49,3.9-1.17,4.49-1.18c3.3-0.05,7.37,2.69,9.87,7.55
			c1.22,2.36,1.72,5.44,1.91,7.61l0.35,21.93c0,0,0,0,0,0c0.1,6.03,0.17,10.78,0.17,10.82c0.03,2.71-0.92,5.29-2.83,6.28
			c-0.45,0.23-2.46,0.87-3.97,1.26c0.14-0.05,0.28-0.11,0.41-0.18C201.48,326.13,202.43,323.54,202.4,320.84z"/>
		<path class="st1" d="M185.04,279.73c0,0.08,0.52,32.76,0.52,32.76c0.19,2.16,0.69,5.24,1.91,7.61c2.5,4.86,6.57,7.6,9.87,7.55
			c0.64-0.01,1.25-0.13,1.82-0.35c0.14-0.05,0.28-0.11,0.41-0.18c1.91-0.98,2.87-3.57,2.83-6.28c0-0.04-0.52-32.76-0.52-32.76
			c-0.1-1.16-0.3-2.58-0.64-4.01c-0.04-0.2-0.1-0.4-0.15-0.61c-0.03-0.12-0.07-0.24-0.11-0.37c-0.06-0.2-0.11-0.4-0.19-0.61
			c-0.23-0.7-0.5-1.38-0.82-2.01c-2.5-4.86-6.57-7.6-9.87-7.55c-0.32,0-0.62,0.04-0.92,0.1c-0.46,0.08-0.9,0.22-1.31,0.43
			C185.96,274.44,185.01,277.03,185.04,279.73z M191.03,311.19c1.96-0.96,4.83,0.88,6.41,4.11c1.58,3.23,1.27,6.63-0.69,7.59
			c-1.96,0.96-4.83-0.88-6.41-4.11C188.76,315.55,189.07,312.15,191.03,311.19z M190.27,278.53c1.96-0.96,4.83,0.88,6.41,4.11
			c1.58,3.23,1.27,6.63-0.69,7.59c-1.96,0.96-4.83-0.88-6.41-4.11C187.99,282.89,188.3,279.49,190.27,278.53z"/>
		<path class="st1" d="M191.03,311.19c0.43-0.21,0.9-0.28,1.39-0.24c-0.66,1.53-0.5,3.85,0.6,6.11c1.24,2.53,3.26,4.2,5.02,4.35
			c-0.28,0.66-0.71,1.18-1.3,1.47c-1.96,0.96-4.83-0.88-6.41-4.11C188.76,315.55,189.07,312.15,191.03,311.19z"/>
		<path class="st1" d="M190.27,278.53c0.43-0.21,0.9-0.28,1.39-0.24c-0.66,1.53-0.5,3.85,0.6,6.11c1.24,2.53,3.26,4.2,5.02,4.35
			c-0.28,0.66-0.71,1.18-1.3,1.47c-1.96,0.96-4.83-0.88-6.41-4.11C187.99,282.89,188.3,279.49,190.27,278.53z"/>
	</g>
	<g>
		<path class="st2" d="M182.07,303.85l11.29-4.7c1.06-0.24,2.4,0.79,3.1,2.46c0.7,1.67,0.5,3.35-0.42,3.93l-11.3,4.68
			c-1.05,0.2-2.36-0.83-3.04-2.47C181.01,306.11,181.19,304.46,182.07,303.85z"/>
	</g>
	<g>
		<g>
			<g>
				<path class="st1" d="M237.11,231.62c-0.01-0.04-0.61-4.66-1.38-10.53c0,0,0,0,0,0l-2.79-21.33c-0.07-1.14-0.08-2.54,0.05-3.98
					c0.01-0.2,0.04-0.4,0.06-0.61c0.01-0.12,0.03-0.25,0.05-0.37c0.03-0.21,0.05-0.41,0.09-0.62c0.12-0.71,0.29-1.41,0.51-2.07
					c1.74-5.07,5.29-8.31,8.5-8.73c0.31-0.04,0.61-0.05,0.91-0.04c-1.52-0.27-3.95-0.58-4.52-0.51c-3.21,0.42-6.77,3.66-8.5,8.73
					c-0.84,2.46-0.89,5.52-0.77,7.65l2.79,21.33c0,0,0,0,0,0c0.77,5.86,1.37,10.49,1.38,10.53c0.36,2.63,1.65,5.01,3.64,5.69
					c0.47,0.16,2.51,0.49,4.03,0.66c-0.14-0.03-0.28-0.07-0.42-0.11C238.76,236.63,237.46,234.25,237.11,231.62z"/>
				<path class="st0" d="M244.45,183.58c-0.43-0.15-0.87-0.22-1.33-0.23c-0.3-0.01-0.6,0-0.91,0.04c-3.21,0.42-6.77,3.66-8.5,8.73
					c-0.22,0.66-0.39,1.36-0.51,2.07c-0.04,0.21-0.06,0.41-0.09,0.62c-0.02,0.12-0.04,0.25-0.05,0.37
					c-0.02,0.21-0.05,0.41-0.06,0.61c-0.13,1.44-0.12,2.85-0.05,3.98c0,0,4.16,31.81,4.16,31.86c0.36,2.63,1.65,5.01,3.64,5.69
					c0.14,0.05,0.28,0.08,0.42,0.11c0.58,0.14,1.19,0.16,1.82,0.08c3.21-0.42,6.77-3.66,8.5-8.73c0.84-2.46,0.89-5.52,0.77-7.65
					c0,0-4.15-31.78-4.16-31.86C247.74,186.64,246.44,184.26,244.45,183.58z M248.52,227.91c-1.07,3.36-3.6,5.56-5.64,4.9
					c-2.04-0.65-2.83-3.9-1.75-7.26c1.07-3.36,3.6-5.56,5.64-4.9C248.81,221.3,249.59,224.55,248.52,227.91z M244.61,196.11
					c-1.07,3.36-3.6,5.56-5.64,4.9c-2.04-0.65-2.83-3.9-1.75-7.26c1.07-3.36,3.6-5.56,5.64-4.9
					C244.89,189.5,245.68,192.75,244.61,196.11z"/>
				<path class="st1" d="M246.76,220.65c-0.44-0.14-0.91-0.14-1.38-0.03c0.86,1.39,1.04,3.67,0.29,6.02
					c-0.84,2.63-2.57,4.54-4.25,4.94c0.37,0.6,0.85,1.05,1.47,1.24c2.04,0.65,4.56-1.54,5.64-4.9
					C249.59,224.55,248.81,221.3,246.76,220.65z"/>
				<path class="st1" d="M242.85,188.85c-0.44-0.14-0.91-0.14-1.38-0.03c0.86,1.39,1.04,3.67,0.29,6.02
					c-0.84,2.63-2.57,4.54-4.25,4.94c0.37,0.6,0.85,1.05,1.47,1.24c2.04,0.65,4.56-1.54,5.64-4.9
					C245.68,192.75,244.89,189.5,242.85,188.85z"/>
			</g>
			<g>
				<path class="st0" d="M278.51,329.92c-0.01-0.04-0.66-4.67-1.49-10.55c0,0,0,0,0,0l-3.02-21.37c-0.24-1.12-0.61-2.48-1.11-3.84
					c-0.06-0.19-0.14-0.38-0.22-0.57c-0.05-0.12-0.1-0.23-0.15-0.35c-0.09-0.19-0.16-0.38-0.26-0.57c-0.31-0.66-0.66-1.29-1.05-1.86
					c-3.04-4.44-7.34-6.62-10.56-6.16c-0.31,0.04-0.6,0.12-0.89,0.21c1.39-0.66,3.66-1.62,4.24-1.7c3.22-0.45,7.52,1.72,10.56,6.16
					c1.48,2.16,2.34,5.1,2.79,7.19l3.02,21.37c0,0,0,0,0,0c0.83,5.88,1.49,10.51,1.49,10.55c0.36,2.64-0.25,5.28-2,6.48
					c-0.41,0.28-2.3,1.15-3.73,1.72c0.13-0.07,0.26-0.14,0.38-0.22C278.26,335.2,278.87,332.55,278.51,329.92z"/>
				<path class="st1" d="M256.53,291.9c0.01,0.08,4.52,31.92,4.52,31.92c0.45,2.09,1.32,5.04,2.79,7.19
					c3.04,4.44,7.34,6.62,10.56,6.16c0.63-0.09,1.21-0.28,1.73-0.57c0.13-0.07,0.26-0.14,0.38-0.22c1.75-1.2,2.36-3.84,2-6.48
					c-0.01-0.04-4.52-31.92-4.52-31.92c-0.24-1.12-0.61-2.48-1.11-3.84c-0.06-0.19-0.14-0.38-0.22-0.57
					c-0.05-0.12-0.1-0.23-0.15-0.35c-0.09-0.19-0.16-0.38-0.26-0.57c-0.31-0.66-0.66-1.29-1.05-1.86
					c-3.04-4.44-7.34-6.62-10.56-6.16c-0.31,0.04-0.6,0.12-0.89,0.21c-0.44,0.14-0.85,0.33-1.22,0.58
					C256.78,286.62,256.17,289.26,256.53,291.9z M266.23,321.89c1.8-1.18,4.83,0.27,6.77,3.23c1.94,2.96,2.05,6.32,0.25,7.49
					c-1.8,1.18-4.83-0.27-6.77-3.23C264.54,326.42,264.43,323.07,266.23,321.89z M261.48,290.09c1.8-1.18,4.83,0.27,6.77,3.23
					c1.94,2.96,2.05,6.32,0.25,7.49c-1.8,1.18-4.83-0.27-6.77-3.23C259.8,294.63,259.69,291.27,261.48,290.09z"/>
				<path class="st1" d="M266.23,321.89c0.39-0.26,0.84-0.38,1.33-0.4c-0.46,1.58-0.02,3.83,1.34,5.9c1.52,2.32,3.7,3.7,5.44,3.63
					c-0.2,0.68-0.54,1.24-1.08,1.6c-1.8,1.18-4.83-0.27-6.77-3.23C264.54,326.42,264.43,323.07,266.23,321.89z"/>
				<path class="st1" d="M261.48,290.09c0.39-0.26,0.84-0.38,1.33-0.4c-0.46,1.58-0.02,3.83,1.34,5.9c1.52,2.32,3.7,3.7,5.44,3.63
					c-0.2,0.68-0.54,1.24-1.08,1.6c-1.8,1.18-4.83-0.27-6.77-3.23C259.8,294.63,259.69,291.27,261.48,290.09z"/>
			</g>
			<g>
				<path class="st3" d="M263.98,288.82l0.05,0.33c0.12,0.81-1.2,2.78-4.75,3.29c-3.88,0.56-5.37-1-5.48-1.81l-0.07-0.46
					c-2.78,2.18-4.36,5.74-3.82,9.48c0.8,5.58,5.97,9.45,11.55,8.64c5.58-0.8,9.45-5.97,8.64-11.55
					C269.58,293.08,267.16,290.16,263.98,288.82z"/>
				<g>
					<path class="st3" d="M256.63,237c-0.02,0.02-0.04,0.03-0.06,0.05c-0.08,0.06-0.15,0.13-0.23,0.19
						c-1.31,0.97-2.87,1.64-4.6,1.88c-1.78,0.26-3.51,0.03-5.07-0.56c-0.09-0.03-0.17-0.07-0.26-0.11l6.34,44.95l0.16,1.08
						l0.82,5.69l0.07,0.46c0.12,0.81,1.61,2.37,5.48,1.81c3.55-0.51,4.87-2.47,4.75-3.29l-0.05-0.33l-0.84-5.81l-0.16-1.08
						l-6.34-44.94c0,0,0,0,0,0C256.64,236.99,256.64,237,256.63,237z"/>
					<path class="st3" d="M260.39,227.57c-0.8-5.58-5.97-9.45-11.55-8.64c-5.58,0.8-9.45,5.97-8.64,11.55
						c0.53,3.67,2.95,6.59,6.13,7.93c0.02,0.01,0.05,0.02,0.07,0.03c0,0,0.01,0,0.01,0.01c0,0,0,0,0,0
						c0.09,0.04,0.17,0.08,0.26,0.11c1.56,0.6,3.3,0.82,5.07,0.56c1.73-0.25,3.29-0.92,4.6-1.88c0.08-0.06,0.15-0.12,0.23-0.19
						c0.02-0.02,0.04-0.03,0.06-0.05c0,0,0.01-0.01,0.01-0.01c0,0,0,0,0,0C259.38,234.8,260.92,231.28,260.39,227.57z"/>
				</g>
			</g>
			<g>
				<path class="st3" d="M290.3,386.31l0.11,0.32c0.28,0.77-0.62,2.96-4,4.17c-3.69,1.32-5.46,0.09-5.73-0.69l-0.16-0.43
					c-2.29,2.69-3.13,6.49-1.86,10.06c1.9,5.3,7.73,8.07,13.04,6.17c5.3-1.9,8.07-7.73,6.17-13.04
					C296.63,389.38,293.68,387,290.3,386.31z"/>
				<g>
					<path class="st3" d="M272.78,337c-0.02,0.02-0.03,0.04-0.05,0.06c-0.06,0.08-0.12,0.15-0.19,0.23
						c-1.09,1.21-2.49,2.17-4.13,2.76c-1.69,0.6-3.43,0.73-5.08,0.46c-0.09-0.02-0.18-0.04-0.27-0.06l15.17,42.79l0.37,1.03
						l1.93,5.41l0.16,0.43c0.28,0.77,2.05,2,5.73,0.69c3.38-1.21,4.28-3.39,4-4.17l-0.11-0.32l-1.98-5.53l-0.37-1.03l-15.16-42.78
						c0,0,0,0,0,0C272.79,336.99,272.78,337,272.78,337z"/>
					<path class="st3" d="M274.58,327.01c-1.9-5.3-7.73-8.07-13.04-6.17c-5.3,1.9-8.07,7.73-6.17,13.04
						c1.25,3.49,4.2,5.87,7.59,6.56c0.03,0.01,0.05,0.01,0.08,0.02c0,0,0.01,0,0.01,0c0,0,0,0,0,0c0.09,0.02,0.18,0.04,0.27,0.06
						c1.65,0.27,3.39,0.14,5.08-0.46c1.64-0.59,3.04-1.55,4.13-2.76c0.07-0.07,0.13-0.15,0.19-0.23c0.02-0.02,0.03-0.04,0.05-0.06
						c0,0,0.01-0.01,0.01-0.01c0,0,0,0,0,0C275.03,334.3,275.84,330.54,274.58,327.01z"/>
				</g>
			</g>
			<g>
				<path class="st3" d="M236.25,196.1l0.31-0.14c0.74-0.34,2.99,0.37,4.48,3.62c1.62,3.55,0.55,5.41-0.19,5.75l-0.42,0.19
					c2.86,2.05,6.71,2.56,10.14,0.99c5.11-2.33,7.35-8.37,5.02-13.47c-2.33-5.11-8.37-7.35-13.47-5.02
					C238.76,189.56,236.65,192.69,236.25,196.1z"/>
				<path class="st3" d="M241.03,199.58c-1.49-3.25-3.73-3.96-4.48-3.62l-0.31,0.14l-5.32,2.43l-0.99,0.45l-16.59,7.56
					c0,0,0.01,0,0.01,0.01c0.02,0.02,0.04,0.03,0.07,0.04c0.08,0.06,0.16,0.11,0.24,0.17c1.29,0.98,2.37,2.29,3.09,3.86
					c0.74,1.63,1.02,3.34,0.89,5.01c-0.01,0.09-0.02,0.19-0.03,0.28l16.6-7.56l0.99-0.45l5.21-2.38l0.42-0.19
					C241.59,204.99,242.66,203.13,241.03,199.58z"/>
				<path class="st3" d="M216.77,210.63c-0.72-1.58-1.8-2.88-3.09-3.86c-0.08-0.06-0.16-0.11-0.24-0.17
					c-0.02-0.02-0.04-0.03-0.07-0.04c0,0-0.01,0-0.01-0.01c-2.86-2-6.66-2.48-10.06-0.93c-5.11,2.33-7.35,8.37-5.02,13.47
					c2.33,5.11,8.37,7.35,13.47,5.02c3.36-1.54,5.47-4.67,5.86-8.09c0-0.03,0.01-0.05,0.01-0.08c0,0,0-0.01,0-0.01
					c0.01-0.09,0.03-0.19,0.03-0.28C217.79,213.98,217.52,212.26,216.77,210.63z"/>
			</g>
			<g>
				<path class="st2" d="M255.52,213.53l-12.16-1.38c-1.08,0.06-2.08,1.42-2.29,3.22c-0.21,1.8,0.45,3.35,1.49,3.66l12.16,1.36
					c1.06-0.1,2.03-1.45,2.24-3.22C257.17,215.41,256.53,213.88,255.52,213.53z"/>
			</g>
			<g>
				<path class="st1" d="M251.45,236.19c-0.01-0.04-0.61-4.66-1.38-10.53c0,0,0,0,0,0l-2.79-21.33c-0.07-1.14-0.08-2.54,0.05-3.98
					c0.01-0.2,0.04-0.4,0.06-0.61c0.01-0.12,0.03-0.25,0.05-0.37c0.03-0.21,0.05-0.41,0.09-0.62c0.12-0.71,0.29-1.41,0.51-2.07
					c1.74-5.07,5.29-8.31,8.5-8.73c0.31-0.04,0.61-0.05,0.91-0.04c-1.52-0.27-3.95-0.58-4.52-0.51c-3.21,0.42-6.77,3.66-8.5,8.73
					c-0.84,2.46-0.89,5.52-0.77,7.65l2.79,21.33c0,0,0,0,0,0c0.77,5.86,1.37,10.49,1.38,10.53c0.36,2.63,1.65,5.01,3.64,5.69
					c0.47,0.16,2.51,0.49,4.03,0.66c-0.14-0.03-0.28-0.07-0.42-0.11C253.1,241.2,251.8,238.82,251.45,236.19z"/>
				<path class="st0" d="M258.79,188.15c-0.43-0.15-0.87-0.22-1.33-0.23c-0.3-0.01-0.6,0-0.91,0.04c-3.21,0.42-6.77,3.66-8.5,8.73
					c-0.22,0.66-0.39,1.36-0.51,2.07c-0.04,0.21-0.06,0.41-0.09,0.62c-0.02,0.12-0.04,0.25-0.05,0.37
					c-0.02,0.21-0.05,0.41-0.06,0.61c-0.13,1.44-0.12,2.85-0.05,3.98c0,0,4.16,31.81,4.16,31.86c0.36,2.63,1.65,5.01,3.64,5.69
					c0.14,0.05,0.28,0.08,0.42,0.11c0.58,0.14,1.19,0.16,1.82,0.08c3.21-0.42,6.77-3.66,8.5-8.73c0.84-2.46,0.89-5.52,0.77-7.65
					c0,0-4.15-31.78-4.16-31.86C262.08,191.21,260.78,188.83,258.79,188.15z M262.86,232.48c-1.07,3.36-3.6,5.56-5.64,4.9
					c-2.04-0.65-2.83-3.9-1.75-7.26c1.07-3.36,3.6-5.56,5.64-4.9C263.14,225.87,263.93,229.12,262.86,232.48z M254.59,214.46
					c0.73-2.29,2.45-3.78,3.84-3.34s1.92,2.66,1.19,4.94c-0.73,2.29-2.45,3.78-3.84,3.34S253.86,216.75,254.59,214.46z
					 M258.95,200.68c-1.07,3.36-3.6,5.56-5.64,4.9c-2.04-0.65-2.83-3.9-1.75-7.26c1.07-3.36,3.6-5.56,5.64-4.9
					C259.23,194.07,260.02,197.32,258.95,200.68z"/>
				<path class="st1" d="M261.1,225.22c-0.44-0.14-0.91-0.14-1.38-0.03c0.86,1.39,1.04,3.67,0.29,6.02
					c-0.84,2.63-2.57,4.54-4.25,4.94c0.37,0.6,0.85,1.05,1.47,1.24c2.04,0.65,4.56-1.54,5.64-4.9
					C263.93,229.12,263.14,225.87,261.1,225.22z"/>
				<path class="st1" d="M258.42,211.13c-0.5-0.16-1.03-0.06-1.55,0.22c0.31,0.93,0.3,2.17-0.1,3.44c-0.47,1.47-1.35,2.6-2.28,3.11
					c0.24,0.74,0.68,1.3,1.3,1.5c1.39,0.44,3.11-1.05,3.84-3.34C260.34,213.78,259.81,211.57,258.42,211.13z"/>
				<path class="st1" d="M257.19,193.42c-0.44-0.14-0.91-0.14-1.38-0.03c0.86,1.39,1.04,3.67,0.29,6.02
					c-0.84,2.63-2.57,4.54-4.25,4.94c0.37,0.6,0.85,1.05,1.47,1.24c2.04,0.65,4.56-1.54,5.64-4.9
					C260.02,197.32,259.23,194.07,257.19,193.42z"/>
			</g>
			<g>
				
					<ellipse transform="matrix(0.1802 -0.9836 0.9836 0.1802 -1.8023 430.4503)" class="st2" cx="257.34" cy="216.31" rx="5.54" ry="3.79"/>
				
					<ellipse transform="matrix(0.1802 -0.9836 0.9836 0.1802 -1.8264 430.4994)" class="st2" cx="257.36" cy="216.35" rx="1.53" ry="1.04"/>
			</g>
			<g>
				<path class="st2" d="M257.24,314.49l11.29-4.7c1.06-0.24,2.4,0.79,3.1,2.46c0.7,1.67,0.5,3.35-0.42,3.93l-11.3,4.68
					c-1.05,0.2-2.36-0.83-3.04-2.47C256.19,316.75,256.37,315.1,257.24,314.49z"/>
			</g>
			<g>
				<path class="st0" d="M266.14,338.01c-0.01-0.04-0.66-4.67-1.49-10.55c0,0,0,0,0,0l-3.02-21.37c-0.24-1.12-0.61-2.48-1.11-3.84
					c-0.06-0.19-0.14-0.38-0.22-0.57c-0.05-0.12-0.1-0.23-0.15-0.35c-0.09-0.19-0.16-0.38-0.26-0.57c-0.31-0.66-0.66-1.29-1.05-1.86
					c-3.04-4.44-7.34-6.62-10.56-6.16c-0.31,0.04-0.6,0.12-0.89,0.21c1.39-0.66,3.66-1.62,4.24-1.7c3.22-0.45,7.52,1.72,10.56,6.16
					c1.48,2.16,2.34,5.1,2.79,7.19l3.02,21.37c0,0,0,0,0,0c0.83,5.88,1.49,10.51,1.49,10.55c0.36,2.64-0.25,5.28-2,6.48
					c-0.41,0.28-2.3,1.15-3.73,1.72c0.13-0.07,0.26-0.14,0.38-0.22C265.89,343.29,266.5,340.65,266.14,338.01z"/>
				<path class="st1" d="M244.16,300c0.01,0.08,4.52,31.92,4.52,31.92c0.45,2.09,1.32,5.04,2.79,7.19
					c3.04,4.44,7.34,6.62,10.56,6.16c0.63-0.09,1.21-0.28,1.73-0.57c0.13-0.07,0.26-0.14,0.38-0.22c1.75-1.2,2.36-3.84,2-6.48
					c-0.01-0.04-4.52-31.92-4.52-31.92c-0.24-1.12-0.61-2.48-1.11-3.84c-0.06-0.19-0.14-0.38-0.22-0.57
					c-0.05-0.12-0.1-0.23-0.15-0.35c-0.09-0.19-0.16-0.38-0.26-0.57c-0.31-0.66-0.66-1.29-1.05-1.86
					c-3.04-4.44-7.34-6.62-10.56-6.16c-0.31,0.04-0.6,0.12-0.89,0.21c-0.44,0.14-0.85,0.33-1.22,0.58
					C244.41,294.72,243.8,297.36,244.16,300z M253.86,329.99c1.8-1.18,4.83,0.27,6.77,3.23c1.94,2.96,2.05,6.32,0.25,7.49
					c-1.8,1.18-4.83-0.27-6.77-3.23C252.17,334.52,252.06,331.16,253.86,329.99z M257.45,322.94c-1.22,0.8-3.29-0.18-4.6-2.2
					c-1.32-2.02-1.4-4.3-0.17-5.1s3.29,0.18,4.6,2.2C258.6,319.86,258.68,322.14,257.45,322.94z M249.12,298.19
					c1.8-1.18,4.83,0.27,6.77,3.23c1.94,2.96,2.05,6.32,0.25,7.49c-1.8,1.18-4.83-0.27-6.77-3.23
					C247.43,302.72,247.32,299.37,249.12,298.19z"/>
				<path class="st0" d="M253.86,329.99c0.39-0.26,0.84-0.38,1.33-0.4c-0.46,1.58-0.02,3.83,1.34,5.9c1.52,2.32,3.7,3.7,5.44,3.63
					c-0.2,0.68-0.54,1.24-1.08,1.6c-1.8,1.18-4.83-0.27-6.77-3.23C252.17,334.52,252.06,331.16,253.86,329.99z"/>
				<path class="st1" d="M252.68,315.64c0.44-0.29,0.98-0.34,1.56-0.2c-0.05,0.99,0.29,2.18,1.02,3.3c0.85,1.3,2,2.16,3.04,2.4
					c-0.04,0.79-0.31,1.44-0.85,1.8c-1.22,0.8-3.29-0.18-4.6-2.2S251.45,316.44,252.68,315.64z"/>
				<path class="st0" d="M249.12,298.19c0.39-0.26,0.84-0.38,1.33-0.4c-0.46,1.58-0.02,3.83,1.34,5.9c1.52,2.32,3.7,3.7,5.44,3.63
					c-0.2,0.68-0.54,1.24-1.08,1.6c-1.8,1.18-4.83-0.27-6.77-3.23C247.43,302.72,247.32,299.37,249.12,298.19z"/>
			</g>
			<g>
				
					<ellipse transform="matrix(0.8948 -0.4465 0.4465 0.8948 -115.5706 147.5664)" class="st2" cx="255.34" cy="319.02" rx="3.79" ry="5.54"/>
				
					<ellipse transform="matrix(0.8948 -0.4465 0.4465 0.8948 -115.59 147.5682)" class="st2" cx="255.34" cy="319.06" rx="1.04" ry="1.53"/>
			</g>
		</g>
		<g>
			<path class="st1" d="M103.81,261.33c0-0.04,0.48-4.68,1.08-10.56c0,0,0,0,0,0l2.19-21.4c0.2-1.12,0.51-2.49,0.96-3.87
				c0.06-0.19,0.13-0.39,0.2-0.58c0.04-0.12,0.09-0.23,0.13-0.35c0.08-0.19,0.14-0.38,0.23-0.58c0.28-0.66,0.61-1.31,0.98-1.89
				c2.86-4.54,7.06-6.87,10.28-6.54c0.31,0.03,0.6,0.09,0.89,0.17c-1.41-0.61-3.71-1.48-4.28-1.53c-3.22-0.33-7.42,2-10.28,6.54
				c-1.39,2.2-2.14,5.17-2.51,7.27l-2.19,21.4c0,0,0,0,0,0c-0.6,5.88-1.08,10.52-1.08,10.56c-0.26,2.64,0.45,5.25,2.24,6.37
				c0.42,0.27,2.33,1.05,3.78,1.57c-0.13-0.06-0.26-0.13-0.38-0.21C104.27,266.58,103.55,263.97,103.81,261.33z"/>
			<path class="st0" d="M122.01,216.27c-0.38-0.24-0.8-0.41-1.24-0.53c-0.29-0.08-0.58-0.14-0.89-0.17c-3.22-0.33-7.42,2-10.28,6.54
				c-0.37,0.59-0.69,1.23-0.98,1.89c-0.09,0.2-0.16,0.39-0.23,0.58c-0.05,0.12-0.09,0.23-0.13,0.35c-0.07,0.19-0.14,0.39-0.2,0.58
				c-0.46,1.37-0.77,2.74-0.96,3.87c0,0-3.27,31.92-3.27,31.96c-0.26,2.64,0.45,5.25,2.24,6.37c0.12,0.08,0.25,0.14,0.38,0.21
				c0.53,0.27,1.12,0.43,1.75,0.5c3.22,0.33,7.42-2,10.28-6.54c1.39-2.2,2.14-5.17,2.51-7.27c0,0,3.27-31.88,3.27-31.96
				C124.5,220,123.79,217.39,122.01,216.27z M115.77,260.34c-1.82,3.02-4.78,4.58-6.61,3.48c-1.84-1.1-1.85-4.45-0.04-7.47
				c1.82-3.02,4.78-4.58,6.61-3.48C117.57,253.97,117.59,257.32,115.77,260.34z M119.28,228.5c-1.82,3.02-4.78,4.58-6.61,3.48
				c-1.84-1.1-1.85-4.45-0.04-7.47c1.82-3.02,4.78-4.58,6.61-3.48C121.08,222.13,121.09,225.48,119.28,228.5z"/>
			<path class="st1" d="M115.73,252.87c-0.4-0.24-0.85-0.35-1.34-0.35c0.52,1.55,0.17,3.81-1.1,5.92c-1.42,2.36-3.54,3.83-5.28,3.82
				c0.22,0.67,0.59,1.22,1.14,1.55c1.84,1.1,4.8-0.45,6.61-3.48C117.59,257.32,117.57,253.97,115.73,252.87z"/>
			<path class="st1" d="M119.24,221.03c-0.4-0.24-0.85-0.35-1.34-0.35c0.52,1.55,0.17,3.81-1.1,5.92c-1.42,2.36-3.54,3.83-5.28,3.82
				c0.22,0.67,0.59,1.22,1.14,1.55c1.84,1.1,4.8-0.45,6.61-3.48C121.09,225.48,121.08,222.13,119.24,221.03z"/>
		</g>
		<g>
			<path class="st0" d="M121.5,366.51c0-0.04,0.43-4.7,0.97-10.61c0,0,0,0,0,0l1.97-21.5c0.02-1.14-0.02-2.55-0.2-3.99
				c-0.02-0.2-0.05-0.4-0.08-0.61c-0.02-0.12-0.04-0.25-0.06-0.37c-0.04-0.21-0.07-0.41-0.12-0.62c-0.15-0.71-0.34-1.4-0.59-2.05
				c-1.94-5.02-5.63-8.13-8.86-8.43c-0.31-0.03-0.61-0.02-0.91,0c1.51-0.33,3.94-0.74,4.51-0.68c3.24,0.3,6.92,3.41,8.86,8.43
				c0.94,2.44,1.11,5.5,1.06,7.64l-1.97,21.5c0,0,0,0,0,0c-0.54,5.91-0.97,10.57-0.97,10.61c-0.25,2.65-1.46,5.08-3.44,5.84
				c-0.47,0.18-2.5,0.59-4.02,0.82c0.14-0.04,0.28-0.08,0.42-0.13C120.04,371.59,121.24,369.16,121.5,366.51z"/>
			<path class="st1" d="M108.85,324.46c-0.01,0.08-2.95,32.11-2.95,32.11c-0.04,2.14,0.12,5.2,1.06,7.64
				c1.94,5.02,5.63,8.13,8.86,8.43c0.63,0.06,1.24,0.01,1.82-0.15c0.14-0.04,0.28-0.08,0.42-0.13c1.98-0.76,3.18-3.19,3.44-5.84
				c0-0.04,2.95-32.11,2.95-32.11c0.02-1.14-0.02-2.55-0.2-3.99c-0.02-0.2-0.05-0.4-0.08-0.61c-0.02-0.12-0.04-0.25-0.06-0.37
				c-0.04-0.21-0.07-0.41-0.12-0.62c-0.15-0.71-0.34-1.4-0.59-2.05c-1.94-5.02-5.63-8.13-8.86-8.43c-0.31-0.03-0.61-0.02-0.91,0
				c-0.46,0.03-0.9,0.12-1.32,0.29C110.31,319.38,109.1,321.81,108.85,324.46z M111.39,355.88c2.02-0.73,4.64,1.37,5.84,4.7
				c1.2,3.33,0.54,6.62-1.48,7.35c-2.02,0.73-4.64-1.37-5.84-4.7C108.71,359.9,109.37,356.61,111.39,355.88z M114.09,323.84
				c2.02-0.73,4.64,1.37,5.84,4.7c1.2,3.33,0.54,6.62-1.48,7.35c-2.02,0.73-4.64-1.37-5.84-4.7
				C111.4,327.87,112.07,324.57,114.09,323.84z"/>
			<path class="st1" d="M111.39,355.88c0.44-0.16,0.91-0.18,1.38-0.08c-0.81,1.43-0.9,3.72-0.06,6.05c0.94,2.6,2.75,4.45,4.46,4.79
				c-0.35,0.61-0.82,1.08-1.42,1.3c-2.02,0.73-4.64-1.37-5.84-4.7C108.71,359.9,109.37,356.61,111.39,355.88z"/>
			<path class="st1" d="M114.09,323.84c0.44-0.16,0.91-0.18,1.38-0.08c-0.81,1.43-0.9,3.72-0.06,6.05c0.94,2.6,2.75,4.45,4.46,4.79
				c-0.35,0.61-0.82,1.08-1.42,1.3c-2.02,0.73-4.64-1.37-5.84-4.7C111.4,327.87,112.07,324.57,114.09,323.84z"/>
		</g>
		<g>
			<path class="st3" d="M116.81,323.17l-0.03,0.34c-0.07,0.82-1.81,2.43-5.38,2.11c-3.9-0.35-4.99-2.21-4.92-3.03l0.04-0.46
				c-3.21,1.48-5.56,4.58-5.9,8.35c-0.5,5.61,3.64,10.57,9.25,11.07c5.61,0.5,10.57-3.64,11.07-9.25
				C121.28,328.61,119.59,325.22,116.81,323.17z"/>
			<g>
				<path class="st3" d="M121.58,271.06c-0.02,0.01-0.05,0.02-0.07,0.04c-0.09,0.04-0.18,0.09-0.27,0.13
					c-1.5,0.64-3.17,0.93-4.91,0.78c-1.79-0.16-3.42-0.77-4.81-1.71c-0.08-0.05-0.15-0.11-0.22-0.17l-4.16,45.2l-0.1,1.09
					l-0.51,5.72l-0.04,0.46c-0.07,0.82,1.02,2.68,4.92,3.03c3.57,0.32,5.31-1.29,5.38-2.11l0.03-0.34l0.52-5.85l0.1-1.09l4.16-45.19
					c0,0,0,0,0,0C121.59,271.05,121.58,271.05,121.58,271.06z"/>
				<path class="st3" d="M127.4,262.74c0.5-5.61-3.64-10.57-9.25-11.07c-5.61-0.5-10.57,3.64-11.07,9.25
					c-0.33,3.69,1.36,7.09,4.14,9.13c0.02,0.02,0.04,0.03,0.06,0.05c0,0,0.01,0.01,0.01,0.01c0,0,0,0,0,0
					c0.08,0.05,0.15,0.11,0.22,0.17c1.39,0.94,3.02,1.55,4.81,1.71c1.74,0.16,3.41-0.14,4.91-0.78c0.09-0.04,0.18-0.09,0.27-0.13
					c0.02-0.01,0.05-0.02,0.07-0.04c0,0,0.01,0,0.01-0.01c0,0,0,0,0,0C124.75,269.55,127.06,266.48,127.4,262.74z"/>
			</g>
		</g>
		<g>
			<path class="st3" d="M120,424.11l0.04,0.34c0.09,0.82-1.29,2.74-4.85,3.13c-3.89,0.43-5.33-1.17-5.42-1.99l-0.05-0.46
				c-2.85,2.09-4.54,5.6-4.12,9.36c0.63,5.6,5.67,9.63,11.27,9.01c5.6-0.63,9.63-5.67,9.01-11.27
				C125.45,428.55,123.13,425.56,120,424.11z"/>
			<g>
				<path class="st3" d="M114.29,372.09c-0.02,0.02-0.04,0.03-0.06,0.05c-0.08,0.06-0.16,0.12-0.24,0.18
					c-1.34,0.93-2.92,1.54-4.65,1.74c-1.78,0.2-3.51-0.08-5.05-0.72c-0.09-0.04-0.17-0.08-0.25-0.12l4.92,45.13l0.12,1.08l0.64,5.71
					l0.05,0.46c0.09,0.82,1.53,2.42,5.42,1.99c3.56-0.4,4.94-2.32,4.85-3.13l-0.04-0.34l-0.65-5.83l-0.12-1.08l-4.92-45.12
					c0,0,0,0,0,0C114.3,372.08,114.3,372.09,114.29,372.09z"/>
				<path class="st3" d="M118.34,362.78c-0.63-5.6-5.67-9.63-11.27-9.01c-5.6,0.63-9.63,5.67-9.01,11.27
					c0.41,3.68,2.74,6.68,5.88,8.12c0.02,0.01,0.05,0.02,0.07,0.03c0,0,0.01,0,0.01,0.01c0,0,0,0,0,0c0.08,0.04,0.17,0.08,0.25,0.12
					c1.55,0.65,3.27,0.92,5.05,0.72c1.73-0.19,3.31-0.81,4.65-1.74c0.08-0.06,0.16-0.12,0.24-0.18c0.02-0.02,0.04-0.03,0.06-0.05
					c0,0,0.01-0.01,0.01-0.01c0,0,0,0,0,0C117.1,369.98,118.76,366.51,118.34,362.78z"/>
			</g>
		</g>
		<g>
			<path class="st2" d="M125.33,245.58l-11.51-4.13c-1.07-0.19-2.36,0.91-2.97,2.61c-0.62,1.7-0.33,3.37,0.61,3.91l11.52,4.12
				c1.06,0.14,2.31-0.95,2.92-2.62C126.5,247.78,126.23,246.14,125.33,245.58z"/>
		</g>
		<g>
			<path class="st2" d="M104.35,346.61l12.07-1.98c1.08,0.01,2.15,1.32,2.45,3.1c0.3,1.78-0.29,3.37-1.31,3.73l-12.08,1.96
				c-1.07-0.05-2.1-1.35-2.39-3.1C102.8,348.56,103.36,347,104.35,346.61z"/>
		</g>
		<g>
			<path class="st0" d="M107.6,371.55c0-0.04,0.43-4.7,0.97-10.61c0,0,0,0,0,0l1.97-21.5c0.02-1.14-0.02-2.55-0.2-3.99
				c-0.02-0.2-0.05-0.4-0.08-0.61c-0.02-0.12-0.04-0.25-0.06-0.37c-0.04-0.21-0.07-0.41-0.12-0.62c-0.15-0.71-0.34-1.4-0.59-2.05
				c-1.94-5.02-5.63-8.13-8.86-8.43c-0.31-0.03-0.61-0.02-0.91,0c1.51-0.33,3.94-0.74,4.51-0.68c3.24,0.3,6.92,3.41,8.86,8.43
				c0.94,2.44,1.11,5.5,1.06,7.64l-1.97,21.5c0,0,0,0,0,0c-0.54,5.91-0.97,10.57-0.97,10.61c-0.25,2.65-1.46,5.08-3.44,5.84
				c-0.47,0.18-2.5,0.59-4.02,0.82c0.14-0.04,0.28-0.08,0.42-0.13C106.14,376.63,107.34,374.2,107.6,371.55z"/>
			<path class="st1" d="M94.95,329.5C94.95,329.57,92,361.6,92,361.6c-0.04,2.14,0.12,5.2,1.06,7.64c1.94,5.02,5.63,8.13,8.86,8.43
				c0.63,0.06,1.24,0.01,1.82-0.15c0.14-0.04,0.28-0.08,0.42-0.13c1.98-0.76,3.18-3.19,3.44-5.84c0-0.04,2.95-32.11,2.95-32.11
				c0.02-1.14-0.02-2.55-0.2-3.99c-0.02-0.2-0.05-0.4-0.08-0.61c-0.02-0.12-0.04-0.25-0.06-0.37c-0.04-0.21-0.07-0.41-0.12-0.62
				c-0.15-0.71-0.34-1.4-0.59-2.05c-1.94-5.02-5.63-8.13-8.86-8.43c-0.31-0.03-0.61-0.02-0.91,0c-0.46,0.03-0.9,0.12-1.32,0.29
				C96.41,324.41,95.21,326.85,94.95,329.5z M97.49,360.91c2.02-0.73,4.64,1.37,5.84,4.7c1.2,3.33,0.54,6.62-1.48,7.35
				c-2.02,0.73-4.64-1.37-5.84-4.7C94.81,364.94,95.47,361.64,97.49,360.91z M102.61,354.88c-1.38,0.5-3.16-0.93-3.97-3.2
				c-0.82-2.26-0.37-4.5,1.01-5c1.38-0.5,3.16,0.93,3.97,3.2C104.43,352.14,103.98,354.38,102.61,354.88z M100.19,328.88
				c2.02-0.73,4.64,1.37,5.84,4.7c1.2,3.33,0.54,6.62-1.48,7.35c-2.02,0.73-4.64-1.37-5.84-4.7
				C97.51,332.9,98.17,329.61,100.19,328.88z"/>
			<path class="st0" d="M97.49,360.91c0.44-0.16,0.91-0.18,1.38-0.08c-0.81,1.43-0.9,3.72-0.06,6.05c0.94,2.6,2.75,4.45,4.46,4.79
				c-0.35,0.61-0.82,1.08-1.42,1.3c-2.02,0.73-4.64-1.37-5.84-4.7C94.81,364.94,95.47,361.64,97.49,360.91z"/>
			<path class="st1" d="M99.64,346.68c0.49-0.18,1.03-0.1,1.57,0.16c-0.27,0.95-0.22,2.19,0.24,3.45c0.53,1.46,1.45,2.56,2.41,3.03
				c-0.22,0.76-0.63,1.33-1.24,1.55c-1.38,0.5-3.16-0.93-3.97-3.2C97.81,349.42,98.27,347.18,99.64,346.68z"/>
			<path class="st0" d="M100.19,328.88c0.44-0.16,0.91-0.18,1.38-0.08c-0.81,1.43-0.9,3.72-0.06,6.05c0.94,2.6,2.75,4.45,4.46,4.79
				c-0.35,0.61-0.82,1.08-1.42,1.3c-2.02,0.73-4.64-1.37-5.84-4.7C97.51,332.9,98.17,329.61,100.19,328.88z"/>
		</g>
		<g>
			
				<ellipse transform="matrix(0.9735 -0.2287 0.2287 0.9735 -77.4913 32.4966)" class="st2" cx="101.46" cy="350.58" rx="3.79" ry="5.54"/>
			
				<ellipse transform="matrix(0.9735 -0.2287 0.2287 0.9735 -77.5008 32.4942)" class="st2" cx="101.44" cy="350.62" rx="1.04" ry="1.53"/>
		</g>
		<g>
			<g>
				<path class="st1" d="M150.05,232.88l11.34-21.22c1.38-2.28,4.15-3.43,4.15-3.43l30.13-15.83c0.67-0.33,1.24-0.25,1.69-0.02
					c-0.79-0.74-3.14-2.66-5.67-1.75l-29.09,15.15c0,0-2.43,1.02-4.4,4.28l-11.34,21.22c0,0-2.58,5.29-0.38,7.45
					c0,0,2.07,1.82,4.32,2.7C146.95,239.04,150.05,232.88,150.05,232.88z"/>
				<path class="st0" d="M208.03,207.79c-0.82-3.09-9.39-14.11-9.39-14.11s-0.46-0.89-1.26-1.3c-0.46-0.23-1.03-0.31-1.69,0.02
					l-30.13,15.83c0,0-2.77,1.15-4.15,3.43l-11.34,21.22c0,0-3.1,6.16,0.76,8.56l21.09,6.59c0,0,3.64,1.93,9.95-4.88l23.29-26.18
					C205.15,216.97,209.07,211.71,208.03,207.79z M162.67,234.07c-1.56,3.31-4.45,5.23-6.46,4.28c-2.01-0.95-2.38-4.4-0.82-7.71
					c1.56-3.31,4.45-5.23,6.46-4.28C163.87,227.31,164.23,230.76,162.67,234.07z M169.29,240.18c-1.06,2.25-3.03,3.56-4.4,2.91
					c-1.37-0.64-1.62-2.99-0.56-5.25c1.06-2.25,3.03-3.56,4.4-2.91C170.1,235.58,170.35,237.93,169.29,240.18z M181.91,238.67
					c-1.56,3.31-4.45,5.23-6.46,4.28c-2.01-0.95-2.38-4.4-0.82-7.71c1.56-3.31,4.45-5.23,6.46-4.28
					C183.1,231.91,183.47,235.36,181.91,238.67z M193.2,228.44c-1.06,2.25-3.03,3.56-4.4,2.91c-1.37-0.64-1.62-2.99-0.56-5.25
					c1.06-2.25,3.03-3.56,4.4-2.91C194.01,223.84,194.26,226.19,193.2,228.44z M202.99,213.42c-1.56,3.31-4.45,5.23-6.46,4.28
					c-2.01-0.95-2.38-4.4-0.82-7.71c1.56-3.31,4.45-5.23,6.46-4.28C204.18,206.66,204.55,210.11,202.99,213.42z"/>
			</g>
			<g>
				<polygon class="st4" points="182.68,204.87 186.65,202.78 186.65,207.45 				"/>
			</g>
			<path class="st1" d="M192.64,223.2c-0.49-0.23-1.05-0.2-1.63,0.02c0.19,1,0.02,2.28-0.57,3.53c-0.68,1.45-1.74,2.5-2.77,2.89
				c0.15,0.8,0.52,1.43,1.13,1.72c1.37,0.64,3.34-0.66,4.4-2.91C194.26,226.19,194.01,223.84,192.64,223.2z"/>
			<path class="st1" d="M168.73,234.94c-0.49-0.23-1.05-0.2-1.63,0.02c0.19,1,0.02,2.28-0.57,3.53c-0.68,1.45-1.74,2.5-2.77,2.89
				c0.15,0.8,0.52,1.43,1.13,1.72c1.37,0.64,3.34-0.66,4.4-2.91S170.1,235.58,168.73,234.94z"/>
			<path class="st1" d="M181.08,230.98c-0.44-0.21-0.92-0.27-1.42-0.22c0.7,1.55,0.57,3.91-0.52,6.23c-1.22,2.59-3.25,4.32-5.05,4.5
				c0.3,0.66,0.74,1.19,1.34,1.48c2.01,0.95,4.9-0.97,6.46-4.28C183.46,235.38,183.09,231.93,181.08,230.98z"/>
			<path class="st1" d="M161.84,226.38c-0.44-0.21-0.92-0.27-1.42-0.22c0.7,1.55,0.57,3.91-0.52,6.23c-1.22,2.59-3.25,4.32-5.05,4.5
				c0.3,0.66,0.74,1.19,1.34,1.48c2.01,0.95,4.9-0.97,6.46-4.28C164.22,230.78,163.85,227.33,161.84,226.38z"/>
			<path class="st1" d="M202.16,205.73c-0.44-0.21-0.92-0.27-1.42-0.22c0.7,1.55,0.57,3.91-0.52,6.23c-1.22,2.59-3.25,4.32-5.05,4.5
				c0.3,0.66,0.74,1.19,1.34,1.48c2.01,0.95,4.9-0.97,6.46-4.28C204.54,210.13,204.17,206.68,202.16,205.73z"/>
		</g>
		<g>
			<path class="st2" d="M207.66,201.38l-11.33-4.6c-1.06-0.23-2.39,0.81-3.08,2.48c-0.69,1.67-0.47,3.35,0.45,3.93l11.34,4.59
				c1.05,0.19,2.35-0.85,3.02-2.5C208.73,203.63,208.54,201.98,207.66,201.38z"/>
		</g>
		<g>
			<path class="st3" d="M192.74,276.47l0,0.35c0,0.85-1.63,2.67-5.34,2.68c-4.05,0.01-5.35-1.8-5.35-2.65l0-0.48
				c-3.16,1.83-5.29,5.25-5.28,9.16c0.02,5.83,4.76,10.53,10.58,10.51c5.82-0.02,10.53-4.76,10.51-10.58
				C197.86,281.65,195.8,278.31,192.74,276.47z"/>
			<path class="st3" d="M187.41,279.5c3.71-0.01,5.34-1.83,5.34-2.68l0-0.35l-0.02-6.07l0-1.13l-0.04-18.91c0,0-0.01,0.01-0.01,0.01
				c-0.02,0.01-0.05,0.03-0.07,0.04c-0.09,0.05-0.17,0.11-0.27,0.16c-1.48,0.8-3.18,1.26-4.98,1.27c-1.85,0.01-3.6-0.47-5.11-1.31
				c-0.09-0.05-0.17-0.1-0.25-0.15l0.03,18.93l0,1.13l0.02,5.94l0,0.48C182.05,277.71,183.36,279.52,187.41,279.5z"/>
			<path class="st3" d="M187.36,251.84c1.8-0.01,3.5-0.47,4.98-1.27c0.09-0.05,0.18-0.11,0.27-0.16c0.02-0.01,0.05-0.03,0.07-0.04
				c0,0,0.01-0.01,0.01-0.01c3.11-1.84,5.2-5.23,5.19-9.11c-0.02-5.82-4.76-10.53-10.58-10.51c-5.83,0.02-10.53,4.76-10.51,10.58
				c0.01,3.83,2.07,7.17,5.14,9.01c0.02,0.01,0.05,0.03,0.07,0.04c0,0,0.01,0.01,0.01,0.01c0.08,0.05,0.16,0.1,0.25,0.15
				C183.76,251.37,185.5,251.85,187.36,251.84z"/>
		</g>
		<g>
			<polygon class="st2" points="186.78,212.76 171.6,206.32 171.57,206.32 171.58,210.79 186.85,217.27 186.78,217.24 			"/>
			<polygon class="st3" points="186.85,212.79 186.78,212.76 186.78,217.24 186.85,217.27 201.95,209.42 201.91,204.96 			"/>
			<path class="st3" d="M186.85,212.79l15.06-7.83l0.04-0.02l-9.88-4.05l-0.1,0l0,0.57l-0.01,2.57l0,0.48c0,0.85-1.3,2.66-5.35,2.65
				c-3.71-0.01-5.34-1.83-5.34-2.68l0-0.35l0.01-1.79l0-0.59l0-0.53l-9.71,5.09l0.02,0.01l15.17,6.44L186.85,212.79z"/>
			<path class="st3" d="M181.28,202.34l-0.01,1.79l0,0.35c0,0.85,1.63,2.67,5.34,2.68c4.05,0.01,5.35-1.8,5.35-2.65l0-0.48
				l0.01-2.57l0-0.57l0-0.5l0.01-2.29l0-1.13l0.04-11.57c-0.01,0-0.01,0.01-0.02,0.01c-0.02,0.01-0.05,0.03-0.07,0.04
				c0,0,0,0-0.01,0c-0.09,0.05-0.17,0.11-0.26,0.15c-1.52,0.84-3.26,1.31-5.11,1.31c-1.8-0.01-3.5-0.47-4.98-1.27
				c-0.09-0.05-0.17-0.1-0.25-0.15l-0.04,11.43l0,1.13l-0.01,3.16l0,0.53L181.28,202.34z"/>
			<path class="st3" d="M186.57,186.92c1.85,0.01,3.6-0.47,5.11-1.31c0.09-0.05,0.17-0.1,0.26-0.15c0,0,0,0,0.01,0
				c0.02-0.01,0.05-0.03,0.07-0.04c0.01,0,0.01-0.01,0.02-0.01c3.05-1.84,5.11-5.17,5.12-8.99c0.02-5.82-4.69-10.56-10.51-10.58
				c-5.82-0.02-10.56,4.69-10.58,10.51c-0.01,3.88,2.08,7.27,5.19,9.11c0,0,0,0,0.01,0c0.02,0.01,0.05,0.03,0.07,0.04
				c0.01,0,0.01,0.01,0.02,0.01c0.08,0.05,0.16,0.1,0.25,0.15C183.07,186.45,184.76,186.91,186.57,186.92z"/>
		</g>
		<g>
			<path class="st3" d="M157.09,228.31l0.35,0.04c0.84,0.09,2.47,1.92,2.07,5.6c-0.44,4.03-2.38,5.12-3.23,5.03l-0.47-0.05
				c1.47,3.35,4.63,5.84,8.52,6.26c5.79,0.63,11-3.56,11.62-9.35c0.63-5.79-3.56-11-9.35-11.62
				C162.8,223.8,159.26,225.48,157.09,228.31z"/>
			<path class="st3" d="M159.51,233.95c0.4-3.69-1.23-5.51-2.07-5.6l-0.35-0.04l-6.03-0.66l-1.12-0.12l-18.8-2.07
				c0,0,0,0.01,0.01,0.01c0.01,0.03,0.02,0.05,0.04,0.08c0.04,0.09,0.09,0.19,0.13,0.28c0.63,1.56,0.9,3.3,0.71,5.09
				c-0.2,1.84-0.87,3.52-1.87,4.94c-0.06,0.08-0.12,0.15-0.18,0.23l18.81,2.07l1.12,0.12l5.91,0.64l0.47,0.05
				C157.13,239.07,159.07,237.98,159.51,233.95z"/>
			<path class="st3" d="M132.02,230.92c0.19-1.79-0.07-3.53-0.71-5.09c-0.04-0.1-0.08-0.19-0.13-0.28
				c-0.01-0.03-0.02-0.05-0.04-0.08c0,0,0-0.01-0.01-0.01c-1.49-3.3-4.62-5.75-8.47-6.17c-5.79-0.63-11,3.56-11.62,9.35
				c-0.63,5.79,3.56,11,9.35,11.62c3.81,0.41,7.36-1.26,9.52-4.1c0.02-0.02,0.03-0.04,0.05-0.06c0,0,0.01-0.01,0.01-0.01
				c0.06-0.08,0.12-0.15,0.18-0.23C131.15,234.44,131.81,232.77,132.02,230.92z"/>
		</g>
		<g>
			<path class="st1" d="M116.72,269.08c0-0.04,0.48-4.68,1.08-10.56c0,0,0,0,0,0l2.19-21.4c0.2-1.12,0.51-2.49,0.96-3.87
				c0.06-0.19,0.13-0.39,0.2-0.58c0.04-0.12,0.09-0.23,0.13-0.35c0.08-0.19,0.14-0.38,0.23-0.58c0.28-0.66,0.61-1.31,0.98-1.89
				c2.86-4.54,7.06-6.87,10.28-6.54c0.31,0.03,0.6,0.09,0.89,0.17c-1.41-0.61-3.71-1.48-4.28-1.53c-3.22-0.33-7.42,2-10.28,6.54
				c-1.39,2.2-2.14,5.17-2.51,7.27l-2.19,21.4c0,0,0,0,0,0c-0.6,5.88-1.08,10.52-1.08,10.56c-0.26,2.64,0.45,5.25,2.24,6.37
				c0.42,0.27,2.33,1.05,3.78,1.57c-0.13-0.06-0.26-0.13-0.38-0.21C117.17,274.33,116.46,271.72,116.72,269.08z"/>
			<path class="st0" d="M134.91,224.01c-0.38-0.24-0.8-0.41-1.24-0.53c-0.29-0.08-0.58-0.14-0.89-0.17c-3.22-0.33-7.42,2-10.28,6.54
				c-0.37,0.59-0.69,1.23-0.98,1.89c-0.09,0.2-0.16,0.39-0.23,0.58c-0.05,0.12-0.09,0.23-0.13,0.35c-0.07,0.19-0.14,0.39-0.2,0.58
				c-0.46,1.37-0.77,2.74-0.96,3.87c0,0-3.27,31.92-3.27,31.96c-0.26,2.64,0.45,5.25,2.24,6.37c0.12,0.08,0.25,0.14,0.38,0.21
				c0.53,0.27,1.12,0.43,1.75,0.5c3.22,0.33,7.42-2,10.28-6.54c1.39-2.2,2.14-5.17,2.51-7.27c0,0,3.27-31.88,3.27-31.96
				C137.41,227.74,136.7,225.13,134.91,224.01z M128.68,268.09c-1.82,3.02-4.78,4.58-6.61,3.48c-1.84-1.1-1.85-4.45-0.04-7.47
				c1.82-3.02,4.78-4.58,6.61-3.48C130.48,261.72,130.49,265.06,128.68,268.09z M124.77,248.65c1.24-2.06,3.25-3.12,4.5-2.37
				c1.25,0.75,1.26,3.03,0.02,5.08c-1.24,2.06-3.25,3.12-4.5,2.37C123.54,252.99,123.53,250.71,124.77,248.65z M132.18,236.24
				c-1.82,3.02-4.78,4.58-6.61,3.48c-1.84-1.1-1.85-4.45-0.04-7.47c1.82-3.02,4.78-4.58,6.61-3.48
				C133.98,229.88,134,233.22,132.18,236.24z"/>
			<path class="st1" d="M128.64,260.62c-0.4-0.24-0.85-0.35-1.34-0.35c0.52,1.55,0.17,3.81-1.1,5.92c-1.42,2.36-3.54,3.83-5.28,3.82
				c0.22,0.67,0.59,1.22,1.14,1.55c1.84,1.1,4.8-0.45,6.61-3.48C130.49,265.06,130.48,261.72,128.64,260.62z"/>
			<path class="st1" d="M129.27,246.29c-0.45-0.27-0.99-0.3-1.56-0.14c0.08,0.98-0.2,2.18-0.89,3.33c-0.79,1.32-1.91,2.22-2.94,2.51
				c0.07,0.78,0.36,1.42,0.92,1.76c1.25,0.75,3.26-0.31,4.5-2.37C130.53,249.31,130.52,247.04,129.27,246.29z"/>
			<path class="st1" d="M132.15,228.77c-0.4-0.24-0.85-0.35-1.34-0.35c0.52,1.55,0.17,3.81-1.1,5.92c-1.42,2.36-3.54,3.83-5.28,3.82
				c0.22,0.67,0.59,1.22,1.14,1.55c1.84,1.1,4.8-0.45,6.61-3.48C134,233.22,133.98,229.88,132.15,228.77z"/>
		</g>
		<g>
			
				<ellipse transform="matrix(0.4016 -0.9158 0.9158 0.4016 -152.4324 265.7764)" class="st2" cx="127.17" cy="249.54" rx="5.54" ry="3.79"/>
			
				<ellipse transform="matrix(0.4016 -0.9158 0.9158 0.4016 -152.466 265.8087)" class="st2" cx="127.18" cy="249.58" rx="1.53" ry="1.04"/>
		</g>
		<g>
			<path class="st2" d="M177.4,217.61l-11.33-4.6c-1.06-0.23-2.39,0.81-3.08,2.48c-0.69,1.67-0.47,3.35,0.45,3.93l11.34,4.59
				c1.05,0.19,2.35-0.85,3.02-2.5C178.48,219.86,178.28,218.21,177.4,217.61z"/>
		</g>
		<g>
			<g>
				<path class="st1" d="M164.73,239.09l11.44-21.16c1.39-2.27,4.17-3.41,4.17-3.41l30.21-15.68c0.67-0.33,1.24-0.24,1.69-0.01
					c-0.78-0.74-3.13-2.67-5.66-1.77l-29.16,15.01c0,0-2.43,1.01-4.42,4.26l-11.44,21.16c0,0-2.61,5.28-0.41,7.45
					c0,0,2.06,1.83,4.31,2.72C161.6,245.24,164.73,239.09,164.73,239.09z"/>
				<path class="st0" d="M222.82,214.28c-0.8-3.1-9.32-14.15-9.32-14.15s-0.45-0.89-1.26-1.3c-0.46-0.24-1.03-0.32-1.69,0.01
					l-30.21,15.68c0,0-2.78,1.14-4.17,3.41l-11.44,21.16c0,0-3.13,6.15,0.72,8.56l21.06,6.69c0,0,3.63,1.95,9.97-4.83l23.42-26.06
					C219.9,223.45,223.85,218.21,222.82,214.28z M212.27,207.8c-1.07,2.25-3.05,3.54-4.41,2.89s-1.6-3-0.53-5.25
					c1.07-2.25,3.05-3.54,4.41-2.89C213.1,203.2,213.34,205.55,212.27,207.8z M177.97,220.93c1.07-2.25,3.05-3.54,4.41-2.89
					c1.37,0.65,1.6,3,0.53,5.25c-1.07,2.25-3.05,3.54-4.41,2.89C177.14,225.53,176.9,223.18,177.97,220.93z M177.35,240.35
					c-1.57,3.3-4.48,5.21-6.48,4.25c-2.01-0.96-2.36-4.41-0.78-7.71c1.57-3.3,4.48-5.21,6.48-4.25
					C178.57,233.59,178.92,237.04,177.35,240.35z M183.93,246.49c-1.07,2.25-3.05,3.54-4.41,2.89c-1.37-0.65-1.6-3-0.53-5.25
					c1.07-2.25,3.05-3.54,4.41-2.89C184.77,241.89,185,244.24,183.93,246.49z M196.56,245.04c-1.57,3.3-4.48,5.21-6.48,4.25
					c-2.01-0.96-2.36-4.41-0.78-7.71c1.57-3.3,4.48-5.21,6.48-4.25C197.78,238.28,198.14,241.73,196.56,245.04z M217.76,219.89
					c-1.57,3.3-4.48,5.21-6.48,4.25c-2.01-0.96-2.36-4.41-0.78-7.71c1.57-3.3,4.48-5.21,6.48-4.25
					C218.98,213.13,219.33,216.58,217.76,219.89z"/>
			</g>
			<g>
				<polygon class="st3" points="189.99,215.14 201.47,209.17 201.45,213.84 189.96,219.79 				"/>
			</g>
			<path class="st1" d="M182.38,218.04c-0.49-0.23-1.05-0.21-1.63,0.01c0.18,1,0.01,2.28-0.59,3.53c-0.69,1.45-1.75,2.49-2.78,2.88
				c0.15,0.8,0.52,1.43,1.12,1.72c1.37,0.65,3.34-0.64,4.41-2.89C183.98,221.04,183.75,218.69,182.38,218.04z"/>
			<path class="st1" d="M211.74,202.55c-0.49-0.23-1.05-0.21-1.63,0.01c0.18,1,0.01,2.28-0.59,3.53c-0.69,1.45-1.75,2.49-2.78,2.88
				c0.15,0.8,0.52,1.43,1.12,1.72c1.37,0.65,3.34-0.64,4.41-2.89C213.34,205.55,213.1,203.2,211.74,202.55z"/>
			<path class="st1" d="M183.4,241.24c-0.49-0.23-1.05-0.21-1.63,0.01c0.18,1,0.01,2.28-0.59,3.53c-0.69,1.45-1.75,2.49-2.78,2.88
				c0.15,0.8,0.52,1.43,1.12,1.72c1.37,0.65,3.34-0.64,4.41-2.89C185,244.24,184.77,241.89,183.4,241.24z"/>
			<path class="st1" d="M195.77,237.34c-0.44-0.21-0.92-0.27-1.42-0.23c0.69,1.55,0.55,3.92-0.55,6.23
				c-1.23,2.58-3.27,4.3-5.07,4.48c0.3,0.67,0.73,1.2,1.33,1.49c2.01,0.96,4.91-0.95,6.48-4.25
				C198.12,241.75,197.77,238.3,195.77,237.34z"/>
			<path class="st1" d="M176.55,232.65c-0.44-0.21-0.92-0.27-1.42-0.23c0.69,1.55,0.55,3.92-0.55,6.23
				c-1.23,2.58-3.27,4.3-5.07,4.48c0.3,0.67,0.73,1.2,1.33,1.49c2.01,0.96,4.91-0.95,6.48-4.25
				C178.91,237.06,178.56,233.61,176.55,232.65z"/>
			<path class="st1" d="M216.96,212.19c-0.44-0.21-0.92-0.27-1.42-0.23c0.69,1.55,0.55,3.92-0.55,6.23
				c-1.23,2.58-3.27,4.3-5.07,4.48c0.3,0.67,0.73,1.2,1.33,1.49c2.01,0.96,4.91-0.95,6.48-4.25
				C219.32,216.6,218.97,213.15,216.96,212.19z"/>
		</g>
		<g>
			
				<ellipse transform="matrix(0.4258 -0.9048 0.9048 0.4258 -117.9919 305.1502)" class="st2" cx="181.42" cy="245.54" rx="5.54" ry="3.79"/>
			
				<ellipse transform="matrix(0.4258 -0.9048 0.9048 0.4258 -118.0261 305.1805)" class="st2" cx="181.43" cy="245.58" rx="1.53" ry="1.04"/>
		</g>
		<g>
			
				<ellipse transform="matrix(0.4258 -0.9048 0.9048 0.4258 -91.5185 319.2393)" class="st2" cx="205.76" cy="231.72" rx="5.54" ry="3.79"/>
			
				<ellipse transform="matrix(0.4258 -0.9048 0.9048 0.4258 -91.5527 319.2696)" class="st2" cx="205.76" cy="231.77" rx="1.53" ry="1.04"/>
		</g>
		<g>
			
				<ellipse transform="matrix(0.4258 -0.9048 0.9048 0.4258 -66.3845 308.8542)" class="st2" cx="210.14" cy="206.73" rx="5.54" ry="3.79"/>
			
				<ellipse transform="matrix(0.4258 -0.9048 0.9048 0.4258 -66.4187 308.8846)" class="st2" cx="210.15" cy="206.77" rx="1.53" ry="1.04"/>
		</g>
		<g>
			
				<ellipse transform="matrix(0.4258 -0.9048 0.9048 0.4258 -97.7909 290.9386)" class="st2" cx="180.32" cy="222.52" rx="5.54" ry="3.79"/>
			
				<ellipse transform="matrix(0.4258 -0.9048 0.9048 0.4258 -97.8251 290.969)" class="st2" cx="180.33" cy="222.56" rx="1.53" ry="1.04"/>
		</g>
	</g>
	<g>
		<g>
			<path class="st0" d="M139.14,437.3c0-0.04,0.08-4.79,0.17-10.82c0,0,0,0,0,0l0.35-21.93c0.1-1.16,0.3-2.58,0.64-4.01
				c0.04-0.2,0.1-0.4,0.15-0.61c0.03-0.12,0.07-0.24,0.11-0.37c0.06-0.2,0.11-0.4,0.19-0.61c0.23-0.7,0.5-1.38,0.82-2.01
				c2.5-4.86,6.57-7.6,9.87-7.55c0.32,0,0.62,0.04,0.92,0.1c-1.49-0.49-3.9-1.17-4.49-1.18c-3.3-0.05-7.37,2.69-9.87,7.55
				c-1.22,2.36-1.72,5.44-1.91,7.61l-0.35,21.93c0,0,0,0,0,0c-0.1,6.03-0.17,10.78-0.17,10.82c-0.03,2.71,0.92,5.29,2.83,6.28
				c0.45,0.23,2.46,0.87,3.97,1.26c-0.14-0.05-0.28-0.11-0.41-0.18C140.06,442.59,139.11,440,139.14,437.3z"/>
			<path class="st1" d="M153.66,389.91c-0.41-0.21-0.85-0.35-1.31-0.43c-0.3-0.06-0.61-0.09-0.92-0.1c-3.3-0.05-7.37,2.69-9.87,7.55
				c-0.32,0.63-0.59,1.31-0.82,2.01c-0.08,0.21-0.12,0.41-0.19,0.61c-0.04,0.12-0.07,0.24-0.11,0.37c-0.05,0.2-0.11,0.41-0.15,0.61
				c-0.34,1.43-0.54,2.85-0.64,4.01c0,0-0.52,32.72-0.52,32.76c-0.03,2.71,0.92,5.29,2.83,6.28c0.13,0.07,0.27,0.12,0.41,0.18
				c0.57,0.22,1.18,0.34,1.82,0.35c3.3,0.05,7.37-2.69,9.87-7.55c1.22-2.36,1.72-5.44,1.91-7.61c0,0,0.52-32.68,0.52-32.76
				C156.53,393.49,155.58,390.9,153.66,389.91z M151.2,435.24c-1.58,3.23-4.45,5.07-6.41,4.11c-1.96-0.96-2.27-4.36-0.69-7.59
				c1.58-3.23,4.45-5.07,6.41-4.11C152.47,428.62,152.78,432.01,151.2,435.24z M151.97,402.58c-1.58,3.23-4.45,5.07-6.41,4.11
				c-1.96-0.96-2.27-4.36-0.69-7.59c1.58-3.23,4.45-5.07,6.41-4.11C153.24,395.95,153.55,399.35,151.97,402.58z"/>
			<path class="st1" d="M150.51,427.66c-0.43-0.21-0.9-0.28-1.39-0.24c0.66,1.53,0.5,3.85-0.6,6.11c-1.24,2.53-3.26,4.2-5.02,4.35
				c0.28,0.66,0.71,1.18,1.3,1.47c1.96,0.96,4.83-0.88,6.41-4.11C152.78,432.01,152.47,428.62,150.51,427.66z"/>
			<path class="st1" d="M151.27,395c-0.43-0.21-0.9-0.28-1.39-0.24c0.66,1.53,0.5,3.85-0.6,6.11c-1.24,2.53-3.26,4.2-5.02,4.35
				c0.28,0.66,0.71,1.18,1.3,1.47c1.96,0.96,4.83-0.88,6.41-4.11C153.55,399.35,153.24,395.95,151.27,395z"/>
		</g>
		<g>
			<path class="st0" d="M208.44,415.94c0-0.04,0.08-4.79,0.17-10.82c0,0,0,0,0,0l0.35-21.93c0.1-1.16,0.3-2.58,0.64-4.01
				c0.04-0.2,0.1-0.4,0.15-0.61c0.03-0.12,0.07-0.24,0.11-0.37c0.06-0.2,0.11-0.4,0.19-0.61c0.23-0.7,0.5-1.38,0.82-2.01
				c2.5-4.86,6.57-7.6,9.87-7.55c0.32,0,0.62,0.04,0.92,0.1c-1.49-0.49-3.9-1.17-4.49-1.18c-3.3-0.05-7.37,2.69-9.87,7.55
				c-1.22,2.36-1.72,5.44-1.91,7.61l-0.35,21.93c0,0,0,0,0,0c-0.1,6.03-0.17,10.78-0.17,10.82c-0.03,2.71,0.92,5.29,2.83,6.28
				c0.45,0.23,2.46,0.87,3.97,1.26c-0.14-0.05-0.28-0.11-0.41-0.18C209.36,421.23,208.41,418.64,208.44,415.94z"/>
			<path class="st1" d="M222.97,368.55c-0.41-0.21-0.85-0.35-1.31-0.43c-0.3-0.06-0.61-0.09-0.92-0.1c-3.3-0.05-7.37,2.69-9.87,7.55
				c-0.32,0.63-0.59,1.31-0.82,2.01c-0.08,0.21-0.12,0.41-0.19,0.61c-0.04,0.12-0.07,0.24-0.11,0.37c-0.05,0.2-0.11,0.41-0.15,0.61
				c-0.34,1.43-0.54,2.85-0.64,4.01c0,0-0.52,32.72-0.52,32.76c-0.03,2.71,0.92,5.29,2.83,6.28c0.13,0.07,0.27,0.12,0.41,0.18
				c0.57,0.22,1.18,0.34,1.82,0.35c3.3,0.05,7.37-2.69,9.87-7.55c1.22-2.36,1.72-5.44,1.91-7.61c0,0,0.52-32.68,0.52-32.76
				C225.83,372.12,224.88,369.54,222.97,368.55z M220.51,413.88c-1.58,3.23-4.45,5.07-6.41,4.11c-1.96-0.96-2.27-4.36-0.69-7.59
				c1.58-3.23,4.45-5.07,6.41-4.11C221.78,407.25,222.09,410.65,220.51,413.88z M221.27,381.22c-1.58,3.23-4.45,5.07-6.41,4.11
				c-1.96-0.96-2.27-4.36-0.69-7.59c1.58-3.23,4.45-5.07,6.41-4.11C222.54,374.59,222.85,377.99,221.27,381.22z"/>
			<path class="st1" d="M219.81,406.29c-0.43-0.21-0.9-0.28-1.39-0.24c0.66,1.53,0.5,3.85-0.6,6.11c-1.24,2.53-3.26,4.2-5.02,4.35
				c0.28,0.66,0.71,1.18,1.3,1.47c1.96,0.96,4.83-0.88,6.41-4.11C222.09,410.65,221.78,407.25,219.81,406.29z"/>
			<path class="st1" d="M220.58,373.63c-0.43-0.21-0.9-0.28-1.39-0.24c0.66,1.53,0.5,3.85-0.6,6.11c-1.24,2.53-3.26,4.2-5.02,4.35
				c0.28,0.66,0.71,1.18,1.3,1.47c1.96,0.96,4.83-0.88,6.41-4.11C222.85,377.99,222.54,374.59,220.58,373.63z"/>
		</g>
		<path class="st0" d="M215.63,379.87"/>
		<g>
			<g>
				<path class="st3" d="M212.72,379.02l0.33-0.1c0.81-0.25,3.03,0.79,4.1,4.34c1.18,3.87-0.18,5.64-0.99,5.89l-0.46,0.14
					c2.66,2.5,6.55,3.56,10.29,2.42c5.57-1.69,8.72-7.59,7.02-13.16c-1.69-5.57-7.59-8.72-13.16-7.02
					C216.2,372.63,213.6,375.56,212.72,379.02z"/>
				<g>
					<path class="st3" d="M160.92,394.65c0.02,0.02,0.04,0.04,0.06,0.06c0.08,0.07,0.15,0.14,0.23,0.21
						c1.19,1.19,2.12,2.68,2.65,4.4c0.54,1.77,0.58,3.58,0.22,5.27c-0.02,0.09-0.05,0.19-0.07,0.28l44.94-13.53l1.08-0.33l5.68-1.73
						l0.46-0.14c0.81-0.25,2.17-2.01,0.99-5.89c-1.08-3.55-3.29-4.59-4.1-4.34l-0.33,0.1l-5.81,1.76l-1.08,0.33l-44.93,13.53
						c0,0,0,0,0,0C160.91,394.65,160.91,394.65,160.92,394.65z"/>
					<path class="st3" d="M150.69,392.3c-5.57,1.69-8.72,7.59-7.02,13.16c1.69,5.57,7.59,8.72,13.16,7.02
						c3.67-1.11,6.27-4.05,7.15-7.51c0.01-0.03,0.01-0.05,0.02-0.08c0,0,0-0.01,0-0.01c0,0,0,0,0,0c0.02-0.09,0.05-0.19,0.07-0.28
						c0.36-1.69,0.32-3.5-0.22-5.27c-0.52-1.72-1.45-3.21-2.65-4.4c-0.07-0.07-0.15-0.14-0.23-0.21c-0.02-0.02-0.04-0.04-0.06-0.06
						c0,0-0.01-0.01-0.01-0.01c0,0,0,0,0,0C158.24,392.19,154.4,391.17,150.69,392.3z"/>
				</g>
			</g>
			<g>
				<path class="st3" d="M193.72,328.47C193.71,328.48,193.71,328.48,193.72,328.47C193.71,328.48,193.71,328.48,193.72,328.47
					c-0.01,0.01-0.02,0.01-0.02,0.01c-0.02,0.01-0.05,0.03-0.07,0.04c-0.09,0.05-0.17,0.11-0.27,0.16c-1.48,0.8-3.18,1.26-4.98,1.27
					c-1.85,0.01-3.6-0.47-5.11-1.31c-0.08-0.04-0.16-0.09-0.24-0.14l0.02,53.65l0,1.13l0.02,5.94l0,0.48c0,0.85,1.3,2.66,5.35,2.65
					c3.71-0.01,5.34-1.83,5.34-2.68l0-0.35l-0.02-6.07l0-1.13L193.72,328.47C193.72,328.47,193.72,328.47,193.72,328.47
					C193.72,328.47,193.72,328.47,193.72,328.47z"/>
				<path class="st3" d="M198.89,319.37c-0.02-5.82-4.76-10.53-10.58-10.51c-5.83,0.02-10.53,4.76-10.51,10.58
					c0.01,3.83,2.07,7.17,5.14,9.01c0.02,0.01,0.05,0.03,0.07,0.04c0,0,0.01,0.01,0.01,0.01c0,0,0,0,0,0c0,0,0,0,0.01,0c0,0,0,0,0,0
					c0,0,0,0,0,0c0.08,0.05,0.16,0.1,0.24,0.14c1.52,0.84,3.26,1.31,5.11,1.31c1.8-0.01,3.5-0.47,4.98-1.27
					c0.09-0.05,0.18-0.11,0.27-0.16c0.02-0.01,0.05-0.03,0.07-0.04c0,0,0.01-0.01,0.01-0.01c0,0,0,0,0,0c0,0,0,0,0.01,0c0,0,0,0,0,0
					c0,0,0,0,0,0C196.82,326.63,198.9,323.25,198.89,319.37z"/>
			</g>
		</g>
		<g>
			<g>
				<path class="st0" d="M168.18,569.29c0-0.04-0.08-4.79-0.17-10.82c0,0,0,0,0,0l-0.35-21.93c-0.1-1.16-0.3-2.58-0.64-4.01
					c-0.04-0.2-0.1-0.4-0.15-0.61c-0.03-0.12-0.07-0.24-0.11-0.37c-0.06-0.2-0.11-0.4-0.19-0.61c-0.23-0.7-0.5-1.38-0.82-2.01
					c-2.5-4.86-6.57-7.6-9.87-7.55c-0.32,0-0.62,0.04-0.92,0.1c1.49-0.49,3.9-1.17,4.49-1.18c3.3-0.05,7.37,2.69,9.87,7.55
					c1.22,2.36,1.72,5.44,1.91,7.61l0.35,21.93c0,0,0,0,0,0c0.1,6.03,0.17,10.78,0.17,10.82c0.03,2.71-0.92,5.29-2.83,6.28
					c-0.45,0.23-2.46,0.87-3.97,1.26c0.14-0.05,0.28-0.11,0.41-0.18C167.26,574.58,168.21,571.99,168.18,569.29z"/>
				<path class="st1" d="M150.82,528.18c0,0.08,0.52,32.76,0.52,32.76c0.19,2.16,0.69,5.24,1.91,7.61c2.5,4.86,6.57,7.6,9.87,7.55
					c0.64-0.01,1.25-0.13,1.82-0.35c0.14-0.05,0.28-0.11,0.41-0.18c1.91-0.98,2.87-3.57,2.83-6.28c0-0.04-0.52-32.76-0.52-32.76
					c-0.1-1.16-0.3-2.58-0.64-4.01c-0.04-0.2-0.1-0.4-0.15-0.61c-0.03-0.12-0.07-0.24-0.11-0.37c-0.06-0.2-0.11-0.4-0.19-0.61
					c-0.23-0.7-0.5-1.38-0.82-2.01c-2.5-4.86-6.57-7.6-9.87-7.55c-0.32,0-0.62,0.04-0.92,0.1c-0.46,0.08-0.9,0.22-1.31,0.43
					C151.74,522.89,150.79,525.48,150.82,528.18z M156.81,559.65c1.96-0.96,4.83,0.88,6.41,4.11c1.58,3.23,1.27,6.63-0.69,7.59
					c-1.96,0.96-4.83-0.88-6.41-4.11C154.54,564,154.85,560.6,156.81,559.65z M156.04,526.98c1.96-0.96,4.83,0.88,6.41,4.11
					c1.58,3.23,1.27,6.63-0.69,7.59c-1.96,0.96-4.83-0.88-6.41-4.11C153.77,531.34,154.08,527.94,156.04,526.98z"/>
				<path class="st1" d="M156.81,559.65c0.43-0.21,0.9-0.28,1.39-0.24c-0.66,1.53-0.5,3.85,0.6,6.11c1.24,2.53,3.26,4.2,5.02,4.35
					c-0.28,0.66-0.71,1.18-1.3,1.47c-1.96,0.96-4.83-0.88-6.41-4.11C154.54,564,154.85,560.6,156.81,559.65z"/>
				<path class="st1" d="M156.04,526.98c0.43-0.21,0.9-0.28,1.39-0.24c-0.66,1.53-0.5,3.85,0.6,6.11c1.24,2.53,3.26,4.2,5.02,4.35
					c-0.28,0.66-0.71,1.18-1.3,1.47c-1.96,0.96-4.83-0.88-6.41-4.11C153.77,531.34,154.08,527.94,156.04,526.98z"/>
			</g>
			<g>
				<path class="st1" d="M179.39,672.82c0.58-0.27,1.24-0.3,1.92-0.12c-0.82,1.51-0.73,3.98,0.4,6.38c1.08,2.3,2.81,3.9,4.43,4.33
					c-0.29,0.54-0.69,0.96-1.21,1.2c-1.98,0.93-4.82-0.95-6.35-4.21C177.05,677.14,177.41,673.75,179.39,672.82z"/>
				<path class="st1" d="M157.01,661.14c0.58-0.27,1.24-0.3,1.92-0.12c-0.82,1.51-0.73,3.98,0.4,6.38c1.08,2.3,2.81,3.9,4.43,4.33
					c-0.29,0.54-0.69,0.96-1.21,1.2c-1.98,0.93-4.82-0.95-6.35-4.21C154.67,665.46,155.03,662.07,157.01,661.14z"/>
				<path class="st0" d="M182.65,669.17c-1.89-0.56-6.78-1.41-11.05-3.49c-4.4-2.15-8.81-7.87-13.14-8.65
					c-2.01-0.36-3.41-0.16-4.4,0.31c1.56-1.49,4.13-2.88,8.05-2.17c4.33,0.78,8.74,6.51,13.14,8.65c4.27,2.09,9.19,2.85,11.05,3.49
					c4.15,1.43,7.51,4.33,7.72,9.64l0.08,13.49l-3.62,1.73l-0.1-13.36C190.15,673.49,186.43,670.3,182.65,669.17z"/>
				<path class="st1" d="M190.46,692.21l0-0.04l-0.1-13.36c-0.21-5.32-3.93-8.51-7.72-9.64c-1.89-0.56-6.78-1.41-11.05-3.49
					c-4.4-2.15-8.81-7.87-13.14-8.65c-2.01-0.36-3.41-0.16-4.4,0.31c-2.69,1.28-2.28,4.63-2.28,4.63l-0.05,9.96L190.46,692.21z
					 M179.39,672.82c1.98-0.93,4.82,0.95,6.35,4.21c1.53,3.25,1.17,6.65-0.81,7.58c-1.98,0.93-4.82-0.95-6.35-4.21
					C177.05,677.14,177.41,673.75,179.39,672.82z M162.55,672.92c-1.98,0.93-4.82-0.95-6.35-4.21c-1.53-3.25-1.17-6.65,0.81-7.58
					c1.98-0.93,4.82,0.95,6.35,4.21C164.89,668.6,164.53,671.99,162.55,672.92z"/>
			</g>
			<g>
				<path class="st3" d="M158.8,525.83l0,0.34c0,0.83-1.6,2.62-5.24,2.64c-3.98,0.01-5.26-1.77-5.26-2.6l0-0.47
					c-3.11,1.8-5.2,5.16-5.19,9c0.02,5.72,4.67,10.35,10.4,10.33c5.72-0.02,10.35-4.67,10.33-10.4
					C163.83,530.91,161.8,527.63,158.8,525.83z"/>
				<g>
					<path class="st3" d="M158.73,444.02c-0.02,0.01-0.05,0.03-0.07,0.04c-0.09,0.05-0.17,0.11-0.26,0.15
						c-1.46,0.79-3.12,1.24-4.89,1.25c-1.82,0.01-3.53-0.46-5.02-1.28c-0.08-0.05-0.16-0.1-0.24-0.15l0.03,74.76l0,1.11l0.02,5.84
						l0,0.47c0,0.83,1.28,2.61,5.26,2.6c3.64-0.01,5.25-1.8,5.24-2.64l0-0.34l-0.02-5.96l0-1.11l-0.03-74.75c0,0,0,0,0,0
						C158.74,444.01,158.73,444.01,158.73,444.02z"/>
					<path class="st3" d="M163.84,435.06c-0.02-5.72-4.67-10.35-10.4-10.33c-5.72,0.02-10.35,4.67-10.33,10.4
						c0.01,3.77,2.04,7.05,5.05,8.85c0.02,0.01,0.04,0.03,0.07,0.04c0,0,0.01,0.01,0.01,0.01c0,0,0,0,0,0
						c0.08,0.05,0.16,0.1,0.24,0.15c1.49,0.82,3.2,1.29,5.02,1.28c1.77-0.01,3.44-0.46,4.89-1.25c0.09-0.05,0.17-0.1,0.26-0.15
						c0.02-0.01,0.05-0.03,0.07-0.04c0,0,0.01-0.01,0.01-0.01c0,0,0,0,0,0C161.8,442.19,163.85,438.87,163.84,435.06z"/>
				</g>
			</g>
			<g>
				<path class="st3" d="M159.9,658.3l0,0.34c0,0.83-1.6,2.62-5.24,2.64c-3.98,0.01-5.26-1.77-5.26-2.6l0-0.47
					c-3.11,1.8-5.2,5.16-5.19,9c0.02,5.72,4.67,10.35,10.4,10.33c5.72-0.02,10.35-4.67,10.33-10.4
					C164.93,663.38,162.91,660.1,159.9,658.3z"/>
				<g>
					<path class="st3" d="M159.83,576.48c-0.02,0.01-0.05,0.03-0.07,0.04c-0.09,0.05-0.17,0.11-0.26,0.15
						c-1.46,0.79-3.12,1.24-4.89,1.25c-1.82,0.01-3.53-0.46-5.02-1.28c-0.08-0.05-0.16-0.1-0.24-0.15l0.03,74.76l0,1.11l0.02,5.84
						l0,0.47c0,0.83,1.28,2.61,5.26,2.6c3.64-0.01,5.25-1.8,5.24-2.64l0-0.34l-0.02-5.96l0-1.11l-0.03-74.75c0,0,0,0,0,0
						C159.84,576.48,159.84,576.48,159.83,576.48z"/>
					<path class="st3" d="M164.94,567.53c-0.02-5.72-4.67-10.35-10.4-10.33c-5.72,0.02-10.35,4.67-10.33,10.4
						c0.01,3.77,2.04,7.05,5.05,8.85c0.02,0.01,0.04,0.03,0.07,0.04c0,0,0.01,0.01,0.01,0.01c0,0,0,0,0,0
						c0.08,0.05,0.16,0.1,0.24,0.15c1.49,0.82,3.2,1.29,5.02,1.28c1.77-0.01,3.44-0.46,4.89-1.25c0.09-0.05,0.17-0.1,0.26-0.15
						c0.02-0.01,0.05-0.03,0.07-0.04c0,0,0.01-0.01,0.01-0.01c0,0,0,0,0,0C162.9,574.66,164.95,571.34,164.94,567.53z"/>
				</g>
			</g>
			<g>
				<path class="st2" d="M147.84,552.3l11.29-4.7c1.06-0.24,2.4,0.79,3.1,2.46c0.7,1.67,0.5,3.35-0.42,3.93l-11.3,4.68
					c-1.05,0.2-2.36-0.83-3.04-2.47C146.79,554.56,146.97,552.91,147.84,552.3z"/>
			</g>
			<g>
				<path class="st0" d="M154.69,575.89c0-0.04-0.08-4.79-0.17-10.83c0,0,0,0,0,0l-0.35-21.93c-0.1-1.16-0.3-2.58-0.64-4.01
					c-0.04-0.2-0.1-0.4-0.15-0.61c-0.03-0.12-0.07-0.24-0.11-0.37c-0.06-0.2-0.11-0.4-0.19-0.61c-0.23-0.7-0.5-1.38-0.82-2.01
					c-2.5-4.86-6.57-7.6-9.87-7.55c-0.32,0-0.62,0.04-0.92,0.1c1.49-0.49,3.9-1.17,4.49-1.18c3.3-0.05,7.37,2.69,9.87,7.55
					c1.22,2.36,1.72,5.44,1.91,7.61l0.35,21.93c0,0,0,0,0,0c0.1,6.03,0.17,10.78,0.17,10.82c0.03,2.71-0.92,5.29-2.83,6.28
					c-0.45,0.23-2.46,0.87-3.97,1.26c0.14-0.05,0.28-0.11,0.41-0.18C153.76,581.18,154.72,578.59,154.69,575.89z"/>
				<path class="st1" d="M137.33,534.78c0,0.08,0.52,32.76,0.52,32.76c0.19,2.16,0.69,5.24,1.91,7.61c2.5,4.86,6.57,7.6,9.87,7.55
					c0.64-0.01,1.25-0.13,1.82-0.35c0.14-0.05,0.28-0.11,0.41-0.18c1.91-0.98,2.87-3.57,2.83-6.28c0-0.04-0.52-32.76-0.52-32.76
					c-0.1-1.16-0.3-2.58-0.64-4.01c-0.04-0.2-0.1-0.4-0.15-0.61c-0.03-0.12-0.07-0.24-0.11-0.37c-0.06-0.2-0.11-0.4-0.19-0.61
					c-0.23-0.7-0.5-1.38-0.82-2.01c-2.5-4.86-6.57-7.6-9.87-7.55c-0.32,0-0.62,0.04-0.92,0.1c-0.46,0.08-0.9,0.22-1.31,0.43
					C138.25,529.49,137.29,532.08,137.33,534.78z M143.32,566.25c1.96-0.96,4.83,0.88,6.41,4.11c1.58,3.23,1.27,6.63-0.69,7.59
					c-1.96,0.96-4.83-0.88-6.41-4.11C141.04,570.6,141.35,567.21,143.32,566.25z M147.83,559.59c-1.34,0.65-3.29-0.6-4.36-2.8
					c-1.07-2.2-0.86-4.51,0.47-5.16c1.34-0.65,3.29,0.6,4.36,2.8C149.37,556.63,149.16,558.94,147.83,559.59z M142.55,533.59
					c1.96-0.96,4.83,0.88,6.41,4.11c1.58,3.23,1.27,6.63-0.69,7.59c-1.96,0.96-4.83-0.88-6.41-4.11
					C140.28,537.94,140.59,534.54,142.55,533.59z"/>
				<path class="st0" d="M143.32,566.25c0.43-0.21,0.9-0.28,1.39-0.24c-0.66,1.53-0.5,3.85,0.6,6.11c1.24,2.53,3.26,4.2,5.02,4.35
					c-0.28,0.66-0.71,1.18-1.3,1.47c-1.96,0.96-4.83-0.88-6.41-4.11C141.04,570.6,141.35,567.21,143.32,566.25z"/>
				<path class="st1" d="M143.94,551.63c0.48-0.23,1.03-0.21,1.6,0c-0.17,0.99,0.02,2.24,0.61,3.46c0.69,1.41,1.74,2.43,2.76,2.8
					c-0.14,0.79-0.49,1.41-1.09,1.7c-1.34,0.65-3.29-0.6-4.36-2.8S142.6,552.29,143.94,551.63z"/>
				<path class="st0" d="M142.55,533.59c0.43-0.21,0.9-0.28,1.39-0.24c-0.66,1.53-0.5,3.85,0.6,6.11c1.24,2.53,3.26,4.2,5.02,4.35
					c-0.28,0.66-0.71,1.18-1.3,1.47c-1.96,0.96-4.83-0.88-6.41-4.11C140.28,537.94,140.59,534.54,142.55,533.59z"/>
			</g>
			<g>
				
					<ellipse transform="matrix(0.8948 -0.4465 0.4465 0.8948 -233.2576 123.7404)" class="st2" cx="145.94" cy="556.83" rx="3.79" ry="5.54"/>
				
					<ellipse transform="matrix(0.8948 -0.4465 0.4465 0.8948 -233.2771 123.7423)" class="st2" cx="145.94" cy="556.87" rx="1.04" ry="1.53"/>
			</g>
			<g>
				<path class="st2" d="M158.79,674.66l10.75-5.83c1.03-0.35,2.47,0.54,3.33,2.13c0.87,1.59,0.84,3.28-0.01,3.95l-10.76,5.82
					c-1.02,0.3-2.43-0.58-3.28-2.14C157.97,677.02,157.98,675.36,158.79,674.66z"/>
			</g>
			<g>
				<circle class="st3" cx="176.67" cy="681.5" r="10.37"/>
				<polygon class="st2" points="184.62,692.88 180.09,688.91 180.1,685.89 180.21,685.93 186.7,691.6 				"/>
				<path class="st2" d="M199.62,701l8.56-5.37c0.71-0.4,1.03-0.97,0.99-1.55c0.52,1.64,0.08,3.99-0.99,4.6l-8.56,5.37
					c-2.89,1.35-4.08,0.66-6.93-0.79l-10.81-5.62v-3.02l0.12,0.03l10.66,5.51C195.51,701.61,196.73,702.36,199.62,701z"/>
				<path class="st3" d="M180.21,685.93l6.49,5.66l-3.46,2.15l-1.36,0.84l0.01,0.01l0.11,0.06l10.66,5.51
					c2.85,1.45,4.06,2.2,6.96,0.85l8.56-5.37c0.71-0.4,1.03-0.97,0.99-1.55c-0.03-0.45-0.28-0.91-0.78-1.3
					c-0.22-0.17-0.46-0.33-0.77-0.47l-11.93-6.31l-3.78,2.3l-6.56-5.59l-5.27,3.15L180.21,685.93z M202.13,694.13
					c0.01,1.94-2.58,3.53-5.77,3.54c-3.2,0.01-5.8-1.55-5.81-3.49c-0.01-1.94,2.58-3.53,5.77-3.54
					C199.52,690.62,202.12,692.19,202.13,694.13z"/>
				<path class="st2" d="M202.13,694.13c0,0.57-0.22,1.11-0.62,1.59c-0.91-1.23-2.93-2.08-5.29-2.07c-2.26,0.01-4.2,0.8-5.15,1.95
					c-0.32-0.44-0.51-0.92-0.51-1.43c-0.01-1.94,2.58-3.53,5.77-3.54C199.52,690.62,202.12,692.19,202.13,694.13z"/>
			</g>
			<g>
				<path class="st0" d="M166.88,677.82c0.58-0.27,1.24-0.3,1.92-0.12c-0.82,1.51-0.73,3.98,0.4,6.38c1.08,2.3,2.81,3.9,4.43,4.33
					c-0.29,0.54-0.69,0.96-1.21,1.2c-1.98,0.93-4.82-0.95-6.35-4.21C164.54,682.14,164.9,678.75,166.88,677.82z"/>
				<path class="st0" d="M144.49,666.14c0.58-0.27,1.24-0.3,1.92-0.12c-0.82,1.51-0.73,3.98,0.4,6.38c1.08,2.3,2.81,3.9,4.43,4.33
					c-0.29,0.54-0.69,0.96-1.21,1.2c-1.98,0.93-4.82-0.95-6.35-4.21C142.16,670.47,142.52,667.07,144.49,666.14z"/>
				<path class="st0" d="M170.13,674.17c-1.89-0.56-6.78-1.41-11.05-3.49c-4.4-2.15-8.81-7.87-13.14-8.65
					c-2.01-0.36-3.41-0.16-4.4,0.31c1.56-1.49,4.13-2.88,8.05-2.17c4.33,0.78,8.74,6.51,13.14,8.65c4.27,2.09,9.19,2.85,11.05,3.49
					c4.15,1.43,7.51,4.33,7.72,9.64l0.08,13.49l-3.62,1.73l-0.1-13.36C177.64,678.5,173.92,675.3,170.13,674.17z"/>
				<path class="st1" d="M177.95,697.21l0-0.04l-0.1-13.36c-0.21-5.32-3.93-8.51-7.72-9.64c-1.89-0.56-6.78-1.41-11.05-3.49
					c-4.4-2.15-8.81-7.87-13.14-8.65c-2.01-0.36-3.41-0.16-4.4,0.31c-2.69,1.28-2.28,4.63-2.28,4.63l-0.05,9.96L177.95,697.21z
					 M166.88,677.82c1.98-0.93,4.82,0.95,6.35,4.21c1.53,3.25,1.17,6.65-0.81,7.58c-1.98,0.93-4.82-0.95-6.35-4.21
					C164.54,682.14,164.9,678.75,166.88,677.82z M150.04,677.93c-1.98,0.93-4.82-0.95-6.35-4.21c-1.53-3.25-1.17-6.65,0.81-7.58
					c1.98-0.93,4.82,0.95,6.35,4.21C152.38,673.61,152.02,677,150.04,677.93z M160.82,677.14c1.04,2.21,0.8,4.52-0.55,5.16
					s-3.28-0.65-4.32-2.86c-1.04-2.21-0.8-4.52,0.55-5.16C157.85,673.65,159.78,674.93,160.82,677.14z"/>
				<path class="st1" d="M156.5,674.28c0.48-0.23,1.04-0.2,1.6,0.02c-0.19,0.99-0.02,2.24,0.56,3.47c0.67,1.42,1.71,2.45,2.72,2.84
					c-0.15,0.79-0.51,1.41-1.11,1.69c-1.35,0.63-3.28-0.65-4.32-2.86C154.91,677.22,155.16,674.91,156.5,674.28z"/>
			</g>
			<g>
				
					<ellipse transform="matrix(0.9172 -0.3985 0.3985 0.9172 -257.4607 119.3575)" class="st2" cx="158.35" cy="678.93" rx="3.79" ry="5.54"/>
				
					<ellipse transform="matrix(0.9172 -0.3985 0.3985 0.9172 -257.4781 119.3577)" class="st2" cx="158.34" cy="678.97" rx="1.04" ry="1.53"/>
			</g>
		</g>
		<g>
			<path class="st2" d="M159.47,420.31l-11.29-4.7c-1.06-0.24-2.4,0.79-3.1,2.46c-0.7,1.67-0.5,3.35,0.42,3.93l11.3,4.68
				c1.05,0.2,2.36-0.83,3.04-2.47C160.53,422.57,160.35,420.92,159.47,420.31z"/>
		</g>
		<g>
			<path class="st0" d="M152.63,443.9c0-0.04,0.08-4.79,0.17-10.82c0,0,0,0,0,0l0.35-21.93c0.1-1.16,0.3-2.58,0.64-4.01
				c0.04-0.2,0.1-0.4,0.15-0.61c0.03-0.12,0.07-0.24,0.11-0.37c0.06-0.2,0.11-0.4,0.19-0.61c0.23-0.7,0.5-1.38,0.82-2.01
				c2.5-4.86,6.57-7.6,9.87-7.55c0.32,0,0.62,0.04,0.92,0.1c-1.49-0.49-3.9-1.17-4.49-1.18c-3.3-0.05-7.37,2.69-9.87,7.55
				c-1.22,2.36-1.72,5.44-1.91,7.61l-0.35,21.93c0,0,0,0,0,0c-0.1,6.03-0.17,10.78-0.17,10.82c-0.03,2.71,0.92,5.29,2.83,6.28
				c0.45,0.23,2.46,0.87,3.97,1.26c-0.14-0.05-0.28-0.11-0.41-0.18C153.55,449.19,152.6,446.61,152.63,443.9z"/>
			<path class="st1" d="M167.16,396.51c-0.41-0.21-0.85-0.35-1.31-0.43c-0.3-0.06-0.61-0.09-0.92-0.1c-3.3-0.05-7.37,2.69-9.87,7.55
				c-0.32,0.63-0.59,1.31-0.82,2.01c-0.08,0.21-0.12,0.41-0.19,0.61c-0.04,0.12-0.07,0.24-0.11,0.37c-0.05,0.2-0.11,0.41-0.15,0.61
				c-0.34,1.43-0.54,2.85-0.64,4.01c0,0-0.52,32.72-0.52,32.76c-0.03,2.71,0.92,5.29,2.83,6.28c0.13,0.07,0.27,0.12,0.41,0.18
				c0.57,0.22,1.18,0.34,1.82,0.35c3.3,0.05,7.37-2.69,9.87-7.55c1.22-2.36,1.72-5.44,1.91-7.61c0,0,0.52-32.68,0.52-32.76
				C170.02,400.09,169.07,397.5,167.16,396.51z M164.69,441.84c-1.58,3.23-4.45,5.07-6.41,4.11c-1.96-0.96-2.27-4.36-0.69-7.59
				c1.58-3.23,4.45-5.07,6.41-4.11C165.96,435.22,166.27,438.61,164.69,441.84z M159.02,422.44c1.07-2.2,3.03-3.45,4.36-2.8
				c1.34,0.65,1.55,2.96,0.47,5.16c-1.07,2.2-3.03,3.45-4.36,2.8C158.15,426.95,157.94,424.64,159.02,422.44z M165.46,409.18
				c-1.58,3.23-4.45,5.07-6.41,4.11c-1.96-0.96-2.27-4.36-0.69-7.59c1.58-3.23,4.45-5.07,6.41-4.11
				C166.73,402.56,167.04,405.95,165.46,409.18z"/>
			<path class="st0" d="M164,434.26c-0.43-0.21-0.9-0.28-1.39-0.24c0.66,1.53,0.5,3.85-0.6,6.11c-1.24,2.53-3.26,4.2-5.02,4.35
				c0.28,0.66,0.71,1.18,1.3,1.47c1.96,0.96,4.83-0.88,6.41-4.11C166.27,438.61,165.96,435.22,164,434.26z"/>
			<path class="st1" d="M163.38,419.64c-0.48-0.23-1.03-0.21-1.6,0c0.17,0.99-0.02,2.24-0.61,3.46c-0.69,1.41-1.74,2.43-2.76,2.8
				c0.14,0.79,0.49,1.41,1.09,1.7c1.34,0.65,3.29-0.6,4.36-2.8S164.72,420.3,163.38,419.64z"/>
			<path class="st0" d="M164.77,401.6c-0.43-0.21-0.9-0.28-1.39-0.24c0.66,1.53,0.5,3.85-0.6,6.11c-1.24,2.53-3.26,4.2-5.02,4.35
				c0.28,0.66,0.71,1.18,1.3,1.47c1.96,0.96,4.83-0.88,6.41-4.11C167.04,405.95,166.73,402.56,164.77,401.6z"/>
		</g>
		<g>
			
				<ellipse transform="matrix(0.4465 -0.8948 0.8948 0.4465 -290.8212 379.5566)" class="st2" cx="161.37" cy="424.84" rx="5.54" ry="3.79"/>
			
				<ellipse transform="matrix(0.4465 -0.8948 0.8948 0.4465 -290.8558 379.5852)" class="st2" cx="161.38" cy="424.88" rx="1.53" ry="1.04"/>
		</g>
		<g>
			<path class="st2" d="M228.78,398.95l-11.29-4.7c-1.06-0.24-2.4,0.79-3.1,2.46c-0.7,1.67-0.5,3.35,0.42,3.93l11.3,4.68
				c1.05,0.2,2.36-0.83,3.04-2.47C229.83,401.21,229.65,399.56,228.78,398.95z"/>
		</g>
		<g>
			<g>
				<path class="st0" d="M237.26,548.36c0-0.04-0.08-4.79-0.17-10.82c0,0,0,0,0,0l-0.35-21.93c-0.1-1.16-0.3-2.58-0.64-4.01
					c-0.04-0.2-0.1-0.4-0.15-0.61c-0.03-0.12-0.07-0.24-0.11-0.37c-0.06-0.2-0.11-0.4-0.19-0.61c-0.23-0.7-0.5-1.38-0.82-2.01
					c-2.5-4.86-6.57-7.6-9.87-7.55c-0.32,0-0.62,0.04-0.92,0.1c1.49-0.49,3.9-1.17,4.49-1.18c3.3-0.05,7.37,2.69,9.87,7.55
					c1.22,2.36,1.72,5.44,1.91,7.61l0.35,21.93c0,0,0,0,0,0c0.1,6.03,0.17,10.78,0.17,10.82c0.03,2.71-0.92,5.29-2.83,6.28
					c-0.45,0.23-2.46,0.87-3.97,1.26c0.14-0.05,0.28-0.11,0.41-0.18C236.34,553.66,237.29,551.07,237.26,548.36z"/>
				<path class="st1" d="M219.9,507.26c0,0.08,0.52,32.76,0.52,32.76c0.19,2.16,0.69,5.24,1.91,7.61c2.5,4.86,6.57,7.6,9.87,7.55
					c0.64-0.01,1.25-0.13,1.82-0.35c0.14-0.05,0.28-0.11,0.41-0.18c1.91-0.98,2.87-3.57,2.83-6.28c0-0.04-0.52-32.76-0.52-32.76
					c-0.1-1.16-0.3-2.58-0.64-4.01c-0.04-0.2-0.1-0.4-0.15-0.61c-0.03-0.12-0.07-0.24-0.11-0.37c-0.06-0.2-0.11-0.4-0.19-0.61
					c-0.23-0.7-0.5-1.38-0.82-2.01c-2.5-4.86-6.57-7.6-9.87-7.55c-0.32,0-0.62,0.04-0.92,0.1c-0.46,0.08-0.9,0.22-1.31,0.43
					C220.82,501.96,219.87,504.55,219.9,507.26z M225.89,538.72c1.96-0.96,4.83,0.88,6.41,4.11c1.58,3.23,1.27,6.63-0.69,7.59
					c-1.96,0.96-4.83-0.88-6.41-4.11C223.62,543.08,223.93,539.68,225.89,538.72z M225.13,506.06c1.96-0.96,4.83,0.88,6.41,4.11
					c1.58,3.23,1.27,6.63-0.69,7.59c-1.96,0.96-4.83-0.88-6.41-4.11C222.86,510.42,223.17,507.02,225.13,506.06z"/>
				<path class="st1" d="M225.89,538.72c0.43-0.21,0.9-0.28,1.39-0.24c-0.66,1.53-0.5,3.85,0.6,6.11c1.24,2.53,3.26,4.2,5.02,4.35
					c-0.28,0.66-0.71,1.18-1.3,1.47c-1.96,0.96-4.83-0.88-6.41-4.11C223.62,543.08,223.93,539.68,225.89,538.72z"/>
				<path class="st1" d="M225.13,506.06c0.43-0.21,0.9-0.28,1.39-0.24c-0.66,1.53-0.5,3.85,0.6,6.11c1.24,2.53,3.26,4.2,5.02,4.35
					c-0.28,0.66-0.71,1.18-1.3,1.47c-1.96,0.96-4.83-0.88-6.41-4.11C222.86,510.42,223.17,507.02,225.13,506.06z"/>
			</g>
			<g>
				<path class="st1" d="M248.47,651.89c0.58-0.27,1.24-0.3,1.92-0.12c-0.82,1.51-0.73,3.98,0.4,6.38c1.08,2.3,2.81,3.9,4.43,4.33
					c-0.29,0.54-0.69,0.96-1.21,1.2c-1.98,0.93-4.82-0.95-6.35-4.21C246.13,656.21,246.5,652.82,248.47,651.89z"/>
				<path class="st1" d="M226.09,640.21c0.58-0.27,1.24-0.3,1.92-0.12c-0.82,1.51-0.73,3.98,0.4,6.38c1.08,2.3,2.81,3.9,4.43,4.33
					c-0.29,0.54-0.69,0.96-1.21,1.2c-1.98,0.93-4.82-0.95-6.35-4.21C223.75,644.54,224.11,641.15,226.09,640.21z"/>
				<path class="st0" d="M251.73,648.24c-1.89-0.56-6.78-1.41-11.05-3.49c-4.4-2.15-8.81-7.87-13.14-8.65
					c-2.01-0.36-3.41-0.16-4.4,0.31c1.56-1.49,4.13-2.88,8.05-2.17c4.33,0.78,8.74,6.51,13.14,8.65c4.27,2.09,9.19,2.85,11.05,3.49
					c4.15,1.43,7.51,4.33,7.72,9.64l0.08,13.49l-3.62,1.73l-0.1-13.36C259.24,652.57,255.52,649.37,251.73,648.24z"/>
				<path class="st1" d="M259.55,671.29l0-0.04l-0.1-13.36c-0.21-5.32-3.93-8.51-7.72-9.64c-1.89-0.56-6.78-1.41-11.05-3.49
					c-4.4-2.15-8.81-7.87-13.14-8.65c-2.01-0.36-3.41-0.16-4.4,0.31c-2.69,1.28-2.28,4.63-2.28,4.63l-0.05,9.96L259.55,671.29z
					 M248.47,651.89c1.98-0.93,4.82,0.95,6.35,4.21c1.53,3.25,1.17,6.65-0.81,7.58c-1.98,0.93-4.82-0.95-6.35-4.21
					C246.13,656.21,246.5,652.82,248.47,651.89z M231.64,652c-1.98,0.93-4.82-0.95-6.35-4.21c-1.53-3.25-1.17-6.65,0.81-7.58
					c1.98-0.93,4.82,0.95,6.35,4.21C233.97,647.68,233.61,651.07,231.64,652z"/>
			</g>
			<g>
				<path class="st3" d="M227.89,504.9l0,0.34c0,0.83-1.6,2.62-5.24,2.64c-3.98,0.01-5.26-1.77-5.26-2.6l0-0.47
					c-3.11,1.8-5.2,5.16-5.19,9c0.02,5.72,4.67,10.35,10.4,10.33c5.72-0.02,10.35-4.67,10.33-10.4
					C232.91,509.99,230.89,506.71,227.89,504.9z"/>
				<g>
					<path class="st3" d="M227.82,423.09c-0.02,0.01-0.05,0.03-0.07,0.04c-0.09,0.05-0.17,0.11-0.26,0.15
						c-1.46,0.79-3.12,1.24-4.89,1.25c-1.82,0.01-3.53-0.46-5.02-1.28c-0.08-0.05-0.16-0.1-0.24-0.15l0.03,74.76l0,1.11l0.02,5.84
						l0,0.47c0,0.83,1.28,2.61,5.26,2.6c3.64-0.01,5.25-1.8,5.24-2.64l0-0.34l-0.02-5.96l0-1.11l-0.03-74.75c0,0,0,0,0,0
						C227.82,423.09,227.82,423.09,227.82,423.09z"/>
					<path class="st3" d="M232.92,414.14c-0.02-5.72-4.67-10.35-10.4-10.33c-5.72,0.02-10.35,4.67-10.33,10.4
						c0.01,3.77,2.04,7.05,5.05,8.85c0.02,0.01,0.04,0.03,0.07,0.04c0,0,0.01,0.01,0.01,0.01c0,0,0,0,0,0
						c0.08,0.05,0.16,0.1,0.24,0.15c1.49,0.82,3.2,1.29,5.02,1.28c1.77-0.01,3.44-0.46,4.89-1.25c0.09-0.05,0.17-0.1,0.26-0.15
						c0.02-0.01,0.05-0.03,0.07-0.04c0,0,0.01-0.01,0.01-0.01c0,0,0,0,0,0C230.89,421.27,232.94,417.94,232.92,414.14z"/>
				</g>
			</g>
			<g>
				<path class="st3" d="M228.99,637.37l0,0.34c0,0.83-1.6,2.62-5.24,2.64c-3.98,0.01-5.26-1.77-5.26-2.6l0-0.47
					c-3.11,1.8-5.2,5.16-5.19,9c0.02,5.72,4.67,10.35,10.4,10.33c5.72-0.02,10.35-4.67,10.33-10.4
					C234.01,642.46,231.99,639.18,228.99,637.37z"/>
				<g>
					<path class="st3" d="M228.92,555.56c-0.02,0.01-0.05,0.03-0.07,0.04c-0.09,0.05-0.17,0.11-0.26,0.15
						c-1.46,0.79-3.12,1.24-4.89,1.25c-1.82,0.01-3.53-0.46-5.02-1.28c-0.08-0.05-0.16-0.1-0.24-0.15l0.03,74.76l0,1.11l0.02,5.84
						l0,0.47c0,0.83,1.28,2.61,5.26,2.6c3.64-0.01,5.25-1.8,5.24-2.64l0-0.34l-0.02-5.96l0-1.11l-0.03-74.75c0,0,0,0,0,0
						C228.92,555.56,228.92,555.56,228.92,555.56z"/>
					<path class="st3" d="M234.02,546.6c-0.02-5.72-4.67-10.35-10.4-10.33c-5.72,0.02-10.35,4.67-10.33,10.4
						c0.01,3.77,2.04,7.05,5.05,8.85c0.02,0.01,0.04,0.03,0.07,0.04c0,0,0.01,0.01,0.01,0.01c0,0,0,0,0,0
						c0.08,0.05,0.16,0.1,0.24,0.15c1.49,0.82,3.2,1.29,5.02,1.28c1.77-0.01,3.44-0.46,4.89-1.25c0.09-0.05,0.17-0.1,0.26-0.15
						c0.02-0.01,0.05-0.03,0.07-0.04c0,0,0.01-0.01,0.01-0.01c0,0,0,0,0,0C231.99,553.74,234.04,550.41,234.02,546.6z"/>
				</g>
			</g>
			<g>
				<path class="st2" d="M216.93,531.38l11.29-4.7c1.06-0.24,2.4,0.79,3.1,2.46c0.7,1.67,0.5,3.35-0.42,3.93l-11.3,4.68
					c-1.05,0.2-2.36-0.83-3.04-2.47C215.87,533.64,216.06,531.99,216.93,531.38z"/>
			</g>
			<g>
				<path class="st0" d="M223.77,554.96c0-0.04-0.08-4.79-0.17-10.83c0,0,0,0,0,0l-0.35-21.93c-0.1-1.16-0.3-2.58-0.64-4.01
					c-0.04-0.2-0.1-0.4-0.15-0.61c-0.03-0.12-0.07-0.24-0.11-0.37c-0.06-0.2-0.11-0.4-0.19-0.61c-0.23-0.7-0.5-1.38-0.82-2.01
					c-2.5-4.86-6.57-7.6-9.87-7.55c-0.32,0-0.62,0.04-0.92,0.1c1.49-0.49,3.9-1.17,4.49-1.18c3.3-0.05,7.37,2.69,9.87,7.55
					c1.22,2.36,1.72,5.44,1.91,7.61l0.35,21.93c0,0,0,0,0,0c0.1,6.03,0.17,10.78,0.17,10.82c0.03,2.71-0.92,5.29-2.83,6.28
					c-0.45,0.23-2.46,0.87-3.97,1.26c0.14-0.05,0.28-0.11,0.41-0.18C222.85,560.26,223.8,557.67,223.77,554.96z"/>
				<path class="st1" d="M206.41,513.86c0,0.08,0.52,32.76,0.52,32.76c0.19,2.16,0.69,5.24,1.91,7.61c2.5,4.86,6.57,7.6,9.87,7.55
					c0.64-0.01,1.25-0.13,1.82-0.35c0.14-0.05,0.28-0.11,0.41-0.18c1.91-0.98,2.87-3.57,2.83-6.28c0-0.04-0.52-32.76-0.52-32.76
					c-0.1-1.16-0.3-2.58-0.64-4.01c-0.04-0.2-0.1-0.4-0.15-0.61c-0.03-0.12-0.07-0.24-0.11-0.37c-0.06-0.2-0.11-0.4-0.19-0.61
					c-0.23-0.7-0.5-1.38-0.82-2.01c-2.5-4.86-6.57-7.6-9.87-7.55c-0.32,0-0.62,0.04-0.92,0.1c-0.46,0.08-0.9,0.22-1.31,0.43
					C207.33,508.57,206.38,511.15,206.41,513.86z M212.4,545.32c1.96-0.96,4.83,0.88,6.41,4.11c1.58,3.23,1.27,6.63-0.69,7.59
					c-1.96,0.96-4.83-0.88-6.41-4.11C210.13,549.68,210.44,546.28,212.4,545.32z M216.91,538.67c-1.34,0.65-3.29-0.6-4.36-2.8
					c-1.07-2.2-0.86-4.51,0.47-5.16c1.34-0.65,3.29,0.6,4.36,2.8C218.46,535.71,218.25,538.02,216.91,538.67z M211.64,512.66
					c1.96-0.96,4.83,0.88,6.41,4.11c1.58,3.23,1.27,6.63-0.69,7.59c-1.96,0.96-4.83-0.88-6.41-4.11
					C209.36,517.02,209.67,513.62,211.64,512.66z"/>
				<path class="st0" d="M212.4,545.32c0.43-0.21,0.9-0.28,1.39-0.24c-0.66,1.53-0.5,3.85,0.6,6.11c1.24,2.53,3.26,4.2,5.02,4.35
					c-0.28,0.66-0.71,1.18-1.3,1.47c-1.96,0.96-4.83-0.88-6.41-4.11C210.13,549.68,210.44,546.28,212.4,545.32z"/>
				<path class="st1" d="M213.02,530.71c0.48-0.23,1.03-0.21,1.6,0c-0.17,0.99,0.02,2.24,0.61,3.46c0.69,1.41,1.74,2.43,2.76,2.8
					c-0.14,0.79-0.49,1.41-1.09,1.7c-1.34,0.65-3.29-0.6-4.36-2.8C211.47,533.67,211.69,531.36,213.02,530.71z"/>
				<path class="st0" d="M211.64,512.66c0.43-0.21,0.9-0.28,1.39-0.24c-0.66,1.53-0.5,3.85,0.6,6.11c1.24,2.53,3.26,4.2,5.02,4.35
					c-0.28,0.66-0.71,1.18-1.3,1.47c-1.96,0.96-4.83-0.88-6.41-4.11C209.36,517.02,209.67,513.62,211.64,512.66z"/>
			</g>
			<g>
				
					<ellipse transform="matrix(0.8948 -0.4465 0.4465 0.8948 -216.6477 152.3843)" class="st2" cx="215.03" cy="535.91" rx="3.79" ry="5.54"/>
				
					<ellipse transform="matrix(0.8948 -0.4465 0.4465 0.8948 -216.6672 152.3862)" class="st2" cx="215.02" cy="535.95" rx="1.04" ry="1.53"/>
			</g>
			<g>
				<path class="st2" d="M227.88,653.74l10.75-5.83c1.03-0.35,2.47,0.54,3.33,2.13c0.87,1.59,0.84,3.28-0.01,3.95l-10.76,5.82
					c-1.02,0.3-2.43-0.58-3.28-2.14C227.06,656.1,227.07,654.44,227.88,653.74z"/>
			</g>
			<g>
				<circle class="st3" cx="245.75" cy="660.58" r="10.37"/>
				<polygon class="st2" points="253.71,671.96 249.17,667.98 249.18,664.97 249.3,665.01 255.79,670.67 				"/>
				<path class="st2" d="M268.71,680.08l8.56-5.37c0.71-0.4,1.03-0.97,0.99-1.55c0.52,1.64,0.08,3.99-0.99,4.6l-8.56,5.37
					c-2.89,1.35-4.08,0.66-6.93-0.79l-10.81-5.62v-3.02l0.12,0.03l10.66,5.51C264.6,680.68,265.81,681.43,268.71,680.08z"/>
				<path class="st3" d="M249.3,665.01l6.49,5.66l-3.46,2.15l-1.36,0.84l0.01,0.01l0.11,0.06l10.66,5.51
					c2.85,1.45,4.06,2.2,6.96,0.85l8.56-5.37c0.71-0.4,1.03-0.97,0.99-1.55c-0.03-0.45-0.28-0.91-0.78-1.3
					c-0.22-0.17-0.46-0.33-0.77-0.47l-11.93-6.31l-3.78,2.3l-6.56-5.59l-5.27,3.15L249.3,665.01z M271.22,673.21
					c0.01,1.94-2.58,3.53-5.77,3.54c-3.2,0.01-5.8-1.55-5.81-3.49c-0.01-1.94,2.58-3.53,5.77-3.54
					C268.61,669.7,271.21,671.26,271.22,673.21z"/>
				<path class="st2" d="M271.22,673.21c0,0.57-0.22,1.11-0.62,1.59c-0.91-1.23-2.93-2.08-5.29-2.07c-2.26,0.01-4.2,0.8-5.15,1.95
					c-0.32-0.44-0.51-0.92-0.51-1.43c-0.01-1.94,2.58-3.53,5.77-3.54S271.21,671.26,271.22,673.21z"/>
			</g>
			<g>
				<path class="st0" d="M235.96,656.9c0.58-0.27,1.24-0.3,1.92-0.12c-0.82,1.51-0.73,3.98,0.4,6.38c1.08,2.3,2.81,3.9,4.43,4.33
					c-0.29,0.54-0.69,0.96-1.21,1.2c-1.98,0.93-4.82-0.95-6.35-4.21C233.62,661.22,233.98,657.83,235.96,656.9z"/>
				<path class="st0" d="M213.58,645.22c0.58-0.27,1.24-0.3,1.92-0.12c-0.82,1.51-0.73,3.98,0.4,6.38c1.08,2.3,2.81,3.9,4.43,4.33
					c-0.29,0.54-0.69,0.96-1.21,1.2c-1.98,0.93-4.82-0.95-6.35-4.21C211.24,649.54,211.6,646.15,213.58,645.22z"/>
				<path class="st0" d="M239.22,653.25c-1.89-0.56-6.78-1.41-11.05-3.49c-4.4-2.15-8.81-7.87-13.14-8.65
					c-2.01-0.36-3.41-0.16-4.4,0.31c1.56-1.48,4.13-2.88,8.05-2.17c4.33,0.78,8.74,6.51,13.14,8.65c4.27,2.09,9.19,2.85,11.05,3.49
					c4.15,1.43,7.51,4.33,7.72,9.64l0.08,13.49l-3.62,1.73l-0.1-13.36C246.73,657.58,243.01,654.38,239.22,653.25z"/>
				<path class="st1" d="M247.04,676.29l0-0.04l-0.1-13.36c-0.21-5.32-3.93-8.51-7.72-9.64c-1.89-0.56-6.78-1.41-11.05-3.49
					c-4.4-2.15-8.81-7.87-13.14-8.65c-2.01-0.36-3.41-0.16-4.4,0.31c-2.69,1.28-2.28,4.63-2.28,4.63l-0.05,9.96L247.04,676.29z
					 M235.96,656.9c1.98-0.93,4.82,0.95,6.35,4.21c1.53,3.25,1.17,6.65-0.81,7.58c-1.98,0.93-4.82-0.95-6.35-4.21
					C233.62,661.22,233.98,657.83,235.96,656.9z M219.12,657c-1.98,0.93-4.82-0.95-6.35-4.21c-1.53-3.25-1.17-6.65,0.81-7.58
					c1.98-0.93,4.82,0.95,6.35,4.21C221.46,652.68,221.1,656.07,219.12,657z M229.91,656.22c1.04,2.21,0.8,4.52-0.55,5.16
					c-1.35,0.63-3.28-0.65-4.32-2.86c-1.04-2.21-0.8-4.52,0.55-5.16S228.87,654.01,229.91,656.22z"/>
				<path class="st1" d="M225.59,653.36c0.48-0.23,1.04-0.2,1.6,0.02c-0.19,0.99-0.02,2.24,0.56,3.47c0.67,1.42,1.71,2.45,2.72,2.84
					c-0.15,0.79-0.51,1.41-1.11,1.69c-1.35,0.63-3.28-0.65-4.32-2.86C224,656.3,224.24,653.99,225.59,653.36z"/>
			</g>
			<g>
				
					<ellipse transform="matrix(0.9172 -0.3985 0.3985 0.9172 -243.3982 145.1574)" class="st2" cx="227.44" cy="658" rx="3.79" ry="5.54"/>
				
					<ellipse transform="matrix(0.9172 -0.3985 0.3985 0.9172 -243.4156 145.1577)" class="st2" cx="227.43" cy="658.05" rx="1.04" ry="1.53"/>
			</g>
		</g>
		<g>
			<path class="st0" d="M221.94,422.54c0-0.04,0.08-4.79,0.17-10.82c0,0,0,0,0,0l0.35-21.93c0.1-1.16,0.3-2.58,0.64-4.01
				c0.04-0.2,0.1-0.4,0.15-0.61c0.03-0.12,0.07-0.24,0.11-0.37c0.06-0.2,0.11-0.4,0.19-0.61c0.23-0.7,0.5-1.38,0.82-2.01
				c2.5-4.86,6.57-7.6,9.87-7.55c0.32,0,0.62,0.04,0.92,0.1c-1.49-0.49-3.9-1.17-4.49-1.18c-3.3-0.05-7.37,2.69-9.87,7.55
				c-1.22,2.36-1.72,5.44-1.91,7.61l-0.35,21.93c0,0,0,0,0,0c-0.1,6.03-0.17,10.78-0.17,10.82c-0.03,2.71,0.92,5.29,2.83,6.28
				c0.45,0.23,2.46,0.87,3.97,1.26c-0.14-0.05-0.28-0.11-0.41-0.18C222.86,427.83,221.9,425.24,221.94,422.54z"/>
			<path class="st1" d="M236.46,375.15c-0.41-0.21-0.85-0.35-1.31-0.43c-0.3-0.06-0.61-0.09-0.92-0.1c-3.3-0.05-7.37,2.69-9.87,7.55
				c-0.32,0.63-0.59,1.31-0.82,2.01c-0.08,0.21-0.12,0.41-0.19,0.61c-0.04,0.12-0.07,0.24-0.11,0.37c-0.05,0.2-0.11,0.41-0.15,0.61
				c-0.34,1.43-0.54,2.85-0.64,4.01c0,0-0.52,32.72-0.52,32.76c-0.03,2.71,0.92,5.29,2.83,6.28c0.13,0.07,0.27,0.12,0.41,0.18
				c0.57,0.22,1.18,0.34,1.82,0.35c3.3,0.05,7.37-2.69,9.87-7.55c1.22-2.36,1.72-5.44,1.91-7.61c0,0,0.52-32.68,0.52-32.76
				C239.33,378.73,238.37,376.14,236.46,375.15z M234,420.48c-1.58,3.23-4.45,5.07-6.41,4.11c-1.96-0.96-2.27-4.36-0.69-7.59
				c1.58-3.23,4.45-5.07,6.41-4.11C235.27,413.85,235.58,417.25,234,420.48z M228.32,401.08c1.07-2.2,3.03-3.45,4.36-2.8
				c1.34,0.65,1.55,2.96,0.47,5.16c-1.07,2.2-3.03,3.45-4.36,2.8C227.46,405.59,227.25,403.28,228.32,401.08z M234.76,387.82
				c-1.58,3.23-4.45,5.07-6.41,4.11c-1.96-0.96-2.27-4.36-0.69-7.59c1.58-3.23,4.45-5.07,6.41-4.11
				C236.03,381.19,236.34,384.59,234.76,387.82z"/>
			<path class="st0" d="M233.3,412.89c-0.43-0.21-0.9-0.28-1.39-0.24c0.66,1.53,0.5,3.85-0.6,6.11c-1.24,2.53-3.26,4.2-5.02,4.35
				c0.28,0.66,0.71,1.18,1.3,1.47c1.96,0.96,4.83-0.88,6.41-4.11C235.58,417.25,235.27,413.85,233.3,412.89z"/>
			<path class="st1" d="M232.69,398.28c-0.48-0.23-1.03-0.21-1.6,0c0.17,0.99-0.02,2.24-0.61,3.46c-0.69,1.41-1.74,2.43-2.76,2.8
				c0.14,0.79,0.49,1.41,1.09,1.7c1.34,0.65,3.29-0.6,4.36-2.8S234.02,398.93,232.69,398.28z"/>
			<path class="st0" d="M234.07,380.23c-0.43-0.21-0.9-0.28-1.39-0.24c0.66,1.53,0.5,3.85-0.6,6.11c-1.24,2.53-3.26,4.2-5.02,4.35
				c0.28,0.66,0.71,1.18,1.3,1.47c1.96,0.96,4.83-0.88,6.41-4.11C236.34,384.59,236.03,381.19,234.07,380.23z"/>
		</g>
		<g>
			
				<ellipse transform="matrix(0.4465 -0.8948 0.8948 0.4465 -233.3448 429.7461)" class="st2" cx="230.68" cy="403.48" rx="5.54" ry="3.79"/>
			
				<ellipse transform="matrix(0.4465 -0.8948 0.8948 0.4465 -233.3794 429.7747)" class="st2" cx="230.69" cy="403.52" rx="1.53" ry="1.04"/>
		</g>
	</g>
	<g>
		<path class="st0" d="M188.91,327.44c0-0.04-0.08-4.79-0.17-10.82c0,0,0,0,0,0l-0.35-21.93c-0.1-1.16-0.3-2.58-0.64-4.01
			c-0.04-0.2-0.1-0.4-0.15-0.61c-0.03-0.12-0.07-0.24-0.11-0.37c-0.06-0.2-0.11-0.4-0.19-0.61c-0.23-0.7-0.5-1.38-0.82-2.01
			c-2.5-4.86-6.57-7.6-9.87-7.55c-0.32,0-0.62,0.04-0.92,0.1c1.49-0.49,3.9-1.17,4.49-1.18c3.3-0.05,7.37,2.69,9.87,7.55
			c1.22,2.36,1.72,5.44,1.91,7.61l0.35,21.93c0,0,0,0,0,0c0.1,6.03,0.17,10.78,0.17,10.82c0.03,2.71-0.92,5.29-2.83,6.28
			c-0.45,0.23-2.46,0.87-3.97,1.26c0.14-0.05,0.28-0.11,0.41-0.18C187.99,332.73,188.94,330.14,188.91,327.44z"/>
		<path class="st1" d="M171.55,286.33c0,0.08,0.52,32.76,0.52,32.76c0.19,2.16,0.69,5.24,1.91,7.61c2.5,4.86,6.57,7.6,9.87,7.55
			c0.64-0.01,1.25-0.13,1.82-0.35c0.14-0.05,0.28-0.11,0.41-0.18c1.91-0.98,2.87-3.57,2.83-6.28c0-0.04-0.52-32.76-0.52-32.76
			c-0.1-1.16-0.3-2.58-0.64-4.01c-0.04-0.2-0.1-0.4-0.15-0.61c-0.03-0.12-0.07-0.24-0.11-0.37c-0.06-0.2-0.11-0.4-0.19-0.61
			c-0.23-0.7-0.5-1.38-0.82-2.01c-2.5-4.86-6.57-7.6-9.87-7.55c-0.32,0-0.62,0.04-0.92,0.1c-0.46,0.08-0.9,0.22-1.31,0.43
			C172.47,281.04,171.52,283.63,171.55,286.33z M177.54,317.8c1.96-0.96,4.83,0.88,6.41,4.11c1.58,3.23,1.27,6.63-0.69,7.59
			c-1.96,0.96-4.83-0.88-6.41-4.11C175.27,322.15,175.58,318.75,177.54,317.8z M182.05,311.14c-1.34,0.65-3.29-0.6-4.36-2.8
			s-0.86-4.51,0.47-5.16c1.34-0.65,3.29,0.6,4.36,2.8C183.6,308.18,183.39,310.49,182.05,311.14z M176.77,285.13
			c1.96-0.96,4.83,0.88,6.41,4.11c1.58,3.23,1.27,6.63-0.69,7.59c-1.96,0.96-4.83-0.88-6.41-4.11
			C174.5,289.49,174.81,286.09,176.77,285.13z"/>
		<path class="st0" d="M177.54,317.8c0.43-0.21,0.9-0.28,1.39-0.24c-0.66,1.53-0.5,3.85,0.6,6.11c1.24,2.53,3.26,4.2,5.02,4.35
			c-0.28,0.66-0.71,1.18-1.3,1.47c-1.96,0.96-4.83-0.88-6.41-4.11C175.27,322.15,175.58,318.76,177.54,317.8z"/>
		<path class="st1" d="M178.16,303.18c0.48-0.23,1.03-0.21,1.6,0c-0.17,0.99,0.02,2.24,0.61,3.46c0.69,1.41,1.74,2.43,2.76,2.8
			c-0.14,0.79-0.49,1.41-1.09,1.7c-1.34,0.65-3.29-0.6-4.36-2.8S176.82,303.84,178.16,303.18z"/>
		<path class="st0" d="M176.77,285.14c0.43-0.21,0.9-0.28,1.39-0.24c-0.66,1.53-0.5,3.85,0.6,6.11c1.24,2.53,3.26,4.2,5.02,4.35
			c-0.28,0.66-0.71,1.18-1.3,1.47c-1.96,0.96-4.83-0.88-6.41-4.11C174.5,289.49,174.81,286.09,176.77,285.14z"/>
	</g>
	<g>
		
			<ellipse transform="matrix(0.8948 -0.4465 0.4465 0.8948 -118.7302 112.8819)" class="st2" cx="180.16" cy="308.38" rx="3.79" ry="5.54"/>
		
			<ellipse transform="matrix(0.8948 -0.4465 0.4465 0.8948 -118.7497 112.8837)" class="st2" cx="180.16" cy="308.42" rx="1.04" ry="1.53"/>
	</g>
</g>
</svg>
