<svg xmlns="http://www.w3.org/2000/svg" viewBox="0 0 85.07 290.36"><defs><style>.cls-1{fill:#a1c5d3;}.cls-1,.cls-2,.cls-3,.cls-4,.cls-5{stroke:#000;stroke-linecap:round;stroke-linejoin:round;stroke-width:0.1px;}.cls-2{fill:#8baab9;}.cls-3{fill:#e6e7e8;}.cls-4{fill:#d1d3d4;}.cls-5{fill:#79949b;}</style></defs><g id="Layer_2" data-name="Layer 2"><g id="Layer_1-2" data-name="Layer 1"><path class="cls-1" d="M83.45,126.63s-.28-2.14-.64-4.83h0L81.53,112a11.5,11.5,0,0,0-.49-1.75,1.48,1.48,0,0,0-.1-.27l-.06-.16c0-.08-.07-.17-.12-.26a5,5,0,0,0-.47-.85c-1.36-2-3.32-3.06-4.79-2.87a2.71,2.71,0,0,0-.41.09,13.64,13.64,0,0,1,1.94-.76c1.48-.19,3.43.83,4.8,2.87a9.71,9.71,0,0,1,1.24,3.3l1.28,9.78h0c.35,2.68.63,4.8.63,4.82a3.05,3.05,0,0,1-.94,3,15.18,15.18,0,0,1-1.71.77,1,1,0,0,0,.17-.1A3.05,3.05,0,0,0,83.45,126.63Z"/><path class="cls-2" d="M73.59,109.16s1.91,14.6,1.91,14.6a9.51,9.51,0,0,0,1.24,3.3c1.37,2.05,3.32,3.06,4.79,2.87a2.34,2.34,0,0,0,.8-.25,1,1,0,0,0,.17-.1,3.05,3.05,0,0,0,1-3S81.53,112,81.53,112a11.5,11.5,0,0,0-.49-1.75,1.48,1.48,0,0,0-.1-.27l-.06-.16c0-.08-.07-.17-.12-.26a5,5,0,0,0-.47-.85c-1.36-2-3.32-3.06-4.79-2.87a2.71,2.71,0,0,0-.41.09,2.2,2.2,0,0,0-.56.26A3.05,3.05,0,0,0,73.59,109.16Zm4.28,13.75c.83-.53,2.21.14,3.08,1.5s.91,2.9.08,3.43-2.21-.15-3.08-1.51S77.05,123.43,77.87,122.91Zm-2-14.55c.83-.53,2.2.14,3.07,1.51s.91,2.89.08,3.42-2.2-.15-3.07-1.51S75,108.89,75.86,108.36Z"/><path class="cls-2" d="M77.87,122.91a1.18,1.18,0,0,1,.61-.18,3.45,3.45,0,0,0,.59,2.7,3.21,3.21,0,0,0,2.46,1.68,1.24,1.24,0,0,1-.5.73c-.83.53-2.21-.15-3.08-1.51S77.05,123.43,77.87,122.91Z"/><path class="cls-2" d="M75.86,108.36a1.18,1.18,0,0,1,.61-.18,3.44,3.44,0,0,0,.58,2.7,3.22,3.22,0,0,0,2.47,1.69,1.31,1.31,0,0,1-.51.72c-.82.53-2.2-.15-3.07-1.51S75,108.89,75.86,108.36Z"/><path class="cls-3" d="M75.85,116.57a4.61,4.61,0,0,0,2.07-.93l.1-.09,0,0h0a4.67,4.67,0,1,0-4.69.81l0,0h0l.12,0A4.68,4.68,0,0,0,75.85,116.57Z"/><path class="cls-4" d="M75.82,143.17v0c-1.14-5.48.48-7,2-8.15l-.41-3.68a4.57,4.57,0,0,1-1.65-.16l.29,3.71c-1.47,1.19-2.92,3-1.78,8.49v0a4.17,4.17,0,0,0,5.93,3l0,0C78.69,146.8,76.62,146.18,75.82,143.17Z"/><path class="cls-4" d="M82,133.28A1.94,1.94,0,0,0,80.1,133a2.71,2.71,0,0,0,.09.44A1.76,1.76,0,0,1,82,133.28Z"/><path class="cls-3" d="M79.54,130.57l.23-.17a4.67,4.67,0,1,0-4,.76,4.57,4.57,0,0,0,1.65.16A4.67,4.67,0,0,0,79.54,130.57Z"/><path class="cls-3" d="M82,133.28a1.76,1.76,0,0,0-1.78.19,2.71,2.71,0,0,1-.09-.44c-.08-.6-.22-1.71-.33-2.63l-.23.17a4.67,4.67,0,0,1-2.17.75l.41,3.68c-1.47,1.19-3.09,2.67-2,8.15v0c.8,3,2.87,3.63,4.37,3.16a1.66,1.66,0,0,0,.31-.12c1.63-.71,3.33-4,2.88-8.51v.05C83.13,135,82.66,133.71,82,133.28Zm-.49,7.89c-.49,1.54-1.65,2.54-2.59,2.24s-1.29-1.79-.8-3.33,1.66-2.54,2.59-2.24S82,139.63,81.48,141.17Z"/><path class="cls-4" d="M80.68,137.85a1.16,1.16,0,0,0-.64,0,3.41,3.41,0,0,1,.13,2.76,3.24,3.24,0,0,1-2,2.26,1.28,1.28,0,0,0,.67.57c.93.3,2.09-.7,2.59-2.24S81.61,138.15,80.68,137.85Z"/><path class="cls-4" d="M73.09,119.75,78,116.9c.47-.18,1.14.21,1.57.93a1.52,1.52,0,0,1,0,1.82l-4.86,2.84c-.46.15-1.12-.23-1.54-.94A1.53,1.53,0,0,1,73.09,119.75Z"/><path class="cls-3" d="M73.4,83.43l0,0-.11.08a4.82,4.82,0,0,1-2.18.9,4.89,4.89,0,0,1-2.41-.27l-.12,0,3,21.3.07.52.39,2.69,0,.22c0,.38.76,1.12,2.6.86,1.68-.25,2.31-1.18,2.25-1.56l0-.16-.4-2.75-.07-.52-3-21.29Z"/><path class="cls-1" d="M78.27,90.29,76.41,75.85a12.29,12.29,0,0,0-.47-1.73c0-.09-.07-.17-.1-.26l-.07-.16a1.36,1.36,0,0,0-.11-.25,5,5,0,0,0-.46-.85c-1.34-2-3.26-3-4.7-2.83a2.35,2.35,0,0,0-.4.09A12.55,12.55,0,0,1,72,69.12c1.45-.18,3.37.82,4.71,2.83a9.67,9.67,0,0,1,1.21,3.25l1.84,14.19Z"/><path class="cls-2" d="M68.61,73s1.84,14.37,1.84,14.37l7.81,2.9L76.41,75.85a12.29,12.29,0,0,0-.47-1.73c0-.09-.07-.17-.1-.26l-.07-.16a1.36,1.36,0,0,0-.11-.25,5,5,0,0,0-.46-.85c-1.34-2-3.26-3-4.7-2.83a2.35,2.35,0,0,0-.4.09,1.91,1.91,0,0,0-.56.26A3,3,0,0,0,68.61,73Zm2.23-.78c.82-.52,2.17.15,3,1.49s.89,2.85.07,3.37-2.17-.15-3-1.49S70,72.75,70.84,72.23Z"/><path class="cls-2" d="M70.84,72.23a1.13,1.13,0,0,1,.6-.17A3.4,3.4,0,0,0,72,74.71a3.17,3.17,0,0,0,2.42,1.67,1.23,1.23,0,0,1-.5.71c-.81.52-2.17-.15-3-1.49S70,72.75,70.84,72.23Z"/><path class="cls-3" d="M70.64,80.61a4.62,4.62,0,0,0,2.11-.83l.11-.09,0,0h0a4.66,4.66,0,1,0-4.72.59l0,0h0l.11,0A4.77,4.77,0,0,0,70.64,80.61Z"/><polygon class="cls-4" points="71.58 91.32 77.77 87.71 77.78 87.71 78.02 89.64 71.8 93.27 71.83 93.25 71.58 91.32"/><polygon class="cls-3" points="71.56 91.34 71.58 91.32 71.83 93.25 71.8 93.27 64.86 90.71 64.64 88.79 71.56 91.34"/><path class="cls-3" d="M70.37,85l-5.85,3.44.12.33,6.92,2.55,0,0,6.18-3.61Zm.8,4.4C70,89.52,69,89,68.89,88.29s.86-1.41,2.06-1.51,2.22.4,2.28,1.13S72.37,89.31,71.17,89.42Z"/><path class="cls-4" d="M69.35,89a2.62,2.62,0,0,1,1.78-.78,2.74,2.74,0,0,1,1.83.41,1,1,0,0,0,.27-.73c-.06-.73-1.09-1.24-2.28-1.13s-2.12.78-2.06,1.51A1,1,0,0,0,69.35,89Z"/><path class="cls-4" d="M68.61,83.71,73.42,81c.46-.17,1.12.22,1.53.93a1.48,1.48,0,0,1,0,1.79l-4.8,2.74c-.46.15-1.11-.23-1.51-.93A1.52,1.52,0,0,1,68.61,83.71Z"/><path class="cls-1" d="M77.52,129.92s-.28-2.14-.63-4.82h0l-1.28-9.78a11.29,11.29,0,0,0-.49-1.76c0-.09-.06-.18-.1-.27l-.06-.15c0-.09-.07-.18-.12-.27a5.79,5.79,0,0,0-.47-.85c-1.37-2-3.32-3.06-4.79-2.87a2.71,2.71,0,0,0-.41.09,15,15,0,0,1,1.94-.76c1.47-.19,3.43.83,4.8,2.87a9.92,9.92,0,0,1,1.24,3.3l1.28,9.78h0c.35,2.69.63,4.8.63,4.82a3.06,3.06,0,0,1-.94,2.95,14.25,14.25,0,0,1-1.71.77,1,1,0,0,0,.17-.1A3.05,3.05,0,0,0,77.52,129.92Z"/><path class="cls-2" d="M67.66,112.45s1.92,14.61,1.92,14.61a9.66,9.66,0,0,0,1.24,3.3c1.36,2,3.32,3,4.79,2.86a2.34,2.34,0,0,0,.8-.25,1,1,0,0,0,.17-.1,3.05,3.05,0,0,0,.94-3s-1.91-14.6-1.91-14.6a11.29,11.29,0,0,0-.49-1.76c0-.09-.06-.18-.1-.27l-.06-.15c0-.09-.07-.18-.12-.27a5.79,5.79,0,0,0-.47-.85c-1.37-2-3.32-3.06-4.79-2.87a2.71,2.71,0,0,0-.41.09,2.2,2.2,0,0,0-.56.26A3.05,3.05,0,0,0,67.66,112.45ZM72,126.2c.83-.53,2.21.14,3.08,1.51s.9,2.89.08,3.42S72.9,131,72,129.62,71.12,126.73,72,126.2Zm1.68-3.2c-.57.36-1.5-.1-2.1-1s-.61-2,0-2.33,1.5.1,2.09,1S74.19,122.64,73.63,123Zm-3.69-11.35c.82-.53,2.2.15,3.07,1.51s.91,2.89.08,3.42-2.2-.14-3.07-1.51S69.11,112.18,69.94,111.65Z"/><path class="cls-1" d="M72,126.2a1.18,1.18,0,0,1,.61-.18,3.44,3.44,0,0,0,.58,2.7,3.22,3.22,0,0,0,2.47,1.69,1.25,1.25,0,0,1-.5.72c-.83.53-2.21-.15-3.08-1.51S71.12,126.73,72,126.2Z"/><path class="cls-2" d="M71.48,119.64a.91.91,0,0,1,.71-.09,2.71,2.71,0,0,0,.46,1.52A2.51,2.51,0,0,0,74,122.18a1,1,0,0,1-.39.82c-.57.36-1.5-.1-2.1-1S70.92,120,71.48,119.64Z"/><path class="cls-1" d="M69.94,111.65a1.15,1.15,0,0,1,.61-.18,3.44,3.44,0,0,0,.58,2.7,3.22,3.22,0,0,0,2.46,1.69,1.22,1.22,0,0,1-.5.72c-.83.53-2.2-.14-3.07-1.51S69.11,112.18,69.94,111.65Z"/><ellipse class="cls-4" cx="72.72" cy="121.67" rx="1.74" ry="2.55" transform="translate(-56.66 63.78) rotate(-35.03)"/><ellipse class="cls-4" cx="72.72" cy="121.69" rx="0.48" ry="0.7" transform="translate(-56.67 63.78) rotate(-35.03)"/><path class="cls-3" d="M70.61,40.87l0,0-.12.09a4.16,4.16,0,0,1-2.26.81,4,4,0,0,1-2.36-.68L65.72,41l.93,27,0,.65.13,3.41v.27c0,.49.65,1.51,2.5,1.44,1.7-.06,2.41-1.13,2.39-1.62V72l-.13-3.49,0-.65-.93-27h0Z"/><path class="cls-1" d="M13.84,154.84s0-2.16.06-4.87h0l.11-9.86a13.37,13.37,0,0,0-.23-1.81l-.06-.27-.05-.17c0-.09,0-.18-.07-.28a7.13,7.13,0,0,0-.35-.91c-1.06-2.22-2.86-3.5-4.34-3.51a2,2,0,0,0-.42,0,13.12,13.12,0,0,1,2-.48c1.49,0,3.28,1.3,4.35,3.52a9.91,9.91,0,0,1,.76,3.44l-.11,9.86h0c0,2.71,0,4.85,0,4.87a3.06,3.06,0,0,1-1.35,2.78,15.52,15.52,0,0,1-1.8.52l.18-.07A3.07,3.07,0,0,0,13.84,154.84Z"/><path class="cls-2" d="M6.55,136.15s-.17,14.73-.17,14.73a9.69,9.69,0,0,0,.76,3.44c1.07,2.22,2.86,3.5,4.34,3.52a2.3,2.3,0,0,0,.83-.14l.18-.07a3.07,3.07,0,0,0,1.35-2.79s.17-14.73.17-14.73a13.37,13.37,0,0,0-.23-1.81l-.06-.27-.05-.17c0-.09,0-.18-.07-.28a7.13,7.13,0,0,0-.35-.91c-1.06-2.22-2.86-3.5-4.34-3.51a2,2,0,0,0-.42,0,2.11,2.11,0,0,0-.59.18A3,3,0,0,0,6.55,136.15Zm2.3,14.22c.9-.41,2.16.45,2.83,1.92s.49,3-.4,3.4-2.16-.45-2.83-1.92S8,150.77,8.85,150.37Zm.06-14.69c.9-.41,2.16.46,2.83,1.93s.49,3-.4,3.4-2.16-.46-2.83-1.93S8,136.09,8.91,135.68Z"/><path class="cls-2" d="M8.85,150.37a1.13,1.13,0,0,1,.63-.09A3.46,3.46,0,0,0,9.67,153a3.25,3.25,0,0,0,2.21,2,1.25,1.25,0,0,1-.6.64c-.9.41-2.16-.45-2.83-1.92S8,150.77,8.85,150.37Z"/><path class="cls-2" d="M8.91,135.68a1.23,1.23,0,0,1,.63-.09,3.49,3.49,0,0,0,.19,2.76,3.23,3.23,0,0,0,2.21,2,1.28,1.28,0,0,1-.6.65c-.9.4-2.16-.46-2.83-1.93S8,136.09,8.91,135.68Z"/><path class="cls-3" d="M7.74,143.81a4.66,4.66,0,0,0,2.19-.64l.11-.07,0,0h0a4.67,4.67,0,1,0-4.76.14l0,0h0l.12.06A4.59,4.59,0,0,0,7.74,143.81Z"/><path class="cls-4" d="M4,170.14v0c-.34-5.59,1.46-6.82,3.09-7.79l.11-3.7a4.71,4.71,0,0,1-1.61-.4L5.32,162c-1.63,1-3.32,2.56-3,8.15v0a4.17,4.17,0,0,0,5.45,3.78l0,0C6.28,174.14,4.32,173.23,4,170.14Z"/><path class="cls-4" d="M11.44,161.21a1.93,1.93,0,0,0-1.81-.51,2.28,2.28,0,0,0,0,.45A1.77,1.77,0,0,1,11.44,161.21Z"/><path class="cls-3" d="M9.41,158.19l.26-.14a4.67,4.67,0,1,0-4.12.18,4.56,4.56,0,0,0,3.86,0Z"/><path class="cls-3" d="M11.44,161.21a1.77,1.77,0,0,0-1.79-.06,2.28,2.28,0,0,1,0-.45c0-.61,0-1.72,0-2.65l-.26.14a4.7,4.7,0,0,1-2.25.44l-.11,3.7c-1.63,1-3.43,2.2-3.09,7.79v0c.37,3.09,2.33,4,3.89,3.74l.32-.07c1.71-.48,3.86-3.48,4.05-8l0,0C12.34,163.1,12.07,161.73,11.44,161.21ZM9.84,169c-.71,1.46-2,2.29-2.88,1.86s-1-2-.32-3.41,2-2.29,2.88-1.86S10.55,167.5,9.84,169Z"/><path class="cls-4" d="M9.52,165.55a1.23,1.23,0,0,0-.63-.1,3.47,3.47,0,0,1-.26,2.75,3.27,3.27,0,0,1-2.26,2,1.28,1.28,0,0,0,.59.66c.88.43,2.17-.4,2.88-1.86S10.4,166,9.52,165.55Z"/><path class="cls-4" d="M4.57,146.57l5.21-2.14c.48-.11,1.1.37,1.42,1.14a1.51,1.51,0,0,1-.2,1.81l-5.22,2.13c-.48.08-1.08-.39-1.39-1.15A1.51,1.51,0,0,1,4.57,146.57Z"/><path class="cls-1" d="M48.77,104.17s0-2.19,0-4.94h0l0-10a12.79,12.79,0,0,0-.27-1.84c0-.09,0-.18-.06-.28s0-.11,0-.16,0-.19-.08-.28a5.81,5.81,0,0,0-.37-.93c-1.12-2.23-3-3.5-4.47-3.5a3,3,0,0,0-.42,0A14.23,14.23,0,0,1,45,81.75c1.51,0,3.35,1.26,4.47,3.5a10.07,10.07,0,0,1,.83,3.48l0,10h0c0,2.75,0,4.92,0,4.94a3.11,3.11,0,0,1-1.32,2.86,16.19,16.19,0,0,1-1.82.55l.18-.08A3.1,3.1,0,0,0,48.77,104.17Z"/><path class="cls-2" d="M41.06,85.31s.06,15,.06,15a10.07,10.07,0,0,0,.83,3.48c1.12,2.24,3,3.51,4.47,3.5a2.32,2.32,0,0,0,.84-.15l.18-.08a3.1,3.1,0,0,0,1.33-2.85s-.07-15-.07-15a12.79,12.79,0,0,0-.27-1.84c0-.09,0-.18-.06-.28s0-.11,0-.16,0-.19-.08-.28a5.81,5.81,0,0,0-.37-.93c-1.12-2.23-3-3.5-4.47-3.5a3,3,0,0,0-.42,0,2.47,2.47,0,0,0-.6.19A3.11,3.11,0,0,0,41.06,85.31Zm2.57,14.4c.9-.43,2.2.42,2.9,1.91s.55,3-.35,3.46-2.2-.43-2.91-1.91S42.73,100.13,43.63,99.71Zm-.18-14.92c.9-.43,2.2.43,2.91,1.91s.54,3-.36,3.46-2.2-.43-2.91-1.91S42.55,85.21,43.45,84.79Z"/><path class="cls-2" d="M43.63,99.71a1,1,0,0,1,.63-.1,3.48,3.48,0,0,0,.25,2.79,3.24,3.24,0,0,0,2.27,2,1.32,1.32,0,0,1-.6.67c-.9.43-2.2-.43-2.91-1.91S42.73,100.13,43.63,99.71Z"/><path class="cls-2" d="M43.45,84.79a1.06,1.06,0,0,1,.63-.1,3.52,3.52,0,0,0,.25,2.79,3.24,3.24,0,0,0,2.27,2,1.28,1.28,0,0,1-.6.67c-.9.43-2.2-.43-2.91-1.91S42.55,85.21,43.45,84.79Z"/><path class="cls-3" d="M10,110.66l0,0-.13.07a4.85,4.85,0,0,1-4.62,0l-.11-.07,0,21.52v3.46c0,.39.6,1.22,2.45,1.21,1.7,0,2.45-.83,2.45-1.22v-3.46l0-21.51h0Z"/><path class="cls-1" d="M13.85,118.13l.21-14.55a12.6,12.6,0,0,0-.23-1.78l-.06-.27c0-.06,0-.11,0-.17s-.05-.18-.08-.27a6.41,6.41,0,0,0-.33-.9c-1-2.18-2.8-3.44-4.26-3.47a2.73,2.73,0,0,0-.41,0,14.35,14.35,0,0,1,2-.46c1.46,0,3.22,1.29,4.26,3.47a9.88,9.88,0,0,1,.74,3.38l-.18,14.31Z"/><path class="cls-2" d="M6.73,99.66s-.21,14.48-.21,14.48l7.33,4,.21-14.54a12.6,12.6,0,0,0-.23-1.78l-.06-.27c0-.06,0-.11,0-.17s-.05-.18-.08-.27a6.41,6.41,0,0,0-.33-.9c-1-2.18-2.8-3.44-4.26-3.47a2.73,2.73,0,0,0-.41,0,2.3,2.3,0,0,0-.58.18A3,3,0,0,0,6.73,99.66Zm2.32-.46c.88-.39,2.13.46,2.78,1.91s.47,2.94-.41,3.34-2.12-.45-2.77-1.9S8.17,99.6,9.05,99.2Z"/><path class="cls-2" d="M9.05,99.2a1.2,1.2,0,0,1,.62-.08,3.41,3.41,0,0,0,.19,2.71,3.17,3.17,0,0,0,2.16,2,1.27,1.27,0,0,1-.6.63c-.87.4-2.12-.45-2.77-1.9S8.17,99.6,9.05,99.2Z"/><path class="cls-3" d="M7.67,107.47a4.6,4.6,0,0,0,2.21-.53l.12-.06,0,0h0a4.66,4.66,0,1,0-4.76-.08l0,0h0l.11.07A4.61,4.61,0,0,0,7.67,107.47Z"/><polygon class="cls-4" points="7.09 118.21 13.72 115.51 13.74 115.51 13.7 117.45 7.03 120.17 7.06 120.16 7.09 118.21"/><polygon class="cls-3" points="7.06 118.22 7.09 118.21 7.06 120.16 7.03 120.17 0.52 116.66 0.57 114.72 7.06 118.22"/><path class="cls-3" d="M6.77,111.8.5,114.38l.07.34,6.49,3.5h0l6.63-2.7ZM7,116.26c-1.2-.06-2.14-.71-2.1-1.44s1.05-1.27,2.25-1.2,2.14.71,2.1,1.44S8.16,116.33,7,116.26Z"/><path class="cls-4" d="M5.2,115.6a2.74,2.74,0,0,1,1.88-.52,2.82,2.82,0,0,1,1.75.66,1,1,0,0,0,.37-.68c0-.73-.9-1.37-2.1-1.44s-2.21.47-2.25,1.2A1,1,0,0,0,5.2,115.6Z"/><path class="cls-4" d="M5.22,110.25l5.15-2c.48-.1,1.08.38,1.38,1.14a1.48,1.48,0,0,1-.21,1.77l-5.15,2c-.48.08-1.06-.39-1.36-1.14A1.51,1.51,0,0,1,5.22,110.25Z"/><path class="cls-1" d="M51.7,34.29s0,13.3,0,13.32A2.77,2.77,0,0,0,53,50.16l.17.07a2.11,2.11,0,0,0,.75.12c1.35,0,3-1.15,4-3.16a8.89,8.89,0,0,0,.72-3.13l0-13.4Zm5,12.38C56,48,54.88,48.78,54.07,48.41s-1-1.77-.34-3.1,1.78-2.11,2.59-1.73S57.28,45.34,56.66,46.67Z"/><path class="cls-2" d="M51.75,47.61s0-13.32,0-13.32l6.81-3.62-1.4-.59-6.94,3.57s0,13.41,0,13.43a3,3,0,0,0,1.28,2.66,14.7,14.7,0,0,0,1.67.49L53,50.16A2.77,2.77,0,0,1,51.75,47.61Z"/><line class="cls-2" x1="50.22" y1="33.65" x2="51.7" y2="34.29"/><path class="cls-1" d="M56.32,43.58a1.11,1.11,0,0,0-.57-.09,3.15,3.15,0,0,1-.2,2.51,2.94,2.94,0,0,1-2,1.82,1.2,1.2,0,0,0,.54.59c.81.37,2-.4,2.59-1.74S57.13,44,56.32,43.58Z"/><polygon class="cls-4" points="57.56 50.2 54.29 55.38 55.3 56.95 58.42 51.38 57.56 50.2"/><polygon class="cls-3" points="57.56 50.18 54.36 50.64 51.93 54.69 50.32 54.92 46.79 60.85 53.4 59.84 55.04 54.25 57.56 50.18"/><circle class="cls-3" cx="57.54" cy="47.46" r="4.51"/><line class="cls-3" x1="52.52" y1="57" x2="53.25" y2="58.2"/><path class="cls-2" d="M62.69,43.05l-.54-13.46a10.5,10.5,0,0,1,.17-1.65c0-.08,0-.17,0-.25s0-.11,0-.16,0-.16.06-.25a6,6,0,0,1,.29-.84c.91-2,2.51-3.25,3.86-3.31a1.62,1.62,0,0,1,.38,0,11.69,11.69,0,0,0-1.86-.38c-1.35.05-2.95,1.27-3.86,3.31a8.76,8.76,0,0,0-.6,3.15l.51,13.23Z"/><path class="cls-1" d="M67.53,23.29a2,2,0,0,0-.54-.14,1.62,1.62,0,0,0-.38,0c-1.35.06-3,1.27-3.86,3.31a6,6,0,0,0-.29.84c0,.09,0,.17-.06.25s0,.11,0,.16,0,.17,0,.25a10.5,10.5,0,0,0-.17,1.65L62.69,43l6.68-3.86s-.54-13.35-.54-13.39A2.8,2.8,0,0,0,67.53,23.29Zm-.4,5.22c-.57,1.35-1.7,2.17-2.53,1.83s-1-1.73-.45-3.09,1.7-2.17,2.52-1.82S67.7,27.15,67.13,28.51Z"/><path class="cls-2" d="M66.67,25.43a1,1,0,0,0-.57-.07A3.17,3.17,0,0,1,66,27.87,2.9,2.9,0,0,1,64,29.76a1.17,1.17,0,0,0,.56.58c.83.34,2-.48,2.53-1.83S67.49,25.77,66.67,25.43Z"/><polygon class="cls-4" points="68.95 42.96 62.74 40.63 62.73 40.63 62.81 42.42 69.05 44.77 69.02 44.76 68.95 42.96"/><polygon class="cls-3" points="68.98 42.97 68.95 42.96 69.02 44.76 69.05 44.77 74.99 41.37 74.9 39.58 68.98 42.97"/><path class="cls-3" d="M62.75,40.62,69,43h0l5.92-3.39,0-.32L69.09,37Zm4.17-.52c-.06-.67.8-1.29,1.91-1.38s2,.38,2.11,1.05-.8,1.3-1.91,1.39S67,40.78,66.92,40.1Z"/><path class="cls-4" d="M70.63,40.5a2.52,2.52,0,0,0-1.75-.43,2.56,2.56,0,0,0-1.6.65.9.9,0,0,1-.36-.62c-.06-.67.8-1.29,1.91-1.38s2,.38,2.11,1.05A1,1,0,0,1,70.63,40.5Z"/><path class="cls-4" d="M70.48,35.55l-4.81-1.77c-.44-.08-1,.37-1.25,1.08a1.37,1.37,0,0,0,.24,1.64l4.81,1.77c.45.06,1-.39,1.23-1.09A1.4,1.4,0,0,0,70.48,35.55Z"/><path class="cls-4" d="M60.32,40.56l-4.73-2c-.44-.1-1,.33-1.3,1s-.21,1.4.17,1.64l4.73,2c.44.08,1-.35,1.28-1A1.42,1.42,0,0,0,60.32,40.56Z"/><circle class="cls-3" cx="68.14" cy="29.03" r="4.51"/><polygon class="cls-4" points="66.73 31.38 61.24 34.1 62.74 34.97 66.85 32.84 66.73 31.38"/><polygon class="cls-4" points="52.02 34.88 52.02 36.28 58.11 38.86 64.21 35.73 64.21 34.29 64.16 34.24 52.02 34.88"/><polygon class="cls-3" points="66.74 31.36 63.76 30.09 59.58 32.29 58.09 31.65 51.99 34.88 58.16 37.46 64.21 34.29 62.47 33.53 66.74 31.36"/><line class="cls-3" x1="58.15" y1="37.42" x2="58.15" y2="38.83"/><path class="cls-1" d="M57.51,36.83l.05,13.31a2.77,2.77,0,0,0,1.2,2.55l.17.07a2.11,2.11,0,0,0,.75.13c1.35,0,3-1.16,4-3.17a8.84,8.84,0,0,0,.72-3.12l0-13.4Zm5,12.38c-.62,1.33-1.78,2.11-2.59,1.73s-1-1.76-.34-3.1,1.78-2.11,2.59-1.73S63.09,47.87,62.47,49.21ZM60,41.77c.42-.91,1.21-1.44,1.76-1.18s.66,1.2.24,2.11-1.21,1.43-1.76,1.18S59.58,42.68,60,41.77Z"/><path class="cls-2" d="M57.56,50.14l0-13.31,6.81-3.63-1.4-.59L56,36.19s0,13.41,0,13.43a3,3,0,0,0,1.28,2.65,12.85,12.85,0,0,0,1.67.49l-.17-.07A2.77,2.77,0,0,1,57.56,50.14Z"/><path class="cls-1" d="M61.76,40.59a.82.82,0,0,0-.65,0A2.41,2.41,0,0,1,60.89,42a2.31,2.31,0,0,1-1.11,1.17.9.9,0,0,0,.46.69c.55.25,1.34-.27,1.76-1.18S62.32,40.85,61.76,40.59Z"/><line class="cls-2" x1="56.03" y1="36.19" x2="57.51" y2="36.83"/><path class="cls-2" d="M62.13,46.11a1,1,0,0,0-.57-.08,3.12,3.12,0,0,1-.2,2.5,2.94,2.94,0,0,1-2,1.82,1.12,1.12,0,0,0,.54.59c.81.38,2-.4,2.59-1.73S62.94,46.49,62.13,46.11Z"/><polygon class="cls-4" points="58.62 37.03 63.22 34.59 63.22 36.47 58.63 38.91 58.62 37.03"/><ellipse class="cls-4" cx="60.89" cy="42.24" rx="2.32" ry="1.59" transform="translate(-4.63 76.88) rotate(-62.62)"/><ellipse class="cls-4" cx="60.89" cy="42.26" rx="0.64" ry="0.44" transform="translate(-4.64 76.89) rotate(-62.62)"/><path class="cls-2" d="M68.61,45.54l-.54-13.46a10.62,10.62,0,0,1,.17-1.66c0-.08,0-.16.05-.25l0-.15.06-.25a6.91,6.91,0,0,1,.29-.84c.91-2.05,2.51-3.26,3.86-3.31a2.38,2.38,0,0,1,.38,0,14.52,14.52,0,0,0-1.86-.38c-1.35.06-3,1.27-3.86,3.32a9,9,0,0,0-.6,3.15L67.1,45Z"/><path class="cls-1" d="M73.45,25.78a2,2,0,0,0-.54-.15,2.38,2.38,0,0,0-.38,0c-1.35.05-3,1.26-3.86,3.31a6.91,6.91,0,0,0-.29.84l-.06.25,0,.15c0,.09,0,.17-.05.25a10.62,10.62,0,0,0-.17,1.66l.54,13.45,6.69-3.86s-.54-13.36-.55-13.39A2.75,2.75,0,0,0,73.45,25.78ZM70.73,36.56c.38-.93,1.15-1.48,1.71-1.25s.7,1.18.32,2.1S71.6,38.89,71,38.66,70.34,37.48,70.73,36.56ZM73.05,31c-.57,1.36-1.7,2.18-2.52,1.83s-1-1.73-.46-3.08,1.7-2.18,2.52-1.83S73.62,29.64,73.05,31Z"/><path class="cls-2" d="M72.44,35.31a.83.83,0,0,0-.65,0,2.39,2.39,0,0,1-.17,1.43A2.24,2.24,0,0,1,70.56,38a.91.91,0,0,0,.48.68c.56.23,1.33-.33,1.72-1.25S73,35.55,72.44,35.31Z"/><path class="cls-2" d="M72.59,27.91a1.1,1.1,0,0,0-.57-.06,3.16,3.16,0,0,1-.1,2.51,2.94,2.94,0,0,1-2,1.89,1.17,1.17,0,0,0,.57.57c.82.35,2-.47,2.52-1.83S73.42,28.26,72.59,27.91Z"/><polygon class="cls-4" points="69.65 42.27 74.15 39.66 74.23 41.54 69.72 44.14 69.65 42.27"/><ellipse class="cls-4" cx="71.73" cy="36.81" rx="2.32" ry="1.59" transform="translate(12.19 91.17) rotate(-69.56)"/><ellipse class="cls-4" cx="71.73" cy="36.83" rx="0.64" ry="0.44" transform="translate(12.17 91.18) rotate(-69.56)"/><path class="cls-2" d="M25.82,65.15l5.06-9.36a4.45,4.45,0,0,1,1.85-1.51l13.35-6.93a.79.79,0,0,1,.75,0,2.59,2.59,0,0,0-2.5-.79L31.44,53.2a4.68,4.68,0,0,0-2,1.88l-5.06,9.36s-1.15,2.33-.18,3.29a7.48,7.48,0,0,0,1.9,1.2C24.44,67.87,25.82,65.15,25.82,65.15Z"/><path class="cls-2" d="M40.64,63.34a1.23,1.23,0,0,0-.63-.1A3.44,3.44,0,0,1,39.77,66a3.26,3.26,0,0,1-2.24,2,1.22,1.22,0,0,0,.59.65c.88.43,2.17-.42,2.86-1.88S41.52,63.77,40.64,63.34Z"/><path class="cls-2" d="M40.23,52.25a1.18,1.18,0,0,0-.62-.1,3.46,3.46,0,0,1-.25,2.75,3.17,3.17,0,0,1-2.24,2,1.28,1.28,0,0,0,.59.66c.89.42,2.17-.42,2.87-1.88S41.12,52.67,40.23,52.25Z"/><path class="cls-1" d="M51.51,54.18c-.36-1.37-4.12-6.26-4.12-6.26a1.45,1.45,0,0,0-.56-.57.79.79,0,0,0-.75,0L32.73,54.28a4.45,4.45,0,0,0-1.85,1.51l-5.06,9.36s-1.38,2.72.32,3.78l11.12,2.5s1.6.86,4.41-2.14l8.55-11.06S52,55.92,51.51,54.18ZM41,66.75c-.7,1.46-2,2.3-2.87,1.87s-1-1.94-.34-3.41,2-2.3,2.86-1.87S41.68,65.28,41,66.75Zm-.41-11.09c-.69,1.46-2,2.3-2.86,1.87s-1-1.94-.35-3.41,2-2.3,2.87-1.88S41.28,54.19,40.58,55.66Z"/><polygon class="cls-4" points="46.02 57.42 47.73 52.68 49.42 53.42 47.72 58.16 46.02 57.42"/><path class="cls-3" d="M27.18,62.69l5.93,3.93c.07-1.11,1.86.19,2.68-.62l-6.4-4.39Z"/><path class="cls-3" d="M13.59,67.53l0,0a.57.57,0,0,1-.13.08,3.91,3.91,0,0,1-2.34.5,4,4,0,0,1-2.25-1L8.72,67l-2.9,27.5-.07.66-.36,3.49,0,.28c-.05.49.43,1.62,2.28,1.81,1.69.17,2.55-.82,2.6-1.32l0-.2.37-3.56.06-.66,2.91-27.5h0Z"/><path class="cls-2" d="M4.88,66.34,6.5,51.61A12.79,12.79,0,0,1,7,49.84L7,49.58a.77.77,0,0,1,.07-.16c0-.09.06-.18.1-.27a7.82,7.82,0,0,1,.46-.86c1.32-2.08,3.26-3.13,4.73-3a1.75,1.75,0,0,1,.41.08,13.26,13.26,0,0,0-2-.72c-1.47-.16-3.41.9-4.73,3A9.82,9.82,0,0,0,4.94,51L3.33,65.46Z"/><path class="cls-1" d="M13.38,45.65a2.24,2.24,0,0,0-.57-.25,1.75,1.75,0,0,0-.41-.08c-1.47-.16-3.41.89-4.73,3a7.82,7.82,0,0,0-.46.86c0,.09-.07.18-.1.27a.77.77,0,0,0-.07.16L7,49.84a12.79,12.79,0,0,0-.45,1.77L4.89,66.33l7.9-3.1s1.59-14.62,1.6-14.65A3.07,3.07,0,0,0,13.38,45.65Zm-1.29,5.6c-.84,1.38-2.21,2.09-3,1.58s-.84-2,0-3.43,2.21-2.09,3-1.58S12.93,49.87,12.09,51.25Z"/><path class="cls-2" d="M12.1,47.82a1.19,1.19,0,0,0-.62-.16A3.41,3.41,0,0,1,11,50.37a3.2,3.2,0,0,1-2.43,1.74,1.25,1.25,0,0,0,.52.72c.83.51,2.2-.2,3-1.58S12.94,48.34,12.1,47.82Z"/><polygon class="cls-4" points="11.7 67.27 5.34 63.71 5.33 63.71 5.12 65.68 11.52 69.25 11.49 69.24 11.7 67.27"/><polygon class="cls-3" points="11.73 67.28 11.7 67.27 11.49 69.24 11.52 69.25 18.53 66.52 18.73 64.56 11.73 67.28"/><path class="cls-3" d="M5.34,63.71l6.36,3.56h0l7-2.72.11-.34-6-3.38Zm4.62.12c0-.75,1.09-1.28,2.31-1.2s2.17.76,2.12,1.5-1.08,1.27-2.31,1.19S9.91,64.57,10,63.83Z"/><path class="cls-4" d="M13.93,64.87a2.67,2.67,0,0,0-1.82-.76,2.82,2.82,0,0,0-1.85.45,1,1,0,0,1-.3-.73c0-.75,1.09-1.28,2.31-1.2s2.17.76,2.12,1.5A1,1,0,0,1,13.93,64.87Z"/><path class="cls-4" d="M14.58,59.46,9.64,56.75c-.47-.16-1.13.24-1.54,1s-.39,1.51,0,1.82L13,62.25c.47.14,1.12-.27,1.52-1A1.54,1.54,0,0,0,14.58,59.46Z"/><path class="cls-1" d="M18.44,46.42s0,14.63,0,14.65a3.07,3.07,0,0,0,1.33,2.8l.18.07a2.31,2.31,0,0,0,.83.15c1.48,0,3.29-1.28,4.37-3.49A9.76,9.76,0,0,0,26,57.17l0-14.74ZM23.9,60c-.69,1.46-2,2.32-2.85,1.9S20,60,20.67,58.54s2-2.32,2.85-1.91S24.58,58.57,23.9,60Z"/><path class="cls-2" d="M18.49,61.07s0-14.65,0-14.65l7.5-4-1.54-.65-7.64,3.94V60.49a3.33,3.33,0,0,0,1.4,2.92,16.32,16.32,0,0,0,1.84.53l-.18-.07A3.07,3.07,0,0,1,18.49,61.07Z"/><line class="cls-2" x1="16.81" y1="45.72" x2="18.44" y2="46.42"/><path class="cls-1" d="M23.52,56.63a1.13,1.13,0,0,0-.63-.09,3.44,3.44,0,0,1-.22,2.75,3.21,3.21,0,0,1-2.22,2,1.24,1.24,0,0,0,.6.65c.89.42,2.16-.44,2.85-1.9S24.41,57,23.52,56.63Z"/><polygon class="cls-1" points="19.66 46.65 24.71 43.96 24.72 46.03 19.66 48.71 19.66 46.65"/><polygon class="cls-5" points="22.61 45.08 24.71 43.96 24.72 46.03 22.61 45.08"/><path class="cls-4" d="M27.92,53.31l-5.2-2.18c-.49-.11-1.11.37-1.43,1.13a1.5,1.5,0,0,0,.19,1.81l5.2,2.18c.48.09,1.08-.38,1.4-1.14A1.55,1.55,0,0,0,27.92,53.31Z"/><path class="cls-4" d="M51.07,51.47l-5.19-2.2c-.49-.11-1.11.36-1.43,1.12a1.52,1.52,0,0,0,.18,1.82l5.19,2.19c.48.09,1.08-.37,1.41-1.13A1.55,1.55,0,0,0,51.07,51.47Z"/><path class="cls-3" d="M44.67,84.46v.16c0,.37-.72,1.18-2.36,1.18s-2.37-.79-2.37-1.17v-.21a4.66,4.66,0,1,0,4.73,0Z"/><path class="cls-3" d="M42.31,85.8c1.64,0,2.36-.81,2.36-1.18V81.28l0-8.36h0l-.11.07a4.59,4.59,0,0,1-2.21.56A4.54,4.54,0,0,1,40,73l-.11-.07,0,8.37v3.33C39.94,85,40.52,85.81,42.31,85.8Z"/><path class="cls-3" d="M42.28,73.57A4.59,4.59,0,0,0,44.49,73l.11-.07h0a4.66,4.66,0,1,0-4.76,0l0,0h0L40,73A4.54,4.54,0,0,0,42.28,73.57Z"/><path class="cls-3" d="M29.23,61.91a4.76,4.76,0,0,0,.24-2.26l0-.13v0h0a4.67,4.67,0,1,0-1.67,4.46l0,0h0l.1-.08A4.69,4.69,0,0,0,29.23,61.91Z"/><path class="cls-4" d="M38.24,58.57l-5.19-2.21c-.49-.11-1.11.36-1.44,1.13s-.24,1.54.18,1.81L37,61.49c.49.1,1.09-.37,1.41-1.13A1.51,1.51,0,0,0,38.24,58.57Z"/><path class="cls-2" d="M39.69,58.75a.94.94,0,0,0-.72,0,2.66,2.66,0,0,1-.26,1.56,2.48,2.48,0,0,1-1.23,1.28,1,1,0,0,0,.5.76c.6.29,1.47-.29,2-1.28S40.29,59,39.69,58.75Z"/><polygon class="cls-4" points="19.16 46.59 19.17 47.99 15.78 50.87 16.85 51.29 19.43 52.29 23.53 50.06 25.28 50.83 31.36 47.44 31.36 46 31.3 45.95 19.16 46.59"/><polyline class="cls-3" points="25.23 43.36 19.14 46.59 20.6 47.18 14.86 50.1 18.27 51.2 23.53 48.47 25.3 49.17 31.36 46 25.23 43.36"/><line class="cls-3" x1="25.32" y1="49.21" x2="25.28" y2="50.81"/><circle class="cls-3" cx="12.88" cy="51.69" r="4.83"/><line class="cls-3" x1="23.57" y1="48.6" x2="23.57" y2="50.01"/><path class="cls-1" d="M24.83,49.2s.05,14.63.05,14.65a3.05,3.05,0,0,0,1.33,2.8l.19.08a2.43,2.43,0,0,0,.82.14c1.48,0,3.29-1.27,4.37-3.48A9.6,9.6,0,0,0,32.38,60l-.05-14.74Zm5.46,13.62c-.68,1.47-2,2.32-2.85,1.91s-1.06-1.94-.38-3.41,2-2.32,2.85-1.9S31,61.35,30.29,62.82Zm-2.72-8.18c.46-1,1.33-1.58,1.94-1.3s.72,1.32.25,2.32-1.33,1.58-1.93,1.3S27.1,55.64,27.57,54.64Z"/><path class="cls-2" d="M24.88,63.85s0-14.65,0-14.65l7.49-4-1.54-.64L23.15,48.5V63.27a3.31,3.31,0,0,0,1.4,2.92,15.56,15.56,0,0,0,1.85.54l-.19-.08A3.05,3.05,0,0,1,24.88,63.85Z"/><path class="cls-1" d="M29.51,53.34a.9.9,0,0,0-.72,0,2.67,2.67,0,0,1-.25,1.56,2.47,2.47,0,0,1-1.22,1.28,1,1,0,0,0,.51.76c.6.28,1.47-.3,1.93-1.3S30.11,53.63,29.51,53.34Z"/><line class="cls-2" x1="23.2" y1="48.5" x2="24.83" y2="49.2"/><path class="cls-2" d="M29.91,59.42a1.22,1.22,0,0,0-.63-.1,3.5,3.5,0,0,1-.21,2.76,3.27,3.27,0,0,1-2.23,2,1.32,1.32,0,0,0,.6.65c.89.41,2.17-.44,2.85-1.91S30.8,59.83,29.91,59.42Z"/><polygon class="cls-4" points="26.05 49.43 31.1 46.75 31.11 48.81 26.06 51.49 26.05 49.43"/><ellipse class="cls-4" cx="28.54" cy="55.16" rx="2.55" ry="1.74" transform="translate(-33.57 55.15) rotate(-62.63)"/><ellipse class="cls-4" cx="28.54" cy="55.18" rx="0.7" ry="0.48" transform="translate(-33.58 55.17) rotate(-62.63)"/><path class="cls-2" d="M10.91,70l1.62-14.72A12.11,12.11,0,0,1,13,53.52c0-.09.06-.18.1-.27l.06-.16.11-.26A5.94,5.94,0,0,1,13.7,52C15,49.89,17,48.83,18.44,49l.41.08a12.65,12.65,0,0,0-2-.71c-1.48-.16-3.42.89-4.74,3A9.67,9.67,0,0,0,11,54.65L9.37,69.13Z"/><path class="cls-1" d="M19.41,49.32a2.18,2.18,0,0,0-.56-.25L18.44,49c-1.48-.16-3.41.9-4.74,3a5.94,5.94,0,0,0-.45.87l-.11.26-.06.16c0,.09-.07.18-.1.27a12.11,12.11,0,0,0-.45,1.77L10.92,70l7.9-3.1s1.6-14.61,1.6-14.65A3,3,0,0,0,19.41,49.32ZM14.69,60.59c.57-.94,1.5-1.41,2.07-1.07s.57,1.4,0,2.34-1.5,1.42-2.07,1.07S14.11,61.53,14.69,60.59Zm3.43-5.67c-.84,1.39-2.2,2.09-3,1.58s-.84-2,0-3.43,2.2-2.08,3-1.57S19,53.54,18.12,54.92Z"/><path class="cls-2" d="M16.76,59.52a.93.93,0,0,0-.72-.07A2.6,2.6,0,0,1,15.62,61a2.51,2.51,0,0,1-1.35,1.14,1,1,0,0,0,.41.81c.57.35,1.5-.13,2.07-1.07S17.33,59.87,16.76,59.52Z"/><path class="cls-2" d="M18.13,51.5a1.27,1.27,0,0,0-.61-.17A3.49,3.49,0,0,1,17,54.05a3.24,3.24,0,0,1-2.43,1.74,1.27,1.27,0,0,0,.52.71c.84.51,2.2-.19,3-1.58S19,52,18.13,51.5Z"/><polygon class="cls-4" points="12.58 66.63 17.9 64.53 17.68 66.58 12.36 68.68 12.58 66.63"/><ellipse class="cls-4" cx="15.73" cy="61.03" rx="2.55" ry="1.74" transform="translate(-45.28 45.21) rotate(-61)"/><ellipse class="cls-4" cx="15.74" cy="61.05" rx="0.7" ry="0.48" transform="translate(-45.29 45.22) rotate(-61)"/><path class="cls-1" d="M48.19,40.53s0-2.19,0-4.94h0l-.05-10a12.79,12.79,0,0,0-.27-1.84l-.06-.27a1.54,1.54,0,0,1,0-.17c0-.09-.05-.19-.08-.28a5.7,5.7,0,0,0-.37-.92c-1.12-2.24-3-3.51-4.47-3.5a2,2,0,0,0-.42,0,13,13,0,0,1,2.06-.52c1.51,0,3.35,1.27,4.47,3.5a10.07,10.07,0,0,1,.83,3.48l0,10h0c0,2.76,0,4.93,0,5a3.12,3.12,0,0,1-1.32,2.85,17.59,17.59,0,0,1-1.83.56l.19-.08A3.12,3.12,0,0,0,48.19,40.53Z"/><path class="cls-2" d="M40.48,21.67s.06,15,.06,15a10.17,10.17,0,0,0,.83,3.49c1.12,2.23,3,3.5,4.47,3.5a2.54,2.54,0,0,0,.83-.15l.19-.08a3.12,3.12,0,0,0,1.33-2.86s-.07-15-.07-15a12.79,12.79,0,0,0-.27-1.84l-.06-.27a1.54,1.54,0,0,1,0-.17c0-.09-.05-.19-.08-.28a5.7,5.7,0,0,0-.37-.92c-1.12-2.24-3-3.51-4.47-3.5a2,2,0,0,0-.42,0,1.83,1.83,0,0,0-.6.19A3.09,3.09,0,0,0,40.48,21.67Zm2.57,14.4c.9-.43,2.2.43,2.9,1.91s.55,3-.35,3.46-2.21-.42-2.91-1.91S42.15,36.5,43.05,36.07Zm-.18-14.92c.9-.43,2.2.43,2.91,1.91s.54,3-.36,3.46-2.2-.42-2.91-1.91S42,21.58,42.87,21.15Z"/><path class="cls-2" d="M43.05,36.07a1.22,1.22,0,0,1,.63-.1,3.5,3.5,0,0,0,.25,2.8,3.26,3.26,0,0,0,2.27,2,1.26,1.26,0,0,1-.6.66c-.9.43-2.21-.42-2.91-1.91S42.15,36.5,43.05,36.07Z"/><path class="cls-2" d="M42.87,21.15a1.22,1.22,0,0,1,.63-.1,3.5,3.5,0,0,0,.25,2.8,3.26,3.26,0,0,0,2.27,2,1.22,1.22,0,0,1-.6.66c-.9.43-2.2-.42-2.91-1.91S42,21.58,42.87,21.15Z"/><path class="cls-3" d="M44.26,20.57v.15c0,.38-.73,1.2-2.39,1.21-1.82,0-2.41-.79-2.41-1.18v-.21a4.74,4.74,0,1,0,4.8,0Z"/><path class="cls-3" d="M41.87,21.93c1.66,0,2.39-.83,2.39-1.21v-.15l0-2.73v-.5l0-8.49h0l0,0L44,8.94a4.77,4.77,0,0,1-2.23.58,4.84,4.84,0,0,1-2.3-.58l-.11-.07,0,8.5v.5l0,2.67v.21C39.46,21.14,40.05,22,41.87,21.93Z"/><path class="cls-3" d="M41.8,9.52A4.77,4.77,0,0,0,44,8.94l.12-.07,0,0h0a4.74,4.74,0,1,0-4.84,0l0,0h0l.11.07A4.84,4.84,0,0,0,41.8,9.52Z"/><path class="cls-4" d="M38.26,32.28,43.52,30c.49-.12,1.13.35,1.46,1.13A1.53,1.53,0,0,1,44.81,33l-5.27,2.25c-.49.09-1.1-.38-1.43-1.14A1.57,1.57,0,0,1,38.26,32.28Z"/><polygon class="cls-3" points="41.65 57.51 34.37 54.42 34.35 54.42 34.36 56.57 41.69 59.68 41.65 59.67 41.65 57.51"/><polygon class="cls-3" points="41.69 57.53 41.65 57.51 41.65 59.67 41.69 59.68 48.94 55.91 48.92 53.77 41.69 57.53"/><path class="cls-3" d="M41.69,57.53l7.23-3.76h0L44.2,51.81h-.05v1.74c0,.4-.62,1.27-2.57,1.27C39.79,54.82,39,54,39,53.54V52l-4.66,2.45h0l7.28,3.09Z"/><path class="cls-3" d="M39,52.51v1c0,.41.78,1.28,2.56,1.29,2,0,2.57-.87,2.57-1.27V44.38h0l0,0h0l-.12.07a5.11,5.11,0,0,1-2.46.63,5.2,5.2,0,0,1-2.39-.61L39,44.43l0,5.49v2.59Z"/><path class="cls-3" d="M41.55,45.11A5.11,5.11,0,0,0,44,44.48l.12-.07h0l0,0h0a5.07,5.07,0,1,0-5.17,0h0l0,0h0l.12.07A5.2,5.2,0,0,0,41.55,45.11Z"/><path class="cls-2" d="M31.89,68.06,37,58.7a4.39,4.39,0,0,1,1.84-1.51l13.36-6.93a.79.79,0,0,1,.75,0,2.64,2.64,0,0,0-2.51-.79L37.5,56.11a4.69,4.69,0,0,0-2,1.88l-5.06,9.36s-1.16,2.33-.19,3.29a7.64,7.64,0,0,0,1.91,1.2C30.5,70.78,31.89,68.06,31.89,68.06Z"/><path class="cls-2" d="M46.7,66.25a1.2,1.2,0,0,0-.63-.1,3.44,3.44,0,0,1-.24,2.76,3.24,3.24,0,0,1-2.24,2,1.22,1.22,0,0,0,.59.65c.89.43,2.17-.42,2.87-1.88S47.59,66.68,46.7,66.25Z"/><path class="cls-1" d="M57.57,57.09c-.35-1.37-4.12-6.26-4.12-6.26a1.47,1.47,0,0,0-.55-.57.79.79,0,0,0-.75,0L38.79,57.19A4.39,4.39,0,0,0,37,58.7l-5.06,9.36s-1.39,2.72.32,3.78l11.11,2.5s1.61.86,4.41-2.14l8.55-11.06S58,58.83,57.57,57.09ZM37.74,60c.47-1,1.35-1.57,1.95-1.28s.71,1.33.24,2.32-1.35,1.57-2,1.28S37.27,61,37.74,60Zm9.31,9.63c-.69,1.46-2,2.3-2.86,1.88s-1-2-.35-3.42,2-2.3,2.87-1.87S47.75,68.19,47.05,69.66Z"/><polygon class="cls-4" points="34.39 65.42 38.07 68.4 37.29 69.55 33.62 66.57 34.39 65.42"/><polygon class="cls-4" points="52.04 60.12 54.63 55.8 55.69 56.46 53.1 60.78 52.04 60.12"/><polygon class="cls-4" points="42.34 57.18 47.4 54.5 47.41 56.56 42.35 59.24 42.34 57.18"/><ellipse class="cls-4" cx="39.23" cy="60.75" rx="2.55" ry="1.74" transform="translate(-32.13 72.51) rotate(-66.5)"/><ellipse class="cls-4" cx="39.23" cy="60.77" rx="0.7" ry="0.48" transform="translate(-32.15 72.52) rotate(-66.5)"/><ellipse class="cls-4" cx="51.29" cy="54" rx="2.55" ry="1.74" transform="translate(-18.68 79.5) rotate(-66.5)"/><ellipse class="cls-4" cx="51.29" cy="54.02" rx="0.7" ry="0.48" transform="translate(-18.7 79.52) rotate(-66.5)"/><ellipse class="cls-4" cx="50.27" cy="63.86" rx="2.55" ry="1.74" transform="translate(-28.34 84.5) rotate(-66.5)"/><ellipse class="cls-4" cx="50.27" cy="63.88" rx="0.7" ry="0.48" transform="translate(-28.35 84.52) rotate(-66.5)"/><ellipse class="cls-4" cx="40.91" cy="68.81" rx="2.55" ry="1.74" transform="translate(-38.5 78.9) rotate(-66.5)"/><ellipse class="cls-4" cx="40.92" cy="68.83" rx="0.7" ry="0.48" transform="translate(-38.52 78.91) rotate(-66.5)"/><path class="cls-1" d="M42.05,43.34s0-2.19,0-4.94h0l-.05-10a12.79,12.79,0,0,0-.27-1.84,2.68,2.68,0,0,0-.07-.27c0-.06,0-.12,0-.17s-.05-.19-.08-.28a8.4,8.4,0,0,0-.37-.92c-1.12-2.24-3-3.51-4.47-3.5a2,2,0,0,0-.42,0,13,13,0,0,1,2.06-.52c1.5,0,3.35,1.27,4.46,3.5a9.87,9.87,0,0,1,.84,3.48l0,10h0c0,2.76,0,4.93,0,4.95a3.11,3.11,0,0,1-1.33,2.85,16.47,16.47,0,0,1-1.82.56l.19-.08A3.12,3.12,0,0,0,42.05,43.34Z"/><path class="cls-2" d="M34.33,24.48s.07,15,.07,15a9.94,9.94,0,0,0,.83,3.49c1.12,2.23,3,3.5,4.47,3.5a2.54,2.54,0,0,0,.83-.15l.19-.08a3.12,3.12,0,0,0,1.33-2.86s-.07-15-.07-15a12.79,12.79,0,0,0-.27-1.84,2.68,2.68,0,0,0-.07-.27c0-.06,0-.12,0-.17s-.05-.19-.08-.28a8.4,8.4,0,0,0-.37-.92c-1.12-2.24-3-3.51-4.47-3.5a2,2,0,0,0-.42,0,1.83,1.83,0,0,0-.6.19A3.1,3.1,0,0,0,34.33,24.48Zm2.57,14.4c.91-.43,2.21.43,2.91,1.91s.55,3-.35,3.46-2.21-.42-2.91-1.91S36,39.31,36.9,38.88Zm2.1-3c-.61.29-1.5-.3-2-1.3s-.37-2.07.24-2.36,1.5.29,2,1.3S39.61,35.58,39,35.87ZM36.73,24c.9-.43,2.2.43,2.9,1.91s.55,3-.35,3.46-2.21-.42-2.91-1.91S35.83,24.39,36.73,24Z"/><path class="cls-1" d="M36.9,38.88a1.27,1.27,0,0,1,.64-.1,3.53,3.53,0,0,0,.24,2.8,3.29,3.29,0,0,0,2.28,2,1.26,1.26,0,0,1-.6.66c-.91.43-2.21-.42-2.91-1.91S36,39.31,36.9,38.88Z"/><path class="cls-2" d="M37.26,32.21a.93.93,0,0,1,.73,0,2.67,2.67,0,0,0,.27,1.58,2.48,2.48,0,0,0,1.24,1.29,1,1,0,0,1-.5.78c-.61.29-1.5-.3-2-1.3S36.65,32.5,37.26,32.21Z"/><path class="cls-1" d="M36.73,24a1.22,1.22,0,0,1,.63-.1,3.5,3.5,0,0,0,.25,2.8,3.26,3.26,0,0,0,2.27,2,1.26,1.26,0,0,1-.6.66c-.9.43-2.21-.42-2.91-1.91S35.83,24.39,36.73,24Z"/><ellipse class="cls-4" cx="38.26" cy="34.41" rx="1.77" ry="2.59" transform="translate(-11.64 21.84) rotate(-27.82)"/><ellipse class="cls-4" cx="38.26" cy="34.43" rx="0.49" ry="0.71" transform="translate(-11.65 21.84) rotate(-27.82)"/><path class="cls-4" d="M38.84,95.92l5.26-2.26c.49-.12,1.13.36,1.46,1.14a1.54,1.54,0,0,1-.17,1.84l-5.27,2.24c-.49.1-1.1-.37-1.43-1.14A1.56,1.56,0,0,1,38.84,95.92Z"/><path class="cls-2" d="M31.29,128.56l6.22-8.71A6.84,6.84,0,0,1,39.65,118a3.89,3.89,0,0,1,3.12-.18l.32.14,0,0h0c-1.11-.59-3.95-.9-5.06-.31a7,7,0,0,0-2.13,1.86l-6.22,8.72a3.61,3.61,0,0,0-.59,1.92v10.71l1.59,1V130.49A3.52,3.52,0,0,1,31.29,128.56Z"/><path class="cls-1" d="M48.45,120.3,43.28,118l-.19-.08-.32-.14a3.89,3.89,0,0,0-3.12.18,6.84,6.84,0,0,0-2.14,1.86l-6.22,8.71a3.52,3.52,0,0,0-.58,1.93v11.43h0L49,132.39V121.61A1.61,1.61,0,0,0,48.45,120.3Zm-6.3,2.57c-.68,1.44-1.93,2.27-2.81,1.86s-1-1.91-.35-3.35,1.93-2.27,2.8-1.86S42.83,121.43,42.15,122.87Z"/><path class="cls-2" d="M47.05,121.43a.9.9,0,0,0-.7,0A2.68,2.68,0,0,1,46.1,123a2.48,2.48,0,0,1-1.2,1.25,1,1,0,0,0,.49.75c.59.28,1.45-.29,1.91-1.27S47.65,121.71,47.05,121.43Z"/><path class="cls-2" d="M41.79,119.53a1.18,1.18,0,0,0-.62-.1,3.39,3.39,0,0,1-.22,2.71,3.18,3.18,0,0,1-2.19,2,1.3,1.3,0,0,0,.58.64c.87.41,2.13-.42,2.8-1.86S42.66,119.94,41.79,119.53Z"/><polygon class="cls-5" points="35.69 135.76 37.41 134.85 37.41 136.88 35.69 135.76"/><polygon class="cls-2" points="42.32 132.31 47.3 129.69 47.29 131.72 42.32 134.33 42.32 132.31"/><polygon class="cls-5" points="45.57 130.6 47.3 129.69 47.29 131.72 45.57 130.6"/><path class="cls-3" d="M45,118.92v.16c0,.37-.72,1.18-2.36,1.18s-2.36-.79-2.36-1.17v-.21a4.66,4.66,0,1,0,4.72,0Z"/><path class="cls-3" d="M42.6,120.26c1.64,0,2.36-.81,2.36-1.18v-11.7h0l0,0-.12.07a4.52,4.52,0,0,1-2.2.56,4.66,4.66,0,0,1-2.26-.58l-.11-.06,0,8.37v3.33C40.24,119.47,40.81,120.27,42.6,120.26Z"/><path class="cls-3" d="M42.58,108a4.52,4.52,0,0,0,2.2-.56l.12-.07,0,0h0a4.66,4.66,0,1,0-4.77,0h0l.11.06A4.66,4.66,0,0,0,42.58,108Z"/><path class="cls-2" d="M53.35,144.22l.07-14.55a12.08,12.08,0,0,1,.27-1.78c0-.08,0-.17.06-.26a1.09,1.09,0,0,1,0-.17,2.68,2.68,0,0,1,.07-.27,6.37,6.37,0,0,1,.36-.89c1.08-2.16,2.86-3.39,4.32-3.39a2.71,2.71,0,0,1,.41,0,12.9,12.9,0,0,0-2-.5c-1.46,0-3.24,1.23-4.32,3.39a9.68,9.68,0,0,0-.81,3.37l-.09,14.31Z"/><path class="cls-1" d="M59.54,123.14A2.32,2.32,0,0,0,59,123a2.71,2.71,0,0,0-.41,0c-1.46,0-3.24,1.23-4.32,3.39a6.37,6.37,0,0,0-.36.89,2.68,2.68,0,0,0-.07.27,1.09,1.09,0,0,0,0,.17c0,.09,0,.18-.06.26a12.08,12.08,0,0,0-.27,1.78l-.06,14.54,7.4-3.83s.06-14.45.06-14.48A3,3,0,0,0,59.54,123.14Zm-.69,5.6c-.68,1.44-1.94,2.27-2.81,1.85s-1-1.91-.34-3.35,1.94-2.26,2.81-1.85S59.54,127.31,58.85,128.74Z"/><path class="cls-2" d="M58.51,125.39a1.18,1.18,0,0,0-.62-.09,3.37,3.37,0,0,1-.23,2.7,3.16,3.16,0,0,1-2.2,1.95,1.22,1.22,0,0,0,.58.64c.87.42,2.13-.41,2.81-1.85S59.38,125.81,58.51,125.39Z"/><path class="cls-2" d="M69.58,260.62a1.23,1.23,0,0,1,.85-.05,3.31,3.31,0,0,0,.18,2.82,3.39,3.39,0,0,0,2,1.91,1.2,1.2,0,0,1-.54.53c-.87.41-2.13-.42-2.81-1.86S68.71,261,69.58,260.62Z"/><path class="cls-2" d="M59.69,255.46a1.23,1.23,0,0,1,.85-.05,3.3,3.3,0,0,0,.17,2.82,3.44,3.44,0,0,0,2,1.91,1.14,1.14,0,0,1-.53.53c-.87.41-2.13-.42-2.81-1.86S58.82,255.87,59.69,255.46Z"/><path class="cls-1" d="M71,259a26.48,26.48,0,0,1-4.88-1.54c-2-1-3.9-3.48-5.81-3.83a3.13,3.13,0,0,0-1.94.14,3.85,3.85,0,0,1,3.55-1c1.92.34,3.86,2.87,5.81,3.82a30.66,30.66,0,0,0,4.88,1.55A4.52,4.52,0,0,1,76,262.45l0,6-1.6.77,0-5.91A4.58,4.58,0,0,0,71,259Z"/><path class="cls-2" d="M74.48,269.19h0l0-5.91A4.58,4.58,0,0,0,71,259a26.48,26.48,0,0,1-4.88-1.54c-2-1-3.9-3.48-5.81-3.83a3.13,3.13,0,0,0-1.94.14,2.06,2.06,0,0,0-1,2l0,4.4Zm-4.9-8.57c.87-.41,2.13.42,2.81,1.86s.52,2.94-.36,3.35-2.13-.42-2.81-1.86S68.71,261,69.58,260.62Zm-7.44.05c-.87.41-2.13-.42-2.81-1.86s-.51-2.94.36-3.35,2.13.42,2.81,1.86S63,260.26,62.14,260.67Zm4.77-.35c.46,1,.35,2-.25,2.28s-1.45-.29-1.91-1.26-.35-2,.25-2.28S66.45,259.34,66.91,260.32Z"/><path class="cls-2" d="M65,259.06a.86.86,0,0,1,.7,0A2.58,2.58,0,0,0,66,260.6a2.51,2.51,0,0,0,1.2,1.26.94.94,0,0,1-.49.74c-.59.28-1.45-.29-1.91-1.26S64.4,259.34,65,259.06Z"/><path class="cls-3" d="M61.42,255v.49c0,.37-.71,1.16-2.32,1.17s-2.32-.79-2.33-1.15v-.56a4.59,4.59,0,1,0,4.65.05Z"/><path class="cls-3" d="M61.39,211.09a4.58,4.58,0,0,1-4.6,0h0l0,43.85v.56c0,.36.57,1.15,2.33,1.15s2.32-.8,2.32-1.17v-44.4h0Z"/><path class="cls-1" d="M65.45,211l0-14.55a11.49,11.49,0,0,0-.25-1.78,2.68,2.68,0,0,0-.07-.27c0-.06,0-.11,0-.16s0-.18-.08-.27a6.46,6.46,0,0,0-.35-.9c-1.07-2.16-2.85-3.4-4.31-3.4a1.84,1.84,0,0,0-.41,0,12.9,12.9,0,0,1,2-.5c1.46,0,3.24,1.24,4.31,3.41A9.65,9.65,0,0,1,67,196l0,14.31Z"/><path class="cls-2" d="M58.05,192.66s0,14.48,0,14.48L65.45,211l0-14.54a11.49,11.49,0,0,0-.25-1.78,2.68,2.68,0,0,0-.07-.27c0-.06,0-.11,0-.16s0-.18-.08-.27a6.46,6.46,0,0,0-.35-.9c-1.07-2.16-2.85-3.4-4.31-3.4a1.84,1.84,0,0,0-.41,0,2,2,0,0,0-.58.18A3,3,0,0,0,58.05,192.66Zm2.31-.5c.88-.41,2.13.42,2.81,1.86s.52,2.94-.36,3.35-2.13-.42-2.8-1.86S59.49,192.57,60.36,192.16Z"/><path class="cls-2" d="M60.36,192.16a1.09,1.09,0,0,1,.62-.09,3.41,3.41,0,0,0,.22,2.7,3.18,3.18,0,0,0,2.2,2,1.2,1.2,0,0,1-.59.64c-.87.41-2.13-.42-2.8-1.86S59.49,192.57,60.36,192.16Z"/><polygon class="cls-3" points="64.87 209.39 64.83 209.39 64.87 209.41 64.87 209.39"/><circle class="cls-3" cx="68.38" cy="264.46" r="4.58"/><polygon class="cls-4" points="71.89 269.49 69.89 267.73 69.89 266.4 69.94 266.42 72.81 268.92 71.89 269.49"/><path class="cls-4" d="M78.52,273.08l3.79-2.37a.77.77,0,0,0,.44-.69,2,2,0,0,1-.44,2l-3.79,2.38c-1.28.6-1.8.29-3.06-.35l-4.78-2.49v-1.33h.06l4.71,2.43C76.71,273.35,77.24,273.68,78.52,273.08Z"/><path class="cls-3" d="M69.94,266.42l2.87,2.5-1.53.95-.6.37h0l0,0,4.71,2.43c1.26.65,1.79,1,3.07.38l3.79-2.37a.77.77,0,0,0,.44-.69.83.83,0,0,0-.35-.57,1.4,1.4,0,0,0-.34-.21l-5.27-2.79-1.67,1L72.22,265l-2.33,1.39ZM79.63,270c0,.86-1.14,1.56-2.55,1.57s-2.56-.69-2.56-1.55,1.13-1.56,2.55-1.56S79.63,269.18,79.63,270Z"/><path class="cls-4" d="M79.63,270a1.12,1.12,0,0,1-.27.7,3,3,0,0,0-2.34-.91,3.07,3.07,0,0,0-2.28.86,1,1,0,0,1-.22-.63c0-.85,1.13-1.56,2.55-1.56S79.63,269.18,79.63,270Z"/><polygon class="cls-4" points="58.69 211.19 65.28 208.4 65.3 208.4 65.29 210.34 58.66 213.15 58.69 213.14 58.69 211.19"/><polygon class="cls-3" points="58.66 211.21 58.69 211.19 58.69 213.14 58.66 213.15 52.1 209.74 52.12 207.81 58.66 211.21"/><path class="cls-3" d="M58.28,204.79,52,207.47l.08.34,6.54,3.4,0,0,6.59-2.8Zm.24,4.46c-1.2-.05-2.15-.68-2.12-1.41s1-1.28,2.23-1.23,2.15.68,2.12,1.41S59.73,209.3,58.52,209.25Z"/><path class="cls-4" d="M56.76,208.62a2.7,2.7,0,0,1,1.87-.55,2.81,2.81,0,0,1,1.76.63,1,1,0,0,0,.36-.68c0-.73-.92-1.37-2.12-1.41s-2.2.5-2.23,1.23A1.07,1.07,0,0,0,56.76,208.62Z"/><path class="cls-3" d="M61.41,192v.49c0,.37-.71,1.16-2.32,1.16-1.76,0-2.32-.78-2.32-1.15V192a4.58,4.58,0,1,0,6.86,4A4.53,4.53,0,0,0,61.41,192Z"/><path class="cls-3" d="M61.38,143.27a4.15,4.15,0,0,1-4.6,0h0v49.13c0,.41.56,1.28,2.32,1.27,1.61,0,2.32-.87,2.32-1.28v-.55l0-48.58h0Z"/><path class="cls-4" d="M56.7,203.26l5.11-2.12c.48-.11,1.09.36,1.41,1.11A1.5,1.5,0,0,1,63,204l-5.12,2.12c-.47.09-1.06-.38-1.37-1.12A1.52,1.52,0,0,1,56.7,203.26Z"/><path class="cls-4" d="M60.24,261.43l4.87-2.64c.46-.16,1.12.24,1.51,1s.38,1.48,0,1.79l-4.87,2.63c-.46.14-1.1-.26-1.48-1A1.51,1.51,0,0,1,60.24,261.43Z"/><path class="cls-1" d="M64.05,262.83a1.23,1.23,0,0,1,.85-.05,3.31,3.31,0,0,0,.18,2.82,3.39,3.39,0,0,0,2,1.91,1.2,1.2,0,0,1-.54.53c-.87.41-2.13-.42-2.81-1.86S63.18,263.24,64.05,262.83Z"/><path class="cls-1" d="M54.16,257.67a1.23,1.23,0,0,1,.85-.05,3.31,3.31,0,0,0,.18,2.82,3.39,3.39,0,0,0,2,1.91,1.2,1.2,0,0,1-.54.53c-.87.41-2.13-.42-2.81-1.86S53.29,258.08,54.16,257.67Z"/><path class="cls-1" d="M65.49,261.22a26.48,26.48,0,0,1-4.88-1.54c-2-.95-3.9-3.48-5.81-3.83a3.13,3.13,0,0,0-1.94.14,3.88,3.88,0,0,1,3.55-1c1.92.34,3.86,2.87,5.81,3.82a29.64,29.64,0,0,0,4.88,1.55,4.52,4.52,0,0,1,3.41,4.26l0,6-1.6.77,0-5.91A4.58,4.58,0,0,0,65.49,261.22Z"/><path class="cls-2" d="M69,271.4h0l0-5.91a4.58,4.58,0,0,0-3.41-4.26,26.48,26.48,0,0,1-4.88-1.54c-2-.95-3.9-3.48-5.81-3.83a3.13,3.13,0,0,0-1.94.14,2.06,2.06,0,0,0-1,2l0,4.4Zm-4.9-8.57c.87-.41,2.13.42,2.81,1.86s.52,2.94-.36,3.35-2.13-.42-2.81-1.86S63.18,263.24,64.05,262.83Zm-7.44.05c-.87.41-2.13-.42-2.81-1.86s-.51-2.94.36-3.35,2.13.42,2.81,1.86S57.48,262.47,56.61,262.88Zm4.77-.35c.46,1,.35,2-.25,2.28s-1.45-.28-1.91-1.26-.35-2,.25-2.28S60.92,261.56,61.38,262.53Z"/><path class="cls-2" d="M59.47,261.27a.86.86,0,0,1,.7,0,2.64,2.64,0,0,0,.25,1.53,2.51,2.51,0,0,0,1.2,1.26.94.94,0,0,1-.49.74c-.59.28-1.45-.28-1.91-1.26S58.87,261.55,59.47,261.27Z"/><ellipse class="cls-4" cx="60.19" cy="262.91" rx="1.71" ry="2.51" transform="translate(-115.81 58.54) rotate(-27.84)"/><ellipse class="cls-4" cx="60.19" cy="262.93" rx="0.47" ry="0.69" transform="translate(-115.82 58.54) rotate(-27.84)"/><path class="cls-1" d="M59.17,214l0-14.56a11.65,11.65,0,0,0-.26-1.77,2.61,2.61,0,0,0-.06-.27c0-.06,0-.11,0-.16s0-.18-.08-.27a6,6,0,0,0-.35-.9c-1.08-2.16-2.86-3.4-4.31-3.4a1.84,1.84,0,0,0-.41,0,12.9,12.9,0,0,1,2-.5c1.46,0,3.24,1.24,4.31,3.41a9.63,9.63,0,0,1,.79,3.37l.05,14.31Z"/><path class="cls-2" d="M51.76,195.61s0,14.48,0,14.48L59.16,214V199.4a11.65,11.65,0,0,0-.26-1.77,2.61,2.61,0,0,0-.06-.27c0-.06,0-.11,0-.16s0-.18-.08-.27a6,6,0,0,0-.35-.9c-1.08-2.16-2.86-3.4-4.31-3.4a1.84,1.84,0,0,0-.41,0,1.87,1.87,0,0,0-.58.18A3,3,0,0,0,51.76,195.61Zm4.48,11c-.59.28-1.45-.29-1.91-1.27s-.35-2,.24-2.27,1.45.28,1.91,1.26S56.84,206.36,56.24,206.64Zm-2.16-11.53c.87-.41,2.13.42,2.81,1.86s.51,2.94-.36,3.35-2.13-.42-2.81-1.86S53.21,195.52,54.08,195.11Z"/><path class="cls-2" d="M54.57,203.1a.92.92,0,0,1,.71,0,2.6,2.6,0,0,0,.25,1.54,2.37,2.37,0,0,0,1.2,1.25,1,1,0,0,1-.49.75c-.59.28-1.45-.29-1.91-1.27S54,203.37,54.57,203.1Z"/><path class="cls-1" d="M54.08,195.11a1.09,1.09,0,0,1,.62-.09,3.36,3.36,0,0,0,.22,2.7,3.18,3.18,0,0,0,2.19,2,1.22,1.22,0,0,1-.58.64c-.87.41-2.13-.42-2.81-1.86S53.21,195.52,54.08,195.11Z"/><polygon class="cls-4" points="57.9 210.48 52.93 207.87 52.93 209.89 57.9 212.5 57.9 210.48"/><path class="cls-4" d="M62.51,135.71l-5.11-2.13c-.48-.11-1.08.36-1.4,1.12a1.49,1.49,0,0,0,.19,1.78l5.11,2.11c.48.09,1.07-.37,1.38-1.11A1.51,1.51,0,0,0,62.51,135.71Z"/><ellipse class="cls-4" cx="63.23" cy="137.46" rx="2.51" ry="1.71" transform="translate(-88 132.66) rotate(-63.48)"/><ellipse class="cls-4" cx="63.23" cy="137.48" rx="0.69" ry="0.47" transform="translate(-88.02 132.68) rotate(-63.48)"/><polygon class="cls-4" points="60.12 144.43 53.53 141.61 53.52 141.61 53.52 143.55 60.14 146.39 60.11 146.38 60.12 144.43"/><polygon class="cls-3" points="60.15 144.44 60.12 144.43 60.11 146.38 60.14 146.39 66.71 143 66.7 141.07 60.15 144.44"/><path class="cls-3" d="M53.53,141.61l6.58,2.82h0l6.55-3.37.08-.34L60.55,138Zm4.53-.36c0-.73.93-1.36,2.13-1.41s2.2.52,2.23,1.25-.93,1.36-2.13,1.4S58.09,142,58.06,141.25Z"/><path class="cls-4" d="M62.05,141.86a2.72,2.72,0,0,0-1.86-.56,2.76,2.76,0,0,0-1.76.64,1,1,0,0,1-.37-.69c0-.73.93-1.36,2.13-1.41s2.2.52,2.23,1.25A1,1,0,0,1,62.05,141.86Z"/><path class="cls-2" d="M20.13,159.79l.08-14.56a10.77,10.77,0,0,1,.26-1.78c0-.08,0-.17.06-.26l0-.17a1.38,1.38,0,0,1,.08-.27,5.31,5.31,0,0,1,.35-.89c1.08-2.16,2.86-3.39,4.32-3.39a2.71,2.71,0,0,1,.41,0,12.9,12.9,0,0,0-2-.5c-1.46,0-3.24,1.23-4.32,3.39a9.68,9.68,0,0,0-.81,3.37l-.09,14.31Z"/><path class="cls-1" d="M26.32,138.7a2.32,2.32,0,0,0-.58-.19,2.71,2.71,0,0,0-.41,0c-1.46,0-3.24,1.23-4.32,3.39a5.31,5.31,0,0,0-.35.89,1.38,1.38,0,0,0-.08.27l0,.17c0,.09-.05.18-.06.26a10.77,10.77,0,0,0-.26,1.78l-.07,14.54,7.4-3.83s.07-14.45.07-14.48A3,3,0,0,0,26.32,138.7Zm-.68,5.6c-.69,1.44-1.95,2.27-2.82,1.85s-1-1.91-.34-3.35,1.94-2.26,2.81-1.85S26.32,142.87,25.64,144.3Z"/><path class="cls-2" d="M25.29,141a1.18,1.18,0,0,0-.62-.09,3.33,3.33,0,0,1-.23,2.7,3.16,3.16,0,0,1-2.2,1.95,1.22,1.22,0,0,0,.58.64c.87.42,2.13-.41,2.82-1.85S26.16,141.37,25.29,141Z"/><ellipse class="cls-4" cx="55.45" cy="204.69" rx="1.71" ry="2.51" transform="translate(-75.03 37.52) rotate(-22.81)"/><ellipse class="cls-4" cx="55.45" cy="204.71" rx="0.47" ry="0.69" transform="translate(-75.04 37.52) rotate(-22.81)"/><path class="cls-3" d="M59.81,124.66a4.58,4.58,0,0,0-2.35,8.51l0,0h0a4.51,4.51,0,0,0,4.6,0l0,0h0a4.58,4.58,0,0,0-2.34-8.53Z"/><polygon class="cls-4" points="58.57 132.54 58.57 131.18 58.55 131.18 58.56 131.19 51.56 134.84 51.56 136.23 57.61 133.05 57.87 132.91 58.57 132.54"/><polygon class="cls-3" points="58.61 131.21 58.6 131.21 55.42 129.88 51.6 131.91 51.6 133.83 51.6 134.87 58.61 131.21"/><path class="cls-4" d="M38.69,137.51l-9.28,4.76A4.56,4.56,0,0,1,31.2,145l10.51-5.62Z"/><path class="cls-3" d="M38.53,136.35l-9.28,4.77A4.57,4.57,0,0,1,31,143.81l10.51-5.61Z"/><path class="cls-3" d="M31,143.81a4.57,4.57,0,0,0-1.79-2.69,4.52,4.52,0,0,0-2.68-.87,4.58,4.58,0,1,0,4.57,4.92c0-.12,0-.23,0-.35A4.23,4.23,0,0,0,31,143.81Z"/><path class="cls-2" d="M36.36,276.18a1.23,1.23,0,0,1,.85-.05,3.31,3.31,0,0,0,.18,2.82,3.41,3.41,0,0,0,2,1.91,1.2,1.2,0,0,1-.54.53c-.87.41-2.13-.42-2.8-1.86S35.49,276.59,36.36,276.18Z"/><path class="cls-2" d="M26.47,271a1.23,1.23,0,0,1,.85,0,3.31,3.31,0,0,0,.18,2.82,3.39,3.39,0,0,0,2,1.91,1.2,1.2,0,0,1-.54.53c-.87.41-2.13-.42-2.81-1.86S25.6,271.43,26.47,271Z"/><path class="cls-1" d="M37.8,274.57A26.48,26.48,0,0,1,32.92,273c-2-.95-3.9-3.48-5.81-3.83a3.14,3.14,0,0,0-1.94.14,3.85,3.85,0,0,1,3.55-1c1.92.34,3.87,2.87,5.81,3.82a30.66,30.66,0,0,0,4.88,1.55A4.52,4.52,0,0,1,42.82,278l0,6-1.6.77,0-5.91A4.58,4.58,0,0,0,37.8,274.57Z"/><path class="cls-2" d="M41.26,284.75h0l0-5.91a4.58,4.58,0,0,0-3.41-4.26A26.48,26.48,0,0,1,32.92,273c-2-.95-3.9-3.48-5.81-3.83a3.14,3.14,0,0,0-1.94.14,2.06,2.06,0,0,0-1,2l0,4.4Zm-4.9-8.57c.88-.41,2.13.42,2.81,1.86s.52,2.94-.36,3.35-2.13-.42-2.8-1.86S35.49,276.59,36.36,276.18Zm-7.44.05c-.87.41-2.13-.42-2.81-1.86s-.51-2.94.36-3.35,2.13.42,2.81,1.86S29.79,275.82,28.92,276.23Zm4.77-.35c.46,1,.35,2-.25,2.28s-1.45-.29-1.91-1.26-.35-2,.25-2.28S33.23,274.9,33.69,275.88Z"/><path class="cls-2" d="M31.78,274.62a.86.86,0,0,1,.7,0,2.66,2.66,0,0,0,.25,1.53,2.48,2.48,0,0,0,1.21,1.26,1,1,0,0,1-.5.74c-.59.28-1.45-.29-1.91-1.26S31.18,274.9,31.78,274.62Z"/><path class="cls-3" d="M28.2,270.53v.5c0,.36-.71,1.15-2.32,1.16s-2.32-.79-2.32-1.15v-.55a4.58,4.58,0,1,0,4.65,0Z"/><path class="cls-3" d="M28.17,226.65a4.58,4.58,0,0,1-4.6,0h0l0,43.86V271c0,.36.56,1.15,2.32,1.15s2.32-.8,2.32-1.16V226.62h0Z"/><path class="cls-1" d="M32.23,226.57l0-14.55a11.49,11.49,0,0,0-.25-1.78,2.68,2.68,0,0,0-.07-.27.94.94,0,0,0,0-.16c0-.09-.05-.18-.08-.27a6.46,6.46,0,0,0-.35-.9c-1.07-2.16-2.85-3.4-4.31-3.4a2.71,2.71,0,0,0-.41,0,12.62,12.62,0,0,1,2-.49c1.46,0,3.24,1.23,4.31,3.4a9.43,9.43,0,0,1,.8,3.37l0,14.31Z"/><path class="cls-2" d="M24.83,208.22s0,14.48,0,14.48l7.39,3.86,0-14.54a11.49,11.49,0,0,0-.25-1.78,2.68,2.68,0,0,0-.07-.27.94.94,0,0,0,0-.16c0-.09-.05-.18-.08-.27a6.46,6.46,0,0,0-.35-.9c-1.07-2.16-2.85-3.4-4.31-3.4a2.71,2.71,0,0,0-.41,0,2,2,0,0,0-.58.18A3,3,0,0,0,24.83,208.22Zm2.31-.5c.88-.41,2.13.42,2.81,1.86s.52,2.94-.36,3.35-2.13-.42-2.8-1.86S26.27,208.13,27.14,207.72Z"/><path class="cls-2" d="M27.14,207.72a1.18,1.18,0,0,1,.62-.09,3.37,3.37,0,0,0,.23,2.7,3.15,3.15,0,0,0,2.19,2,1.2,1.2,0,0,1-.59.64c-.87.41-2.13-.42-2.8-1.86S26.27,208.13,27.14,207.72Z"/><polygon class="cls-3" points="31.65 224.95 31.62 224.95 31.65 224.97 31.65 224.95"/><circle class="cls-3" cx="35.16" cy="280.02" r="4.58"/><polygon class="cls-4" points="38.67 285.05 36.67 283.29 36.68 281.96 36.73 281.98 39.59 284.48 38.67 285.05"/><path class="cls-4" d="M45.31,288.64l3.78-2.37a.77.77,0,0,0,.44-.69,2,2,0,0,1-.44,2L45.31,290c-1.28.6-1.81.29-3.07-.35l-4.78-2.49v-1.33h.06l4.71,2.43C43.49,288.91,44,289.24,45.31,288.64Z"/><path class="cls-3" d="M36.73,282l2.87,2.5-1.54.95-.6.37h0l.05,0,4.71,2.43c1.26.65,1.8,1,3.08.38l3.78-2.37a.77.77,0,0,0,.44-.69.83.83,0,0,0-.35-.57,1.23,1.23,0,0,0-.34-.21L43.57,282l-1.67,1L39,280.56,36.67,282Zm9.68,3.62c0,.86-1.13,1.56-2.55,1.57s-2.56-.69-2.56-1.55,1.14-1.55,2.55-1.56S46.41,284.74,46.41,285.6Z"/><path class="cls-4" d="M46.41,285.6a1.06,1.06,0,0,1-.27.71,2.93,2.93,0,0,0-2.34-.92,3.07,3.07,0,0,0-2.28.86,1,1,0,0,1-.22-.63c0-.85,1.14-1.55,2.55-1.56S46.41,284.74,46.41,285.6Z"/><polygon class="cls-4" points="25.47 226.75 32.06 223.96 32.08 223.96 32.07 225.9 25.44 228.71 25.47 228.7 25.47 226.75"/><polygon class="cls-3" points="25.44 226.77 25.47 226.75 25.47 228.7 25.44 228.71 18.88 225.3 18.9 223.37 25.44 226.77"/><path class="cls-3" d="M25.06,220.35,18.82,223l.08.34,6.54,3.4,0,0L32.06,224Zm.24,4.46c-1.2-.05-2.15-.68-2.12-1.41s1-1.28,2.23-1.23,2.15.68,2.13,1.41S26.51,224.86,25.3,224.81Z"/><path class="cls-4" d="M23.55,224.18a2.67,2.67,0,0,1,1.86-.55,2.81,2.81,0,0,1,1.76.63,1,1,0,0,0,.37-.68c0-.73-.93-1.37-2.13-1.41s-2.2.5-2.23,1.23A1,1,0,0,0,23.55,224.18Z"/><path class="cls-3" d="M28.19,207.57v.49c0,.37-.71,1.16-2.32,1.16-1.76,0-2.32-.78-2.32-1.15v-.55a4.58,4.58,0,1,0,4.64,0Z"/><path class="cls-3" d="M28.16,159.19a4.26,4.26,0,0,1-2.27.68,4.31,4.31,0,0,1-2.33-.7h0V208c0,.4.56,1.27,2.32,1.26,1.61,0,2.32-.87,2.32-1.27v-.55l0-48.24h0Z"/><path class="cls-4" d="M23.48,218.83l5.12-2.13c.47-.11,1.08.36,1.4,1.11s.22,1.52-.19,1.78l-5.12,2.12c-.47.09-1.06-.38-1.37-1.12A1.51,1.51,0,0,1,23.48,218.83Z"/><path class="cls-4" d="M27,277l4.87-2.64c.47-.16,1.12.24,1.51,1s.38,1.48,0,1.79l-4.87,2.63c-.46.14-1.1-.26-1.48-1A1.51,1.51,0,0,1,27,277Z"/><path class="cls-1" d="M30.83,278.39a1.23,1.23,0,0,1,.85-.05,3.31,3.31,0,0,0,.18,2.82,3.41,3.41,0,0,0,2,1.91,1.2,1.2,0,0,1-.54.53c-.87.41-2.13-.42-2.8-1.86S30,278.8,30.83,278.39Z"/><path class="cls-1" d="M20.94,273.23a1.23,1.23,0,0,1,.85-.05A3.31,3.31,0,0,0,22,276a3.39,3.39,0,0,0,2,1.91,1.2,1.2,0,0,1-.54.53c-.87.41-2.13-.42-2.81-1.86S20.07,273.64,20.94,273.23Z"/><path class="cls-1" d="M32.27,276.78a26.48,26.48,0,0,1-4.88-1.54c-1.95-.95-3.9-3.48-5.81-3.83a3.14,3.14,0,0,0-1.94.14,3.89,3.89,0,0,1,3.56-1c1.91.35,3.86,2.88,5.8,3.82A29.39,29.39,0,0,0,33.89,276a4.54,4.54,0,0,1,3.41,4.26l0,6-1.6.77,0-5.91A4.58,4.58,0,0,0,32.27,276.78Z"/><path class="cls-2" d="M35.73,287h0l0-5.91a4.58,4.58,0,0,0-3.41-4.26,26.48,26.48,0,0,1-4.88-1.54c-1.95-.95-3.9-3.48-5.81-3.83a3.14,3.14,0,0,0-1.94.14,2.06,2.06,0,0,0-1,2l0,4.4Zm-4.9-8.57c.88-.41,2.13.43,2.81,1.86s.52,2.94-.36,3.35-2.13-.42-2.8-1.86S30,278.8,30.83,278.39Zm-7.44.05c-.87.41-2.13-.42-2.81-1.86s-.51-2.94.36-3.35,2.13.42,2.81,1.86S24.27,278,23.39,278.44Zm4.77-.34c.46,1,.35,2-.25,2.27s-1.44-.28-1.91-1.26-.35-2,.25-2.28S27.7,277.12,28.16,278.1Z"/><path class="cls-2" d="M26.25,276.83a.86.86,0,0,1,.7,0,2.64,2.64,0,0,0,.25,1.53,2.48,2.48,0,0,0,1.21,1.26,1,1,0,0,1-.5.74c-.59.28-1.44-.28-1.91-1.26S25.65,277.11,26.25,276.83Z"/><ellipse class="cls-4" cx="26.97" cy="278.47" rx="1.71" ry="2.51" transform="translate(-126.93 44.83) rotate(-27.84)"/><ellipse class="cls-4" cx="26.97" cy="278.49" rx="0.47" ry="0.69" transform="translate(-126.93 44.83) rotate(-27.84)"/><path class="cls-1" d="M26,229.52l0-14.55a12.84,12.84,0,0,0-.25-1.78c0-.09-.05-.18-.07-.27s0-.11,0-.16-.05-.18-.08-.27a6.46,6.46,0,0,0-.35-.9c-1.08-2.16-2.85-3.4-4.31-3.4a1.84,1.84,0,0,0-.41,0,12.9,12.9,0,0,1,2-.5c1.46,0,3.24,1.24,4.31,3.41a9.41,9.41,0,0,1,.79,3.37l0,14.31Z"/><path class="cls-2" d="M18.54,211.17s0,14.48,0,14.48L26,229.51l0-14.54a12.84,12.84,0,0,0-.25-1.78c0-.09-.05-.18-.07-.27s0-.11,0-.16-.05-.18-.08-.27a6.46,6.46,0,0,0-.35-.9c-1.08-2.16-2.85-3.4-4.31-3.4a1.84,1.84,0,0,0-.41,0,2,2,0,0,0-.58.18A3,3,0,0,0,18.54,211.17Zm4.48,11c-.59.28-1.45-.29-1.91-1.27s-.35-2,.24-2.27,1.45.28,1.91,1.26S23.62,221.92,23,222.2Zm-2.16-11.53c.88-.41,2.13.42,2.81,1.86s.52,2.94-.36,3.35-2.13-.42-2.8-1.86S20,211.08,20.86,210.67Z"/><path class="cls-2" d="M21.35,218.66a.92.92,0,0,1,.71,0,2.6,2.6,0,0,0,.25,1.54,2.4,2.4,0,0,0,1.2,1.25.94.94,0,0,1-.49.75c-.59.28-1.45-.29-1.91-1.27S20.76,218.94,21.35,218.66Z"/><path class="cls-1" d="M20.86,210.67a1.09,1.09,0,0,1,.62-.09,3.36,3.36,0,0,0,.22,2.7,3.18,3.18,0,0,0,2.19,2,1.22,1.22,0,0,1-.58.64c-.87.41-2.13-.42-2.8-1.86S20,211.08,20.86,210.67Z"/><polygon class="cls-4" points="24.68 226.04 19.71 223.43 19.71 225.45 24.68 228.06 24.68 226.04"/><ellipse class="cls-4" cx="22.19" cy="220.24" rx="1.71" ry="2.51" transform="translate(-83.66 25.84) rotate(-22.81)"/><ellipse class="cls-4" cx="22.19" cy="220.26" rx="0.47" ry="0.69" transform="translate(-83.67 25.84) rotate(-22.81)"/><path class="cls-4" d="M29.3,151.27l-5.12-2.13c-.47-.11-1.08.36-1.4,1.12A1.5,1.5,0,0,0,23,152l5.12,2.12c.47.08,1.06-.38,1.37-1.12A1.53,1.53,0,0,0,29.3,151.27Z"/><ellipse class="cls-4" cx="30.01" cy="153.02" rx="2.51" ry="1.71" transform="translate(-120.32 111.55) rotate(-63.48)"/><ellipse class="cls-4" cx="30.01" cy="153.04" rx="0.69" ry="0.47" transform="translate(-120.33 111.57) rotate(-63.48)"/><path class="cls-4" d="M38.87,130.38l-5.12-2.13c-.47-.11-1.08.36-1.4,1.11s-.22,1.52.19,1.78l5.12,2.12c.47.09,1.06-.37,1.37-1.12A1.51,1.51,0,0,0,38.87,130.38Z"/><polygon class="cls-4" points="26.9 159.99 20.32 157.17 20.3 157.17 20.3 159.11 26.92 161.95 26.89 161.94 26.9 159.99"/><polygon class="cls-3" points="26.93 160 26.9 159.99 26.89 161.94 26.92 161.95 33.49 158.56 33.48 156.63 26.93 160"/><path class="cls-3" d="M20.32,157.17,26.9,160l0,0,6.55-3.38.08-.34-6.23-2.7Zm4.52-.36c0-.73.93-1.36,2.13-1.4s2.2.51,2.23,1.24-.93,1.36-2.13,1.4S24.87,157.54,24.84,156.81Z"/><path class="cls-4" d="M28.83,157.42a2.67,2.67,0,0,0-1.86-.55,2.7,2.7,0,0,0-1.76.63,1,1,0,0,1-.37-.69c0-.73.93-1.36,2.13-1.4s2.2.51,2.23,1.24A1,1,0,0,1,28.83,157.42Z"/><path class="cls-2" d="M26.41,162.76l.07-14.56a13.06,13.06,0,0,1,.26-1.77l.06-.27.05-.17c0-.09,0-.17.08-.27a6.33,6.33,0,0,1,.35-.89c1.08-2.16,2.87-3.39,4.33-3.39l.4,0a12.62,12.62,0,0,0-2-.5c-1.45,0-3.24,1.23-4.32,3.39a9.65,9.65,0,0,0-.8,3.37l-.1,14.31Z"/><path class="cls-1" d="M32.59,141.67a2.19,2.19,0,0,0-.58-.19l-.4,0c-1.46,0-3.25,1.23-4.33,3.39a6.33,6.33,0,0,0-.35.89c0,.1-.06.18-.08.27l-.05.17-.06.27a13.06,13.06,0,0,0-.26,1.77l-.07,14.54,7.4-3.83s.07-14.45.07-14.48A3,3,0,0,0,32.59,141.67Zm-3.46,11.5c.46-1,1.32-1.54,1.91-1.26s.7,1.3.24,2.28-1.32,1.54-1.92,1.26S28.66,154.14,29.13,153.17Zm2.78-5.89c-.68,1.43-1.94,2.26-2.82,1.85s-1-1.92-.34-3.35,1.94-2.27,2.81-1.85S32.59,145.84,31.91,147.28Z"/><path class="cls-2" d="M31,151.91a.92.92,0,0,0-.71,0,2.6,2.6,0,0,1-.25,1.54,2.46,2.46,0,0,1-1.21,1.25,1,1,0,0,0,.49.75c.6.28,1.45-.29,1.92-1.26S31.64,152.19,31,151.91Z"/><path class="cls-2" d="M31.56,143.93a1.16,1.16,0,0,0-.61-.1,3.38,3.38,0,0,1-.24,2.7,3.14,3.14,0,0,1-2.2,1.95,1.28,1.28,0,0,0,.58.65c.88.41,2.14-.42,2.82-1.85S32.43,144.34,31.56,143.93Z"/><polygon class="cls-4" points="27.69 159.28 32.67 156.68 32.66 158.71 27.68 161.31 27.69 159.28"/><ellipse class="cls-4" cx="30.2" cy="153.49" rx="2.51" ry="1.71" transform="translate(-122.88 121.28) rotate(-66.99)"/><ellipse class="cls-4" cx="30.2" cy="153.51" rx="0.69" ry="0.47" transform="translate(-122.9 121.29) rotate(-66.99)"/><path class="cls-2" d="M59.63,147.2l.07-14.56a11.65,11.65,0,0,1,.26-1.77,2.61,2.61,0,0,1,.06-.27l0-.17a1.62,1.62,0,0,1,.08-.27,5.31,5.31,0,0,1,.35-.89c1.08-2.16,2.87-3.39,4.33-3.39a2.71,2.71,0,0,1,.4,0,12.9,12.9,0,0,0-2-.5c-1.46,0-3.24,1.23-4.32,3.39a9.68,9.68,0,0,0-.81,3.37L58,146.49Z"/><path class="cls-1" d="M65.81,126.11a2.19,2.19,0,0,0-.58-.19,2.71,2.71,0,0,0-.4,0c-1.46,0-3.25,1.23-4.33,3.39a5.31,5.31,0,0,0-.35.89,1.62,1.62,0,0,0-.08.27l0,.17a2.61,2.61,0,0,0-.06.27,11.65,11.65,0,0,0-.26,1.77l-.07,14.54,7.4-3.83s.07-14.45.07-14.48A3,3,0,0,0,65.81,126.11Zm-3.46,11.5c.46-1,1.32-1.54,1.91-1.26s.7,1.3.24,2.28-1.33,1.54-1.92,1.26S61.88,138.58,62.35,137.61Zm2.78-5.9c-.69,1.44-1.95,2.27-2.82,1.85s-1-1.91-.34-3.35,1.94-2.26,2.81-1.85S65.81,130.28,65.13,131.71Z"/><path class="cls-2" d="M64.26,136.35a.92.92,0,0,0-.71,0,2.6,2.6,0,0,1-.25,1.54,2.46,2.46,0,0,1-1.21,1.25,1,1,0,0,0,.49.75c.59.28,1.45-.29,1.92-1.26S64.85,136.63,64.26,136.35Z"/><path class="cls-2" d="M64.78,128.36a1.16,1.16,0,0,0-.61-.09,3.38,3.38,0,0,1-.24,2.7,3.16,3.16,0,0,1-2.2,1.95,1.22,1.22,0,0,0,.58.64c.87.42,2.13-.41,2.82-1.85S65.65,128.78,64.78,128.36Z"/><polygon class="cls-4" points="60.91 143.72 65.89 141.12 65.88 143.15 60.9 145.75 60.91 143.72"/><ellipse class="cls-4" cx="63.42" cy="137.93" rx="2.51" ry="1.71" transform="translate(-88.33 142.37) rotate(-66.99)"/><ellipse class="cls-4" cx="63.42" cy="137.95" rx="0.69" ry="0.47" transform="translate(-88.34 142.39) rotate(-66.99)"/><path class="cls-2" d="M37.28,130.9l6.22-8.72a7,7,0,0,1,2.14-1.86,3.85,3.85,0,0,1,3.12-.17l.32.14h0c-1.11-.6-4-.91-5.06-.31a6.88,6.88,0,0,0-2.13,1.86l-6.22,8.71a3.64,3.64,0,0,0-.59,1.93V143.2l1.59,1V132.82A3.51,3.51,0,0,1,37.28,130.9Z"/><path class="cls-1" d="M54.44,122.63l-5.17-2.26-.19-.08-.32-.14a3.85,3.85,0,0,0-3.12.17,7,7,0,0,0-2.14,1.86l-6.22,8.72a3.51,3.51,0,0,0-.58,1.92v11.42h0L55,134.73V123.94A1.62,1.62,0,0,0,54.44,122.63Zm-13.3,9.81c-.46,1-1.32,1.54-1.91,1.26s-.71-1.3-.25-2.28,1.32-1.54,1.91-1.26S41.6,131.46,41.14,132.44Zm7-7.24c-.68,1.44-1.93,2.28-2.81,1.86s-1-1.91-.35-3.34,1.93-2.27,2.8-1.86S48.82,123.77,48.14,125.2Zm5.15.85c-.46,1-1.32,1.54-1.91,1.26s-.71-1.3-.25-2.28,1.32-1.54,1.91-1.26S53.75,125.07,53.29,126.05Z"/><path class="cls-2" d="M40.89,130.16a.86.86,0,0,0-.7,0,2.58,2.58,0,0,1-.25,1.53,2.51,2.51,0,0,1-1.2,1.26.94.94,0,0,0,.49.74c.59.28,1.45-.28,1.91-1.26S41.49,130.44,40.89,130.16Z"/><path class="cls-2" d="M53,123.77a.86.86,0,0,0-.7,0,2.64,2.64,0,0,1-.25,1.53,2.51,2.51,0,0,1-1.2,1.26.94.94,0,0,0,.49.74c.59.28,1.45-.28,1.91-1.26S53.64,124.05,53,123.77Z"/><path class="cls-2" d="M47.78,121.86a1.18,1.18,0,0,0-.62-.09,3.39,3.39,0,0,1-.22,2.71,3.19,3.19,0,0,1-2.19,2,1.22,1.22,0,0,0,.58.64c.87.41,2.13-.42,2.81-1.86S48.65,122.28,47.78,121.86Z"/><polygon class="cls-3" points="38.42 139.8 43.4 137.19 43.4 139.22 38.42 141.83 38.42 139.8"/><polygon class="cls-3" points="48.31 134.64 53.28 132.03 53.28 134.06 48.31 136.66 48.31 134.64"/><ellipse class="cls-4" cx="52.08" cy="125.61" rx="2.51" ry="1.71" transform="translate(-83.71 132.6) rotate(-70.43)"/><ellipse class="cls-4" cx="52.09" cy="125.62" rx="0.69" ry="0.47" transform="translate(-83.73 132.62) rotate(-70.43)"/><ellipse class="cls-4" cx="39.95" cy="132.01" rx="2.51" ry="1.71" transform="translate(-97.81 125.43) rotate(-70.43)"/><ellipse class="cls-4" cx="39.96" cy="132.03" rx="0.69" ry="0.47" transform="translate(-97.83 125.44) rotate(-70.43)"/><path class="cls-1" d="M42.63,107s0-2.19,0-5h0l0-10a12.79,12.79,0,0,0-.27-1.84c0-.09,0-.18-.07-.28s0-.11,0-.17,0-.18-.08-.27a7.83,7.83,0,0,0-.37-.93c-1.12-2.23-3-3.5-4.47-3.5a3,3,0,0,0-.42,0,12.74,12.74,0,0,1,2.06-.51c1.5,0,3.35,1.26,4.46,3.5a9.87,9.87,0,0,1,.84,3.48l0,10h0c0,2.75,0,4.92,0,4.94a3.12,3.12,0,0,1-1.33,2.86,14.94,14.94,0,0,1-1.82.55l.19-.08A3.1,3.1,0,0,0,42.63,107Z"/><path class="cls-2" d="M34.91,88.12s.07,15,.07,15a10.07,10.07,0,0,0,.83,3.48c1.12,2.24,3,3.51,4.47,3.5a2.31,2.31,0,0,0,.83-.15l.19-.08A3.1,3.1,0,0,0,42.63,107s-.07-15-.07-15a12.79,12.79,0,0,0-.27-1.84c0-.09,0-.18-.07-.28s0-.11,0-.17,0-.18-.08-.27a7.83,7.83,0,0,0-.37-.93c-1.12-2.23-3-3.5-4.47-3.5a3,3,0,0,0-.42,0,2.47,2.47,0,0,0-.6.19A3.12,3.12,0,0,0,34.91,88.12Zm2.58,14.4c.9-.43,2.2.42,2.9,1.91s.55,3-.35,3.46-2.21-.43-2.91-1.91S36.58,102.94,37.49,102.52Zm2.09-3c-.61.29-1.5-.29-2-1.3s-.37-2.06.24-2.35,1.5.29,2,1.3S40.19,99.21,39.58,99.5ZM37.31,87.6c.9-.43,2.2.42,2.9,1.91s.55,3-.35,3.46-2.2-.43-2.91-1.91S36.41,88,37.31,87.6Z"/><path class="cls-1" d="M37.49,102.52a1,1,0,0,1,.63-.1,3.51,3.51,0,0,0,.24,2.79,3.27,3.27,0,0,0,2.28,2,1.32,1.32,0,0,1-.6.67c-.9.43-2.21-.43-2.91-1.91S36.58,102.94,37.49,102.52Z"/><path class="cls-2" d="M37.84,95.85a.91.91,0,0,1,.74,0,2.62,2.62,0,0,0,.26,1.59,2.53,2.53,0,0,0,1.25,1.29,1,1,0,0,1-.51.77c-.61.29-1.5-.29-2-1.3S37.23,96.14,37.84,95.85Z"/><path class="cls-1" d="M37.31,87.6a1,1,0,0,1,.63-.1,3.48,3.48,0,0,0,.25,2.79,3.24,3.24,0,0,0,2.27,2,1.32,1.32,0,0,1-.6.67c-.9.43-2.2-.43-2.91-1.91S36.41,88,37.31,87.6Z"/><ellipse class="cls-4" cx="38.84" cy="98.05" rx="1.77" ry="2.59" transform="translate(-41.27 29.46) rotate(-27.82)"/><ellipse class="cls-4" cx="38.84" cy="98.07" rx="0.49" ry="0.71" transform="translate(-41.28 29.47) rotate(-27.82)"/><path class="cls-1" d="M7.51,157.26s0-2.15.06-4.87h0l.12-9.86a13.51,13.51,0,0,0-.24-1.81l-.06-.27,0-.17a2.68,2.68,0,0,0-.07-.27,6.73,6.73,0,0,0-.35-.92c-1.06-2.21-2.85-3.49-4.34-3.51a2.73,2.73,0,0,0-.41,0,13.81,13.81,0,0,1,2-.48c1.48,0,3.27,1.3,4.34,3.52a9.74,9.74,0,0,1,.76,3.44L9.19,152h0c0,2.71-.06,4.85-.06,4.87a3,3,0,0,1-1.35,2.78,15.52,15.52,0,0,1-1.8.52l.18-.07A3.07,3.07,0,0,0,7.51,157.26Z"/><path class="cls-2" d="M.22,138.57S.05,153.3.05,153.3a9.91,9.91,0,0,0,.76,3.44c1.07,2.22,2.86,3.5,4.35,3.52a2.28,2.28,0,0,0,.82-.14l.18-.07a3.07,3.07,0,0,0,1.35-2.79s.18-14.73.18-14.73a13.51,13.51,0,0,0-.24-1.81l-.06-.27,0-.17a2.68,2.68,0,0,0-.07-.27,6.73,6.73,0,0,0-.35-.92c-1.06-2.21-2.85-3.49-4.34-3.51a2.73,2.73,0,0,0-.41,0,2.08,2.08,0,0,0-.6.18A3.06,3.06,0,0,0,.22,138.57Zm2.3,14.22c.9-.41,2.17.45,2.84,1.93s.48,3-.41,3.4-2.16-.46-2.83-1.93S1.63,153.19,2.52,152.79Zm2.11-2.94c-.6.28-1.47-.31-1.92-1.31s-.33-2,.27-2.31,1.47.31,1.93,1.31S5.24,149.58,4.63,149.85Zm-2-11.75c.9-.41,2.17.46,2.84,1.93s.48,3-.41,3.4S2.85,143,2.18,141.5,1.69,138.51,2.58,138.1Z"/><path class="cls-1" d="M2.52,152.79a1.13,1.13,0,0,1,.63-.09,3.43,3.43,0,0,0,.2,2.75,3.2,3.2,0,0,0,2.2,2,1.32,1.32,0,0,1-.6.65c-.89.4-2.16-.46-2.83-1.93S1.63,153.19,2.52,152.79Z"/><path class="cls-2" d="M3,146.23a.87.87,0,0,1,.72,0,2.58,2.58,0,0,0,.24,1.56,2.46,2.46,0,0,0,1.2,1.29,1,1,0,0,1-.51.75c-.6.28-1.47-.31-1.92-1.31S2.38,146.5,3,146.23Z"/><path class="cls-1" d="M2.58,138.1a1.23,1.23,0,0,1,.63-.09,3.49,3.49,0,0,0,.2,2.76,3.2,3.2,0,0,0,2.2,2,1.24,1.24,0,0,1-.6.65c-.89.41-2.16-.46-2.83-1.93S1.69,138.51,2.58,138.1Z"/><ellipse class="cls-4" cx="3.93" cy="148.41" rx="1.74" ry="2.55" transform="translate(-66.73 17.84) rotate(-26.9)"/><ellipse class="cls-4" cx="3.92" cy="148.43" rx="0.48" ry="0.7" transform="translate(-66.74 17.84) rotate(-26.9)"/><path class="cls-1" d="M7.53,121l.2-14.55a12.79,12.79,0,0,0-.23-1.78,2.61,2.61,0,0,0-.06-.27,1,1,0,0,0,0-.17,2.68,2.68,0,0,0-.07-.27A6.94,6.94,0,0,0,7,103c-1-2.18-2.8-3.44-4.26-3.46a1.89,1.89,0,0,0-.41,0,13.6,13.6,0,0,1,2-.47c1.46,0,3.22,1.29,4.26,3.47A9.44,9.44,0,0,1,9.32,106l-.18,14.31Z"/><path class="cls-2" d="M.4,102.52S.2,117,.2,117l7.32,4,.21-14.54a12.79,12.79,0,0,0-.23-1.78,2.61,2.61,0,0,0-.06-.27,1,1,0,0,0,0-.17,2.68,2.68,0,0,0-.07-.27A6.94,6.94,0,0,0,7,103c-1-2.18-2.8-3.44-4.26-3.46a1.89,1.89,0,0,0-.41,0,1.94,1.94,0,0,0-.58.17A3,3,0,0,0,.4,102.52Zm4.31,11.1c-.6.27-1.44-.31-1.89-1.3s-.32-2,.28-2.27,1.44.31,1.89,1.29S5.31,113.35,4.71,113.62Zm-2-11.56c.88-.4,2.12.45,2.78,1.9S6,106.9,5.1,107.3s-2.13-.45-2.78-1.9S1.85,102.45,2.73,102.06Z"/><path class="cls-2" d="M3.1,110.05a.86.86,0,0,1,.7,0A2.62,2.62,0,0,0,4,111.6a2.45,2.45,0,0,0,1.18,1.28,1,1,0,0,1-.5.74c-.6.27-1.44-.31-1.89-1.3S2.5,110.32,3.1,110.05Z"/><path class="cls-1" d="M2.73,102.06a1.16,1.16,0,0,1,.61-.09,3.41,3.41,0,0,0,.19,2.71,3.17,3.17,0,0,0,2.16,2,1.21,1.21,0,0,1-.59.63c-.88.4-2.13-.45-2.78-1.9S1.85,102.45,2.73,102.06Z"/><polygon class="cls-4" points="6.31 117.48 1.38 114.79 1.35 116.82 6.28 119.51 6.31 117.48"/><ellipse class="cls-4" cx="3.67" cy="111.72" rx="1.71" ry="2.51" transform="translate(-41.47 9.46) rotate(-21.94)"/><ellipse class="cls-4" cx="3.67" cy="111.74" rx="0.47" ry="0.69" transform="translate(-41.48 9.46) rotate(-21.94)"/><path class="cls-1" d="M72.41,94,70.55,79.57a11.94,11.94,0,0,0-.47-1.73c0-.09-.07-.17-.1-.26a1.11,1.11,0,0,0-.07-.16,1.83,1.83,0,0,0-.11-.26,5.26,5.26,0,0,0-.46-.84c-1.34-2-3.26-3-4.7-2.83a2.35,2.35,0,0,0-.4.09,12.55,12.55,0,0,1,1.91-.74c1.45-.19,3.37.82,4.71,2.83a9.59,9.59,0,0,1,1.21,3.25l1.84,14.19Z"/><path class="cls-2" d="M62.75,76.73s1.84,14.36,1.84,14.36L72.4,94,70.55,79.57a11.94,11.94,0,0,0-.47-1.73c0-.09-.07-.17-.1-.26a1.11,1.11,0,0,0-.07-.16,1.83,1.83,0,0,0-.11-.26,5.26,5.26,0,0,0-.46-.84c-1.34-2-3.26-3-4.7-2.83a2.35,2.35,0,0,0-.4.09,2.18,2.18,0,0,0-.56.25A3,3,0,0,0,62.75,76.73Zm5.83,10.38c-.55.35-1.47-.1-2-1s-.61-1.94,0-2.29,1.47.1,2,1S69.13,86.76,68.58,87.11ZM65,76c.82-.52,2.17.15,3,1.49s.89,2.85.07,3.37-2.17-.15-3-1.5S64.17,76.47,65,76Z"/><path class="cls-2" d="M66.48,83.81a.84.84,0,0,1,.7-.08,2.62,2.62,0,0,0,.44,1.48A2.46,2.46,0,0,0,69,86.31a1,1,0,0,1-.39.8c-.55.35-1.47-.1-2-1S65.92,84.16,66.48,83.81Z"/><path class="cls-1" d="M65,76a1,1,0,0,1,.6-.17,3.4,3.4,0,0,0,.57,2.65,3.15,3.15,0,0,0,2.42,1.66,1.22,1.22,0,0,1-.5.72c-.81.51-2.17-.15-3-1.5S64.17,76.47,65,76Z"/><polygon class="cls-4" points="70.71 90.71 65.45 88.75 65.7 90.76 70.97 92.72 70.71 90.71"/><ellipse class="cls-4" cx="67.28" cy="85.38" rx="1.71" ry="2.51" transform="matrix(0.87, -0.5, 0.5, 0.87, -33.72, 45.19)"/><ellipse class="cls-4" cx="67.28" cy="85.4" rx="0.47" ry="0.69" transform="translate(-33.73 45.19) rotate(-30.06)"/></g></g></svg>