<svg xmlns="http://www.w3.org/2000/svg" viewBox="0 0 298.68 474.02"><defs><style>.cls-1{fill:#1b6d6d;}</style></defs><title>lartaamanLogo-new</title><g id="Layer_2" data-name="Layer 2"><g id="Layer_1-2" data-name="Layer 1"><circle class="cls-1" cx="241.06" cy="43.65" r="43.65"/><path class="cls-1" d="M238.45,413.73l-5.77,59.87H279S259.28,461,259.55,460.08C277.08,397.66,368.1,100.24,192.24,93,152.45,91.31,91.57,108.12,57.4,163.38c28.2-33.42,51.68-46.27,90.87-52.23,69.82-10.62,97.14,50.14,95,107.58-3.11,85.5-46.41,184.62-141,193.23C48.4,416.87,9.35,367.05,39.5,314c36-63.38,151.73-71.19,151.73-71.19C94.3,241.36,7.54,283,.3,368.79S120.06,531.74,238.45,413.73Z"/></g></g></svg>