<svg xmlns="http://www.w3.org/2000/svg" viewBox="0 0 26.62 38.45"><defs><style>.cls-1{fill:#328372;stroke:#000;}.cls-1,.cls-2{stroke-linecap:round;stroke-linejoin:round;stroke-width:0.1px;}.cls-2{fill:#51a090;stroke:#231f20;}</style></defs><g id="Layer_2" data-name="Layer 2"><g id="Layer_1-2" data-name="Layer 1"><path class="cls-1" d="M17.08,4.46a1.48,1.48,0,0,0-1.23,0,5.4,5.4,0,0,1-.59,3.08A5.11,5.11,0,0,1,13,10.06a1.62,1.62,0,0,0,.77,1.25c1,.49,2.59-.63,3.52-2.52S18.1,5,17.08,4.46Z"/><path class="cls-1" d="M15.7.16C11.62-.66,9.08,3.45,9.08,3.45L.49,17.93a2.15,2.15,0,0,0-.32,1.13L.05,37.12,2.5,38.35l.12-18L13,3.89l6.2-1.78Z"/><path class="cls-2" d="M25.83,6.12,19.07,2a4.61,4.61,0,0,0-4.85,0,9.7,9.7,0,0,0-2.7,2.71L2.93,19.2a2.23,2.23,0,0,0-.31,1.13L2.5,38.4,26.56,25.05V7.44A1.5,1.5,0,0,0,25.83,6.12ZM17.22,8.73c-.91,1.86-2.46,3-3.47,2.48S12.67,8.81,13.58,7s2.47-3,3.47-2.49S18.13,6.86,17.22,8.73Z"/><polygon class="cls-1" points="4.58 35.16 4.6 32.68 11.05 29.02 11.03 31.48 4.58 35.16"/><polygon class="cls-1" points="18.85 27.43 18.87 24.95 24.38 21.88 24.37 24.33 18.85 27.43"/><path class="cls-1" d="M8.42,21.36c-.42.88-1.15,1.41-1.62,1.18s-.51-1.12-.09-2,1.15-1.41,1.62-1.18S8.84,20.48,8.42,21.36Z"/><path class="cls-1" d="M23.34,11.51c-.42.88-1.15,1.41-1.62,1.18s-.52-1.12-.1-2,1.15-1.41,1.63-1.18S23.76,10.63,23.34,11.51Z"/></g></g></svg>