<svg xmlns="http://www.w3.org/2000/svg" xmlns:xlink="http://www.w3.org/1999/xlink" width="328.638" height="486" viewBox="0 0 328.638 486"><defs><style>.a{fill:url(#a);}.b{fill:url(#b);}</style><linearGradient id="a" x1="-0.102" y1="-0.05" x2="1.198" y2="1.138" gradientUnits="objectBoundingBox"><stop offset="0.355" stop-color="#04634c"/><stop offset="0.654" stop-color="#39a95e"/><stop offset="1" stop-color="#d6dc67"/></linearGradient><linearGradient id="b" x1="1.257" y1="1.129" x2="-0.094" y2="0.091" xlink:href="#a"/></defs><g transform="translate(-133.579 -172.001)"><circle class="a" cx="48.851" cy="48.851" r="48.851" transform="translate(327.583 172.001)"/><path class="b" d="M425.285,417.952c0-74.173-14.216-151.2-127.387-151.2-50.138,0-100.668,28.95-120.141,70.526,40.146-17.795,70.8-21.006,98.932-19.1,64.973,4.4,79.991,47.031,81.592,78.3l-.654,128.471A70.185,70.185,0,0,1,353.8,546.36c-10.7,31.349-41.3,60.846-89.466,61.939-37,.839-75.224-32.3-72.58-84.629,1.53-30.291,17.68-54.3,48.672-79.528,53.647-43.661,102.87-58.871,102.87-58.871-58.348,1.254-114.714,20.692-146.929,45.058C154,462.374,133.579,508.444,133.579,551.712c0,53.527,38.234,106.289,113.17,106.289,52.762,0,92.526-26,113.171-55.058l-.651,54.945H462.217c-1.641-9.023-37.3-31.938-37.3-31.938Z"/></g></svg>