<svg xmlns="http://www.w3.org/2000/svg" width="113.386" height="113.386" viewBox="0 0 113.386 113.386">
  <g id="Group_3" data-name="Group 3" transform="translate(-0.874 -0.654)">
    <path id="Path_1" data-name="Path 1" d="M57.567.654A56.693,56.693,0,1,0,114.26,57.347,56.694,56.694,0,0,0,57.567.654Z" fill="#2b6859"/>
    <path id="Path_2" data-name="Path 2" d="M57.567,9.747a47.6,47.6,0,1,0,47.6,47.6A47.6,47.6,0,0,0,57.567,9.747Z" fill="#febf50"/>
    <path id="Path_3" data-name="Path 3" d="M57.567,18.417A38.93,38.93,0,1,0,96.5,57.347,38.931,38.931,0,0,0,57.567,18.417Z" fill="#fff"/>
    <g id="Group_2" data-name="Group 2">
      <circle id="Ellipse_1" data-name="Ellipse 1" cx="5.676" cy="5.676" r="5.676" transform="translate(60.016 26.478)" fill="#464749"/>
      <g id="Group_1" data-name="Group 1">
        <path id="Path_4" data-name="Path 4" d="M71.368,55.7c0-8.618-1.652-17.568-14.8-17.568-5.826,0-11.7,3.363-13.96,8.194A23.127,23.127,0,0,1,54.1,44.1c7.55.511,9.295,5.464,9.481,9.1l-.076,14.927a8.144,8.144,0,0,1-.445,2.488,10.862,10.862,0,0,1-10.4,7.2c-4.3.1-8.741-3.753-8.433-9.833.177-3.52,2.054-6.31,5.655-9.241A39.7,39.7,0,0,1,61.842,51.9c-6.78.146-13.329,2.4-17.072,5.235a17.8,17.8,0,0,0-7.3,14.1c0,6.22,4.443,12.35,13.15,12.35a16.017,16.017,0,0,0,13.149-6.4L63.7,83.576H75.659c-.191-1.049-4.333-3.711-4.333-3.711Z" fill="#464749"/>
      </g>
    </g>
  </g>
</svg>
