<svg xmlns="http://www.w3.org/2000/svg" viewBox="0 0 86.52 84.78"><defs><style>.cls-1{fill:#1b6d6d;stroke:#231f20;}.cls-1,.cls-2{stroke-linecap:round;stroke-linejoin:round;stroke-width:0.5px;}.cls-2{fill:none;stroke:#fff;}</style></defs><g id="Layer_2" data-name="Layer 2"><g id="Layer_1-2" data-name="Layer 1"><path class="cls-1" d="M51.4,62.13s0,0,0,0c0-1-10.64-1.77-24-1.83l0-49.81a5.12,5.12,0,0,1-2,.11A6.36,6.36,0,0,1,23.5,10V60.29c-13,.08-23.25.86-23.25,1.82,0,.06.14,20.55.14,20.59,0,1,11.42,1.83,25.51,1.83s25.51-.82,25.51-1.83a.23.23,0,0,0-.06-.12h0Z"/><path class="cls-1" d="M32,5.55a5.41,5.41,0,0,1-.63,2.14,3.66,3.66,0,0,1-1.19,1.4L54.62,27.25a9.74,9.74,0,0,1,.89-1.86,5.2,5.2,0,0,1,1.3-1.3Z"/><path class="cls-1" d="M86.27,27.62l-.56-3.82L65.84,26.69a7.48,7.48,0,0,1,.65,1.81,4.34,4.34,0,0,1,0,2Z"/><path class="cls-1" d="M26,8.5a4.13,4.13,0,1,0-4.12-4.13A4.13,4.13,0,0,0,26,8.5Z"/><path class="cls-1" d="M60.45,24.76a4.13,4.13,0,1,0,4.12,4.13A4.13,4.13,0,0,0,60.45,24.76Z"/><line class="cls-2" x1="1.51" y1="63.38" x2="1.51" y2="79.29"/><path class="cls-2" d="M41.93,61.86s5.31,0,8.34,1V77.78"/><line class="cls-2" x1="24.38" y1="11.56" x2="24.38" y2="59.59"/></g></g></svg>