<svg xmlns="http://www.w3.org/2000/svg" viewBox="0 0 89.94 101.92"><defs><style>.cls-1{fill:#1b6d6d;stroke:#231f20;}.cls-1,.cls-2{stroke-linecap:round;stroke-linejoin:round;stroke-width:0.5px;}.cls-2{fill:none;stroke:#fff;}</style></defs><g id="Layer_2" data-name="Layer 2"><g id="Layer_1-2" data-name="Layer 1"><path class="cls-1" d="M89.67,101.49a10.93,10.93,0,0,0-1.3-3.68c-1.47-2.29-3.61-3.45-5.24-3.27a3.08,3.08,0,0,0-.5.13l0-.5-.06-.55-1-9.19a4.07,4.07,0,0,0,.58-.52,3.75,3.75,0,0,0,1.31.12,2.64,2.64,0,0,0,.88-.26h0a18.92,18.92,0,0,0,2-.82,3.69,3.69,0,0,0,1.17-3.39s-1.86-16.21-1.86-16.21L78.8,60.8,78.48,58h.09C80.2,57.82,82,56.22,83,53.67a10.91,10.91,0,0,0,.47-3.87s-1.76-16.16-1.77-16.2a3.38,3.38,0,0,0-1.78-2.92,2.15,2.15,0,0,0-.67-.13,14,14,0,0,0-2.29-.31c-.11,0-.23.05-.35.07a5.11,5.11,0,0,0-2.65-.91,2.46,2.46,0,0,0-1.26-1.19,22.9,22.9,0,0,0-3-.44c-1.63.17-3.47,1.78-4.4,4.33a9.12,9.12,0,0,0-.46,2.38l-6.46,2A43.73,43.73,0,0,0,55,32.05a2.88,2.88,0,0,0-2.76-.86l-1.92,1c-1-1.43-2-2.64-2.59-3.27A2.66,2.66,0,0,0,45.14,28V25.49a5,5,0,0,0,.94-.73,3,3,0,0,0,.82.12,2.49,2.49,0,0,0,.91-.16h0a15.58,15.58,0,0,0,2-.6,3.68,3.68,0,0,0,1.54-3.23s-.08-16.33-.08-16.33L42.85.25,41.15,1h0V2L36.58,4l-.78-.39-1.7.72h0l0,16.29a10.62,10.62,0,0,0,.89,3.8c1.21,2.43,3.21,3.82,4.85,3.82h.06v2.5l-9.13,4.75a5.21,5.21,0,0,0-2.15,2.09L23.09,47.91s-.07.14-.15.35L16,49.6a6.67,6.67,0,0,0-1.26-.33,2.54,2.54,0,0,0-.77.07,5.18,5.18,0,0,0-2-1,2.62,2.62,0,0,0-1.17-1.72,2.48,2.48,0,0,0-.64-.24,3.4,3.4,0,0,0-.46-.06c-.2,0-1.46-.58-1.75-.59-1.64-.08-3.71,1.22-5,3.6a10.73,10.73,0,0,0-1.07,3.75L1.42,64h0c-.13,3-.24,5.35-.25,5.38A3.39,3.39,0,0,0,2.49,72.5a17.38,17.38,0,0,0,2,.69,2.46,2.46,0,0,0,.9.2,3.15,3.15,0,0,0,.8-.08,4.67,4.67,0,0,0,.77.64L6.67,79.6l0,.55,0,1.12v.21l-2.36.78L2.71,81.4,1,82H1L.25,98.31a11.75,11.75,0,0,0,.53,3.36H16.9a4.73,4.73,0,0,0,.58-2.06s.67-16.31.67-16.31l-6.26-3.56.12-2.8h.08c1.64.07,3.71-1.23,5-3.6a10.92,10.92,0,0,0,1.06-3.75s.54-11.64.71-15.23l5.76-1.12.54-.11.42-.08,4.31,1.35a1.15,1.15,0,0,0,.14.17,8.29,8.29,0,0,0,2.1,1.33l8.09,2.57V70a5,5,0,0,0-.87.64l-.31,0a15.21,15.21,0,0,0-2.24.55,2.36,2.36,0,0,0-.65.21,3.38,3.38,0,0,0-1.46,3.1s0,16.29,0,16.29a10.84,10.84,0,0,0,.89,3.8c1.14,2.3,3,3.65,4.57,3.79v3.37h5.23l0-6.91a4.39,4.39,0,0,0,.5-.34,3.55,3.55,0,0,0,1.41.32,2.53,2.53,0,0,0,.91-.16h0a17.83,17.83,0,0,0,2-.6,3.38,3.38,0,0,0,1.46-3.1s0-2.38,0-5.38h0V74.59a10.62,10.62,0,0,0-.89-3.8C49.58,68.36,47.58,67,45.94,67a2.14,2.14,0,0,0-.45.07h0v-.55l0-8a10.76,10.76,0,0,0,1.86-1.62L58.77,44.09a9.47,9.47,0,0,0,1.34-2.67l5.15-1.59.76,7h0c.33,3,.58,5.33.59,5.36a3.39,3.39,0,0,0,1.78,2.92,15.89,15.89,0,0,0,2,.38h0a2.8,2.8,0,0,0,.92.06,3.2,3.2,0,0,0,.78-.2,5.63,5.63,0,0,0,.85.51l.64,5.62.06.55.13,1.11,0,.21-2.21,1.13L70,63.84l-1.61.91h0l1.79,16.19a10.77,10.77,0,0,0,1.31,3.67C72.91,86.86,75,88,76.62,87.89l.7,6.32.07.54.32,2.89a4.93,4.93,0,0,0-.49.42,2.9,2.9,0,0,0-.72,0,14.5,14.5,0,0,0-2.16.79h0a2.38,2.38,0,0,0-.63.28,3,3,0,0,0-1.13,2.55H75c.06,0,2,0,2,0H89.69Z"/><line class="cls-2" x1="34.8" y1="4.99" x2="34.8" y2="20.52"/><line class="cls-2" x1="35.62" y1="74.71" x2="35.62" y2="90.12"/><path class="cls-2" d="M69.92,28.42s-3.29.44-4.36,5.81"/><path class="cls-2" d="M8.09,46.48S2.34,46.48,2.65,57"/></g></g></svg>