<svg xmlns="http://www.w3.org/2000/svg" viewBox="0 0 98.25 67.56"><defs><style>.cls-1{fill:#1b6d6d;stroke:#231f20;}.cls-1,.cls-2{stroke-linecap:round;stroke-linejoin:round;stroke-width:0.5px;}.cls-2{fill:none;stroke:#fff;}</style></defs><g id="Layer_2" data-name="Layer 2"><g id="Layer_1-2" data-name="Layer 1"><path class="cls-1" d="M95.84,25.3,77.74,1.49A3.14,3.14,0,0,0,75.24.25H23a3.12,3.12,0,0,0-2.49,1.24L2.41,25.3A10.57,10.57,0,0,0,4.89,40.45L40.75,64.74a14.9,14.9,0,0,0,16.74,0L93.35,40.45A10.57,10.57,0,0,0,95.84,25.3ZM13.63,39.2A8.35,8.35,0,1,1,22,30.85,8.35,8.35,0,0,1,13.63,39.2ZM34.82,4H64v6.12H34.82ZM52.3,19.81V39.36H47.86V19.81ZM36.11,30.92,34.43,33v6.38H30.05V19.81h4.38v8.64h.09c.43-.75.9-1.45,1.33-2.14l4.44-6.5h5.42l-6.46,8.32,6.81,11.23H40.9Zm13,32.65a8.35,8.35,0,1,1,8.35-8.35A8.35,8.35,0,0,1,49.13,63.57Zm20.54-40H64.34V39.36H59.9V23.52H54.65V19.81h15ZM84.92,39.2a8.35,8.35,0,1,1,8.35-8.35A8.35,8.35,0,0,1,84.92,39.2Z"/><line class="cls-2" x1="21.37" y1="2.52" x2="6.21" y2="22.48"/><path class="cls-2" d="M91.6,22l4,5.55a8.87,8.87,0,0,1,.38,7.9"/><path class="cls-2" d="M42.09,47.74a10.77,10.77,0,0,0-2.78,9.35"/></g></g></svg>