<svg xmlns="http://www.w3.org/2000/svg" viewBox="0 0 80.71 65.25"><defs><style>.cls-1{fill:#1b6d6d;stroke:#231f20;}.cls-1,.cls-2{stroke-linecap:round;stroke-linejoin:round;stroke-width:0.5px;}.cls-2{fill:none;stroke:#fff;}</style></defs><g id="Layer_2" data-name="Layer 2"><g id="Layer_1-2" data-name="Layer 1"><path class="cls-1" d="M64.63,32.7v0l-49.71.15a16.1,16.1,0,0,0,0,32.07L64.63,65a16.15,16.15,0,0,0,0-32.3ZM17.72,59.88a11,11,0,1,1,11-11A11,11,0,0,1,17.72,59.88Zm22.64-6.34a4.72,4.72,0,1,1,4.71-4.71A4.71,4.71,0,0,1,40.36,53.54Zm22.58,6.34a11,11,0,1,1,11-11A11,11,0,0,1,62.94,59.88Z"/><path class="cls-2" d="M11.4,34.57A15.47,15.47,0,0,0,1.86,45.28"/><path class="cls-2" d="M69,63.39a16,16,0,0,0,10-11"/><path class="cls-2" d="M40.15,54.51a5.43,5.43,0,0,1-5.52-5.35"/><path class="cls-1" d="M65.8.25A12.07,12.07,0,0,0,54.74,7.47H26a12.09,12.09,0,1,0,0,9.74H54.74A12.09,12.09,0,1,0,65.8.25Z"/><path class="cls-2" d="M11.19,1.68A11.26,11.26,0,0,0,4.06,9.35"/><path class="cls-2" d="M57.8,4.5a11.24,11.24,0,0,0-3,9.84"/><path class="cls-2" d="M70,22.41a11.2,11.2,0,0,0,6.72-7.79"/><path class="cls-2" d="M21.66,21.11a11.48,11.48,0,0,0,4.43-9.67"/></g></g></svg>