<?xml version="1.0" encoding="utf-8"?>
<!-- Generator: Adobe Illustrator 25.2.1, SVG Export Plug-In . SVG Version: 6.00 Build 0)  -->
<svg version="1.1" id="Layer_3" xmlns="http://www.w3.org/2000/svg" xmlns:xlink="http://www.w3.org/1999/xlink" x="0px" y="0px"
	 viewBox="0 0 419.53 595.28" style="enable-background:new 0 0 419.53 595.28;" xml:space="preserve">
<style type="text/css">
	.st0{fill:#1B6D6D;}
</style>
<g>
	<g>
		<path class="st0" d="M206.09,102.21c-18.73,0-34.38,13.17-38.21,30.75v16.72c3.83,17.58,19.48,30.75,38.21,30.75
			c21.6,0,39.11-17.51,39.11-39.11S227.69,102.21,206.09,102.21z"/>
	</g>
	<g>
		<path class="st0" d="M222.64,514.45c15.51-55.25,95.3-316.04-54.75-328.59v22.1c29.54,15.54,41.54,53.63,40.21,90.24
			c-1.56,42.84-14.39,89.5-40.21,123.66v80.3c11.93-7.7,23.94-17.36,35.85-29.24l-5.17,53.64h41.49
			C240.06,526.56,222.4,515.29,222.64,514.45z"/>
	</g>
</g>
</svg>
