<?xml version="1.0" encoding="utf-8"?>
<!-- Generator: Adobe Illustrator 25.2.1, SVG Export Plug-In . SVG Version: 6.00 Build 0)  -->
<svg version="1.1" id="Layer_3" xmlns="http://www.w3.org/2000/svg" xmlns:xlink="http://www.w3.org/1999/xlink" x="0px" y="0px"
	 viewBox="0 0 419.53 595.28" style="enable-background:new 0 0 419.53 595.28;" xml:space="preserve">
<style type="text/css">
	.st0{fill:#1B6D6D;}
</style>
<g>
	<g>
		<path d="M193.98,102.21c-10.03,0-19.17,3.78-26.09,9.98v58.26c6.92,6.2,16.06,9.98,26.09,9.98c21.6,0,39.11-17.51,39.11-39.11
			S215.58,102.21,193.98,102.21z"/>
		<path d="M206.94,514.45c15.35-54.67,104.16-306.38-39.05-323.76v26.41c19.27,17.96,25.65,49.78,24.51,81.1
			c-1.2,33.04-9.11,68.35-24.51,98.45v94.24c6.73-5.32,13.46-11.3,20.15-17.98l-5.17,53.64h41.49
			C224.36,526.56,206.7,515.29,206.94,514.45z"/>
	</g>
	<g>
		<g>
			<path class="st0" d="M206.09,102.21c-18.73,0-34.38,13.17-38.21,30.75v16.72c3.83,17.58,19.48,30.75,38.21,30.75
				c21.6,0,39.11-17.51,39.11-39.11S227.69,102.21,206.09,102.21z"/>
		</g>
		<g>
			<path class="st0" d="M222.64,514.45c15.51-55.25,95.3-316.04-54.75-328.59v22.1c29.54,15.54,41.54,53.63,40.21,90.24
				c-1.56,42.84-14.39,89.5-40.21,123.66v80.3c11.93-7.7,23.94-17.36,35.85-29.24l-5.17,53.64h41.49
				C240.06,526.56,222.4,515.29,222.64,514.45z"/>
		</g>
	</g>
</g>
</svg>
