<svg xmlns="http://www.w3.org/2000/svg" viewBox="0 0 316.2 474.02"><defs><style>.cls-1{fill:#231f20;}.cls-2{fill:#1b6d6d;}</style></defs><g id="Layer_2" data-name="Layer 2"><g id="Layer_1-2" data-name="Layer 1"><circle class="cls-1" cx="245.08" cy="43.65" r="43.65" transform="translate(40.92 186.08) rotate(-45)"/><path class="cls-1" d="M238.46,413.73l-5.78,59.87H279S259.28,461,259.55,460.08c17.52-62.42,120.85-355-55-362.25-39.79-1.65-96.7,10.42-130.87,65.68,28.2-33.42,42.16-44.57,81.35-50.53,69.82-10.61,90.39,48.31,88.3,105.76-3.11,85.5-46.42,184.61-141,193.23-53.92,4.91-93-44.91-62.81-98,36-63.39,151.73-71.19,151.73-71.19C94.3,241.37,7.54,283,.3,368.8S120.07,531.74,238.46,413.73Z"/><circle class="cls-2" cx="258.6" cy="43.65" r="43.65" transform="translate(44.88 195.65) rotate(-45)"/><path class="cls-2" d="M256,413.73l-5.77,59.87h46.31S276.81,461,277.07,460.08C294.6,397.67,385.62,100.24,209.76,93,170,91.31,109.08,108.12,74.92,163.38c28.2-33.42,51.68-46.27,90.87-52.22,69.82-10.62,97.14,50.13,95,107.58-3.11,85.5-46.41,184.62-141,193.23-53.91,4.91-93-44.91-62.81-98,36-63.39,151.73-71.19,151.73-71.19C111.82,241.37,25.07,283,17.82,368.8S137.59,531.74,256,413.73Z"/></g></g></svg>