<svg xmlns="http://www.w3.org/2000/svg" viewBox="0 0 97.3 97"><defs><style>.cls-1,.cls-2{fill:#1b6d6d;}.cls-2{font-size:22px;font-family:MyriadPro-Bold, Myriad Pro;font-weight:700;}.cls-3{letter-spacing:-0.06em;}</style></defs><g id="Layer_2" data-name="Layer 2"><g id="Layer_1-2" data-name="Layer 1"><path class="cls-1" d="M90.37,63.52a4.13,4.13,0,0,0-4.13,4.13h0a4.13,4.13,0,1,0,4.13-4.13Z"/><path class="cls-1" d="M80.08,86.48a17.38,17.38,0,0,1-19.48,0L18.86,58.2A12.3,12.3,0,0,1,16,40.57L37,12.85a3.65,3.65,0,0,1,2.91-1.44H97V0H0V97H97V75Z"/><path class="cls-1" d="M61.89,73.92h0c0,6.65,7.67,11.51,14.64,6.2,5.31-7,.46-14.65-6.19-14.65A8.45,8.45,0,0,0,61.89,73.92Z"/><path class="cls-1" d="M31,39.43a8.46,8.46,0,0,0-8.46,8.45h0c0,6.65,7.68,11.5,14.65,6.2C42.5,47.1,37.65,39.43,31,39.43Z"/><path class="cls-1" d="M50.31,71.78a4.13,4.13,0,1,0-4.13-4.13h0A4.13,4.13,0,0,0,50.31,71.78Z"/><text class="cls-2" transform="translate(46.31 37.44)"><tspan class="cls-3">P</tspan><tspan x="11.46" y="0">ART</tspan></text></g></g></svg>