<svg xmlns="http://www.w3.org/2000/svg" viewBox="0 0 98 98"><defs><style>.cls-1{fill:#fff;stroke:#1b6d6d;stroke-miterlimit:10;}.cls-2{font-size:22px;fill:#1b6d6d;font-family:MyriadPro-Bold, Myriad Pro;font-weight:700;}.cls-3{letter-spacing:-0.06em;}</style></defs><g id="Layer_2" data-name="Layer 2"><g id="Layer_1-2" data-name="Layer 1"><path class="cls-1" d="M90.87,64a4.13,4.13,0,0,0-4.13,4.13h0A4.13,4.13,0,1,0,90.87,64Z"/><path class="cls-1" d="M80.58,87A17.38,17.38,0,0,1,61.1,87L19.36,58.7a12.3,12.3,0,0,1-2.89-17.63L37.53,13.35a3.65,3.65,0,0,1,2.91-1.44H97.5V.5H.5v97h97v-22Z"/><path class="cls-1" d="M62.39,74.42h0c0,6.65,7.67,11.51,14.64,6.2,5.31-7,.46-14.65-6.19-14.65A8.45,8.45,0,0,0,62.39,74.42Z"/><path class="cls-1" d="M31.5,39.93A8.46,8.46,0,0,0,23,48.38h0c0,6.65,7.68,11.5,14.65,6.2C43,47.6,38.15,39.93,31.5,39.93Z"/><path class="cls-1" d="M50.81,72.28a4.13,4.13,0,1,0-4.13-4.13h0A4.13,4.13,0,0,0,50.81,72.28Z"/><text class="cls-2" transform="translate(46.81 37.94)"><tspan class="cls-3">P</tspan><tspan x="11.46" y="0">ART</tspan></text></g></g></svg>