<svg xmlns="http://www.w3.org/2000/svg" viewBox="0 0 98 103.5"><defs><style>.cls-1{font-size:22px;fill:#1b6d6d;font-family:MyriadPro-Bold, Myriad Pro;font-weight:700;}.cls-2{letter-spacing:0em;}.cls-3{fill:#fff;stroke:#1b6d6d;stroke-miterlimit:10;}</style></defs><g id="Layer_2" data-name="Layer 2"><g id="Layer_1-2" data-name="Layer 1"><text class="cls-1" transform="translate(0.5 98)"><tspan class="cls-2">H</tspan><tspan x="15.09" y="0">older</tspan></text><path class="cls-3" d="M.5.5V73.71c4.65-.51,12.38-.86,21.3-.92V14a4.6,4.6,0,1,1,7.38-3.66c0,.11,0,.21,0,.32L61,33.63a4.47,4.47,0,0,1,2-.49A4.55,4.55,0,0,1,66.71,35l24.53-2.93.62,4.26-24.5,3a4.59,4.59,0,0,1-8.92-1.53,4.2,4.2,0,0,1,.06-.62L26.78,14.4a5.37,5.37,0,0,1-.69.31l0,58.07c15,.07,47.74,2.06,47.74,2.07V97.5H97.5V.5Z"/></g></g></svg>